<?xml version="1.0" encoding="utf-8" standalone="yes"?>
<!DOCTYPE svg PUBLIC "-//W3C//DTD SVG 1.1//EN" "http://www.w3.org/Graphics/SVG/1.1/DTD/svg11.dtd">
<svg width="1102" height="454" viewBox="0 0 1102 454" style="fill:none;stroke:none;fill-rule:evenodd;clip-rule:evenodd;stroke-linecap:round;stroke-linejoin:round;stroke-miterlimit:1.5;" version="1.1" xmlns="http://www.w3.org/2000/svg" xmlns:xlink="http://www.w3.org/1999/xlink"><style id="fontImports">@import url("https://fonts.googleapis.com/css2?family=Roboto:wght@400;700&amp;display=block");</style><g id="items" style="isolation: isolate"><g id="blend" style="mix-blend-mode:screen"><g id="g-root-ro_zp1u6y79b30h-fill" data-item-order="-23040" data-item-id="ro_zp1u6y79b30h" data-item-class="Shape Stroke Fill" data-item-index="none" data-renderer-id="0" transform="translate(651, 289)"><g id="ro_zp1u6y79b30h-fill" stroke="none" fill="#224754"><g><path d="M 22 10L 190 10C 190 10 202 10 202 22L 202 118C 202 118 202 130 190 130L 22 130C 22 130 10 130 10 118L 10 22C 10 22 10 10 22 10"></path></g></g></g><g id="g-root-ro_1lz9gre79gp3h-fill" data-item-order="-20160" data-item-id="ro_1lz9gre79gp3h" data-item-class="Shape Stroke Fill" data-item-index="none" data-renderer-id="0" transform="translate(427, 159)"><g id="ro_1lz9gre79gp3h-fill" stroke="none" fill="#224754"><g><path d="M 22 10L 166 10C 166 10 178 10 178 22L 178 118C 178 118 178 130 166 130L 22 130C 22 130 10 130 10 118L 10 22C 10 22 10 10 22 10"></path></g></g></g><g id="g-root-ro_1cu9lp679jgnb-fill" data-item-order="-17280" data-item-id="ro_1cu9lp679jgnb" data-item-class="Shape Stroke Fill" data-item-index="none" data-renderer-id="0" transform="translate(899, 243)"><g id="ro_1cu9lp679jgnb-fill" stroke="none" fill="#224754"><g><path d="M 22 10L 178 10C 178 10 190 10 190 22L 190 94C 190 94 190 106 178 106L 22 106C 22 106 10 106 10 94L 10 22C 10 22 10 10 22 10"></path></g></g></g><g id="g-root-ro_v63vh678zt39-fill" data-item-order="-12960" data-item-id="ro_v63vh678zt39" data-item-class="Shape Stroke Fill" data-item-index="none" data-renderer-id="0" transform="translate(899, 3)"><g id="ro_v63vh678zt39-fill" stroke="none" fill="#224754"><g><path d="M 22 10L 178 10C 178 10 190 10 190 22L 190 70C 190 70 190 82 178 82L 22 82C 22 82 10 82 10 70L 10 22C 10 22 10 10 22 10"></path></g></g></g><g id="g-root-ro_zrjtp6794171-fill" data-item-order="-12960" data-item-id="ro_zrjtp6794171" data-item-class="Shape Stroke Fill" data-item-index="none" data-renderer-id="0" transform="translate(899, 359)"><g id="ro_zrjtp6794171-fill" stroke="none" fill="#224754"><g><path d="M 22 10L 178 10C 178 10 190 10 190 22L 190 70C 190 70 190 82 178 82L 22 82C 22 82 10 82 10 70L 10 22C 10 22 10 10 22 10"></path></g></g></g><g id="g-root-ro_v2z8ka79i41v-fill" data-item-order="-11232" data-item-id="ro_v2z8ka79i41v" data-item-class="Shape Stroke Fill" data-item-index="none" data-renderer-id="0" transform="translate(215, 183)"><g id="ro_v2z8ka79i41v-fill" stroke="none" fill="#224754"><g><path d="M 22 10L 154 10C 154 10 166 10 166 22L 166 70C 166 70 166 82 154 82L 22 82C 22 82 10 82 10 70L 10 22C 10 22 10 10 22 10"></path></g></g></g><g id="g-root-ro_1d2d8uy79f959-fill" data-item-order="-11232" data-item-id="ro_1d2d8uy79f959" data-item-class="Shape Stroke Fill" data-item-index="none" data-renderer-id="0" transform="translate(3, 183)"><g id="ro_1d2d8uy79f959-fill" stroke="none" fill="#505050"><g><path d="M 22 10L 154 10C 154 10 166 10 166 22L 166 70C 166 70 166 82 154 82L 22 82C 22 82 10 82 10 70L 10 22C 10 22 10 10 22 10"></path></g></g></g><g id="g-root-ro_1hcktui799nnw-fill" data-item-order="-10368" data-item-id="ro_1hcktui799nnw" data-item-class="Shape Stroke Fill" data-item-index="none" data-renderer-id="0" transform="translate(651, 95)"><g id="ro_1hcktui799nnw-fill" stroke="none" fill="#224754"><g><path d="M 22 10L 190 10C 190 10 202 10 202 22L 202 52C 202 52 202 64 190 64L 22 64C 22 64 10 64 10 52L 10 22C 10 22 10 10 22 10"></path></g></g></g><g id="g-root-ro_zrjndm79dw5o-fill" data-item-order="-9720" data-item-id="ro_zrjndm79dw5o" data-item-class="Shape Stroke Fill" data-item-index="none" data-renderer-id="0" transform="translate(899, 95)"><g id="ro_zrjndm79dw5o-fill" stroke="none" fill="#224754"><g><path d="M 22 10L 178 10C 178 10 190 10 190 22L 190 52C 190 52 190 64 178 64L 22 64C 22 64 10 64 10 52L 10 22C 10 22 10 10 22 10"></path></g></g></g><g id="g-root-ro_quns4a791a8e-fill" data-item-order="-9720" data-item-id="ro_quns4a791a8e" data-item-class="Shape Stroke Fill" data-item-index="none" data-renderer-id="0" transform="translate(899, 169)"><g id="ro_quns4a791a8e-fill" stroke="none" fill="#224754"><g><path d="M 22 10L 178 10C 178 10 190 10 190 22L 190 52C 190 52 190 64 178 64L 22 64C 22 64 10 64 10 52L 10 22C 10 22 10 10 22 10"></path></g></g></g><g id="g-root-saw_1d0icka79b1fk-fill" data-item-order="0" data-item-id="saw_1d0icka79b1fk" data-item-class="Icon Stroke" data-item-index="none" data-renderer-id="0" transform="translate(663, 334)"></g><g id="g-root-tx_tradenft_1qdu71679dw5m-fill" data-item-order="0" data-item-id="tx_tradenft_1qdu71679dw5m" data-item-class="Label Stroke" data-item-index="none" data-renderer-id="0" transform="translate(947, 110)"><g id="tx_tradenft_1qdu71679dw5m-fill" stroke="none" fill="#1AC6FF"><g><text style="font: 20px Roboto, sans-serif; white-space: pre;"><tspan x="12" y="34" dominant-baseline="ideographic">Trade NFTs</tspan></text></g></g></g><g id="g-root-plan_1d305qy79dukr-fill" data-item-order="0" data-item-id="plan_1d305qy79dukr" data-item-class="Icon Stroke" data-item-index="none" data-renderer-id="0" transform="translate(911, 107)"></g><g id="g-root-tx_craftnft_4hxtei799on6-fill" data-item-order="0" data-item-id="tx_craftnft_4hxtei799on6" data-item-class="Label Stroke" data-item-index="none" data-renderer-id="0" transform="translate(699, 110)"><g id="tx_craftnft_4hxtei799on6-fill" stroke="none" fill="#1AC6FF"><g><text style="font: 20px Roboto, sans-serif; white-space: pre;"><tspan x="12" y="34" dominant-baseline="ideographic">Craft NFTs</tspan></text></g></g></g><g id="g-root-2_1q87u3e799mv7-fill" data-item-order="0" data-item-id="2_1q87u3e799mv7" data-item-class="Icon Stroke" data-item-index="none" data-renderer-id="0" transform="translate(663, 107)"></g><g id="g-root-tx_combiner_zqwzyy79gq2r-fill" data-item-order="0" data-item-id="tx_combiner_zqwzyy79gq2r" data-item-class="Label Stroke" data-item-index="none" data-renderer-id="0" transform="translate(475, 171)"><g id="tx_combiner_zqwzyy79gq2r-fill" stroke="none" fill="#1AC6FF"><g><text style="font: 20px Roboto, sans-serif; white-space: pre;"><tspan x="12" y="34" dominant-baseline="ideographic">Combine </tspan><tspan x="12" y="58" dominant-baseline="ideographic">Resources </tspan><tspan x="12" y="82" dominant-baseline="ideographic">with </tspan><tspan x="12" y="106" dominant-baseline="ideographic">Blueprints</tspan></text></g></g></g><g id="g-root-hous_zqasd67919fp-fill" data-item-order="0" data-item-id="hous_zqasd67919fp" data-item-class="Icon Stroke" data-item-index="none" data-renderer-id="0" transform="translate(911, 181)"></g><g id="g-root-mini_1lxds0q79fbic-fill" data-item-order="0" data-item-id="mini_1lxds0q79fbic" data-item-class="Icon Stroke" data-item-index="none" data-renderer-id="0" transform="translate(15, 204)"></g><g id="g-root-tx_resource_4njqje79f9cb-fill" data-item-order="0" data-item-id="tx_resource_4njqje79f9cb" data-item-class="Label Stroke" data-item-index="none" data-renderer-id="0" transform="translate(51, 195)"><g id="tx_resource_4njqje79f9cb-fill" stroke="none" fill="#A3A3A3"><g><text style="font: 20px Roboto, sans-serif; white-space: pre;"><tspan x="12" y="34" dominant-baseline="ideographic">Resource </tspan><tspan x="12" y="58" dominant-baseline="ideographic">Gathering</tspan></text></g></g></g><g id="g-root-crea_1d3mdcq79gqa2-fill" data-item-order="0" data-item-id="crea_1d3mdcq79gqa2" data-item-class="Icon Stroke" data-item-index="none" data-renderer-id="0" transform="translate(227, 204)"></g><g id="g-root-tx_blueprin_9ltzu79go3l-fill" data-item-order="0" data-item-id="tx_blueprin_9ltzu79go3l" data-item-class="Label Stroke" data-item-index="none" data-renderer-id="0" transform="translate(263, 195)"><g id="tx_blueprin_9ltzu79go3l-fill" stroke="none" fill="#1AC6FF"><g><text style="font: 20px Roboto, sans-serif; white-space: pre;"><tspan x="12" y="34" dominant-baseline="ideographic">Blueprint </tspan><tspan x="12" y="58" dominant-baseline="ideographic">Creation</tspan></text></g></g></g><g id="g-root-tx_sellnfts_1hgybru791a8c-fill" data-item-order="0" data-item-id="tx_sellnfts_1hgybru791a8c" data-item-class="Label Stroke" data-item-index="none" data-renderer-id="0" transform="translate(947, 184)"><g id="tx_sellnfts_1hgybru791a8c-fill" stroke="none" fill="#1AC6FF"><g><text style="font: 20px Roboto, sans-serif; white-space: pre;"><tspan x="12" y="34" dominant-baseline="ideographic">Sell NFTs</tspan></text></g></g></g><g id="g-root-plan_94mgbe79gq2s-fill" data-item-order="0" data-item-id="plan_94mgbe79gq2s" data-item-class="Icon Stroke" data-item-index="none" data-renderer-id="0" transform="translate(439, 204)"></g><g id="g-root-tx_usenftsi_1q7lg6278zvgr-fill" data-item-order="0" data-item-id="tx_usenftsi_1q7lg6278zvgr" data-item-class="Label Stroke" data-item-index="none" data-renderer-id="0" transform="translate(947, 15)"><g id="tx_usenftsi_1q7lg6278zvgr-fill" stroke="none" fill="#1AC6FF"><g><text style="font: 20px Roboto, sans-serif; white-space: pre;"><tspan x="12" y="34" dominant-baseline="ideographic">Use NFTs in-</tspan><tspan x="12" y="58" dominant-baseline="ideographic">game</tspan></text></g></g></g><g id="g-root-buil_1d2duze7942rw-fill" data-item-order="0" data-item-id="buil_1d2duze7942rw" data-item-class="Icon Stroke" data-item-index="none" data-renderer-id="0" transform="translate(911, 380)"></g><g id="g-root-tx_accessto_4pfore79i29x-fill" data-item-order="0" data-item-id="tx_accessto_4pfore79i29x" data-item-class="Label Stroke" data-item-index="none" data-renderer-id="0" transform="translate(947, 255)"><g id="tx_accessto_4pfore79i29x-fill" stroke="none" fill="#1AC6FF"><g><text style="font: 20px Roboto, sans-serif; white-space: pre;"><tspan x="12" y="34" dominant-baseline="ideographic">Access to </tspan><tspan x="12" y="58" dominant-baseline="ideographic">LandRocker </tspan><tspan x="12" y="82" dominant-baseline="ideographic">Community</tspan></text></g></g></g><g id="g-root-loca_1qf38d679i3nq-fill" data-item-order="0" data-item-id="loca_1qf38d679i3nq" data-item-class="Icon Stroke" data-item-index="none" data-renderer-id="0" transform="translate(911, 276)"></g><g id="g-root-tx_accessto_4nkcnu7942yz-fill" data-item-order="0" data-item-id="tx_accessto_4nkcnu7942yz" data-item-class="Label Stroke" data-item-index="none" data-renderer-id="0" transform="translate(947, 371)"><g id="tx_accessto_4nkcnu7942yz-fill" stroke="none" fill="#1AC6FF"><g><text style="font: 20px Roboto, sans-serif; white-space: pre;"><tspan x="12" y="34" dominant-baseline="ideographic">Access to </tspan><tspan x="12" y="58" dominant-baseline="ideographic">Marketplace</tspan></text></g></g></g><g id="g-root-tx_external_5vc4a79b1n3-fill" data-item-order="0" data-item-id="tx_external_5vc4a79b1n3" data-item-class="Label Stroke" data-item-index="none" data-renderer-id="0" transform="translate(699, 301)"><g id="tx_external_5vc4a79b1n3-fill" stroke="none" fill="#1AC6FF"><g><text style="font: 20px Roboto, sans-serif; white-space: pre;"><tspan x="12" y="34" dominant-baseline="ideographic">External </tspan><tspan x="12" y="58" dominant-baseline="ideographic">Projects Use </tspan><tspan x="12" y="82" dominant-baseline="ideographic">Crafting </tspan><tspan x="12" y="106" dominant-baseline="ideographic">System</tspan></text></g></g></g><g id="g-root-play_18gxwre78zuo4-fill" data-item-order="0" data-item-id="play_18gxwre78zuo4" data-item-class="Icon Stroke" data-item-index="none" data-renderer-id="0" transform="translate(911, 24)"></g><g id="g-root-cu_4ikjyy795hq9-fill" data-item-order="2" data-item-id="cu_4ikjyy795hq9" data-item-class="Curve Stroke" data-item-index="none" data-renderer-id="0" transform="translate(843, 122)"></g><g id="g-root-cu_8ye23e795gxy-fill" data-item-order="2" data-item-id="cu_8ye23e795gxy" data-item-class="Curve Stroke" data-item-index="none" data-renderer-id="0" transform="translate(843, 122)"></g><g id="g-root-cu_1uoo2sa795f65-fill" data-item-order="2" data-item-id="cu_1uoo2sa795f65" data-item-class="Curve Stroke" data-item-index="none" data-renderer-id="0" transform="translate(595, 122)"></g><g id="g-root-cu_1q8uknu795fyi-fill" data-item-order="2" data-item-id="cu_1q8uknu795fyi" data-item-class="Curve Stroke" data-item-index="none" data-renderer-id="0" transform="translate(159, 219)"></g><g id="g-root-cu_1q8uknu795fyf-fill" data-item-order="2" data-item-id="cu_1q8uknu795fyf" data-item-class="Curve Stroke" data-item-index="none" data-renderer-id="0" transform="translate(371, 219)"></g><g id="g-root-cu_8ye23e795gxv-fill" data-item-order="2" data-item-id="cu_8ye23e795gxv" data-item-class="Curve Stroke" data-item-index="none" data-renderer-id="0" transform="translate(595, 219)"></g><g id="g-root-cu_1uoo2sa795f63-fill" data-item-order="2" data-item-id="cu_1uoo2sa795f63" data-item-class="Curve Stroke" data-item-index="none" data-renderer-id="0" transform="translate(843, 39)"></g><g id="g-root-cu_de7k7u795g5l-fill" data-item-order="2" data-item-id="cu_de7k7u795g5l" data-item-class="Curve Stroke" data-item-index="none" data-renderer-id="0" transform="translate(843, 291)"></g><g id="g-root-cu_hu12ca795fda-fill" data-item-order="2" data-item-id="cu_hu12ca795fda" data-item-class="Curve Stroke" data-item-index="none" data-renderer-id="0" transform="translate(843, 349)"></g><g id="g-root-ro_zp1u6y79b30h-stroke" data-item-order="-23040" data-item-id="ro_zp1u6y79b30h" data-item-class="Shape Stroke Fill" data-item-index="none" data-renderer-id="0" transform="translate(651, 289)"><g id="ro_zp1u6y79b30h-stroke" fill="none" stroke-linecap="round" stroke-linejoin="round" stroke-miterlimit="4" stroke="#1AC6FF" stroke-width="2"><g><path d="M 22 10L 190 10C 190 10 202 10 202 22L 202 118C 202 118 202 130 190 130L 22 130C 22 130 10 130 10 118L 10 22C 10 22 10 10 22 10"></path></g></g></g><g id="g-root-ro_1lz9gre79gp3h-stroke" data-item-order="-20160" data-item-id="ro_1lz9gre79gp3h" data-item-class="Shape Stroke Fill" data-item-index="none" data-renderer-id="0" transform="translate(427, 159)"><g id="ro_1lz9gre79gp3h-stroke" fill="none" stroke-linecap="round" stroke-linejoin="round" stroke-miterlimit="4" stroke="#1AC6FF" stroke-width="2"><g><path d="M 22 10L 166 10C 166 10 178 10 178 22L 178 118C 178 118 178 130 166 130L 22 130C 22 130 10 130 10 118L 10 22C 10 22 10 10 22 10"></path></g></g></g><g id="g-root-ro_1cu9lp679jgnb-stroke" data-item-order="-17280" data-item-id="ro_1cu9lp679jgnb" data-item-class="Shape Stroke Fill" data-item-index="none" data-renderer-id="0" transform="translate(899, 243)"><g id="ro_1cu9lp679jgnb-stroke" fill="none" stroke-linecap="round" stroke-linejoin="round" stroke-miterlimit="4" stroke="#1AC6FF" stroke-width="2"><g><path d="M 22 10L 178 10C 178 10 190 10 190 22L 190 94C 190 94 190 106 178 106L 22 106C 22 106 10 106 10 94L 10 22C 10 22 10 10 22 10"></path></g></g></g><g id="g-root-ro_v63vh678zt39-stroke" data-item-order="-12960" data-item-id="ro_v63vh678zt39" data-item-class="Shape Stroke Fill" data-item-index="none" data-renderer-id="0" transform="translate(899, 3)"><g id="ro_v63vh678zt39-stroke" fill="none" stroke-linecap="round" stroke-linejoin="round" stroke-miterlimit="4" stroke="#1AC6FF" stroke-width="2"><g><path d="M 22 10L 178 10C 178 10 190 10 190 22L 190 70C 190 70 190 82 178 82L 22 82C 22 82 10 82 10 70L 10 22C 10 22 10 10 22 10"></path></g></g></g><g id="g-root-ro_zrjtp6794171-stroke" data-item-order="-12960" data-item-id="ro_zrjtp6794171" data-item-class="Shape Stroke Fill" data-item-index="none" data-renderer-id="0" transform="translate(899, 359)"><g id="ro_zrjtp6794171-stroke" fill="none" stroke-linecap="round" stroke-linejoin="round" stroke-miterlimit="4" stroke="#1AC6FF" stroke-width="2"><g><path d="M 22 10L 178 10C 178 10 190 10 190 22L 190 70C 190 70 190 82 178 82L 22 82C 22 82 10 82 10 70L 10 22C 10 22 10 10 22 10"></path></g></g></g><g id="g-root-ro_v2z8ka79i41v-stroke" data-item-order="-11232" data-item-id="ro_v2z8ka79i41v" data-item-class="Shape Stroke Fill" data-item-index="none" data-renderer-id="0" transform="translate(215, 183)"><g id="ro_v2z8ka79i41v-stroke" fill="none" stroke-linecap="round" stroke-linejoin="round" stroke-miterlimit="4" stroke="#1AC6FF" stroke-width="2"><g><path d="M 22 10L 154 10C 154 10 166 10 166 22L 166 70C 166 70 166 82 154 82L 22 82C 22 82 10 82 10 70L 10 22C 10 22 10 10 22 10"></path></g></g></g><g id="g-root-ro_1d2d8uy79f959-stroke" data-item-order="-11232" data-item-id="ro_1d2d8uy79f959" data-item-class="Shape Stroke Fill" data-item-index="none" data-renderer-id="0" transform="translate(3, 183)"><g id="ro_1d2d8uy79f959-stroke" fill="none" stroke-linecap="round" stroke-linejoin="round" stroke-miterlimit="4" stroke="#A3A3A3" stroke-width="2"><g><path d="M 22 10L 154 10C 154 10 166 10 166 22L 166 70C 166 70 166 82 154 82L 22 82C 22 82 10 82 10 70L 10 22C 10 22 10 10 22 10"></path></g></g></g><g id="g-root-ro_1hcktui799nnw-stroke" data-item-order="-10368" data-item-id="ro_1hcktui799nnw" data-item-class="Shape Stroke Fill" data-item-index="none" data-renderer-id="0" transform="translate(651, 95)"><g id="ro_1hcktui799nnw-stroke" fill="none" stroke-linecap="round" stroke-linejoin="round" stroke-miterlimit="4" stroke="#1AC6FF" stroke-width="2"><g><path d="M 22 10L 190 10C 190 10 202 10 202 22L 202 52C 202 52 202 64 190 64L 22 64C 22 64 10 64 10 52L 10 22C 10 22 10 10 22 10"></path></g></g></g><g id="g-root-ro_zrjndm79dw5o-stroke" data-item-order="-9720" data-item-id="ro_zrjndm79dw5o" data-item-class="Shape Stroke Fill" data-item-index="none" data-renderer-id="0" transform="translate(899, 95)"><g id="ro_zrjndm79dw5o-stroke" fill="none" stroke-linecap="round" stroke-linejoin="round" stroke-miterlimit="4" stroke="#1AC6FF" stroke-width="2"><g><path d="M 22 10L 178 10C 178 10 190 10 190 22L 190 52C 190 52 190 64 178 64L 22 64C 22 64 10 64 10 52L 10 22C 10 22 10 10 22 10"></path></g></g></g><g id="g-root-ro_quns4a791a8e-stroke" data-item-order="-9720" data-item-id="ro_quns4a791a8e" data-item-class="Shape Stroke Fill" data-item-index="none" data-renderer-id="0" transform="translate(899, 169)"><g id="ro_quns4a791a8e-stroke" fill="none" stroke-linecap="round" stroke-linejoin="round" stroke-miterlimit="4" stroke="#1AC6FF" stroke-width="2"><g><path d="M 22 10L 178 10C 178 10 190 10 190 22L 190 52C 190 52 190 64 178 64L 22 64C 22 64 10 64 10 52L 10 22C 10 22 10 10 22 10"></path></g></g></g><g id="g-root-saw_1d0icka79b1fk-stroke" data-item-order="0" data-item-id="saw_1d0icka79b1fk" data-item-class="Icon Stroke" data-item-index="none" data-renderer-id="0" transform="translate(663, 334)"><g id="saw_1d0icka79b1fk-stroke" fill="none" stroke-linecap="round" stroke-linejoin="round" stroke-miterlimit="4" stroke="#1AC6FF" stroke-width="2"><g><path d="M 36.471249 10.72375C 36.234692 10.576561 35.930706 10.596157 35.715 10.7725L 15.4125 27.467501L 22.30125 34.355L 22.786251 28.98L 27.981251 28.98C 28.339746 28.98 28.63056 28.689745 28.631248 28.331249L 28.63125 23.7925L 33.17625 23.7925C 33.348526 23.792831 33.513859 23.724628 33.635792 23.602928C 33.757729 23.481228 33.826248 23.316025 33.826248 23.143749L 33.826252 18.594999L 38.375 18.594999C 38.733498 18.594999 39.024307 18.304747 39.024998 17.946249L 39.024998 12.67375C 39.024902 12.449791 38.909081 12.241783 38.71875 12.12375ZM 22.30125 34.355L 19.491249 38.287498C 19.047335 38.908592 18.352671 39.302952 17.591839 39.365791C 16.831007 39.428631 16.081053 39.153591 15.54125 38.61375L 11.74 34.813751C 10.72525 33.798897 10.72525 32.153603 11.74 31.138748L 15.4125 27.467501L 22.30125 34.355M 17.710001 35.272499L 14.49375 32.057499"></path></g></g></g><g id="g-root-tx_tradenft_1qdu71679dw5m-stroke" data-item-order="0" data-item-id="tx_tradenft_1qdu71679dw5m" data-item-class="Label Stroke" data-item-index="none" data-renderer-id="0" transform="translate(947, 110)"></g><g id="g-root-plan_1d305qy79dukr-stroke" data-item-order="0" data-item-id="plan_1d305qy79dukr" data-item-class="Icon Stroke" data-item-index="none" data-renderer-id="0" transform="translate(911, 107)"><g id="plan_1d305qy79dukr-stroke" fill="none" stroke-linecap="round" stroke-linejoin="round" stroke-miterlimit="4" stroke="#1AC6FF" stroke-width="2"><g><path d="M 11.77625 14.03375L 23.83375 14.03375C 23.83375 14.03375 24.68 14.03375 24.68 14.88L 24.68 22.25C 24.68 22.25 24.68 23.096251 23.83375 23.096251L 11.77625 23.096251C 11.77625 23.096251 10.93 23.096251 10.93 22.25L 10.93 14.88C 10.93 14.88 10.93 14.03375 11.77625 14.03375M 14.25875 14.03375L 15.5225 12.28375C 15.931121 11.684983 16.635246 11.3586 17.356249 11.43375L 18.578751 11.43375C 19.300085 11.358682 20.004539 11.684996 20.41375 12.28375L 21.6775 14.03375M 10.93 17.783751L 16.272501 17.783751M 19.3675 17.783751L 24.709999 17.783751M 16.897501 17.139999L 18.71125 17.139999C 18.71125 17.139999 19.33625 17.139999 19.33625 17.764999L 19.33625 19.366249C 19.33625 19.366249 19.33625 19.991249 18.71125 19.991249L 16.897501 19.991249C 16.897501 19.991249 16.272501 19.991249 16.272501 19.366249L 16.272501 17.764999C 16.272501 17.764999 16.272501 17.139999 16.897501 17.139999M 26.13625 29.508751L 38.193748 29.508751C 38.193748 29.508751 39.040001 29.508751 39.040001 30.355L 39.040001 37.724998C 39.040001 37.724998 39.040001 38.571251 38.193748 38.571251L 26.13625 38.571251C 26.13625 38.571251 25.290001 38.571251 25.290001 37.724998L 25.290001 30.355C 25.290001 30.355 25.290001 29.508751 26.13625 29.508751M 28.6175 29.508751L 29.88125 27.758749C 30.29113 27.160902 30.995256 26.83522 31.716251 26.91L 32.938751 26.91C 33.659458 26.83486 34.363392 27.160675 34.772499 27.758749L 36.036251 29.508751M 25.290001 33.258751L 30.6325 33.258751M 33.727501 33.258751L 39.07 33.258751M 31.2575 32.61375L 33.071251 32.61375C 33.071251 32.61375 33.696251 32.61375 33.696251 33.23875L 33.696251 34.84C 33.696251 34.84 33.696251 35.465 33.071251 35.465L 31.2575 35.465C 31.2575 35.465 30.6325 35.465 30.6325 34.84L 30.6325 33.23875C 30.6325 33.23875 30.6325 32.61375 31.2575 32.61375M 37.18 20.375C 37.18 17.440987 34.801514 15.0625 31.8675 15.0625L 29.3675 15.0625M 31.8675 12.56L 29.3675 15.059999L 31.8675 17.559999M 12.805 28.5C 12.805 31.434013 15.183488 33.8125 18.1175 33.8125L 20.6175 33.8125M 18.1175 36.310001L 20.6175 33.810001L 18.1175 31.310001"></path></g></g></g><g id="g-root-tx_craftnft_4hxtei799on6-stroke" data-item-order="0" data-item-id="tx_craftnft_4hxtei799on6" data-item-class="Label Stroke" data-item-index="none" data-renderer-id="0" transform="translate(699, 110)"></g><g id="g-root-2_1q87u3e799mv7-stroke" data-item-order="0" data-item-id="2_1q87u3e799mv7" data-item-class="Icon Stroke" data-item-index="none" data-renderer-id="0" transform="translate(663, 107)"><g id="2_1q87u3e799mv7-stroke" fill="none" stroke-linecap="round" stroke-linejoin="round" stroke-miterlimit="4" stroke="#1AC6FF" stroke-width="2"><g><path d="M 31.2675 22.78875L 38.483749 15.57375C 39.2882 14.866418 39.632698 13.770504 39.37764 12.730115C 39.122585 11.689728 38.310272 10.877414 37.269882 10.622355C 36.229496 10.367298 35.133583 10.711798 34.426247 11.51625L 34.42625 11.51625L 27.21125 18.7325ZM 27.921249 19.442499L 24.665001 22.69875L 24.630001 22.665001C 23.88323 21.918745 22.673021 21.918745 21.92625 22.665001L 10.67625 33.915001C 13.65407 33.937454 16.062546 36.345932 16.084999 39.32375L 27.334999 28.07375C 28.067507 27.339577 28.081919 26.155533 27.3675 25.403749L 30.625 22.14625M 17.875 26.721251C 19.38521 25.342781 21.712496 25.395821 23.158337 26.841663C 24.604179 28.287504 24.657221 30.614788 23.278749 32.125"></path></g></g></g><g id="g-root-tx_combiner_zqwzyy79gq2r-stroke" data-item-order="0" data-item-id="tx_combiner_zqwzyy79gq2r" data-item-class="Label Stroke" data-item-index="none" data-renderer-id="0" transform="translate(475, 171)"></g><g id="g-root-hous_zqasd67919fp-stroke" data-item-order="0" data-item-id="hous_zqasd67919fp" data-item-class="Icon Stroke" data-item-index="none" data-renderer-id="0" transform="translate(911, 181)"><g id="hous_zqasd67919fp-stroke" fill="none" stroke-linecap="round" stroke-linejoin="round" stroke-miterlimit="4" stroke="#1AC6FF" stroke-width="2"><g><path d="M 21.875 16.692501L 21.875 21.067501C 21.875 21.412678 21.595177 21.692501 21.25 21.692501L 13.75 21.692501C 13.404822 21.692501 13.125 21.412678 13.125 21.067501L 13.125 16.692501M 10.625 16.067501L 16.70875 11.09C 17.1691 10.713587 17.8309 10.713587 18.29125 11.09L 24.375 16.067501M 27.5 15.4425L 30.625 15.4425C 32.696068 15.4425 34.375 17.121433 34.375 19.192501L 34.375 24.192501M 16.875 24.817501L 16.875 30.442501C 16.875 32.513569 18.553932 34.192501 20.625 34.192501L 24.375 34.192501M 10 10M 31.25 21.067501L 34.375 24.192501L 37.5 21.067501M 20 27.942501L 16.875 24.817501L 13.75 27.942501M 26.875 32.942501C 26.875 36.394279 29.673222 39.192501 33.125 39.192501C 36.576778 39.192501 39.375 36.394279 39.375 32.942501C 39.375 29.490721 36.576778 26.692501 33.125 26.692501C 29.673222 26.692501 26.875 29.490721 26.875 32.942501ZM 33.125 35.442501L 33.125 36.692501M 33.125 29.192501L 33.125 30.442501M 30.625 35.442501L 34.375 35.442501C 35.065353 35.442501 35.625 34.882854 35.625 34.192501C 35.625 33.502144 35.065353 32.942501 34.375 32.942501L 31.875 32.942501C 31.184645 32.942501 30.625 32.382854 30.625 31.692501C 30.625 31.002144 31.184645 30.442501 31.875 30.442501L 35.625 30.442501"></path></g></g></g><g id="g-root-mini_1lxds0q79fbic-stroke" data-item-order="0" data-item-id="mini_1lxds0q79fbic" data-item-class="Icon Stroke" data-item-index="none" data-renderer-id="0" transform="translate(15, 204)"><g id="mini_1lxds0q79fbic-stroke" fill="none" stroke-linecap="round" stroke-linejoin="round" stroke-miterlimit="4" stroke="#A3A3A3" stroke-width="2"><g><path d="M 16.741251 11.34C 16.619616 11.269127 16.560385 11.125675 16.596584 10.989634C 16.632786 10.853591 16.755478 10.758548 16.89625 10.7575C 22.997499 10.6925 29.627499 12.7575 35.146252 20.7575L 35.146252 20.7575C 35.486477 21.246647 35.434158 21.907936 35.021252 22.3375L 33.224998 24.196251C 32.945457 24.482008 32.546104 24.616831 32.150562 24.558983C 31.755018 24.501135 31.410999 24.257595 31.224998 23.903749L 30.77375 23.0375C 27.9925 17.7075 21.2425 13.98 16.741251 11.34ZM 24.93375 16.5825L 11.1975 29.51125C 10.838516 29.84861 10.631625 30.317085 10.624086 30.809654C 10.616549 31.302225 10.809008 31.77681 11.1575 32.125L 11.1575 32.125C 11.505261 32.473022 11.97911 32.665428 12.471054 32.658363C 12.962998 32.651299 13.431126 32.445366 13.76875 32.087502L 26.866249 18.19375M 23.440001 29.95125C 23.245279 30.062477 23.125072 30.269501 23.125 30.493752L 23.125 34.143749C 23.125072 34.368 23.245279 34.57502 23.440001 34.686249L 27.190001 36.828751C 27.383375 36.940395 27.621624 36.940395 27.815001 36.828751L 31.565001 34.686249C 31.75972 34.57502 31.879929 34.368 31.879999 34.143749L 31.879999 30.5C 31.879929 30.275749 31.75972 30.068726 31.565001 29.9575L 27.815001 27.815001C 27.621624 27.703354 27.383375 27.703354 27.190001 27.815001ZM 34.625 27.56875C 34.467621 27.686785 34.375 27.872026 34.375 28.06875L 34.375 29.30625C 34.375175 29.509863 34.474522 29.700626 34.641251 29.817501L 36.516251 31.129999C 36.731598 31.280954 37.018402 31.280954 37.233749 31.129999L 39.108749 29.817501C 39.275478 29.700626 39.374825 29.509863 39.375 29.30625L 39.375 28.06875C 39.375 27.872026 39.282379 27.686785 39.125 27.56875L 37.25 26.1625C 37.027779 25.995834 36.722221 25.995834 36.5 26.1625ZM 34.625 35.568748C 34.467621 35.686783 34.375 35.872028 34.375 36.068748L 34.375 37.306248C 34.375175 37.509865 34.474522 37.700626 34.641251 37.817501L 36.516251 39.130001C 36.731598 39.280952 37.018402 39.280952 37.233749 39.130001L 39.108749 37.817501C 39.275478 37.700626 39.374825 37.509865 39.375 37.306248L 39.375 36.068748C 39.375 35.872028 39.282379 35.686783 39.125 35.568748L 37.25 34.162498C 37.027779 33.995834 36.722221 33.995834 36.5 34.162498Z"></path></g></g></g><g id="g-root-tx_resource_4njqje79f9cb-stroke" data-item-order="0" data-item-id="tx_resource_4njqje79f9cb" data-item-class="Label Stroke" data-item-index="none" data-renderer-id="0" transform="translate(51, 195)"></g><g id="g-root-crea_1d3mdcq79gqa2-stroke" data-item-order="0" data-item-id="crea_1d3mdcq79gqa2" data-item-class="Icon Stroke" data-item-index="none" data-renderer-id="0" transform="translate(227, 204)"><g id="crea_1d3mdcq79gqa2-stroke" fill="none" stroke-linecap="round" stroke-linejoin="round" stroke-miterlimit="4" stroke="#1AC6FF" stroke-width="2"><g><path d="M 28.125 23L 23.75 24.25L 25 19.875L 33.932499 10.93625C 34.049755 10.818698 34.208965 10.752633 34.375 10.752633C 34.541035 10.752633 34.700245 10.818698 34.817501 10.93625L 37.057499 13.1775C 37.301487 13.421562 37.301487 13.817187 37.057499 14.06125ZM 31.875 12.995L 35 16.119999M 24.997499 19.87125L 28.122499 22.99625M 37.5 16.75L 38.75 16.75C 39.095177 16.75 39.375 17.029821 39.375 17.375L 39.375 38.625C 39.375 38.970177 39.095177 39.25 38.75 39.25L 11.25 39.25C 10.904822 39.25 10.625 38.970177 10.625 38.625L 10.625 17.375C 10.625 17.029821 10.904822 16.75 11.25 16.75L 25 16.75M 20 20.5L 15 20.5C 14.654822 20.5 14.375 20.779821 14.375 21.125L 14.375 34.875C 14.375 35.220177 14.654822 35.5 15 35.5L 25.625 35.5L 25.625 31.125C 25.625 30.779821 25.904823 30.5 26.25 30.5L 31.25 30.5C 31.595177 30.5 31.875 30.779821 31.875 31.125L 31.875 35.5L 35 35.5C 35.345177 35.5 35.625 35.220177 35.625 34.875L 35.625 21.125M 25.625 32.99625L 31.875 32.99625M 25.625 35.49625L 31.875 35.49625M 14.375 26.74625L 20 26.74625M 30 27.99625L 35.625 27.99625M 30 25.49625L 35.625 25.49625M 14.375 30.5L 18.75 30.5C 19.095179 30.5 19.375 30.779821 19.375 31.125L 19.375 35.5"></path></g></g></g><g id="g-root-tx_blueprin_9ltzu79go3l-stroke" data-item-order="0" data-item-id="tx_blueprin_9ltzu79go3l" data-item-class="Label Stroke" data-item-index="none" data-renderer-id="0" transform="translate(263, 195)"></g><g id="g-root-tx_sellnfts_1hgybru791a8c-stroke" data-item-order="0" data-item-id="tx_sellnfts_1hgybru791a8c" data-item-class="Label Stroke" data-item-index="none" data-renderer-id="0" transform="translate(947, 184)"></g><g id="g-root-plan_94mgbe79gq2s-stroke" data-item-order="0" data-item-id="plan_94mgbe79gq2s" data-item-class="Icon Stroke" data-item-index="none" data-renderer-id="0" transform="translate(439, 204)"><g id="plan_94mgbe79gq2s-stroke" fill="none" stroke-linecap="round" stroke-linejoin="round" stroke-miterlimit="4" stroke="#1AC6FF" stroke-width="2"><g><path d="M 17.155001 18.9025L 23.35125 18.9025L 23.35125 24.47625L 17.155001 24.47625ZM 27.006248 18.9025L 33.202499 18.9025L 33.202499 24.47625L 27.006248 24.47625ZM 14.65125 27.34C 14.65125 28.92181 15.933193 30.204311 17.515001 30.205002L 32.732502 30.205C 33.770107 30.226677 34.738304 29.68552 35.263466 28.790365C 35.788628 27.89521 35.788628 26.786039 35.263466 25.890886C 34.738304 24.995731 33.770107 24.454576 32.732502 24.47625L 17.514999 24.47625C 15.933394 24.47625 14.65125 25.758394 14.65125 27.34ZM 30.303749 27.34C 30.303749 27.656183 30.560066 27.9125 30.876251 27.9125C 31.192434 27.9125 31.44875 27.656183 31.44875 27.34C 31.44875 27.023817 31.192434 26.7675 30.876251 26.7675C 30.560066 26.7675 30.303749 27.023817 30.303749 27.34M 24.5275 27.34C 24.5275 27.656183 24.783817 27.9125 25.1 27.9125C 25.416183 27.9125 25.672501 27.656183 25.672501 27.34C 25.672501 27.023817 25.416183 26.7675 25.1 26.7675C 24.783817 26.7675 24.5275 27.023817 24.5275 27.34M 18.79875 27.34C 18.79875 27.656183 19.055067 27.9125 19.37125 27.9125C 19.687433 27.9125 19.94375 27.656183 19.94375 27.34C 19.94375 27.023817 19.687433 26.7675 19.37125 26.7675C 19.055067 26.7675 18.79875 27.023817 18.79875 27.34M 39.375 10.625C 38.628693 12.864446 36.533028 14.375016 34.172501 14.375L 13.125 14.375C 11.745997 14.379119 10.629119 15.495997 10.625 16.875L 10.625 36.875C 10.625 35.494286 11.744288 34.375 13.125 34.375L 34.172501 34.375C 36.533028 34.375015 38.628693 32.864449 39.375 30.625ZM 10.625 36.875C 10.625 38.255714 11.744288 39.375 13.125 39.375L 22.5 39.375C 23.190357 39.375 23.75 38.815353 23.75 38.125L 23.75 34.375"></path></g></g></g><g id="g-root-tx_usenftsi_1q7lg6278zvgr-stroke" data-item-order="0" data-item-id="tx_usenftsi_1q7lg6278zvgr" data-item-class="Label Stroke" data-item-index="none" data-renderer-id="0" transform="translate(947, 15)"></g><g id="g-root-buil_1d2duze7942rw-stroke" data-item-order="0" data-item-id="buil_1d2duze7942rw" data-item-class="Icon Stroke" data-item-index="none" data-renderer-id="0" transform="translate(911, 380)"><g id="buil_1d2duze7942rw-stroke" fill="none" stroke-linecap="round" stroke-linejoin="round" stroke-miterlimit="4" stroke="#1AC6FF" stroke-width="2"><g><path d="M 13.57375 21.875L 26.42625 21.875C 28.0548 21.875 29.375 23.1952 29.375 24.82375L 29.375 36.424999C 29.375 38.054241 28.054239 39.375 26.424999 39.375L 13.575 39.375C 11.94576 39.375 10.625 38.054241 10.625 36.424999L 10.625 24.82375C 10.625 23.1952 11.9452 21.875 13.57375 21.875ZM 13.74625 26.875L 17.5 26.875M 22.5 26.875L 26.25375 26.875M 22.5 33.125L 26.25375 33.125M 22.5 35.625L 26.25375 35.625M 15.625 25L 15.625 28.75M 14.3 33.047501L 16.953751 35.702499M 16.953751 33.05125L 14.3025 35.702499M 29.375 20L 29.375 11.25C 29.375 10.904822 29.654823 10.625 30 10.625L 38.75 10.625C 39.095177 10.625 39.375 10.904822 39.375 11.25L 39.375 27.5C 39.375 27.845177 39.095177 28.125 38.75 28.125L 31.875 28.125M 29.375 14.375L 31.875 14.375M 20.625 16.875L 23.125 16.875M 29.375 16.875L 33.125 16.875M 33.125 28.125L 33.125 23.75C 33.125 23.404823 33.404823 23.125 33.75 23.125L 36.25 23.125C 36.595177 23.125 36.875 23.404823 36.875 23.75L 36.875 28.125M 29.375 14.375L 21.25 14.375C 20.904823 14.375 20.625 14.654822 20.625 15L 20.625 18.75"></path></g></g></g><g id="g-root-tx_accessto_4pfore79i29x-stroke" data-item-order="0" data-item-id="tx_accessto_4pfore79i29x" data-item-class="Label Stroke" data-item-index="none" data-renderer-id="0" transform="translate(947, 255)"></g><g id="g-root-loca_1qf38d679i3nq-stroke" data-item-order="0" data-item-id="loca_1qf38d679i3nq" data-item-class="Icon Stroke" data-item-index="none" data-renderer-id="0" transform="translate(911, 276)"><g id="loca_1qf38d679i3nq-stroke" fill="none" stroke-linecap="round" stroke-linejoin="round" stroke-miterlimit="4" stroke="#1AC6FF" stroke-width="2"><g><path d="M 31.6875 38.837502C 31.609602 39.133171 31.35458 39.348186 31.049999 39.374996C 30.743156 39.395031 30.459167 39.212467 30.35 38.924999L 25.674999 26.637501C 25.575207 26.379574 25.63368 26.087202 25.825001 25.887501C 26.02626 25.69985 26.314121 25.637482 26.575001 25.725L 38.912498 30.362501C 39.202961 30.462589 39.391762 30.743238 39.375004 31.049999C 39.361134 31.362402 39.141739 31.627714 38.837502 31.700001L 33.487503 33.037498C 33.23605 33.102192 33.039692 33.298546 32.974998 33.549999ZM 19.375 38.75C 19.375 39.095177 19.095179 39.375 18.75 39.375L 11.25 39.375C 10.904822 39.375 10.625 39.095177 10.625 38.75L 10.625 21.875C 10.625 21.184643 11.184644 20.625 11.875 20.625L 18.125 20.625C 18.815355 20.625 19.375 21.184643 19.375 21.875ZM 18.125 20.625L 18.125 16.025C 18.129057 15.780241 18.275629 15.560383 18.5 15.4625L 28.5 11.0125C 28.683056 10.912452 28.904446 10.912452 29.087502 11.0125C 29.26635 11.127247 29.374645 11.325005 29.375 11.5375L 29.375 23.125M 16.875 39.375L 16.875 36.25C 16.875 35.904823 16.595179 35.625 16.25 35.625L 13.75 35.625C 13.404822 35.625 13.125 35.904823 13.125 36.25L 13.125 39.375M 10.625 24.375L 15.625 24.375M 25.625 16.875L 29.375 16.875M 23.125 19.375L 29.375 19.375M 10.625 26.875L 13.125 26.875M 20.625 14.5125L 20.625 10.625M 19.375 39.375L 26.875 39.375"></path></g></g></g><g id="g-root-tx_accessto_4nkcnu7942yz-stroke" data-item-order="0" data-item-id="tx_accessto_4nkcnu7942yz" data-item-class="Label Stroke" data-item-index="none" data-renderer-id="0" transform="translate(947, 371)"></g><g id="g-root-tx_external_5vc4a79b1n3-stroke" data-item-order="0" data-item-id="tx_external_5vc4a79b1n3" data-item-class="Label Stroke" data-item-index="none" data-renderer-id="0" transform="translate(699, 301)"></g><g id="g-root-play_18gxwre78zuo4-stroke" data-item-order="0" data-item-id="play_18gxwre78zuo4" data-item-class="Icon Stroke" data-item-index="none" data-renderer-id="0" transform="translate(911, 24)"><g id="play_18gxwre78zuo4-stroke" fill="none" stroke-linecap="round" stroke-linejoin="round" stroke-miterlimit="4" stroke="#1AC6FF" stroke-width="2"><g><path d="M 25.625 13.75L 19.375 10.625L 13.125 13.75L 19.375 16.875L 25.625 13.75ZM 13.125 19.453751L 13.125 13.75M 25.625 13.75L 25.625 20.78125L 19.375 23.90625M 19.375 16.875L 19.375 23.90625M 33.86375 18.30875C 35.474678 17.196743 37.426399 16.689003 39.375 16.875M 35.625 39.375L 35.625 36.875L 34.491249 36.875C 33.046333 36.875 31.875 35.703663 31.875 34.258751L 31.875 31.875L 28.5 31.875C 28.811249 30.943748 29.1 29.9925 29.397499 29.053749M 39.375 25.07375C 39.37619 25.735847 38.860905 26.284025 38.200001 26.32375L 29.0275 26.877501C 28.61367 25.661751 28.61367 24.34325 29.0275 23.127501C 29.228024 22.190285 29.646872 21.313612 30.25 20.56875C 30.580784 20.19651 31.103069 20.059895 31.573751 20.2225L 38.563751 22.8225C 39.052963 23.00469 39.377438 23.471714 39.377502 23.99375ZM 21.875 31.875C 21.875 29.803932 20.196068 28.125 18.125 28.125L 16.875 28.125L 16.875 23.125C 16.875 22.434643 16.315355 21.875 15.625 21.875C 14.934644 21.875 14.375 22.434643 14.375 23.125L 14.375 30.1075L 12.75875 28.491251C 12.268276 28.017536 11.488644 28.024309 11.006476 28.506477C 10.524309 28.988644 10.517534 29.768276 10.99125 30.258751L 12.6075 31.875"></path></g></g></g><g id="g-root-cu_4ikjyy795hq9-stroke" data-item-order="2" data-item-id="cu_4ikjyy795hq9" data-item-class="Curve Stroke" data-item-index="none" data-renderer-id="0" transform="translate(843, 122)"><g id="cu_4ikjyy795hq9-stroke" fill="none" stroke-linecap="round" stroke-linejoin="round" stroke-miterlimit="4" stroke="#A3A3A3" stroke-width="2"><g><path d="M 10 10L 38 10L 64 10"></path><path d="M 58 16.5L 64.5 10L 58 3.5" stroke-dasharray="none"></path></g></g></g><g id="g-root-cu_8ye23e795gxy-stroke" data-item-order="2" data-item-id="cu_8ye23e795gxy" data-item-class="Curve Stroke" data-item-index="none" data-renderer-id="0" transform="translate(843, 122)"><g id="cu_8ye23e795gxy-stroke" fill="none" stroke-linecap="round" stroke-linejoin="round" stroke-miterlimit="4" stroke="#A3A3A3" stroke-width="2"><g><path d="M 10 10L 24 10L 38 10L 38 47L 38 84L 52 84L 64 84"></path><path d="M 58 90.5L 64.5 84L 58 77.5" stroke-dasharray="none"></path></g></g></g><g id="g-root-cu_1uoo2sa795f65-stroke" data-item-order="2" data-item-id="cu_1uoo2sa795f65" data-item-class="Curve Stroke" data-item-index="none" data-renderer-id="0" transform="translate(595, 122)"><g id="cu_1uoo2sa795f65-stroke" fill="none" stroke-linecap="round" stroke-linejoin="round" stroke-miterlimit="4" stroke="#A3A3A3" stroke-width="2"><g><path d="M 10 107L 24 107L 38 107L 38 58.5L 38 10L 52 10L 64 10"></path><path d="M 58 16.5L 64.5 10L 58 3.5" stroke-dasharray="none"></path></g></g></g><g id="g-root-cu_1q8uknu795fyi-stroke" data-item-order="2" data-item-id="cu_1q8uknu795fyi" data-item-class="Curve Stroke" data-item-index="none" data-renderer-id="0" transform="translate(159, 219)"><g id="cu_1q8uknu795fyi-stroke" fill="none" stroke-linecap="round" stroke-linejoin="round" stroke-miterlimit="4" stroke="#A3A3A3" stroke-width="2"><g><path d="M 10 10L 38 10L 64 10"></path><path d="M 58 16.5L 64.5 10L 58 3.5" stroke-dasharray="none"></path></g></g></g><g id="g-root-cu_1q8uknu795fyf-stroke" data-item-order="2" data-item-id="cu_1q8uknu795fyf" data-item-class="Curve Stroke" data-item-index="none" data-renderer-id="0" transform="translate(371, 219)"><g id="cu_1q8uknu795fyf-stroke" fill="none" stroke-linecap="round" stroke-linejoin="round" stroke-miterlimit="4" stroke="#A3A3A3" stroke-width="2"><g><path d="M 10 10L 38 10L 64 10"></path><path d="M 58 16.5L 64.5 10L 58 3.5" stroke-dasharray="none"></path></g></g></g><g id="g-root-cu_8ye23e795gxv-stroke" data-item-order="2" data-item-id="cu_8ye23e795gxv" data-item-class="Curve Stroke" data-item-index="none" data-renderer-id="0" transform="translate(595, 219)"><g id="cu_8ye23e795gxv-stroke" fill="none" stroke-linecap="round" stroke-linejoin="round" stroke-miterlimit="4" stroke="#A3A3A3" stroke-width="2"><g><path d="M 10 10L 24 10L 38 10L 38 75L 38 140L 52 140L 64 140"></path><path d="M 58 146.5L 64.5 140L 58 133.5" stroke-dasharray="none"></path></g></g></g><g id="g-root-cu_1uoo2sa795f63-stroke" data-item-order="2" data-item-id="cu_1uoo2sa795f63" data-item-class="Curve Stroke" data-item-index="none" data-renderer-id="0" transform="translate(843, 39)"><g id="cu_1uoo2sa795f63-stroke" fill="none" stroke-linecap="round" stroke-linejoin="round" stroke-miterlimit="4" stroke="#A3A3A3" stroke-width="2"><g><path d="M 10 93L 24 93L 38 93L 38 51.5L 38 10L 52 10L 64 10"></path><path d="M 58 16.5L 64.5 10L 58 3.5" stroke-dasharray="none"></path></g></g></g><g id="g-root-cu_de7k7u795g5l-stroke" data-item-order="2" data-item-id="cu_de7k7u795g5l" data-item-class="Curve Stroke" data-item-index="none" data-renderer-id="0" transform="translate(843, 291)"><g id="cu_de7k7u795g5l-stroke" fill="none" stroke-linecap="round" stroke-linejoin="round" stroke-miterlimit="4" stroke="#A3A3A3" stroke-width="2"><g><path d="M 10 68L 24 68L 38 68L 38 39L 38 10L 52 10L 64 10"></path><path d="M 58 16.5L 64.5 10L 58 3.5" stroke-dasharray="none"></path></g></g></g><g id="g-root-cu_hu12ca795fda-stroke" data-item-order="2" data-item-id="cu_hu12ca795fda" data-item-class="Curve Stroke" data-item-index="none" data-renderer-id="0" transform="translate(843, 349)"><g id="cu_hu12ca795fda-stroke" fill="none" stroke-linecap="round" stroke-linejoin="round" stroke-miterlimit="4" stroke="#A3A3A3" stroke-width="2"><g><path d="M 10 10L 24 10L 38 10L 38 33L 38 56L 52 56L 64 56"></path><path d="M 58 62.5L 64.5 56L 58 49.5" stroke-dasharray="none"></path></g></g></g></g></g></svg>