<?xml version="1.0" encoding="utf-8" standalone="yes"?>
<!DOCTYPE svg PUBLIC "-//W3C//DTD SVG 1.1//EN" "http://www.w3.org/Graphics/SVG/1.1/DTD/svg11.dtd">
<svg width="1000" height="402" viewBox="0 0 1000 402" style="fill:none;stroke:none;fill-rule:evenodd;clip-rule:evenodd;stroke-linecap:round;stroke-linejoin:round;stroke-miterlimit:1.5;" version="1.1" xmlns="http://www.w3.org/2000/svg" xmlns:xlink="http://www.w3.org/1999/xlink"><style id="fontImports">@import url("https://fonts.googleapis.com/css2?family=Roboto:wght@400;700&amp;display=block");</style><g id="items" style="isolation: isolate"><g id="blend" style="mix-blend-mode:screen"><g id="g-root-ro_hz1h627j98g7-fill" data-item-order="-20802" data-item-id="ro_hz1h627j98g7" data-item-class="Shape Stroke Fill" data-item-index="none" data-renderer-id="0" transform="translate(157.53848266601562, 283)"><g id="ro_hz1h627j98g7-fill" stroke="none" fill="#224754"><g><path d="M 22.002291 10L 214.692291 10C 214.692291 10 226.692291 10 226.692291 22L 226.692291 94C 226.692291 94 226.692291 106 214.692291 106L 22.002291 106C 22.002291 106 10.002291 106 10.002291 94L 10.002291 22C 10.002291 22 10.002291 10 22.002291 10"></path></g></g></g><g id="g-root-ro_zofw2y7j0u85-fill" data-item-order="-19584" data-item-id="ro_zofw2y7j0u85" data-item-class="Shape Stroke Fill" data-item-index="none" data-renderer-id="0" transform="translate(773, 131)"><g id="ro_zofw2y7j0u85-fill" stroke="none" fill="#224754"><g><path d="M 22 10L 202 10C 202 10 214 10 214 22L 214 94C 214 94 214 106 202 106L 22 106C 22 106 10 106 10 94L 10 22C 10 22 10 10 22 10"></path></g></g></g><g id="g-root-ro_1uuap7u7iy13i-fill" data-item-order="-19584" data-item-id="ro_1uuap7u7iy13i" data-item-class="Shape Stroke Fill" data-item-index="none" data-renderer-id="0" transform="translate(558, 131)"><g id="ro_1uuap7u7iy13i-fill" stroke="none" fill="#224754"><g><path d="M 22 10L 202 10C 202 10 214 10 214 22L 214 94C 214 94 214 106 202 106L 22 106C 22 106 10 106 10 94L 10 22C 10 22 10 10 22 10"></path></g></g></g><g id="g-root-ro_zpnp627teio3-fill" data-item-order="-17280" data-item-id="ro_zpnp627teio3" data-item-class="Shape Stroke Fill" data-item-index="none" data-renderer-id="0" transform="translate(570, 283)"><g id="ro_zpnp627teio3-fill" stroke="none" fill="#224754"><g><path d="M 22 10L 178 10C 178 10 190 10 190 22L 190 94C 190 94 190 106 178 106L 22 106C 22 106 10 106 10 94L 10 22C 10 22 10 10 22 10"></path></g></g></g><g id="g-root-ro_3dp9m7jc45o-fill" data-item-order="-17280" data-item-id="ro_3dp9m7jc45o" data-item-class="Shape Stroke Fill" data-item-index="none" data-renderer-id="0" transform="translate(367, 131)"><g id="ro_3dp9m7jc45o-fill" stroke="none" fill="#224754"><g><path d="M 22 10L 178 10C 178 10 190 10 190 22L 190 94C 190 94 190 106 178 106L 22 106C 22 106 10 106 10 94L 10 22C 10 22 10 10 22 10"></path></g></g></g><g id="g-root-ro_hx59gq7jc2dj-fill" data-item-order="-14976" data-item-id="ro_hx59gq7jc2dj" data-item-class="Shape Stroke Fill" data-item-index="none" data-renderer-id="0" transform="translate(3, 131)"><g id="ro_hx59gq7jc2dj-fill" stroke="none" fill="#224754"><g><path d="M 22 10L 154 10C 154 10 166 10 166 22L 166 94C 166 94 166 106 154 106L 22 106C 22 106 10 106 10 94L 10 22C 10 22 10 10 22 10"></path></g></g></g><g id="g-root-ro_vccsoa7jdibo-fill" data-item-order="-14976" data-item-id="ro_vccsoa7jdibo" data-item-class="Shape Stroke Fill" data-item-index="none" data-renderer-id="0" transform="translate(191, 131)"><g id="ro_vccsoa7jdibo-fill" stroke="none" fill="#224754"><g><path d="M 22 10L 154 10C 154 10 166 10 166 22L 166 94C 166 94 166 106 154 106L 22 106C 22 106 10 106 10 94L 10 22C 10 22 10 10 22 10"></path></g></g></g><g id="g-root-ro_1qapdt67tbojo-fill" data-item-order="-13824" data-item-id="ro_1qapdt67tbojo" data-item-class="Shape Stroke Fill" data-item-index="none" data-renderer-id="0" transform="translate(803, 283)"><g id="ro_1qapdt67tbojo-fill" stroke="none" fill="#224754"><g><path d="M 22 10L 142 10C 142 10 154 10 154 22L 154 94C 154 94 154 106 142 106L 22 106C 22 106 10 106 10 94L 10 22C 10 22 10 10 22 10"></path></g></g></g><g id="g-root-ro_zmkn567jj30l-fill" data-item-order="-13824" data-item-id="ro_zmkn567jj30l" data-item-class="Shape Stroke Fill" data-item-index="none" data-renderer-id="0" transform="translate(385, 283)"><g id="ro_zmkn567jj30l-fill" stroke="none" fill="#224754"><g><path d="M 22 10L 142 10C 142 10 154 10 154 22L 154 94C 154 94 154 106 142 106L 22 106C 22 106 10 106 10 94L 10 22C 10 22 10 10 22 10"></path></g></g></g><g id="g-root-ro_1lvjep67jhonf-fill" data-item-order="-12672" data-item-id="ro_1lvjep67jhonf" data-item-class="Shape Stroke Fill" data-item-index="none" data-renderer-id="0" transform="translate(15, 283)"><g id="ro_1lvjep67jhonf-fill" stroke="none" fill="#224754"><g><path d="M 22 10L 130 10C 130 10 142 10 142 22L 142 94C 142 94 142 106 130 106L 22 106C 22 106 10 106 10 94L 10 22C 10 22 10 10 22 10"></path></g></g></g><g id="g-root-ro_1heg2sq7j52ip-fill" data-item-order="-12096" data-item-id="ro_1heg2sq7j52ip" data-item-class="Shape Stroke Fill" data-item-index="none" data-renderer-id="0" transform="translate(343, 3)"><g id="ro_1heg2sq7j52ip-fill" stroke="none" fill="#505050"><g><path d="M 22 10L 166 10C 166 10 178 10 178 22L 178 70C 178 70 178 82 166 82L 22 82C 22 82 10 82 10 70L 10 22C 10 22 10 10 22 10"></path></g></g></g><g id="g-root-2_dgpwdm7jhoui-fill" data-item-order="0" data-item-id="2_dgpwdm7jhoui" data-item-class="Icon Stroke" data-item-index="none" data-renderer-id="0" transform="translate(27, 316)"></g><g id="g-root-2_v7zaqy7jc3ye-fill" data-item-order="0" data-item-id="2_v7zaqy7jc3ye" data-item-class="Icon Stroke" data-item-index="none" data-renderer-id="0" transform="translate(15, 164)"></g><g id="g-root-tx_erc721nf_1cz9b8q7jc1l9-fill" data-item-order="0" data-item-id="tx_erc721nf_1cz9b8q7jc1l9" data-item-class="Label Stroke" data-item-index="none" data-renderer-id="0" transform="translate(51, 155)"><g id="tx_erc721nf_1cz9b8q7jc1l9-fill" stroke="none" fill="#1AC6FF"><g><text style="font: 20px Roboto, sans-serif; white-space: pre;"><tspan x="12" y="34" dominant-baseline="ideographic">ERC-721 </tspan><tspan x="12" y="58" dominant-baseline="ideographic">NFTs</tspan></text></g></g></g><g id="g-root-wave_1lyncbu7jdibn-fill" data-item-order="0" data-item-id="wave_1lyncbu7jdibn" data-item-class="Icon Stroke" data-item-index="none" data-renderer-id="0" transform="translate(203, 164)"></g><g id="g-root-tx_erc1155n_djtu0a7jdiiq-fill" data-item-order="0" data-item-id="tx_erc1155n_djtu0a7jdiiq" data-item-class="Label Stroke" data-item-index="none" data-renderer-id="0" transform="translate(239, 155)"><g id="tx_erc1155n_djtu0a7jdiiq-fill" stroke="none" fill="#1AC6FF"><g><text style="font: 20px Roboto, sans-serif; white-space: pre;"><tspan x="12" y="34" dominant-baseline="ideographic">ERC-1155 </tspan><tspan x="12" y="58" dominant-baseline="ideographic">NFTs</tspan></text></g></g></g><g id="g-root-disc_deu7my7jc2kr-fill" data-item-order="0" data-item-id="disc_deu7my7jc2kr" data-item-class="Icon Stroke" data-item-index="none" data-renderer-id="0" transform="translate(379, 164)"></g><g id="g-root-tx_erc20tok_1414rai7jc2kq-fill" data-item-order="0" data-item-id="tx_erc20tok_1414rai7jc2kq" data-item-class="Label Stroke" data-item-index="none" data-renderer-id="0" transform="translate(415, 155)"><g id="tx_erc20tok_1414rai7jc2kq-fill" stroke="none" fill="#1AC6FF"><g><text style="font: 20px Roboto, sans-serif; white-space: pre;"><tspan x="12" y="34" dominant-baseline="ideographic">ERC-20 </tspan><tspan x="12" y="58" dominant-baseline="ideographic">Token (LRT)</tspan></text></g></g></g><g id="g-root-brow_hznoru7iy22t-fill" data-item-order="0" data-item-id="brow_hznoru7iy22t" data-item-class="Icon Stroke" data-item-index="none" data-renderer-id="0" transform="translate(570, 164)"></g><g id="g-root-tx_validati_1d1rqju7iy1ak-fill" data-item-order="0" data-item-id="tx_validati_1d1rqju7iy1ak" data-item-class="Label Stroke" data-item-index="none" data-renderer-id="0" transform="translate(606, 155)"><g id="tx_validati_1d1rqju7iy1ak-fill" stroke="none" fill="#1AC6FF"><g><text style="font: 20px Roboto, sans-serif; white-space: pre;"><tspan x="12" y="34" dominant-baseline="ideographic">Validation </tspan><tspan x="12" y="58" dominant-baseline="ideographic">&amp;Transparency</tspan></text></g></g></g><g id="g-root-mult_1449e7e7j0tfw-fill" data-item-order="0" data-item-id="mult_1449e7e7j0tfw" data-item-class="Icon Stroke" data-item-index="none" data-renderer-id="0" transform="translate(785, 164)"></g><g id="g-root-tx_interope_1hf3fhm7j0v0r-fill" data-item-order="0" data-item-id="tx_interope_1hf3fhm7j0v0r" data-item-class="Label Stroke" data-item-index="none" data-renderer-id="0" transform="translate(821, 167)"><g id="tx_interope_1hf3fhm7j0v0r-fill" stroke="none" fill="#1AC6FF"><g><text style="font: 20px Roboto, sans-serif; white-space: pre;"><tspan x="12" y="34" dominant-baseline="ideographic">Interoperability</tspan></text></g></g></g><g id="g-root-tx_uniquepl_1430g167jhouh-fill" data-item-order="0" data-item-id="tx_uniquepl_1430g167jhouh" data-item-class="Label Stroke" data-item-index="none" data-renderer-id="0" transform="translate(63, 307)"><g id="tx_uniquepl_1430g167jhouh-fill" stroke="none" fill="#1AC6FF"><g><text style="font: 20px Roboto, sans-serif; white-space: pre;"><tspan x="12" y="34" dominant-baseline="ideographic">Unique </tspan><tspan x="12" y="58" dominant-baseline="ideographic">Planets</tspan></text></g></g></g><g id="g-root-user_zpp0kq7j998u-fill" data-item-order="0" data-item-id="user_zpp0kq7j998u" data-item-class="Icon Stroke" data-item-index="none" data-renderer-id="0" transform="translate(169.5384979248047, 316)"></g><g id="g-root-stac_1hd86ju7jj3t8-fill" data-item-order="0" data-item-id="stac_1hd86ju7jj3t8" data-item-class="Icon Stroke" data-item-index="none" data-renderer-id="0" transform="translate(397, 316)"></g><g id="g-root-tx_primaryc_hu1oh67jj37n-fill" data-item-order="0" data-item-id="tx_primaryc_hu1oh67jj37n" data-item-class="Label Stroke" data-item-index="none" data-renderer-id="0" transform="translate(433, 307)"><g id="tx_primaryc_hu1oh67jj37n-fill" stroke="none" fill="#1AC6FF"><g><text style="font: 20px Roboto, sans-serif; white-space: pre;"><tspan x="12" y="34" dominant-baseline="ideographic">Primary </tspan><tspan x="12" y="58" dominant-baseline="ideographic">Currency</tspan></text></g></g></g><g id="g-root-chec_1d147je7teh36-fill" data-item-order="0" data-item-id="chec_1d147je7teh36" data-item-class="Icon Stroke" data-item-index="none" data-renderer-id="0" transform="translate(582, 316)"></g><g id="g-root-tx_securetr_9247ca7tegi1-fill" data-item-order="0" data-item-id="tx_securetr_9247ca7tegi1" data-item-class="Label Stroke" data-item-index="none" data-renderer-id="0" transform="translate(618, 307)"><g id="tx_securetr_9247ca7tegi1-fill" stroke="none" fill="#1AC6FF"><g><text style="font: 20px Roboto, sans-serif; white-space: pre;"><tspan x="12" y="34" dominant-baseline="ideographic">Secure </tspan><tspan x="12" y="58" dominant-baseline="ideographic">Transactions</tspan></text></g></g></g><g id="g-root-2_4l1u7e7tbn5v-fill" data-item-order="0" data-item-id="2_4l1u7e7tbn5v" data-item-class="Icon Stroke" data-item-index="none" data-renderer-id="0" transform="translate(815, 316)"></g><g id="g-root-tx_massprod_1lw623u7j9a11-fill" data-item-order="0" data-item-id="tx_massprod_1lw623u7j9a11" data-item-class="Label Stroke" data-item-index="none" data-renderer-id="0" transform="translate(205.53848266601562, 295)"><g id="tx_massprod_1lw623u7j9a11-fill" stroke="none" fill="#1AC6FF"><g><text style="font: 20px Roboto, sans-serif; white-space: pre;"><tspan x="12" y="46" dominant-baseline="ideographic">Mass Produced </tspan><tspan x="12" y="70" dominant-baseline="ideographic">Items</tspan></text></g></g></g><g id="g-root-bloc_1upwl627j50xs-fill" data-item-order="0" data-item-id="bloc_1upwl627j50xs" data-item-class="Icon Stroke" data-item-index="none" data-renderer-id="0" transform="translate(355, 24)"></g><g id="g-root-tx_external_mbpdm27tbnyi-fill" data-item-order="0" data-item-id="tx_external_mbpdm27tbnyi" data-item-class="Label Stroke" data-item-index="none" data-renderer-id="0" transform="translate(851, 307)"><g id="tx_external_mbpdm27tbnyi-fill" stroke="none" fill="#1AC6FF"><g><text style="font: 20px Roboto, sans-serif; white-space: pre;"><tspan x="12" y="34" dominant-baseline="ideographic">External </tspan><tspan x="12" y="58" dominant-baseline="ideographic">Projects</tspan></text></g></g></g><g id="g-root-tx_blockcha_4jt2cq7j52q7-fill" data-item-order="0" data-item-id="tx_blockcha_4jt2cq7j52q7" data-item-class="Label Stroke" data-item-index="none" data-renderer-id="0" transform="translate(391, 15)"><g id="tx_blockcha_4jt2cq7j52q7-fill" stroke="none" fill="#A3A3A3"><g><text style="font: 20px Roboto, sans-serif; white-space: pre;"><tspan x="12" y="34" dominant-baseline="ideographic">Blockchain </tspan><tspan x="12" y="58" dominant-baseline="ideographic">Technology</tspan></text></g></g></g><g id="g-root-cu_vcc6ju7tbmku-fill" data-item-order="2" data-item-id="cu_vcc6ju7tbmku" data-item-class="Curve Stroke" data-item-index="none" data-renderer-id="0" transform="translate(427, 75)"></g><g id="g-root-cu_qwiofe7tbnd4-fill" data-item-order="2" data-item-id="cu_qwiofe7tbnd4" data-item-class="Curve Stroke" data-item-index="none" data-renderer-id="0" transform="translate(81, 227)"></g><g id="g-root-cu_mgp6ay7tbo5f-fill" data-item-order="2" data-item-id="cu_mgp6ay7tbo5f" data-item-class="Curve Stroke" data-item-index="none" data-renderer-id="0" transform="translate(265.8846435546875, 227)"></g><g id="g-root-cu_mgp6ay7tbo5i-fill" data-item-order="2" data-item-id="cu_mgp6ay7tbo5i" data-item-class="Curve Stroke" data-item-index="none" data-renderer-id="0" transform="translate(457, 227)"></g><g id="g-root-cu_i0vo6i7tboxt-fill" data-item-order="2" data-item-id="cu_i0vo6i7tboxt" data-item-class="Curve Stroke" data-item-index="none" data-renderer-id="0" transform="translate(660, 227)"></g><g id="g-root-cu_8vvjmy7td158-fill" data-item-order="2" data-item-id="cu_8vvjmy7td158" data-item-class="Curve Stroke" data-item-index="none" data-renderer-id="0" transform="translate(875, 227)"></g><g id="g-root-cu_vcc6ju7tbmks-fill" data-item-order="2" data-item-id="cu_vcc6ju7tbmks" data-item-class="Curve Stroke" data-item-index="none" data-renderer-id="0" transform="translate(427, 75)"></g><g id="g-root-cu_147cppm7tboxu-fill" data-item-order="2" data-item-id="cu_147cppm7tboxu" data-item-class="Curve Stroke" data-item-index="none" data-renderer-id="0" transform="translate(427, 75)"></g><g id="g-root-cu_1hit82y7tbncw-fill" data-item-order="2" data-item-id="cu_1hit82y7tbncw" data-item-class="Curve Stroke" data-item-index="none" data-renderer-id="0" transform="translate(269, 75)"></g><g id="g-root-cu_1qdtr8q7tboy5-fill" data-item-order="2" data-item-id="cu_1qdtr8q7tboy5" data-item-class="Curve Stroke" data-item-index="none" data-renderer-id="0" transform="translate(81, 75)"></g><g id="g-root-ro_hz1h627j98g7-stroke" data-item-order="-20802" data-item-id="ro_hz1h627j98g7" data-item-class="Shape Stroke Fill" data-item-index="none" data-renderer-id="0" transform="translate(157.53848266601562, 283)"><g id="ro_hz1h627j98g7-stroke" fill="none" stroke-linecap="round" stroke-linejoin="round" stroke-miterlimit="4" stroke="#1AC6FF" stroke-width="2"><g><path d="M 22.002291 10L 214.692291 10C 214.692291 10 226.692291 10 226.692291 22L 226.692291 94C 226.692291 94 226.692291 106 214.692291 106L 22.002291 106C 22.002291 106 10.002291 106 10.002291 94L 10.002291 22C 10.002291 22 10.002291 10 22.002291 10"></path></g></g></g><g id="g-root-ro_zofw2y7j0u85-stroke" data-item-order="-19584" data-item-id="ro_zofw2y7j0u85" data-item-class="Shape Stroke Fill" data-item-index="none" data-renderer-id="0" transform="translate(773, 131)"><g id="ro_zofw2y7j0u85-stroke" fill="none" stroke-linecap="round" stroke-linejoin="round" stroke-miterlimit="4" stroke="#1AC6FF" stroke-width="2"><g><path d="M 22 10L 202 10C 202 10 214 10 214 22L 214 94C 214 94 214 106 202 106L 22 106C 22 106 10 106 10 94L 10 22C 10 22 10 10 22 10"></path></g></g></g><g id="g-root-ro_1uuap7u7iy13i-stroke" data-item-order="-19584" data-item-id="ro_1uuap7u7iy13i" data-item-class="Shape Stroke Fill" data-item-index="none" data-renderer-id="0" transform="translate(558, 131)"><g id="ro_1uuap7u7iy13i-stroke" fill="none" stroke-linecap="round" stroke-linejoin="round" stroke-miterlimit="4" stroke="#1AC6FF" stroke-width="2"><g><path d="M 22 10L 202 10C 202 10 214 10 214 22L 214 94C 214 94 214 106 202 106L 22 106C 22 106 10 106 10 94L 10 22C 10 22 10 10 22 10"></path></g></g></g><g id="g-root-ro_zpnp627teio3-stroke" data-item-order="-17280" data-item-id="ro_zpnp627teio3" data-item-class="Shape Stroke Fill" data-item-index="none" data-renderer-id="0" transform="translate(570, 283)"><g id="ro_zpnp627teio3-stroke" fill="none" stroke-linecap="round" stroke-linejoin="round" stroke-miterlimit="4" stroke="#1AC6FF" stroke-width="2"><g><path d="M 22 10L 178 10C 178 10 190 10 190 22L 190 94C 190 94 190 106 178 106L 22 106C 22 106 10 106 10 94L 10 22C 10 22 10 10 22 10"></path></g></g></g><g id="g-root-ro_3dp9m7jc45o-stroke" data-item-order="-17280" data-item-id="ro_3dp9m7jc45o" data-item-class="Shape Stroke Fill" data-item-index="none" data-renderer-id="0" transform="translate(367, 131)"><g id="ro_3dp9m7jc45o-stroke" fill="none" stroke-linecap="round" stroke-linejoin="round" stroke-miterlimit="4" stroke="#1AC6FF" stroke-width="2"><g><path d="M 22 10L 178 10C 178 10 190 10 190 22L 190 94C 190 94 190 106 178 106L 22 106C 22 106 10 106 10 94L 10 22C 10 22 10 10 22 10"></path></g></g></g><g id="g-root-ro_hx59gq7jc2dj-stroke" data-item-order="-14976" data-item-id="ro_hx59gq7jc2dj" data-item-class="Shape Stroke Fill" data-item-index="none" data-renderer-id="0" transform="translate(3, 131)"><g id="ro_hx59gq7jc2dj-stroke" fill="none" stroke-linecap="round" stroke-linejoin="round" stroke-miterlimit="4" stroke="#1AC6FF" stroke-width="2"><g><path d="M 22 10L 154 10C 154 10 166 10 166 22L 166 94C 166 94 166 106 154 106L 22 106C 22 106 10 106 10 94L 10 22C 10 22 10 10 22 10"></path></g></g></g><g id="g-root-ro_vccsoa7jdibo-stroke" data-item-order="-14976" data-item-id="ro_vccsoa7jdibo" data-item-class="Shape Stroke Fill" data-item-index="none" data-renderer-id="0" transform="translate(191, 131)"><g id="ro_vccsoa7jdibo-stroke" fill="none" stroke-linecap="round" stroke-linejoin="round" stroke-miterlimit="4" stroke="#1AC6FF" stroke-width="2"><g><path d="M 22 10L 154 10C 154 10 166 10 166 22L 166 94C 166 94 166 106 154 106L 22 106C 22 106 10 106 10 94L 10 22C 10 22 10 10 22 10"></path></g></g></g><g id="g-root-ro_1qapdt67tbojo-stroke" data-item-order="-13824" data-item-id="ro_1qapdt67tbojo" data-item-class="Shape Stroke Fill" data-item-index="none" data-renderer-id="0" transform="translate(803, 283)"><g id="ro_1qapdt67tbojo-stroke" fill="none" stroke-linecap="round" stroke-linejoin="round" stroke-miterlimit="4" stroke="#1AC6FF" stroke-width="2"><g><path d="M 22 10L 142 10C 142 10 154 10 154 22L 154 94C 154 94 154 106 142 106L 22 106C 22 106 10 106 10 94L 10 22C 10 22 10 10 22 10"></path></g></g></g><g id="g-root-ro_zmkn567jj30l-stroke" data-item-order="-13824" data-item-id="ro_zmkn567jj30l" data-item-class="Shape Stroke Fill" data-item-index="none" data-renderer-id="0" transform="translate(385, 283)"><g id="ro_zmkn567jj30l-stroke" fill="none" stroke-linecap="round" stroke-linejoin="round" stroke-miterlimit="4" stroke="#1AC6FF" stroke-width="2"><g><path d="M 22 10L 142 10C 142 10 154 10 154 22L 154 94C 154 94 154 106 142 106L 22 106C 22 106 10 106 10 94L 10 22C 10 22 10 10 22 10"></path></g></g></g><g id="g-root-ro_1lvjep67jhonf-stroke" data-item-order="-12672" data-item-id="ro_1lvjep67jhonf" data-item-class="Shape Stroke Fill" data-item-index="none" data-renderer-id="0" transform="translate(15, 283)"><g id="ro_1lvjep67jhonf-stroke" fill="none" stroke-linecap="round" stroke-linejoin="round" stroke-miterlimit="4" stroke="#1AC6FF" stroke-width="2"><g><path d="M 22 10L 130 10C 130 10 142 10 142 22L 142 94C 142 94 142 106 130 106L 22 106C 22 106 10 106 10 94L 10 22C 10 22 10 10 22 10"></path></g></g></g><g id="g-root-ro_1heg2sq7j52ip-stroke" data-item-order="-12096" data-item-id="ro_1heg2sq7j52ip" data-item-class="Shape Stroke Fill" data-item-index="none" data-renderer-id="0" transform="translate(343, 3)"><g id="ro_1heg2sq7j52ip-stroke" fill="none" stroke-linecap="round" stroke-linejoin="round" stroke-miterlimit="4" stroke="#A3A3A3" stroke-width="2"><g><path d="M 22 10L 166 10C 166 10 178 10 178 22L 178 70C 178 70 178 82 166 82L 22 82C 22 82 10 82 10 70L 10 22C 10 22 10 10 22 10"></path></g></g></g><g id="g-root-2_dgpwdm7jhoui-stroke" data-item-order="0" data-item-id="2_dgpwdm7jhoui" data-item-class="Icon Stroke" data-item-index="none" data-renderer-id="0" transform="translate(27, 316)"><g id="2_dgpwdm7jhoui-stroke" fill="none" stroke-linecap="round" stroke-linejoin="round" stroke-miterlimit="4" stroke="#1AC6FF" stroke-width="2"><g><path d="M 39.393749 39.318748C 34.782745 38.254112 30.063494 37.729752 25.331251 37.756248C 20.599005 37.729752 15.879757 38.254112 11.26875 39.318748M 33.731251 21.30625L 33.731251 16.30625M 27.481249 31.93125L 22.481249 31.93125C 21.790894 31.93125 21.231249 32.490894 21.231249 33.181252L 21.231249 37.666248M 37.481251 38.768749L 37.481251 26.30625C 37.481251 25.615894 36.921608 25.05625 36.231251 25.05625L 28.731249 25.05625C 28.040894 25.05625 27.481249 25.615894 27.481249 26.30625L 27.481249 37.605M 29.981249 21.30625L 34.981251 21.30625L 34.981251 25.05625L 29.981249 25.05625ZM 19.92625 25.45875C 16.820541 26.235622 13.564106 24.955509 11.818803 22.271692C 10.0735 19.587873 10.224154 16.09211 12.193882 13.568396C 14.16361 11.044682 17.518105 10.049475 20.545462 11.09066C 23.572819 12.131845 25.605534 14.979851 25.606251 18.18125C 25.618746 21.627028 23.271879 24.633949 19.92625 25.45875M 11.60875 14.4325L 13.41875 14.4325C 14.454284 14.4325 15.29375 15.271967 15.29375 16.307501L 15.29375 17.182499C 15.29421 17.807352 15.605913 18.390917 16.125 18.73875L 17.3225 19.5375C 17.810572 19.861855 18.103895 20.408979 18.103895 20.995001C 18.103895 21.581022 17.810572 22.128145 17.3225 22.452499L 14.1625 24.5625M 24.60375 14.4325L 23.72875 14.4325C 23.079441 14.433604 22.476919 14.770566 22.136063 15.323215C 21.795208 15.875866 21.764542 16.565529 22.055 17.14625C 22.5875 18.213751 22.710001 18.27125 23.04125 18.463749L 25.41625 19.88625M 30.606251 28.18125L 34.356251 28.18125M 30.606251 31.30625L 34.356251 31.30625M 30.606251 34.431252L 34.356251 34.431252"></path></g></g></g><g id="g-root-2_v7zaqy7jc3ye-stroke" data-item-order="0" data-item-id="2_v7zaqy7jc3ye" data-item-class="Icon Stroke" data-item-index="none" data-renderer-id="0" transform="translate(15, 164)"><g id="2_v7zaqy7jc3ye-stroke" fill="none" stroke-linecap="round" stroke-linejoin="round" stroke-miterlimit="4" stroke="#1AC6FF" stroke-width="2"><g><path d="M 12.9625 22.25L 22.987501 22.25C 22.987501 22.25 24.862501 22.25 24.862501 24.125L 24.862501 31.25C 24.862501 31.25 24.862501 33.125 22.987501 33.125L 12.9625 33.125C 12.9625 33.125 11.0875 33.125 11.0875 31.25L 11.0875 24.125C 11.0875 24.125 11.0875 22.25 12.9625 22.25M 12.9 22.280001L 12.9 20.075001C 12.9 17.272154 15.172155 15 17.975 15C 20.777845 15 23.049999 17.272154 23.049999 20.075001L 23.049999 22.280001M 15.8 27.6875L 17.25 29.137501L 20.15 26.237499M 31.412498 15C 31.412502 17.071068 33.091434 18.75 35.162502 18.75C 37.23357 18.75 38.912502 17.071068 38.912502 15C 38.912502 12.928932 37.23357 11.25 35.162502 11.25C 33.091434 11.25 31.412502 12.928932 31.412502 15M 31.412498 35C 31.412502 37.071068 33.091434 38.75 35.162502 38.75C 37.23357 38.75 38.912502 37.071068 38.912502 35C 38.912502 32.928932 37.23357 31.25 35.162502 31.25C 33.091434 31.25 31.412502 32.928932 31.412502 35M 31.412498 16.875L 27.0375 19.375M 31.412498 33.75L 27.6625 31.875"></path></g></g></g><g id="g-root-tx_erc721nf_1cz9b8q7jc1l9-stroke" data-item-order="0" data-item-id="tx_erc721nf_1cz9b8q7jc1l9" data-item-class="Label Stroke" data-item-index="none" data-renderer-id="0" transform="translate(51, 155)"></g><g id="g-root-wave_1lyncbu7jdibn-stroke" data-item-order="0" data-item-id="wave_1lyncbu7jdibn" data-item-class="Icon Stroke" data-item-index="none" data-renderer-id="0" transform="translate(203, 164)"><g id="wave_1lyncbu7jdibn-stroke" fill="none" stroke-linecap="round" stroke-linejoin="round" stroke-miterlimit="4" stroke="#1AC6FF" stroke-width="2"><g><path d="M 10.625 25C 10.625 32.939095 17.060907 39.375 25 39.375C 32.939095 39.375 39.375 32.939095 39.375 25C 39.375 17.060907 32.939095 10.625 25 10.625C 17.060907 10.625 10.625 17.060907 10.625 25M 16.874794 25L 24.999453 16.875343L 33.124111 25L 24.999453 33.124657Z"></path></g></g></g><g id="g-root-tx_erc1155n_djtu0a7jdiiq-stroke" data-item-order="0" data-item-id="tx_erc1155n_djtu0a7jdiiq" data-item-class="Label Stroke" data-item-index="none" data-renderer-id="0" transform="translate(239, 155)"></g><g id="g-root-disc_deu7my7jc2kr-stroke" data-item-order="0" data-item-id="disc_deu7my7jc2kr" data-item-class="Icon Stroke" data-item-index="none" data-renderer-id="0" transform="translate(379, 164)"><g id="disc_deu7my7jc2kr-stroke" fill="none" stroke-linecap="round" stroke-linejoin="round" stroke-miterlimit="4" stroke="#1AC6FF" stroke-width="2"><g><path d="M 11.071428 25C 11.071429 32.692539 17.307463 38.92857 25 38.92857C 32.692539 38.92857 38.92857 32.692539 38.92857 25C 38.92857 17.307463 32.692539 11.071429 25 11.071429C 17.307463 11.071429 11.071429 17.307463 11.071429 25M 21.785713 25C 21.785713 26.775202 23.2248 28.214285 25 28.214285C 26.775202 28.214285 28.214285 26.775202 28.214285 25C 28.214285 23.2248 26.775202 21.785713 25 21.785713C 23.2248 21.785713 21.785713 23.2248 21.785713 25"></path></g></g></g><g id="g-root-tx_erc20tok_1414rai7jc2kq-stroke" data-item-order="0" data-item-id="tx_erc20tok_1414rai7jc2kq" data-item-class="Label Stroke" data-item-index="none" data-renderer-id="0" transform="translate(415, 155)"></g><g id="g-root-brow_hznoru7iy22t-stroke" data-item-order="0" data-item-id="brow_hznoru7iy22t" data-item-class="Icon Stroke" data-item-index="none" data-renderer-id="0" transform="translate(570, 164)"><g id="brow_hznoru7iy22t-stroke" fill="none" stroke-linecap="round" stroke-linejoin="round" stroke-miterlimit="4" stroke="#1AC6FF" stroke-width="2"><g><path d="M 23.129999 21.900002L 23.129999 24.375M 25.629999 21.900002L 25.629999 24.375M 23.129999 31.900002L 23.129999 34.375M 25.629999 31.900002L 25.629999 34.375M 28.125 26.25C 28.125 27.285534 27.285534 28.125 26.25 28.125L 21.875 28.125L 21.875 24.375L 26.25 24.375C 27.285534 24.375 28.125 25.214466 28.125 26.25ZM 28.125 30C 28.125 31.035536 27.285534 31.875 26.25 31.875L 21.875 31.875L 21.875 28.125L 26.25 28.125C 27.285534 28.125 28.125 28.964466 28.125 30ZM 13.13 13.125L 36.880001 13.125C 36.880001 13.125 39.380001 13.125 39.380001 15.625L 39.380001 34.375C 39.380001 34.375 39.380001 36.875 36.880001 36.875L 13.13 36.875C 13.13 36.875 10.63 36.875 10.63 34.375L 10.63 15.625C 10.63 15.625 10.63 13.125 13.13 13.125M 10.63 19.375L 39.380001 19.375M 14.375 15.9375C 14.547589 15.9375 14.6875 16.077412 14.6875 16.25C 14.6875 16.422588 14.547589 16.5625 14.375 16.5625C 14.202411 16.5625 14.0625 16.422588 14.0625 16.25C 14.0625 16.077412 14.202411 15.9375 14.375 15.9375M 17.817501 15.9375C 17.98941 15.94025 18.126808 16.081356 18.124983 16.253281C 18.123156 16.425203 17.982792 16.563358 17.81086 16.562456C 17.638929 16.561554 17.500023 16.421932 17.5 16.25C 17.5 16.077412 17.639912 15.9375 17.8125 15.9375M 21.567499 15.9375C 21.73941 15.94025 21.87681 16.081356 21.874983 16.253281C 21.873156 16.425203 21.73279 16.563358 21.56086 16.562456C 21.388929 16.561554 21.250021 16.421932 21.25 16.25C 21.25 16.077412 21.389912 15.9375 21.5625 15.9375"></path></g></g></g><g id="g-root-tx_validati_1d1rqju7iy1ak-stroke" data-item-order="0" data-item-id="tx_validati_1d1rqju7iy1ak" data-item-class="Label Stroke" data-item-index="none" data-renderer-id="0" transform="translate(606, 155)"></g><g id="g-root-mult_1449e7e7j0tfw-stroke" data-item-order="0" data-item-id="mult_1449e7e7j0tfw" data-item-class="Icon Stroke" data-item-index="none" data-renderer-id="0" transform="translate(785, 164)"><g id="mult_1449e7e7j0tfw-stroke" fill="none" stroke-linecap="round" stroke-linejoin="round" stroke-miterlimit="4" stroke="#1AC6FF" stroke-width="2"><g><path d="M 16.428572 15.357142L 29.285713 15.357142C 29.285713 15.357142 31.42857 15.357142 31.42857 17.5L 31.42857 36.785713C 31.42857 36.785713 31.42857 38.92857 29.285713 38.92857L 16.428572 38.92857C 16.428572 38.92857 14.285714 38.92857 14.285714 36.785713L 14.285714 17.5C 14.285714 17.5 14.285714 15.357142 16.428572 15.357142M 18.571428 20.714285L 27.142857 20.714285M 18.571428 26.071428L 27.142857 26.071428M 18.571428 31.42857L 22.857143 31.42857M 19.642857 11.071428L 33.571426 11.071428C 34.754894 11.071428 35.714287 12.030818 35.714287 13.214286L 35.714287 33.571426"></path></g></g></g><g id="g-root-tx_interope_1hf3fhm7j0v0r-stroke" data-item-order="0" data-item-id="tx_interope_1hf3fhm7j0v0r" data-item-class="Label Stroke" data-item-index="none" data-renderer-id="0" transform="translate(821, 167)"></g><g id="g-root-tx_uniquepl_1430g167jhouh-stroke" data-item-order="0" data-item-id="tx_uniquepl_1430g167jhouh" data-item-class="Label Stroke" data-item-index="none" data-renderer-id="0" transform="translate(63, 307)"></g><g id="g-root-user_zpp0kq7j998u-stroke" data-item-order="0" data-item-id="user_zpp0kq7j998u" data-item-class="Icon Stroke" data-item-index="none" data-renderer-id="0" transform="translate(169.5384979248047, 316)"><g id="user_zpp0kq7j998u-stroke" fill="none" stroke-linecap="round" stroke-linejoin="round" stroke-miterlimit="4" stroke="#1AC6FF" stroke-width="2"><g><path d="M 30.357141 14.285714C 30.357141 16.060915 31.796228 17.5 33.571426 17.5C 35.34663 17.5 36.785713 16.060915 36.785713 14.285714C 36.785713 12.510513 35.34663 11.071428 33.571426 11.071428C 31.796228 11.071428 30.357141 12.510513 30.357141 14.285714M 28.642857 22.857143C 29.714285 20.071428 32.92857 18.785713 35.714287 20.071428C 37.642857 20.928572 38.92857 22.857143 38.92857 25M 11.071428 19.642857L 19.642857 19.642857L 19.642857 28.214285L 11.071428 28.214285ZM 11.071428 38.92857L 33.571426 38.92857C 36.571426 38.92857 38.92857 36.571426 38.92857 33.571426C 38.92857 30.571428 36.571426 28.214285 33.571426 28.214285L 11.071428 28.214285M 11.285714 33.571426C 11.285714 33.808121 11.477592 34 11.714286 34C 11.950979 34 12.142857 33.808121 12.142857 33.571426C 12.142857 33.334736 11.950979 33.142857 11.714286 33.142857C 11.477592 33.142857 11.285714 33.334736 11.285714 33.571426M 22 33.571426C 22 33.808121 22.191877 34 22.428572 34C 22.665264 34 22.857143 33.808121 22.857143 33.571426C 22.857143 33.334736 22.665264 33.142857 22.428572 33.142857C 22.191877 33.142857 22 33.334736 22 33.571426M 32.714287 33.571426C 32.714287 33.808121 32.906162 34 33.142857 34C 33.379551 34 33.571426 33.808121 33.571426 33.571426C 33.571426 33.334736 33.379551 33.142857 33.142857 33.142857C 32.906162 33.142857 32.714287 33.334736 32.714287 33.571426"></path></g></g></g><g id="g-root-stac_1hd86ju7jj3t8-stroke" data-item-order="0" data-item-id="stac_1hd86ju7jj3t8" data-item-class="Icon Stroke" data-item-index="none" data-renderer-id="0" transform="translate(397, 316)"><g id="stac_1hd86ju7jj3t8-stroke" fill="none" stroke-linecap="round" stroke-linejoin="round" stroke-miterlimit="4" stroke="#1AC6FF" stroke-width="2"><g><path d="M 19.642857 21.785713C 19.642857 24.152649 23.960112 26.071428 29.285713 26.071428C 34.611317 26.071428 38.92857 24.152649 38.92857 21.785713C 38.92857 19.418779 34.611317 17.5 29.285713 17.5C 23.960112 17.5 19.642857 19.418779 19.642857 21.785713M 19.642857 21.785713L 19.642857 34.642857C 19.642857 37 23.928572 38.92857 29.285713 38.92857C 34.642857 38.92857 38.92857 37 38.92857 34.642857L 38.92857 21.785713M 38.92857 28.214285C 38.92857 30.571428 34.642857 32.5 29.285713 32.5C 23.928572 32.5 19.642857 30.571428 19.642857 28.214285M 29.071426 13.214286C 26.567484 11.669019 23.652849 10.921677 20.714285 11.071428C 15.378572 11.071428 11.071428 13 11.071428 15.357142C 11.071428 16.621428 12.314285 17.757143 14.285714 18.571428M 14.285714 31.42857C 12.314285 30.614285 11.071428 29.478571 11.071428 28.214285L 11.071428 15.357142M 14.285714 25C 12.314285 24.185713 11.071428 23.049999 11.071428 21.785713"></path></g></g></g><g id="g-root-tx_primaryc_hu1oh67jj37n-stroke" data-item-order="0" data-item-id="tx_primaryc_hu1oh67jj37n" data-item-class="Label Stroke" data-item-index="none" data-renderer-id="0" transform="translate(433, 307)"></g><g id="g-root-chec_1d147je7teh36-stroke" data-item-order="0" data-item-id="chec_1d147je7teh36" data-item-class="Icon Stroke" data-item-index="none" data-renderer-id="0" transform="translate(582, 316)"><g id="chec_1d147je7teh36-stroke" fill="none" stroke-linecap="round" stroke-linejoin="round" stroke-miterlimit="4" stroke="#1AC6FF" stroke-width="2"><g><path d="M 31.875 18.75L 24.331249 29.665001L 18.608749 23.940001M 12.5 14.71875L 12.5 24.264999C 12.489674 30.605133 16.376829 36.299805 22.285 38.599998L 23.618752 39.1175C 24.5075 39.461273 25.4925 39.461273 26.38125 39.1175L 27.715 38.599998C 33.623169 36.299805 37.510326 30.605133 37.5 24.264999L 37.5 14.71875C 37.506096 13.965388 37.07103 13.27808 36.387501 12.96125C 32.799839 11.385195 28.918413 10.588885 24.999998 10.625C 21.081585 10.588885 17.200163 11.385195 13.6125 12.96125C 12.928972 13.27808 12.493905 13.965388 12.5 14.71875Z"></path></g></g></g><g id="g-root-tx_securetr_9247ca7tegi1-stroke" data-item-order="0" data-item-id="tx_securetr_9247ca7tegi1" data-item-class="Label Stroke" data-item-index="none" data-renderer-id="0" transform="translate(618, 307)"></g><g id="g-root-2_4l1u7e7tbn5v-stroke" data-item-order="0" data-item-id="2_4l1u7e7tbn5v" data-item-class="Icon Stroke" data-item-index="none" data-renderer-id="0" transform="translate(815, 316)"><g id="2_4l1u7e7tbn5v-stroke" fill="none" stroke-linecap="round" stroke-linejoin="round" stroke-miterlimit="4" stroke="#1AC6FF" stroke-width="2"><g><path d="M 22.532499 14.60125L 23.696249 17.786251C 23.696249 18.14875 22.78125 18.258749 22.68375 18.59C 22.235001 20.09 21.74 20.858749 20.088751 20.858749C 19.953226 20.857948 19.817913 20.847925 19.68375 20.828751C 18.039282 20.585562 16.764034 19.266712 16.57625 17.615C 16.35375 15.31125 17.151251 14.80875 18.432499 14.895C 20.635 15.04375 21.168751 14.11625 22.532499 14.60125C 23.58375 13.87375 23.852499 12.54875 23.185001 12.0175C 22.131161 11.119699 20.7673 10.670913 19.38625 10.7675C 17.452421 10.653803 15.583811 11.486265 14.375 13C 13.18625 14.585 13.79375 17.9125 13.42375 20.10375C 13.3575 20.465 12.15 21.25 11.64875 22.1175C 11.295452 22.973427 11.098583 23.885796 11.0675 24.811251M 17.094999 29.72875L 17.094999 36.717499C 17.094999 38.110149 15.9664 39.239307 14.57375 39.239998L 12.3675 39.240002C 11.496962 39.240002 10.79125 38.53429 10.79125 37.66375C 10.79125 36.793213 11.496962 36.087502 12.3675 36.087502L 13.3125 36.087502L 13.3125 28.018749C 13.312826 27.672091 13.349697 27.326429 13.422501 26.987499L 13.4225 26.987499C 13.685329 25.766083 14.407074 24.69219 15.43875 23.987501M 18.875 38.407501L 18.875 38.407501C 20.547655 38.958885 22.297558 39.239918 24.05875 39.240002L 26.80875 39.240002C 31.721727 39.239311 35.704311 35.256729 35.705002 30.343752L 35.704998 25.19875C 38.297501 24.2875 38.974998 23.42625 39.215 20.5875C 39.22411 20.479824 39.181679 20.374195 39.100613 20.302742C 39.01955 20.231287 38.909431 20.20245 38.803753 20.225L 33.637501 22.125L 28.475 20.700001C 28.368242 20.682392 28.259594 20.717831 28.18375 20.795C 28.107208 20.871273 28.07148 20.979387 28.0875 21.08625C 28.5175 23.952499 28.82625 24.690001 31.596251 25.383751L 31.596251 27.055C 31.596251 30.023748 29.684999 31.700001 26.721251 31.700001L 23.471251 31.616249L 22.75 29.637501C 23.814123 29.281549 24.508711 28.257837 24.446249 27.137501C 24.382175 26.048677 23.732201 25.080416 22.748751 24.608749L 21.998751 23.76M 35.436253 28.20875C 34.695709 28.248667 34.000431 28.577679 33.5 29.125C 33.150375 28.461006 32.551552 27.962885 31.835001 27.74M 34.92625 33.970001C 33.990452 33.134354 32.615391 33.016708 31.551249 33.681248C 31.356888 32.785484 30.739826 32.039791 29.89625 31.68125C 29.755976 31.622335 29.611382 31.574278 29.463751 31.537498M 26.296249 39.076248C 27.035484 37.573833 26.535805 35.755989 25.1325 34.842499C 25.989067 34.192909 26.475536 33.166805 26.436251 32.092499M 17.094999 33.75C 18.166763 33.761246 19.180805 33.265347 19.83 32.412498C 20.386488 32.986633 21.197607 33.236881 21.980839 33.07608C 22.764071 32.915283 23.410982 32.3657 23.696249 31.61875"></path></g></g></g><g id="g-root-tx_massprod_1lw623u7j9a11-stroke" data-item-order="0" data-item-id="tx_massprod_1lw623u7j9a11" data-item-class="Label Stroke" data-item-index="none" data-renderer-id="0" transform="translate(205.53848266601562, 295)"></g><g id="g-root-bloc_1upwl627j50xs-stroke" data-item-order="0" data-item-id="bloc_1upwl627j50xs" data-item-class="Icon Stroke" data-item-index="none" data-renderer-id="0" transform="translate(355, 24)"><g id="bloc_1upwl627j50xs-stroke" fill="none" stroke-linecap="round" stroke-linejoin="round" stroke-miterlimit="4" stroke="#A3A3A3" stroke-width="2"><g><path d="M 23.16625 12.77125C 23.16625 13.784002 23.987247 14.605 25 14.605C 26.012753 14.605 26.83375 13.784002 26.83375 12.77125C 26.83375 11.758498 26.012753 10.9375 25 10.9375C 23.987247 10.9375 23.16625 11.758498 23.16625 12.77125M 23.1675 37.228752C 23.1675 38.241505 23.988499 39.0625 25.001251 39.0625C 26.014002 39.0625 26.835001 38.241505 26.835001 37.228752C 26.835001 36.216 26.014002 35.395 25.001251 35.395C 23.988499 35.395 23.1675 36.216 23.1675 37.228752M 32.947498 31.117498C 32.947498 32.130253 33.768497 32.951248 34.78125 32.951248C 35.794003 32.951248 36.614998 32.130253 36.614998 31.1175C 36.614998 30.10475 35.794003 29.283751 34.78125 29.283751C 33.768497 29.283751 32.947498 30.10475 32.947498 31.1175M 13.385 31.117498C 13.385 32.130253 14.205997 32.951248 15.21875 32.951248C 16.231503 32.951248 17.0525 32.130253 17.0525 31.1175C 17.0525 30.10475 16.231503 29.283751 15.21875 29.283751C 14.205997 29.283751 13.385 30.10475 13.385 31.1175M 32.947498 18.88625C 32.947498 19.899002 33.768497 20.720001 34.78125 20.720001C 35.794003 20.720001 36.614998 19.899002 36.614998 18.88625C 36.614998 17.873499 35.794003 17.0525 34.78125 17.0525C 33.768497 17.0525 32.947498 17.873499 32.947498 18.88625M 13.385 18.88625C 13.385 19.899002 14.205997 20.720001 15.21875 20.720001C 16.231503 20.720001 17.0525 19.899002 17.0525 18.88625C 17.0525 17.873499 16.231503 17.0525 15.21875 17.0525C 14.205997 17.0525 13.385 17.873499 13.385 18.88625M 22.555 25C 22.555 26.350336 23.649664 27.445 25 27.445C 26.350336 27.445 27.445 26.350336 27.445 25C 27.445 23.649664 26.350336 22.555 25 22.555C 23.649664 22.555 22.555 23.649664 22.555 25M 25 22.555L 25 17.6625M 25 32.337502L 25 27.445M 23.16625 19.497499L 25 17.6625L 26.83375 19.497499M 23.16625 30.502501L 25 32.337502L 26.83375 30.502501M 31.11375 21.331249L 27.0975 23.741249M 29.279999 20.5975L 31.115 21.331249L 30.86875 23.41M 18.887501 21.331249L 22.9025 23.741249M 20.720001 20.5975L 18.88625 21.331249L 19.13125 23.41M 31.11375 28.668751L 27.0975 26.258751M 29.279999 29.401249L 31.11375 28.668751L 30.86875 26.588749M 18.88625 28.668751L 22.9025 26.258751M 20.720001 29.401249L 18.88625 28.668751L 19.13125 26.588749"></path></g></g></g><g id="g-root-tx_external_mbpdm27tbnyi-stroke" data-item-order="0" data-item-id="tx_external_mbpdm27tbnyi" data-item-class="Label Stroke" data-item-index="none" data-renderer-id="0" transform="translate(851, 307)"></g><g id="g-root-tx_blockcha_4jt2cq7j52q7-stroke" data-item-order="0" data-item-id="tx_blockcha_4jt2cq7j52q7" data-item-class="Label Stroke" data-item-index="none" data-renderer-id="0" transform="translate(391, 15)"></g><g id="g-root-cu_vcc6ju7tbmku-stroke" data-item-order="2" data-item-id="cu_vcc6ju7tbmku" data-item-class="Curve Stroke" data-item-index="none" data-renderer-id="0" transform="translate(427, 75)"><g id="cu_vcc6ju7tbmku-stroke" fill="none" stroke-linecap="round" stroke-linejoin="round" stroke-miterlimit="4" stroke="#A3A3A3" stroke-width="2"><g><path d="M 10 10L 10 24L 10 38L 234 38L 458 38L 458 52L 458 64"></path><path d="M 451.5 58L 458 64.5L 464.5 58" stroke-dasharray="none"></path></g></g></g><g id="g-root-cu_qwiofe7tbnd4-stroke" data-item-order="2" data-item-id="cu_qwiofe7tbnd4" data-item-class="Curve Stroke" data-item-index="none" data-renderer-id="0" transform="translate(81, 227)"><g id="cu_qwiofe7tbnd4-stroke" fill="none" stroke-linecap="round" stroke-linejoin="round" stroke-miterlimit="4" stroke="#A3A3A3" stroke-width="2"><g><path d="M 10 10L 10 38L 10 64"></path><path d="M 3.5 58L 10 64.5L 16.5 58" stroke-dasharray="none"></path></g></g></g><g id="g-root-cu_mgp6ay7tbo5f-stroke" data-item-order="2" data-item-id="cu_mgp6ay7tbo5f" data-item-class="Curve Stroke" data-item-index="none" data-renderer-id="0" transform="translate(265.8846435546875, 227)"><g id="cu_mgp6ay7tbo5f-stroke" fill="none" stroke-linecap="round" stroke-linejoin="round" stroke-miterlimit="4" stroke="#A3A3A3" stroke-width="2"><g><path d="M 13.1 10L 13.1 24L 13.1 38L 11.6 38L 10 38L 10 52L 10 64"></path><path d="M 3.5 58L 10 64.5L 16.5 58" stroke-dasharray="none"></path></g></g></g><g id="g-root-cu_mgp6ay7tbo5i-stroke" data-item-order="2" data-item-id="cu_mgp6ay7tbo5i" data-item-class="Curve Stroke" data-item-index="none" data-renderer-id="0" transform="translate(457, 227)"><g id="cu_mgp6ay7tbo5i-stroke" fill="none" stroke-linecap="round" stroke-linejoin="round" stroke-miterlimit="4" stroke="#A3A3A3" stroke-width="2"><g><path d="M 10 10L 10 38L 10 64"></path><path d="M 3.5 58L 10 64.5L 16.5 58" stroke-dasharray="none"></path></g></g></g><g id="g-root-cu_i0vo6i7tboxt-stroke" data-item-order="2" data-item-id="cu_i0vo6i7tboxt" data-item-class="Curve Stroke" data-item-index="none" data-renderer-id="0" transform="translate(660, 227)"><g id="cu_i0vo6i7tboxt-stroke" fill="none" stroke-linecap="round" stroke-linejoin="round" stroke-miterlimit="4" stroke="#A3A3A3" stroke-width="2"><g><path d="M 10 10L 10 38L 10 64"></path><path d="M 3.5 58L 10 64.5L 16.5 58" stroke-dasharray="none"></path></g></g></g><g id="g-root-cu_8vvjmy7td158-stroke" data-item-order="2" data-item-id="cu_8vvjmy7td158" data-item-class="Curve Stroke" data-item-index="none" data-renderer-id="0" transform="translate(875, 227)"><g id="cu_8vvjmy7td158-stroke" fill="none" stroke-linecap="round" stroke-linejoin="round" stroke-miterlimit="4" stroke="#A3A3A3" stroke-width="2"><g><path d="M 10 10L 10 38L 10 64"></path><path d="M 3.5 58L 10 64.5L 16.5 58" stroke-dasharray="none"></path></g></g></g><g id="g-root-cu_vcc6ju7tbmks-stroke" data-item-order="2" data-item-id="cu_vcc6ju7tbmks" data-item-class="Curve Stroke" data-item-index="none" data-renderer-id="0" transform="translate(427, 75)"><g id="cu_vcc6ju7tbmks-stroke" fill="none" stroke-linecap="round" stroke-linejoin="round" stroke-miterlimit="4" stroke="#A3A3A3" stroke-width="2"><g><path d="M 10 10L 10 24L 10 38L 126.5 38L 243 38L 243 52L 243 64"></path><path d="M 236.5 58L 243 64.5L 249.5 58" stroke-dasharray="none"></path></g></g></g><g id="g-root-cu_147cppm7tboxu-stroke" data-item-order="2" data-item-id="cu_147cppm7tboxu" data-item-class="Curve Stroke" data-item-index="none" data-renderer-id="0" transform="translate(427, 75)"><g id="cu_147cppm7tboxu-stroke" fill="none" stroke-linecap="round" stroke-linejoin="round" stroke-miterlimit="4" stroke="#A3A3A3" stroke-width="2"><g><path d="M 10 10L 10 24L 10 38L 25 38L 40 38L 40 52L 40 64"></path><path d="M 33.5 58L 40 64.5L 46.5 58" stroke-dasharray="none"></path></g></g></g><g id="g-root-cu_1hit82y7tbncw-stroke" data-item-order="2" data-item-id="cu_1hit82y7tbncw" data-item-class="Curve Stroke" data-item-index="none" data-renderer-id="0" transform="translate(269, 75)"><g id="cu_1hit82y7tbncw-stroke" fill="none" stroke-linecap="round" stroke-linejoin="round" stroke-miterlimit="4" stroke="#A3A3A3" stroke-width="2"><g><path d="M 168 10L 168 24L 168 38L 89 38L 10 38L 10 52L 10 64"></path><path d="M 3.5 58L 10 64.5L 16.5 58" stroke-dasharray="none"></path></g></g></g><g id="g-root-cu_1qdtr8q7tboy5-stroke" data-item-order="2" data-item-id="cu_1qdtr8q7tboy5" data-item-class="Curve Stroke" data-item-index="none" data-renderer-id="0" transform="translate(81, 75)"><g id="cu_1qdtr8q7tboy5-stroke" fill="none" stroke-linecap="round" stroke-linejoin="round" stroke-miterlimit="4" stroke="#A3A3A3" stroke-width="2"><g><path d="M 356 10L 356 24L 356 38L 183 38L 10 38L 10 52L 10 64"></path><path d="M 3.5 58L 10 64.5L 16.5 58" stroke-dasharray="none"></path></g></g></g></g></g></svg>