<?xml version="1.0" encoding="utf-8" standalone="yes"?>
<!DOCTYPE svg PUBLIC "-//W3C//DTD SVG 1.1//EN" "http://www.w3.org/Graphics/SVG/1.1/DTD/svg11.dtd">
<svg width="672" height="600" viewBox="0 0 672 600" style="fill:none;stroke:none;fill-rule:evenodd;clip-rule:evenodd;stroke-linecap:round;stroke-linejoin:round;stroke-miterlimit:1.5;" version="1.1" xmlns="http://www.w3.org/2000/svg" xmlns:xlink="http://www.w3.org/1999/xlink"><style id="fontImports">@import url("https://fonts.googleapis.com/css2?family=Roboto:wght@400;700&amp;display=block");</style><g id="items" style="isolation: isolate"><g id="blend" style="mix-blend-mode:screen"><g id="g-root-7.cu_sy_zlatgq8d3shx-fill" data-item-order="-129423" data-item-id="7.cu_sy_zlatgq8d3shx" data-item-class="ScenePart Part Indexed Fill Stroke" data-item-index="7" data-renderer-id="0" transform="translate(249.43829345703125, 390)"><g id="7.cu_sy_zlatgq8d3shx-fill" stroke="none" fill="#652e4f"><g><path d="M 74.5618 17.2528C 63.4312 17.2528 52.9033 14.6043 43.5006 10L 10 79.5547C 12.6544 80.8528 15.3089 82.0329 18.0813 83.154L 11.5337 114.132C 18.0813 116.551 24.8059 118.616 31.6484 120.327L 43.6818 91.0607C 49.4036 92.2408 55.1844 93.1259 61.1421 93.6569L 64.0325 125.166C 67.5127 125.343 71.052 125.52 74.5912 125.52C 78.1305 125.52 81.6697 125.402 85.1499 125.166L 88.0404 93.6569C 93.9391 93.1259 99.7788 92.2408 105.5006 91.0607L 117.534 120.327C 124.436 118.616 131.16 116.61 137.649 114.132L 131.101 83.154C 133.814 82.0329 136.528 80.8528 139.182 79.5547L 105.623 10C 96.2202 14.6043 85.6924 17.2528 74.5618 17.2528Z"></path></g></g></g><g id="g-root-6.cu_sy_140hui28d3uvg-fill" data-item-order="-129421" data-item-id="6.cu_sy_140hui28d3uvg" data-item-class="ScenePart Part Indexed Fill Stroke" data-item-index="6" data-renderer-id="0" transform="translate(345, 341)"><g id="6.cu_sy_140hui28d3uvg-fill" stroke="none" fill="#692e2c"><g><path d="M 48.9221 10C 44.0366 31.6292 29.461 49.532 10 58.9289L 43.6204 128.496C 46.2748 127.197 48.8703 125.84 51.4657 124.424L 71.5804 148.852C 77.5971 145.194 83.4369 141.241 88.9817 136.933L 73.645 109.3188C 78.187 105.6014 82.4931 101.5301 86.5632 97.2817L 112.99 114.688C 117.709 109.4368 122.074 103.9493 126.144 98.1668L 103.3156 76.2757C 106.5599 71.3783 109.5093 66.3039 112.164 60.9934L 142.542 69.8442C 145.492 63.4716 148.028 56.922 150.27 50.1954L 121.956 35.9751C 122.781 33.1428 123.489 30.3106 124.197 27.4193L 124.138 27.4783L 48.9221 10Z"></path></g></g></g><g id="g-root-5.cu_sy_1cw4uqy8d3u2r-fill" data-item-order="-129419" data-item-id="5.cu_sy_1cw4uqy8d3u2r" data-item-class="ScenePart Part Indexed Fill Stroke" data-item-index="5" data-renderer-id="0" transform="translate(142.84820556640625, 341)"><g id="5.cu_sy_1cw4uqy8d3u2r-fill" stroke="none" fill="#5a3f27"><g><path d="M 111.189 10L 111.23 10.0405C 116.115 31.6599 130.691 49.5142 150.152 58.9474L 116.649 128.555C 113.995 127.256 111.34 125.899 108.8038 124.483L 88.6891 148.911C 82.6134 145.253 76.8327 141.3 71.2879 136.992L 86.6246 109.3778C 82.0826 105.6014 77.7765 101.5891 73.7064 97.3407L 47.28 114.747C 42.561 109.4958 38.1959 103.9493 34.1258 98.2258L 56.9539 76.3348C 53.7096 71.4373 50.7602 66.3039 48.1058 61.0524L 17.7273 69.9032C 14.778 63.5306 12.1825 56.981 10 50.2544L 38.314 36.0341C 37.4881 33.2018 36.7213 30.3696 36.0724 27.4783C 36.0724 27.4783 111.23 10.0405 111.189 10Z"></path></g></g></g><g id="g-root-4.cu_sy_1hbycve8d3tai-fill" data-item-order="-129417" data-item-id="4.cu_sy_1hbycve8d3tai" data-item-class="ScenePart Part Indexed Fill Stroke" data-item-index="4" data-renderer-id="0" transform="translate(370.0001220703125, 226.365234375)"><g id="4.cu_sy_1hbycve8d3tai-fill" stroke="none" fill="#4f4a20"><g><path d="M 70.3526 16.1956C 72.1812 18.4968 73.9508 20.857 75.6614 23.2762L 104.3882 10C 108.2814 15.8415 111.762 21.9191 114.947 28.2327L 89.1105 46.4653C 91.529 51.7758 93.7115 57.2633 95.5401 62.8688L 126.921 58.6794C 128.868 65.347 130.402 72.1917 131.581 79.2133L 101.4979 89.0672C 102.2647 94.8497 102.6777 100.6913 102.7956 106.6508L 134 111.902C 133.882 118.983 133.41 126.005 132.466 132.908L 100.849 133.439C 100.3771 136.39 99.7872 139.281 99.1384 142.113L 23.9331 125.002C 25.1043 119.897 25.7908 114.551 25.7908 109.0845L 25.7504 109.0845C 25.7504 92.1618 19.8138 76.6861 10 64.4262L 70.3526 16.1956Z"></path></g></g></g><g id="g-root-3.cu_sy_1q7ld4a8d3sht-fill" data-item-order="-129415" data-item-id="3.cu_sy_1q7ld4a8d3sht" data-item-class="ScenePart Part Indexed Fill Stroke" data-item-index="3" data-renderer-id="0" transform="translate(134, 226.365234375)"><g id="3.cu_sy_1q7ld4a8d3sht-fill" stroke="none" fill="#404b29"><g><path d="M 120.067 125.002C 118.896 119.857 118.209 114.551 118.209 109.0845L 118.25 109.0845C 118.25 92.202 124.146 76.6861 134 64.4262L 73.6473 16.1956C 71.8187 18.4968 70.0491 20.857 68.3385 23.2762L 39.6117 10C 35.7775 15.8415 32.2382 21.9781 29.0529 28.2327L 54.8894 46.4653C 52.4119 51.7758 50.2884 57.2633 48.4598 62.8688L 17.0785 58.6794C 15.1319 65.406 13.5393 72.2507 12.4185 79.2133L 42.502 89.0672C 41.7352 94.8497 41.2633 100.6913 41.2043 106.6508L 10 111.902C 10.118 119.042 10.6488 126.064 11.5336 132.908L 43.1509 133.439C 43.6228 136.331 44.2127 139.222 44.8616 142.113L 120.067 125.002Z"></path></g></g></g><g id="g-root-2.cu_sy_4hbcfe8d3u9s-fill" data-item-order="-129413" data-item-id="2.cu_sy_4hbcfe8d3u9s" data-item-class="ScenePart Part Indexed Fill Stroke" data-item-index="2" data-renderer-id="0" transform="translate(313.970458984375, 146.05859375)"><g id="2.cu_sy_4hbcfe8d3u9s-fill" stroke="none" fill="#2b503e"><g><path d="M 126.441 96.5019C 124.613 94.2007 122.725 91.9585 120.719 89.7753L 140.008 64.757C 135.171 59.6825 130.039 54.8441 124.613 50.3597L 101.0176 71.5426C 96.3576 67.9433 91.5206 64.58 86.4477 61.5707L 97.5372 31.95C 91.4026 28.5277 85.091 25.4594 78.5434 22.8042L 62.2628 49.9466C 56.777 47.8815 51.1732 46.1703 45.3924 44.7542L 47.221 13.1273C 40.3785 11.7112 33.477 10.6491 26.3985 10L 18.8481 40.7418C 15.9577 40.5648 13.0084 40.4468 10 40.4468L 10.0295 117.768C 32.8045 117.768 53.0758 128.403 66.2805 144.941L 66.3208 144.9L 126.441 96.5019Z"></path></g></g></g><g id="g-root-1.cu_sy_m7yvu28d3v2f-fill" data-item-order="-129411" data-item-id="1.cu_sy_m7yvu28d3v2f" data-item-class="ScenePart Part Indexed Indexed_1 Fill Stroke" data-item-index="1" data-renderer-id="0" transform="translate(184.02130126953125, 146)"><g id="1.cu_sy_m7yvu28d3v2f-fill" stroke="none" fill="#224754"><g><path d="M 140.008 40.4468C 137.059 40.4468 134.109 40.5648 131.16 40.7418L 123.61 10C 116.531 10.6491 109.5707 11.6522 102.7871 13.1273L 104.6158 44.7542C 98.835 46.1703 93.2312 47.8814 87.7454 49.9466L 71.4648 22.8042C 64.9172 25.5184 58.6056 28.5277 52.4709 31.95L 63.5605 61.5707C 58.4876 64.58 53.6507 67.9433 48.9907 71.5426L 25.3957 50.3597C 19.9689 54.8441 14.837 59.6825 10 64.757L 29.2889 89.7753C 27.3423 91.9585 25.3957 94.2007 23.5671 96.5019C 27.7088 99.8019 83.6343 145.067 83.6875 145C 96.8921 128.453 117.163 117.813 139.938 117.813L 139.979 117.854L 140.008 40.4468Z"></path></g></g></g><g id="g-root-tx_landrock_zlatgq8d3shy-fill" data-item-order="0" data-item-id="tx_landrock_zlatgq8d3shy" data-item-class="Label Stroke SceneTarget SceneTitle Title" data-item-index="none" data-renderer-id="0" transform="translate(170, 2)"><g id="tx_landrock_zlatgq8d3shy-fill" stroke="none" fill="#A3A3A3"><g><text style="font: 20px Roboto, sans-serif; white-space: pre;"><tspan x="12.85" y="33.64" dominant-baseline="ideographic">LandRocker Gaming Ecosystem</tspan></text></g></g></g><g id="g-root-tx_immersiv_dg2q3u8d3tvr-fill" data-item-order="0" data-item-id="tx_immersiv_dg2q3u8d3tvr" data-item-class="Label Stroke SceneTarget Indexed Indexed_1" data-item-index="1" data-renderer-id="0" transform="translate(122, 86)"><g id="tx_immersiv_dg2q3u8d3tvr-fill" stroke="none" fill="#A3A3A3"><g><text style="font: 20px Roboto, sans-serif; white-space: pre;"><tspan x="22.8" y="33.63" dominant-baseline="ideographic">Immersive </tspan><tspan x="27.09" y="57.64" dominant-baseline="ideographic">Gameplay</tspan></text></g></g></g><g id="g-root-tx_sustaina_18lb5be8d3u9x-fill" data-item-order="0" data-item-id="tx_sustaina_18lb5be8d3u9x" data-item-class="Label Stroke SceneTarget Indexed" data-item-index="2" data-renderer-id="0" transform="translate(398, 86)"><g id="tx_sustaina_18lb5be8d3u9x-fill" stroke="none" fill="#A3A3A3"><g><text style="font: 20px Roboto, sans-serif; white-space: pre;"><tspan x="12" y="33.63" dominant-baseline="ideographic">Sustainable </tspan><tspan x="12" y="57.64" dominant-baseline="ideographic">Economy</tspan></text></g></g></g><g id="g-root-play_4nkcru8dhw5e-fill" data-item-order="0" data-item-id="play_4nkcru8dhw5e" data-item-class="Icon Stroke SceneTarget Indexed Indexed_1 InsideFill InsideColorFill" data-item-index="1" data-renderer-id="0" transform="translate(249, 206)"></g><g id="g-root-tree_1i6y28cwrns-fill" data-item-order="0" data-item-id="tree_1i6y28cwrns" data-item-class="Icon Stroke SceneTarget Indexed InsideFill InsideColorFill" data-item-index="2" data-renderer-id="0" transform="translate(344, 206)"></g><g id="g-root-tx_blockcha_1luw8fe8d3too-fill" data-item-order="0" data-item-id="tx_blockcha_1luw8fe8d3too" data-item-class="Label Stroke SceneTarget Indexed" data-item-index="3" data-renderer-id="0" transform="translate(2, 254)"><g id="tx_blockcha_1luw8fe8d3too-fill" stroke="none" fill="#A3A3A3"><g><text style="font: 20px Roboto, sans-serif; white-space: pre;"><tspan x="18.61" y="33.63" dominant-baseline="ideographic">Blockchain </tspan><tspan x="13.56" y="57.64" dominant-baseline="ideographic">Technology</tspan></text></g></g></g><g id="g-root-tx_playerac_1lwrnoq8d3sp0-fill" data-item-order="0" data-item-id="tx_playerac_1lwrnoq8d3sp0" data-item-class="Label Stroke SceneTarget Indexed" data-item-index="4" data-renderer-id="0" transform="translate(518, 266)"><g id="tx_playerac_1lwrnoq8d3sp0-fill" stroke="none" fill="#A3A3A3"><g><text style="font: 20px Roboto, sans-serif; white-space: pre;"><tspan x="12" y="33.64" dominant-baseline="ideographic">Player Actions</tspan></text></g></g></g><g id="g-root-tech_1d2dv3e8dhvyb-fill" data-item-order="0" data-item-id="tech_1d2dv3e8dhvyb" data-item-class="Icon Stroke SceneTarget Indexed InsideFill InsideColorFill" data-item-index="3" data-renderer-id="0" transform="translate(188, 284)"></g><g id="g-root-mine_hs5qcq8cwsgf-fill" data-item-order="0" data-item-id="mine_hs5qcq8cwsgf" data-item-class="Icon Stroke SceneTarget Indexed InsideFill InsideColorFill" data-item-index="4" data-renderer-id="0" transform="translate(404, 284)"></g><g id="g-root-cryp_959a5m8dhudg-fill" data-item-order="0" data-item-id="cryp_959a5m8dhudg" data-item-class="Icon Stroke SceneTarget Indexed InsideFill InsideColorFill" data-item-index="5" data-renderer-id="0" transform="translate(206, 374)"></g><g id="g-root-1_1ha3a968cwrnp-fill" data-item-order="0" data-item-id="1_1ha3a968cwrnp" data-item-class="Icon Stroke SceneTarget Indexed InsideFill InsideColorFill" data-item-index="6" data-renderer-id="0" transform="translate(386, 374)"></g><g id="g-root-4_13ymrvu8cwt8m-fill" data-item-order="0" data-item-id="4_13ymrvu8cwt8m" data-item-class="Icon Stroke SceneTarget Indexed InsideFill InsideColorFill" data-item-index="7" data-renderer-id="0" transform="translate(296, 416)"></g><g id="g-root-tx_nftinteg_18jfq228d3v9l-fill" data-item-order="0" data-item-id="tx_nftinteg_18jfq228d3v9l" data-item-class="Label Stroke SceneTarget Indexed" data-item-index="5" data-renderer-id="0" transform="translate(2, 434)"><g id="tx_nftinteg_18jfq228d3v9l-fill" stroke="none" fill="#A3A3A3"><g><text style="font: 20px Roboto, sans-serif; white-space: pre;"><tspan x="14.09" y="33.64" dominant-baseline="ideographic">NFT Integration</tspan></text></g></g></g><g id="g-root-tx_external_dhy5d68d3sw3-fill" data-item-order="0" data-item-id="tx_external_dhy5d68d3sw3" data-item-class="Label Stroke SceneTarget Indexed" data-item-index="6" data-renderer-id="0" transform="translate(482, 422)"><g id="tx_external_dhy5d68d3sw3-fill" stroke="none" fill="#A3A3A3"><g><text style="font: 20px Roboto, sans-serif; white-space: pre;"><tspan x="12" y="33.63" dominant-baseline="ideographic">External </tspan><tspan x="12" y="57.64" dominant-baseline="ideographic">Collaborations</tspan></text></g></g></g><g id="g-root-tx_continuo_v8loru8d3toq-fill" data-item-order="0" data-item-id="tx_continuo_v8loru8d3toq" data-item-class="Label Stroke SceneTarget Indexed" data-item-index="7" data-renderer-id="0" transform="translate(248, 530)"><g id="tx_continuo_v8loru8d3toq-fill" stroke="none" fill="#A3A3A3"><g><text style="font: 20px Roboto, sans-serif; white-space: pre;"><tspan x="25.17" y="33.63" dominant-baseline="ideographic">Continuous </tspan><tspan x="17.54" y="57.64" dominant-baseline="ideographic">Development</tspan></text></g></g></g><g id="g-root-7.cu_sy_zlatgq8d3shx-stroke" data-item-order="-129423" data-item-id="7.cu_sy_zlatgq8d3shx" data-item-class="ScenePart Part Indexed Fill Stroke" data-item-index="7" data-renderer-id="0" transform="translate(249.43829345703125, 390)"><g id="7.cu_sy_zlatgq8d3shx-stroke" fill="none" stroke-linecap="round" stroke-linejoin="round" stroke-miterlimit="4" stroke="#F669BE" stroke-width="2"><g><path d="M 74.5618 17.2528C 63.4312 17.2528 52.9033 14.6043 43.5006 10L 10 79.5547C 12.6544 80.8528 15.3089 82.0329 18.0813 83.154L 11.5337 114.1318C 18.0813 116.551 24.8059 118.6162 31.6484 120.3274L 43.6818 91.0607C 49.4036 92.2408 55.1844 93.1259 61.1421 93.6569L 64.0325 125.1658C 67.5127 125.3428 71.052 125.5198 74.5912 125.5198C 78.1305 125.5198 81.6697 125.4018 85.1499 125.1658L 88.0404 93.6569C 93.9391 93.1259 99.7788 92.2408 105.5006 91.0607L 117.534 120.3274C 124.4356 118.6162 131.1601 116.61 137.6487 114.1318L 131.1011 83.154C 133.8145 82.0329 136.528 80.8528 139.1824 79.5547L 105.623 10C 96.2202 14.6043 85.6924 17.2528 74.5618 17.2528Z"></path></g></g></g><g id="g-root-6.cu_sy_140hui28d3uvg-stroke" data-item-order="-129421" data-item-id="6.cu_sy_140hui28d3uvg" data-item-class="ScenePart Part Indexed Fill Stroke" data-item-index="6" data-renderer-id="0" transform="translate(345, 341)"><g id="6.cu_sy_140hui28d3uvg-stroke" fill="none" stroke-linecap="round" stroke-linejoin="round" stroke-miterlimit="4" stroke="#FD6A65" stroke-width="2"><g><path d="M 48.9221 10C 44.0366 31.6292 29.461 49.532 10 58.9289L 43.6204 128.4955C 46.2748 127.1974 48.8703 125.8403 51.4657 124.4241L 71.5804 148.8524C 77.5971 145.194 83.4369 141.2407 88.9817 136.9333L 73.645 109.3188C 78.187 105.6014 82.4931 101.5301 86.5632 97.2817L 112.9895 114.6883C 117.7085 109.4368 122.0735 103.9493 126.1437 98.1668L 103.3156 76.2757C 106.5599 71.3783 109.5093 66.3039 112.1637 60.9934L 142.5423 69.8442C 145.4916 63.4716 148.0281 56.922 150.2696 50.1954L 121.9556 35.9751C 122.7814 33.1428 123.4893 30.3106 124.1972 27.4193L 124.1381 27.4783L 48.9221 10Z"></path></g></g></g><g id="g-root-5.cu_sy_1cw4uqy8d3u2r-stroke" data-item-order="-129419" data-item-id="5.cu_sy_1cw4uqy8d3u2r" data-item-class="ScenePart Part Indexed Fill Stroke" data-item-index="5" data-renderer-id="0" transform="translate(142.84820556640625, 341)"><g id="5.cu_sy_1cw4uqy8d3u2r-stroke" fill="none" stroke-linecap="round" stroke-linejoin="round" stroke-miterlimit="4" stroke="#F99539" stroke-width="2"><g><path d="M 111.1894 10L 111.2298 10.0405C 116.1152 31.6599 130.6908 49.5142 150.1519 58.9474L 116.6492 128.5545C 113.9947 127.2564 111.3403 125.8993 108.8038 124.4831L 88.6891 148.9114C 82.6134 145.253 76.8327 141.2997 71.2879 136.9923L 86.6246 109.3778C 82.0826 105.6014 77.7765 101.5891 73.7064 97.3407L 47.28 114.7473C 42.561 109.4958 38.1959 103.9493 34.1258 98.2258L 56.9539 76.3348C 53.7096 71.4373 50.7602 66.3039 48.1058 61.0524L 17.7273 69.9032C 14.778 63.5306 12.1825 56.981 10 50.2544L 38.314 36.0341C 37.4881 33.2018 36.7213 30.3696 36.0724 27.4783C 36.0724 27.4783 111.2298 10.0405 111.1894 10Z"></path></g></g></g><g id="g-root-4.cu_sy_1hbycve8d3tai-stroke" data-item-order="-129417" data-item-id="4.cu_sy_1hbycve8d3tai" data-item-class="ScenePart Part Indexed Fill Stroke" data-item-index="4" data-renderer-id="0" transform="translate(370.0001220703125, 226.365234375)"><g id="4.cu_sy_1hbycve8d3tai-stroke" fill="none" stroke-linecap="round" stroke-linejoin="round" stroke-miterlimit="4" stroke="#FFE60A" stroke-width="2"><g><path d="M 70.3526 16.1956C 72.1812 18.4968 73.9508 20.857 75.6614 23.2762L 104.3882 10C 108.2814 15.8415 111.7617 21.9191 114.947 28.2327L 89.1105 46.4653C 91.529 51.7758 93.7115 57.2633 95.5401 62.8688L 126.9214 58.6794C 128.868 65.347 130.4017 72.1917 131.5814 79.2133L 101.4979 89.0672C 102.2647 94.8497 102.6777 100.6913 102.7956 106.6508L 133.9999 111.9023C 133.8819 118.9829 133.4101 126.0046 132.4663 132.9082L 100.849 133.4392C 100.3771 136.3895 99.7872 139.2808 99.1384 142.113L 23.9331 125.0023C 25.1043 119.8974 25.7908 114.5512 25.7908 109.0845L 25.7504 109.0845C 25.7504 92.1618 19.8137 76.6861 10 64.4262L 70.3526 16.1956Z"></path></g></g></g><g id="g-root-3.cu_sy_1q7ld4a8d3sht-stroke" data-item-order="-129415" data-item-id="3.cu_sy_1q7ld4a8d3sht" data-item-class="ScenePart Part Indexed Fill Stroke" data-item-index="3" data-renderer-id="0" transform="translate(134, 226.365234375)"><g id="3.cu_sy_1q7ld4a8d3sht-stroke" fill="none" stroke-linecap="round" stroke-linejoin="round" stroke-miterlimit="4" stroke="#A8DD38" stroke-width="2"><g><path d="M 120.0669 125.0023C 118.8957 119.8572 118.2091 114.5512 118.2091 109.0845L 118.2496 109.0845C 118.2496 92.202 124.1459 76.6861 134 64.4262L 73.6473 16.1956C 71.8187 18.4968 70.0491 20.857 68.3385 23.2762L 39.6117 10C 35.7775 15.8415 32.2382 21.9781 29.0529 28.2327L 54.8894 46.4653C 52.4119 51.7758 50.2884 57.2633 48.4598 62.8688L 17.0785 58.6794C 15.1319 65.406 13.5393 72.2507 12.4185 79.2133L 42.502 89.0672C 41.7352 94.8497 41.2633 100.6913 41.2043 106.6508L 10 111.9023C 10.118 119.0419 10.6488 126.0636 11.5336 132.9082L 43.1509 133.4392C 43.6228 136.3305 44.2127 139.2218 44.8616 142.113L 120.0669 125.0023Z"></path></g></g></g><g id="g-root-2.cu_sy_4hbcfe8d3u9s-stroke" data-item-order="-129413" data-item-id="2.cu_sy_4hbcfe8d3u9s" data-item-class="ScenePart Part Indexed Fill Stroke" data-item-index="2" data-renderer-id="0" transform="translate(313.970458984375, 146.05859375)"><g id="2.cu_sy_4hbcfe8d3u9s-stroke" fill="none" stroke-linecap="round" stroke-linejoin="round" stroke-miterlimit="4" stroke="#44E095" stroke-width="2"><g><path d="M 126.4411 96.5019C 124.6125 94.2007 122.7249 91.9585 120.7193 89.7753L 140.0082 64.757C 135.1713 59.6825 130.0394 54.8441 124.6125 50.3597L 101.0176 71.5426C 96.3576 67.9433 91.5206 64.58 86.4477 61.5707L 97.5372 31.95C 91.4026 28.5277 85.091 25.4594 78.5434 22.8042L 62.2628 49.9466C 56.777 47.8815 51.1732 46.1703 45.3924 44.7542L 47.221 13.1273C 40.3785 11.7112 33.477 10.6491 26.3985 10L 18.8481 40.7418C 15.9577 40.5648 13.0084 40.4468 10 40.4468L 10.0295 117.7683C 32.8045 117.7683 53.0758 128.4028 66.2805 144.9409L 66.3208 144.9005L 126.4411 96.5019Z"></path></g></g></g><g id="g-root-1.cu_sy_m7yvu28d3v2f-stroke" data-item-order="-129411" data-item-id="1.cu_sy_m7yvu28d3v2f" data-item-class="ScenePart Part Indexed Indexed_1 Fill Stroke" data-item-index="1" data-renderer-id="0" transform="translate(184.02130126953125, 146)"><g id="1.cu_sy_m7yvu28d3v2f-stroke" fill="none" stroke-linecap="round" stroke-linejoin="round" stroke-miterlimit="4" stroke="#1AC6FF" stroke-width="2"><g><path d="M 140.0082 40.4468C 137.0589 40.4468 134.1095 40.5648 131.1601 40.7418L 123.6097 10C 116.5313 10.6491 109.5707 11.6522 102.7871 13.1273L 104.6158 44.7542C 98.835 46.1703 93.2312 47.8814 87.7454 49.9466L 71.4648 22.8042C 64.9172 25.5184 58.6056 28.5277 52.4709 31.95L 63.5605 61.5707C 58.4876 64.58 53.6507 67.9433 48.9907 71.5426L 25.3957 50.3597C 19.9689 54.8441 14.837 59.6825 10 64.757L 29.2889 89.7753C 27.3423 91.9585 25.3957 94.2007 23.5671 96.5019C 27.7088 99.8019 83.6343 145.0667 83.6875 145C 96.8921 128.4533 117.1634 117.8133 139.9383 117.8133L 139.9788 117.8537L 140.0082 40.4468Z"></path></g></g></g><g id="g-root-tx_landrock_zlatgq8d3shy-stroke" data-item-order="0" data-item-id="tx_landrock_zlatgq8d3shy" data-item-class="Label Stroke SceneTarget SceneTitle Title" data-item-index="none" data-renderer-id="0" transform="translate(170, 2)"></g><g id="g-root-tx_immersiv_dg2q3u8d3tvr-stroke" data-item-order="0" data-item-id="tx_immersiv_dg2q3u8d3tvr" data-item-class="Label Stroke SceneTarget Indexed Indexed_1" data-item-index="1" data-renderer-id="0" transform="translate(122, 86)"></g><g id="g-root-tx_sustaina_18lb5be8d3u9x-stroke" data-item-order="0" data-item-id="tx_sustaina_18lb5be8d3u9x" data-item-class="Label Stroke SceneTarget Indexed" data-item-index="2" data-renderer-id="0" transform="translate(398, 86)"></g><g id="g-root-play_4nkcru8dhw5e-stroke" data-item-order="0" data-item-id="play_4nkcru8dhw5e" data-item-class="Icon Stroke SceneTarget Indexed Indexed_1 InsideFill InsideColorFill" data-item-index="1" data-renderer-id="0" transform="translate(249, 206)"><g id="play_4nkcru8dhw5e-stroke" fill="none" stroke-linecap="round" stroke-linejoin="round" stroke-miterlimit="4" stroke="#1AC6FF" stroke-width="2"><g><path d="M 28.75 14.5L 21.25 10.75L 13.75 14.5L 21.25 18.25L 28.75 14.5ZM 13.75 21.3445L 13.75 14.5M 28.75 14.5L 28.75 22.9375L 21.25 26.6875M 21.25 18.25L 21.25 26.6875M 38.636497 19.970499C 40.569611 18.636091 42.911678 18.026802 45.25 18.25M 40.75 45.25L 40.75 42.25L 39.3895 42.25C 37.655602 42.25 36.25 40.844398 36.25 39.1105L 36.25 36.25L 32.200001 36.25C 32.573502 35.1325 32.919998 33.991001 33.277 32.864502M 45.25 28.088501C 45.251431 28.883017 44.633087 29.540829 43.84 29.588501L 32.833 30.253C 32.336407 28.794102 32.336407 27.211899 32.833 25.753002C 33.073627 24.628342 33.576248 23.576336 34.300003 22.682501C 34.696938 22.235811 35.323685 22.071875 35.8885 22.267L 44.276501 25.387001C 44.863556 25.605629 45.252922 26.166056 45.253002 26.7925ZM 24.25 36.25C 24.25 33.764721 22.235283 31.75 19.75 31.75L 18.25 31.75L 18.25 25.75C 18.25 24.921572 17.578426 24.25 16.75 24.25C 15.921573 24.25 15.25 24.921572 15.25 25.75L 15.25 34.129002L 13.3105 32.189499C 12.721931 31.621042 11.786373 31.629171 11.207772 32.207771C 10.629171 32.786373 10.621041 33.721931 11.1895 34.310501L 13.129 36.25"></path></g></g></g><g id="g-root-tree_1i6y28cwrns-stroke" data-item-order="0" data-item-id="tree_1i6y28cwrns" data-item-class="Icon Stroke SceneTarget Indexed InsideFill InsideColorFill" data-item-index="2" data-renderer-id="0" transform="translate(344, 206)"><g id="tree_1i6y28cwrns-stroke" fill="none" stroke-linecap="round" stroke-linejoin="round" stroke-miterlimit="4" stroke="#44E095" stroke-width="2"><g><path d="M 30.865 27.667C 31.238152 28.028849 31.779842 28.156612 32.275364 27.999645C 32.770882 27.842678 33.140213 27.426331 33.236965 26.915628C 33.333717 26.404924 33.142269 25.882336 32.738499 25.555L 28 20.321501L 23.2705 25.571499C 22.69046 26.09462 22.644382 26.988932 23.167591 27.568893C 23.6908 28.148855 24.585117 28.194796 25.164999 27.671501L 21.174999 32.477501C 20.630173 33.036667 20.641865 33.931648 21.201109 34.476395C 21.760353 35.021141 22.655334 35.009323 23.200001 34.449997L 20.168499 38.322998C 19.763817 38.726582 19.642109 39.334209 19.86013 39.862518C 20.078154 40.390831 20.592968 40.735779 21.164499 40.7365L 34.838501 40.7365C 35.410313 40.73407 35.924545 40.387959 36.142048 39.859123C 36.359554 39.330284 36.237637 38.722534 35.833 38.318501L 32.749001 34.4725C 33.303635 35.021748 34.198502 35.017384 34.747749 34.462749C 35.296997 33.908119 35.292633 33.013248 34.737999 32.464001ZM 30.25 40.739502L 30.25 45.239502M 25.75 40.739502L 25.75 45.239502M 18.681999 15.6115C 18.930908 15.836482 19.28145 15.910491 19.60006 15.805327C 19.918671 15.700165 20.156281 15.432026 20.222355 15.103078C 20.288427 14.774131 20.172789 14.435038 19.9195 14.215L 16.75 10.7605L 13.5535 14.2105C 13.293074 14.43024 13.173151 14.774475 13.240674 15.108463C 13.308197 15.442451 13.552425 15.713066 13.877759 15.814381C 14.203094 15.915696 14.557787 15.831596 14.802999 15.594999L 12.2845 18.786999C 12.03709 19.022308 11.937978 19.373966 12.026095 19.70384C 12.114212 20.033714 12.375483 20.289106 12.707275 20.369696C 13.039068 20.450285 13.388381 20.343199 13.618 20.0905L 11.6185 22.640499C 11.351629 22.907152 11.271605 23.308279 11.415725 23.656923C 11.559844 24.005569 11.899742 24.233112 12.276999 24.2335L 21.224499 24.233501C 21.599897 24.230713 21.937063 24.003204 22.080147 23.656134C 22.223232 23.309061 22.144365 22.910038 21.879999 22.643499L 19.93 20.105499C 20.297873 20.457346 20.879875 20.449377 21.237978 20.087591C 21.596079 19.725805 21.598091 19.143753 21.2425 18.779499ZM 16.75 24.2395L 16.75 26.5105M 41.181999 15.6115C 41.430908 15.836482 41.781448 15.910491 42.10006 15.805327C 42.418671 15.700165 42.656281 15.432026 42.722351 15.103078C 42.788429 14.774131 42.672787 14.435038 42.419498 14.215L 39.25 10.7605L 36.053497 14.2105C 35.793072 14.43024 35.673149 14.774475 35.740673 15.108463C 35.808197 15.442451 36.052422 15.713066 36.377758 15.814381C 36.703094 15.915696 37.057785 15.831596 37.303001 15.594999L 34.7845 18.786999C 34.53709 19.022308 34.437977 19.373966 34.526093 19.70384C 34.614212 20.033714 34.875481 20.289106 35.207275 20.369696C 35.539066 20.450285 35.888382 20.343199 36.117996 20.0905L 34.1185 22.640499C 33.851627 22.907152 33.771606 23.308279 33.915722 23.656923C 34.059845 24.005569 34.399742 24.233112 34.777 24.2335L 43.724499 24.233501C 44.102531 24.233116 44.442974 24.004654 44.586597 23.654964C 44.730221 23.305275 44.648636 22.903481 44.380001 22.637499L 42.43 20.099499C 42.797871 20.451345 43.379871 20.443378 43.737976 20.081593C 44.096077 19.719805 44.098091 19.137753 43.7425 18.7735ZM 39.25 24.2395L 39.25 26.5105"></path></g></g></g><g id="g-root-tx_blockcha_1luw8fe8d3too-stroke" data-item-order="0" data-item-id="tx_blockcha_1luw8fe8d3too" data-item-class="Label Stroke SceneTarget Indexed" data-item-index="3" data-renderer-id="0" transform="translate(2, 254)"></g><g id="g-root-tx_playerac_1lwrnoq8d3sp0-stroke" data-item-order="0" data-item-id="tx_playerac_1lwrnoq8d3sp0" data-item-class="Label Stroke SceneTarget Indexed" data-item-index="4" data-renderer-id="0" transform="translate(518, 266)"></g><g id="g-root-tech_1d2dv3e8dhvyb-stroke" data-item-order="0" data-item-id="tech_1d2dv3e8dhvyb" data-item-class="Icon Stroke SceneTarget Indexed InsideFill InsideColorFill" data-item-index="3" data-renderer-id="0" transform="translate(188, 284)"><g id="tech_1d2dv3e8dhvyb-stroke" fill="none" stroke-linecap="round" stroke-linejoin="round" stroke-miterlimit="4" stroke="#A8DD38" stroke-width="2"><g><path d="M 11.4985 12.9355C 11.4985 12.142 12.1405 11.5 12.934 11.5L 18.673 11.5C 19.465 11.5 20.107 12.142 20.107 12.9355L 20.107 18.6745C 20.106174 19.466135 19.464634 20.107674 18.673 20.108501L 12.934 20.1085C 12.141781 20.108501 11.499328 19.466719 11.4985 18.674501L 11.4985 12.9355ZM 14.368 15.805C 14.368 16.597805 15.010695 17.240499 15.8035 17.240499C 16.596306 17.240499 17.239 16.597805 17.239 15.805C 17.239 15.012196 16.596306 14.3695 15.8035 14.3695C 15.010695 14.3695 14.368 15.012196 14.368 15.805M 14.368 28C 14.368 28.792807 15.010695 29.435501 15.8035 29.435501C 16.596306 29.435501 17.239 28.792807 17.239 28.000002C 17.239 27.207195 16.596306 26.564503 15.8035 26.564503C 15.010695 26.564503 14.368 27.207195 14.368 28.000002M 14.368 40.195C 14.368 40.987804 15.010695 41.630501 15.8035 41.630501C 16.596306 41.630501 17.239 40.987804 17.239 40.195C 17.239 39.402199 16.596306 38.759499 15.8035 38.759499C 15.010695 38.759499 14.368 39.402199 14.368 40.195M 26.564501 15.805C 26.564503 16.597805 27.207195 17.240499 28.000002 17.240499C 28.792807 17.240499 29.435501 16.597805 29.435501 15.805C 29.435501 15.012196 28.792807 14.3695 28.000002 14.3695C 27.207195 14.3695 26.564503 15.012196 26.564503 15.805M 38.761002 15.805C 38.761002 16.597805 39.403698 17.240499 40.196503 17.240499C 40.989307 17.240499 41.632004 16.597805 41.632004 15.805C 41.632004 15.012196 40.989307 14.3695 40.196503 14.3695C 39.403698 14.3695 38.761002 15.012196 38.761002 15.805M 26.564501 28C 26.564503 28.792807 27.207195 29.435501 28.000002 29.435501C 28.792807 29.435501 29.435501 28.792807 29.435501 28.000002C 29.435501 27.207195 28.792807 26.564503 28.000002 26.564503C 27.207195 26.564503 26.564503 27.207195 26.564503 28.000002M 38.761002 28C 38.761002 28.792807 39.403698 29.435501 40.196503 29.435501C 40.989307 29.435501 41.632004 28.792807 41.632004 28.000002C 41.632004 27.207195 40.989307 26.564503 40.196503 26.564503C 39.403698 26.564503 38.761002 27.207195 38.761002 28.000002M 26.564501 40.195C 26.564503 40.987804 27.207195 41.630501 28.000002 41.630501C 28.792807 41.630501 29.435501 40.987804 29.435501 40.195C 29.435501 39.402199 28.792807 38.759499 28.000002 38.759499C 27.207195 38.759499 26.564503 39.402199 26.564503 40.195M 38.761002 40.195C 38.761002 40.987804 39.403698 41.630501 40.196503 41.630501C 40.989307 41.630501 41.632004 40.987804 41.632004 40.195C 41.632004 39.402199 40.989307 38.759499 40.196503 38.759499C 39.403698 38.759499 38.761002 39.402199 38.761002 40.195M 23.695 12.9355C 23.695 12.142 24.338501 11.5 25.130501 11.5L 30.869499 11.5C 31.661499 11.5 32.305 12.142 32.305 12.9355L 32.305 18.6745C 32.304173 19.466719 31.66172 20.108501 30.869501 20.108501L 25.130501 20.1085C 24.338282 20.108501 23.695827 19.466719 23.695 18.674501L 23.695 12.9355ZM 35.892998 12.9355C 35.892998 12.142 36.535 11.5 37.327 11.5L 43.066002 11.5C 43.859501 11.5 44.501499 12.142 44.501499 12.9355L 44.501499 18.6745C 44.500675 19.466719 43.858223 20.108501 43.066002 20.108501L 37.327 20.1085C 36.535366 20.107674 35.893829 19.466135 35.893002 18.674501L 35.892998 12.9355ZM 11.4985 25.130501C 11.4985 24.338501 12.1405 23.695 12.934 23.695L 18.673 23.695C 19.465 23.695 20.107 24.338501 20.107 25.130501L 20.107 30.869499C 20.107002 31.66172 19.465219 32.304173 18.673 32.305L 12.934 32.305C 12.141195 32.305 11.4985 31.662308 11.4985 30.869501L 11.4985 25.130501ZM 11.4985 37.3255C 11.4985 36.533501 12.1405 35.891499 12.934 35.891499L 18.673 35.891499C 19.465 35.891499 20.107 36.533501 20.107 37.3255L 20.107 43.064499C 20.107002 43.85672 19.465219 44.499172 18.673 44.500004L 12.934 44.5C 12.141195 44.500004 11.4985 43.857307 11.4985 43.064503L 11.4985 37.3255ZM 23.695 25.130501C 23.695 24.338501 24.338501 23.695 25.130501 23.695L 30.869499 23.695C 31.661499 23.695 32.305 24.338501 32.305 25.130501L 32.305 30.869499C 32.305397 31.250341 32.154285 31.615698 31.884991 31.884991C 31.615698 32.154285 31.250341 32.305397 30.869499 32.305L 25.130501 32.305C 24.337696 32.305 23.695 31.662308 23.695 30.869501L 23.695 25.130501ZM 23.695 37.3255C 23.695 36.533501 24.338501 35.891499 25.130501 35.891499L 30.869499 35.891499C 31.661499 35.891499 32.305 36.533501 32.305 37.3255L 32.305 43.064499C 32.305 43.857307 31.662308 44.500004 30.869501 44.500004L 25.130501 44.5C 24.337696 44.500004 23.695 43.857307 23.695 43.064503L 23.695 37.3255ZM 35.892998 25.130501C 35.892998 24.338501 36.535 23.695 37.327 23.695L 43.066002 23.695C 43.859501 23.695 44.501499 24.338501 44.501499 25.130501L 44.501499 30.869499C 44.5019 31.250341 44.350784 31.615698 44.081493 31.884991C 43.812199 32.154285 43.446838 32.305397 43.066002 32.305L 37.327 32.305C 36.946419 32.305 36.581451 32.153713 36.312477 31.88446C 36.04351 31.61521 35.892601 31.25008 35.893002 30.869499L 35.892998 25.130501ZM 35.892998 37.3255C 35.892998 36.533501 36.535 35.891499 37.327 35.891499L 43.066002 35.891499C 43.859501 35.891499 44.501499 36.533501 44.501499 37.3255L 44.501499 43.064499C 44.501503 43.857307 43.858807 44.500004 43.066002 44.500004L 37.327 44.5C 36.534782 44.499172 35.893002 43.85672 35.893002 43.064503L 35.892998 37.3255ZM 20.1085 15.805L 23.695 15.805M 20.1085 28L 23.695 28M 20.1085 40.195L 23.695 40.195M 32.305 15.805L 35.891499 15.805M 32.305 28L 35.891499 28M 32.305 40.195L 35.891499 40.195M 40.195 20.1085L 40.195 23.695M 28 20.1085L 28 23.695M 15.805 20.1085L 15.805 23.695M 40.195 32.305L 40.195 35.891499M 28 32.305L 28 35.891499M 15.805 32.305L 15.805 35.891499"></path></g></g></g><g id="g-root-mine_hs5qcq8cwsgf-stroke" data-item-order="0" data-item-id="mine_hs5qcq8cwsgf" data-item-class="Icon Stroke SceneTarget Indexed InsideFill InsideColorFill" data-item-index="4" data-renderer-id="0" transform="translate(404, 284)"><g id="mine_hs5qcq8cwsgf-stroke" fill="none" stroke-linecap="round" stroke-linejoin="round" stroke-miterlimit="4" stroke="#FFE60A" stroke-width="2"><g><path d="M 29.818001 33.053501C 29.818001 33.881927 30.489574 34.553497 31.318001 34.553497C 32.146427 34.553497 32.818001 33.881927 32.818001 33.053501C 32.818001 32.225075 32.146427 31.553501 31.318001 31.553501C 30.489574 31.553501 29.818001 32.225075 29.818001 33.053501M 29.818001 22.951C 29.818001 23.779427 30.489574 24.451 31.318001 24.451C 32.146427 24.451 32.818001 23.779427 32.818001 22.951C 32.818001 22.122574 32.146427 21.451 31.318001 21.451C 30.489574 21.451 29.818001 22.122574 29.818001 22.951M 32.238998 28.001501C 32.238998 28.829927 32.910572 29.501501 33.738998 29.501501C 34.567429 29.501501 35.238998 28.829927 35.238998 28.001501C 35.238998 27.173073 34.567429 26.501501 33.738998 26.501501C 32.910572 26.501501 32.238998 27.173073 32.238998 28.001501M 23.181999 33.053501C 23.181999 33.881927 23.853573 34.553497 24.681999 34.553497C 25.510426 34.553497 26.181999 33.881927 26.181999 33.053501C 26.181999 32.225075 25.510426 31.553501 24.681999 31.553501C 23.853573 31.553501 23.181999 32.225075 23.181999 33.053501M 23.181999 22.951C 23.181999 23.779427 23.853573 24.451 24.681999 24.451C 25.510426 24.451 26.181999 23.779427 26.181999 22.951C 26.181999 22.122574 25.510426 21.451 24.681999 21.451C 23.853573 21.451 23.181999 22.122574 23.181999 22.951M 20.761 28.001501C 20.761 28.829927 21.432573 29.501501 22.261 29.501501C 23.089428 29.501501 23.761 28.829927 23.761 28.001501C 23.761 27.173073 23.089428 26.501501 22.261 26.501501C 21.432573 26.501501 20.761 27.173073 20.761 28.001501M 24.549999 17.65L 28 10.75L 31.450001 17.65C 29.26342 18.671507 26.736578 18.671507 24.549999 17.65ZM 35.238998 19.837L 42.938499 19.375L 38.688999 25.813C 36.710323 24.430603 35.446705 22.241795 35.238998 19.837ZM 38.688999 30.187L 42.938499 36.625L 35.238998 36.162998C 35.446705 33.758205 36.710323 31.569397 38.688999 30.187ZM 31.450001 38.349998L 28 45.25L 24.549999 38.349998C 26.736578 37.328491 29.26342 37.328491 31.449999 38.349998ZM 20.761 36.162998L 13.0615 36.625L 17.311001 30.187C 19.289677 31.569397 20.553295 33.758205 20.761 36.162998ZM 17.311001 25.813L 13.0615 19.375L 20.761 19.837C 20.553295 22.241795 19.289677 24.430603 17.311001 25.813ZM 19.948 19.789C 21.334831 18.427624 23.044027 17.439882 24.916 16.917999M 31.085501 16.921C 32.957577 17.441296 34.667286 18.427486 36.055 19.787498M 39.137497 25.133499C 39.622753 27.014713 39.622753 28.988291 39.137501 30.869501M 36.052002 36.211002C 34.665169 37.572376 32.955975 38.56012 31.084002 39.082001M 24.914499 39.078999C 23.042421 38.558701 21.332712 37.57251 19.945 36.212498M 16.862499 30.866501C 16.377247 28.985289 16.377247 27.011713 16.862501 25.130501"></path></g></g></g><g id="g-root-cryp_959a5m8dhudg-stroke" data-item-order="0" data-item-id="cryp_959a5m8dhudg" data-item-class="Icon Stroke SceneTarget Indexed InsideFill InsideColorFill" data-item-index="5" data-renderer-id="0" transform="translate(206, 374)"><g id="cryp_959a5m8dhudg-stroke" fill="none" stroke-linecap="round" stroke-linejoin="round" stroke-miterlimit="4" stroke="#F99539" stroke-width="2"><g><path d="M 10.75 28C 10.75 37.526913 18.473087 45.25 28 45.25C 37.526913 45.25 45.25 37.526913 45.25 28C 45.25 18.473087 37.526913 10.75 28 10.75C 18.473087 10.75 10.75 18.473087 10.75 28M 30.359501 24.818501C 30.359125 23.515648 29.302851 22.459675 27.999998 22.459675C 26.697147 22.459675 25.640873 23.515648 25.640499 24.818501L 25.640499 32.039501L 30.359501 32.039501ZM 38.9035 24.818501C 38.871227 23.538963 37.824692 22.51849 36.544746 22.51849C 35.264809 22.51849 34.218269 23.538963 34.185997 24.818501L 34.186001 32.039501L 38.9035 32.039501ZM 21.813999 24.818501C 21.781727 23.538963 20.735191 22.51849 19.45525 22.51849C 18.175308 22.51849 17.128771 23.538963 17.096498 24.818501L 17.0965 32.039501L 21.813999 32.039501Z"></path></g></g></g><g id="g-root-1_1ha3a968cwrnp-stroke" data-item-order="0" data-item-id="1_1ha3a968cwrnp" data-item-class="Icon Stroke SceneTarget Indexed InsideFill InsideColorFill" data-item-index="6" data-renderer-id="0" transform="translate(386, 374)"><g id="1_1ha3a968cwrnp-stroke" fill="none" stroke-linecap="round" stroke-linejoin="round" stroke-miterlimit="4" stroke="#FD6A65" stroke-width="2"><g><path d="M 15.0415 31.672001C 15.0415 33.533478 16.550524 35.0425 18.412001 35.0425C 20.273476 35.0425 21.782499 33.533478 21.782499 31.672001C 21.782499 29.810526 20.273476 28.3015 18.412001 28.3015C 16.550524 28.3015 15.0415 29.810526 15.0415 31.672001M 23.963501 40.628502C 23.128471 38.307755 20.93788 36.751392 18.4716 36.726639C 16.00532 36.701893 13.783935 38.213978 12.9025 40.517502M 33.8965 31.672001C 33.8965 33.533478 35.405525 35.0425 37.266998 35.0425C 39.128475 35.0425 40.637501 33.533478 40.637501 31.672001C 40.637501 29.810526 39.128475 28.3015 37.266998 28.3015C 35.405525 28.3015 33.8965 29.810526 33.8965 31.672001M 42.593498 40.09C 41.688206 38.231346 39.889801 36.969688 37.834 36.750999C 37.303837 36.709167 36.770504 36.735382 36.246998 36.828999M 11.5 43.466499L 44.5 43.466499M 38.386002 43.466499L 28.657 43.466499L 27.361 37.628502C 27.311901 37.406555 27.366108 37.174313 27.508394 36.99704C 27.650681 36.819767 27.865686 36.716591 28.093 36.716499L 35.682999 36.716499C 36.385914 36.716621 36.994469 37.204838 37.146999 37.890999ZM 27.25 12.5335L 27.25 18.533501M 24.25 23.033501L 25 18.533501L 29.5 18.533501L 30.25 23.033501L 24.25 23.033501ZM 32.041 40.091499C 32.041 40.402161 32.292839 40.653999 32.6035 40.653999C 32.914162 40.653999 33.166 40.402161 33.166 40.091499C 33.166 39.780838 32.914162 39.528999 32.6035 39.528999C 32.292839 39.528999 32.041 39.780838 32.041 40.091499M 34.862503 29.3125C 36.342659 30.916042 38.457939 31.780287 40.637501 31.672001M 20.8165 29.3125C 19.336344 30.916042 17.221062 31.780287 15.0415 31.672001"></path></g></g></g><g id="g-root-4_13ymrvu8cwt8m-stroke" data-item-order="0" data-item-id="4_13ymrvu8cwt8m" data-item-class="Icon Stroke SceneTarget Indexed InsideFill InsideColorFill" data-item-index="7" data-renderer-id="0" transform="translate(296, 416)"><g id="4_13ymrvu8cwt8m-stroke" fill="none" stroke-linecap="round" stroke-linejoin="round" stroke-miterlimit="4" stroke="#F669BE" stroke-width="2"><g><path d="M 18.121 18.25L 25.119999 26.939501C 25.705572 27.525249 25.705572 28.474751 25.119999 29.060499L 18.121 37.75M 44.810501 26.939501C 45.396072 27.525249 45.396072 28.474751 44.810501 29.060499L 37.310501 37.310501C 37.029259 37.591827 36.647789 37.749916 36.25 37.75L 27.877001 37.75L 36.566502 29.060499C 37.152073 28.474751 37.152073 27.525249 36.566502 26.939501L 27.877001 18.25L 36.25 18.25C 36.647789 18.250086 37.029259 18.408176 37.310501 18.689501ZM 24.25 18.25L 18.121 18.25M 24.25 37.75L 18.121 37.75M 14.5 18.25L 10.75 18.25M 14.5 37.75L 10.75 37.75"></path></g></g></g><g id="g-root-tx_nftinteg_18jfq228d3v9l-stroke" data-item-order="0" data-item-id="tx_nftinteg_18jfq228d3v9l" data-item-class="Label Stroke SceneTarget Indexed" data-item-index="5" data-renderer-id="0" transform="translate(2, 434)"></g><g id="g-root-tx_external_dhy5d68d3sw3-stroke" data-item-order="0" data-item-id="tx_external_dhy5d68d3sw3" data-item-class="Label Stroke SceneTarget Indexed" data-item-index="6" data-renderer-id="0" transform="translate(482, 422)"></g><g id="g-root-tx_continuo_v8loru8d3toq-stroke" data-item-order="0" data-item-id="tx_continuo_v8loru8d3toq" data-item-class="Label Stroke SceneTarget Indexed" data-item-index="7" data-renderer-id="0" transform="translate(248, 530)"></g></g></g></svg>