<?xml version="1.0" encoding="utf-8" standalone="yes"?>
<!DOCTYPE svg PUBLIC "-//W3C//DTD SVG 1.1//EN" "http://www.w3.org/Graphics/SVG/1.1/DTD/svg11.dtd">
<svg width="841" height="468" viewBox="0 0 841 468" style="fill:none;stroke:none;fill-rule:evenodd;clip-rule:evenodd;stroke-linecap:round;stroke-linejoin:round;stroke-miterlimit:1.5;" version="1.1" xmlns="http://www.w3.org/2000/svg" xmlns:xlink="http://www.w3.org/1999/xlink"><style id="fontImports">@import url("https://fonts.googleapis.com/css2?family=Roboto:wght@400;700&amp;display=block");</style><g id="items" style="isolation: isolate"><g id="blend" style="mix-blend-mode:screen"><g id="g-root--1.line_sy_4l2jgq6p4v0i-fill" data-item-order="-156667" data-item-id="-1.line_sy_4l2jgq6p4v0i" data-item-class="ScenePart Part Stroke" data-item-index="-1" data-renderer-id="0" transform="translate(750, 289.99609375)"></g><g id="g-root--1.vector_sy_4l2jgq6p4v0j-fill" data-item-order="-156665" data-item-id="-1.vector_sy_4l2jgq6p4v0j" data-item-class="ScenePart Part Stroke" data-item-index="-1" data-renderer-id="0" transform="translate(3, 289.99609375)"></g><g id="g-root-8.cr-big_cr_zs6dxm6p4ufd-fill" data-item-order="-156664" data-item-id="8.cr-big_cr_zs6dxm6p4ufd" data-item-class="Shape Stroke Fill ScenePart Part Indexed" data-item-index="8" data-renderer-id="0" transform="translate(711, 313.998046875)"><g id="8.cr-big_cr_zs6dxm6p4ufd-fill" stroke="none" fill="#652e4f"><g><path d="M 10 46C 10 65.882251 26.117749 82 46 82C 65.882251 82 82 65.882251 82 46C 82 26.117749 65.882251 10 46 10C 26.117749 10 10 26.117749 10 46"></path></g></g></g><g id="g-root-8.cu-smallCircle_sy_zs6dxm6p4ufe-fill" data-item-order="-156661" data-item-id="8.cu-smallCircle_sy_zs6dxm6p4ufe" data-item-class="ScenePart Part Indexed Stroke" data-item-index="8" data-renderer-id="0" transform="translate(744, 287.001953125)"></g><g id="g-root-8.ln_ln_vccvt66p4v7n-fill" data-item-order="-156659" data-item-id="8.ln_ln_vccvt66p4v7n" data-item-class="Curve Stroke ScenePart Part Indexed" data-item-index="8" data-renderer-id="0" transform="translate(747, 293.001953125)"></g><g id="g-root-7.cr-big_cr_1qegxl66p4ufa-fill" data-item-order="-156658" data-item-id="7.cr-big_cr_1qegxl66p4ufa" data-item-class="Shape Stroke Fill ScenePart Part Indexed" data-item-index="7" data-renderer-id="0" transform="translate(615, 194)"><g id="7.cr-big_cr_1qegxl66p4ufa-fill" stroke="none" fill="#692e2c"><g><path d="M 10 46C 10 65.882251 26.117749 82 46 82C 65.882251 82 82 65.882251 82 46C 82 26.117749 65.882251 10 46 10C 26.117749 10 10 26.117749 10 46"></path></g></g></g><g id="g-root-7.cu-smallCircle_sy_1d30f7u6p4w07-fill" data-item-order="-156655" data-item-id="7.cu-smallCircle_sy_1d30f7u6p4w07" data-item-class="ScenePart Part Indexed Stroke" data-item-index="7" data-renderer-id="0" transform="translate(648, 286.99609375)"></g><g id="g-root-7.ln_ln_18nte6i6p4tmo-fill" data-item-order="-156653" data-item-id="7.ln_ln_18nte6i6p4tmo" data-item-class="Curve Stroke ScenePart Part Indexed" data-item-index="7" data-renderer-id="0" transform="translate(651, 266)"></g><g id="g-root-6.cr-big_cr_940f0q6p4vez-fill" data-item-order="-156652" data-item-id="6.cr-big_cr_940f0q6p4vez" data-item-class="Shape Stroke Fill ScenePart Part Indexed" data-item-index="6" data-renderer-id="0" transform="translate(519, 313.998046875)"><g id="6.cr-big_cr_940f0q6p4vez-fill" stroke="none" fill="#5a3f27"><g><path d="M 10 46C 10 65.882251 26.117749 82 46 82C 65.882251 82 82 65.882251 82 46C 82 26.117749 65.882251 10 46 10C 26.117749 10 10 26.117749 10 46"></path></g></g></g><g id="g-root-6.cu-smallCircle_sy_1uuafpm6p4tn0-fill" data-item-order="-156649" data-item-id="6.cu-smallCircle_sy_1uuafpm6p4tn0" data-item-class="ScenePart Part Indexed Stroke" data-item-index="6" data-renderer-id="0" transform="translate(552, 287.001953125)"></g><g id="g-root-6.ln_ln_1qegxl66p4uf9-fill" data-item-order="-156647" data-item-id="6.ln_ln_1qegxl66p4uf9" data-item-class="Curve Stroke ScenePart Part Indexed" data-item-index="6" data-renderer-id="0" transform="translate(555, 293.001953125)"></g><g id="g-root-5.cr-big_cr_vahgju6p4w74-fill" data-item-order="-156646" data-item-id="5.cr-big_cr_vahgju6p4w74" data-item-class="Shape Stroke Fill ScenePart Part Indexed" data-item-index="5" data-renderer-id="0" transform="translate(423, 194)"><g id="5.cr-big_cr_vahgju6p4w74-fill" stroke="none" fill="#4f4a20"><g><path d="M 10 46C 10 65.882251 26.117749 82 46 82C 65.882251 82 82 65.882251 82 46C 82 26.117749 65.882251 10 46 10C 26.117749 10 10 26.117749 10 46"></path></g></g></g><g id="g-root-5.cu-smallCircle_sy_hznf9m6p4um9-fill" data-item-order="-156643" data-item-id="5.cu-smallCircle_sy_hznf9m6p4um9" data-item-class="ScenePart Part Indexed Stroke" data-item-index="5" data-renderer-id="0" transform="translate(456, 286.99609375)"></g><g id="g-root-5.ln_ln_hznf9m6p4uma-fill" data-item-order="-156641" data-item-id="5.ln_ln_hznf9m6p4uma" data-item-class="Curve Stroke ScenePart Part Indexed" data-item-index="5" data-renderer-id="0" transform="translate(459, 266)"></g><g id="g-root-4.cr-big_cr_1usf0ga6p4uml-fill" data-item-order="-156640" data-item-id="4.cr-big_cr_1usf0ga6p4uml" data-item-class="Shape Stroke Fill ScenePart Part Indexed" data-item-index="4" data-renderer-id="0" transform="translate(327, 313.998046875)"><g id="4.cr-big_cr_1usf0ga6p4uml-fill" stroke="none" fill="#404b29"><g><path d="M 10 46C 10 65.882251 26.117749 82 46 82C 65.882251 82 82 65.882251 82 46C 82 26.117749 65.882251 10 46 10C 26.117749 10 10 26.117749 10 46"></path></g></g></g><g id="g-root-4.cu-smallCircle_sy_1hgyi2y6p4w7i-fill" data-item-order="-156637" data-item-id="4.cu-smallCircle_sy_1hgyi2y6p4w7i" data-item-class="ScenePart Part Indexed Stroke" data-item-index="4" data-renderer-id="0" transform="translate(360, 287.001953125)"></g><g id="g-root-4.ln_ln_zqayoa6p4vev-fill" data-item-order="-156635" data-item-id="4.ln_ln_zqayoa6p4vev" data-item-class="Curve Stroke ScenePart Part Indexed" data-item-index="4" data-renderer-id="0" transform="translate(363, 293.001953125)"></g><g id="g-root-3.cr-big_cr_hxs00a6p4vlu-fill" data-item-order="-156634" data-item-id="3.cr-big_cr_hxs00a6p4vlu" data-item-class="Shape Stroke Fill ScenePart Part Indexed" data-item-index="3" data-renderer-id="0" transform="translate(231, 194)"><g id="3.cr-big_cr_hxs00a6p4vlu-fill" stroke="none" fill="#2b503e"><g><path d="M 10 46C 10 65.882251 26.117749 82 46 82C 65.882251 82 82 65.882251 82 46C 82 26.117749 65.882251 10 46 10C 26.117749 10 10 26.117749 10 46"></path></g></g></g><g id="g-root-3.cu-smallCircle_sy_924zre6p4wej-fill" data-item-order="-156631" data-item-id="3.cu-smallCircle_sy_924zre6p4wej" data-item-class="ScenePart Part Indexed Stroke" data-item-index="3" data-renderer-id="0" transform="translate(264, 286.99609375)"></g><g id="g-root-3.ln_ln_4mxyq26p4u10-fill" data-item-order="-156629" data-item-id="3.ln_ln_4mxyq26p4u10" data-item-class="Curve Stroke ScenePart Part Indexed" data-item-index="3" data-renderer-id="0" transform="translate(267, 266)"></g><g id="g-root-2.cr-big_cr_zofjey6p4wef-fill" data-item-order="-156628" data-item-id="2.cr-big_cr_zofjey6p4wef" data-item-class="Shape Stroke Fill ScenePart Part Indexed" data-item-index="2" data-renderer-id="0" transform="translate(135, 314)"><g id="2.cr-big_cr_zofjey6p4wef-fill" stroke="none" fill="#224754"><g><path d="M 10 46C 10 65.882251 26.117749 82 46 82C 65.882251 82 82 65.882251 82 46C 82 26.117749 65.882251 10 46 10C 26.117749 10 10 26.117749 10 46"></path></g></g></g><g id="g-root-2.cu-smallCircle_sy_v98idm6p4u0w-fill" data-item-order="-156625" data-item-id="2.cu-smallCircle_sy_v98idm6p4u0w" data-item-class="ScenePart Part Indexed Stroke" data-item-index="2" data-renderer-id="0" transform="translate(168, 287.001953125)"></g><g id="g-root-2.ln_ln_mdli4q6p4utl-fill" data-item-order="-156623" data-item-id="2.ln_ln_mdli4q6p4utl" data-item-class="Curve Stroke ScenePart Part Indexed" data-item-index="2" data-renderer-id="0" transform="translate(171, 293.001953125)"></g><g id="g-root-1.cr-big_cr_1uqjl6y6p4vm4-fill" data-item-order="-156622" data-item-id="1.cr-big_cr_1uqjl6y6p4vm4" data-item-class="Shape Stroke Fill ScenePart Part Indexed Indexed_1" data-item-index="1" data-renderer-id="0" transform="translate(39, 194)"><g id="1.cr-big_cr_1uqjl6y6p4vm4-fill" stroke="none" fill="#293f64"><g><path d="M 10 46C 10 65.882251 26.117749 82 46 82C 65.882251 82 82 65.882251 82 46C 82 26.117749 65.882251 10 46 10C 26.117749 10 10 26.117749 10 46"></path></g></g></g><g id="g-root-1.cu-smallCircle_sy_1qaq32i6p4wed-fill" data-item-order="-156619" data-item-id="1.cu-smallCircle_sy_1qaq32i6p4wed" data-item-class="ScenePart Part Indexed Indexed_1 Stroke" data-item-index="1" data-renderer-id="0" transform="translate(72, 286.99609375)"></g><g id="g-root-1.ln_ln_1qaq32i6p4wee-fill" data-item-order="-156617" data-item-id="1.ln_ln_1qaq32i6p4wee" data-item-class="Curve Stroke ScenePart Part Indexed Indexed_1" data-item-index="1" data-renderer-id="0" transform="translate(75, 266)"></g><g id="g-root-tx_jointheb_1usf0ga6p68sr-fill" data-item-order="0" data-item-id="tx_jointheb_1usf0ga6p68sr" data-item-class="Label Stroke SceneTarget Indexed Indexed_1" data-item-index="1" data-renderer-id="0" transform="translate(9, 158)"><g id="tx_jointheb_1usf0ga6p68sr-fill" stroke="none" fill="#A3A3A3"><g><text style="font: 20px Roboto, sans-serif; white-space: pre;"><tspan x="11.88" y="34" dominant-baseline="ideographic">Join the Battle</tspan></text></g></g></g><g id="g-root-1_18ntnnu6p3f9i-fill" data-item-order="0" data-item-id="1_18ntnnu6p3f9i" data-item-class="Icon Stroke SceneTarget Indexed InsideFill InsideColorFill" data-item-index="7" data-renderer-id="0" transform="translate(627, 206)"></g><g id="g-root-tx_collabor_1lrs7ii6p6a6l-fill" data-item-order="0" data-item-id="tx_collabor_1lrs7ii6p6a6l" data-item-class="Label Stroke SceneTarget Indexed" data-item-index="7" data-renderer-id="0" transform="translate(591, 134)"><g id="tx_collabor_1lrs7ii6p6a6l-fill" stroke="none" fill="#A3A3A3"><g><text style="font: 20px Roboto, sans-serif; white-space: pre;"><tspan x="16.51" y="34" dominant-baseline="ideographic">Collaborate </tspan><tspan x="16.84" y="58" dominant-baseline="ideographic">with Others</tspan></text></g></g></g><g id="g-root-tx_unleasht_1d14zyi6p6b5w-fill" data-item-order="0" data-item-id="tx_unleasht_1d14zyi6p6b5w" data-item-class="Label Stroke SceneTarget SceneTitle Title" data-item-index="none" data-renderer-id="0" transform="translate(111, 2)"><g id="tx_unleasht_1d14zyi6p6b5w-fill" stroke="none" fill="#A3A3A3"><g><text style="font: 20px Roboto, sans-serif; white-space: pre;"><tspan x="13.91" y="34" dominant-baseline="ideographic">Unleash the Power of LandRocker: A Journey Through the Universe</tspan></text></g></g></g><g id="g-root-tx_tradeint_v5hnuy6p6a6n-fill" data-item-order="0" data-item-id="tx_tradeint_v5hnuy6p6a6n" data-item-class="Label Stroke SceneTarget Indexed" data-item-index="5" data-renderer-id="0" transform="translate(399, 134)"><g id="tx_tradeint_v5hnuy6p6a6n-fill" stroke="none" fill="#A3A3A3"><g><text style="font: 20px Roboto, sans-serif; white-space: pre;"><tspan x="16.87" y="34" dominant-baseline="ideographic">Trade in the </tspan><tspan x="13.9" y="58" dominant-baseline="ideographic">Marketplace</tspan></text></g></g></g><g id="g-root-plan_1cuwikq6p4v7s-fill" data-item-order="0" data-item-id="plan_1cuwikq6p4v7s" data-item-class="Icon Stroke SceneTarget Indexed InsideFill InsideColorFill" data-item-index="5" data-renderer-id="0" transform="translate(435, 206)"></g><g id="g-root-mini_1hbyyve6p4wlm-fill" data-item-order="0" data-item-id="mini_1hbyyve6p4wlm" data-item-class="Icon Stroke SceneTarget Indexed InsideFill InsideColorFill" data-item-index="3" data-renderer-id="0" transform="translate(243, 206)"></g><g id="g-root-fact_deudxm6p4v0s-fill" data-item-order="0" data-item-id="fact_deudxm6p4v0s" data-item-class="Icon Stroke SceneTarget Indexed Indexed_1 InsideFill InsideColorFill" data-item-index="1" data-renderer-id="0" transform="translate(51, 206)"></g><g id="g-root-tx_minereso_18k2jnu6p69s1-fill" data-item-order="0" data-item-id="tx_minereso_18k2jnu6p69s1" data-item-class="Label Stroke SceneTarget Indexed" data-item-index="3" data-renderer-id="0" transform="translate(213, 134)"><g id="tx_minereso_18k2jnu6p69s1-fill" stroke="none" fill="#A3A3A3"><g><text style="font: 20px Roboto, sans-serif; white-space: pre;"><tspan x="42.02" y="34" dominant-baseline="ideographic">Mine </tspan><tspan x="17.19" y="58" dominant-baseline="ideographic">Resources</tspan></text></g></g></g><g id="g-root-plan_zlbfgq6p4vsz-fill" data-item-order="0" data-item-id="plan_zlbfgq6p4vsz" data-item-class="Icon Stroke SceneTarget Indexed InsideFill InsideColorFill" data-item-index="2" data-renderer-id="0" transform="translate(147, 326)"></g><g id="g-root-fabr_hssgsq6p4w01-fill" data-item-order="0" data-item-id="fabr_hssgsq6p4w01" data-item-class="Icon Stroke SceneTarget Indexed InsideFill InsideColorFill" data-item-index="4" data-renderer-id="0" transform="translate(339, 326)"></g><g id="g-root-ship_hrjimi6p4ttz-fill" data-item-order="0" data-item-id="ship_hrjimi6p4ttz" data-item-class="Icon Stroke SceneTarget Indexed InsideFill InsideColorFill" data-item-index="6" data-renderer-id="0" transform="translate(531, 326)"></g><g id="g-root-chec_4o76dm6p3hu5-fill" data-item-order="0" data-item-id="chec_4o76dm6p3hu5" data-item-class="Icon Stroke SceneTarget Indexed InsideFill InsideColorFill" data-item-index="8" data-renderer-id="0" transform="translate(723, 326)"></g><g id="g-root-tx_liberate_mdli4q6p68zu-fill" data-item-order="0" data-item-id="tx_liberate_mdli4q6p68zu" data-item-class="Label Stroke SceneTarget Indexed" data-item-index="2" data-renderer-id="0" transform="translate(129, 398)"><g id="tx_liberate_mdli4q6p68zu-fill" stroke="none" fill="#A3A3A3"><g><text style="font: 20px Roboto, sans-serif; white-space: pre;"><tspan x="13.61" y="34" dominant-baseline="ideographic">Liberate </tspan><tspan x="16.11" y="58" dominant-baseline="ideographic">Planets</tspan></text></g></g></g><g id="g-root-tx_craftuni_1upan0q6p68e8-fill" data-item-order="0" data-item-id="tx_craftuni_1upan0q6p68e8" data-item-class="Label Stroke SceneTarget Indexed" data-item-index="4" data-renderer-id="0" transform="translate(303, 398)"><g id="tx_craftuni_1upan0q6p68e8-fill" stroke="none" fill="#A3A3A3"><g><text style="font: 20px Roboto, sans-serif; white-space: pre;"><tspan x="12.25" y="34" dominant-baseline="ideographic">Craft Unique </tspan><tspan x="36.97" y="58" dominant-baseline="ideographic">Assets</tspan></text></g></g></g><g id="g-root-tx_exploren_18gy68a6p68lq-fill" data-item-order="0" data-item-id="tx_exploren_18gy68a6p68lq" data-item-class="Label Stroke SceneTarget Indexed" data-item-index="6" data-renderer-id="0" transform="translate(495, 398)"><g id="tx_exploren_18gy68a6p68lq-fill" stroke="none" fill="#A3A3A3"><g><text style="font: 20px Roboto, sans-serif; white-space: pre;"><tspan x="12.13" y="34" dominant-baseline="ideographic">Explore New </tspan><tspan x="36.49" y="58" dominant-baseline="ideographic">Worlds</tspan></text></g></g></g><g id="g-root-tx_achieveg_dcyp6y6p6ado-fill" data-item-order="0" data-item-id="tx_achieveg_dcyp6y6p6ado" data-item-class="Label Stroke SceneTarget Indexed" data-item-index="8" data-renderer-id="0" transform="translate(681, 398)"><g id="tx_achieveg_dcyp6y6p6ado-fill" stroke="none" fill="#A3A3A3"><g><text style="font: 20px Roboto, sans-serif; white-space: pre;"><tspan x="12.9" y="34" dominant-baseline="ideographic">Achieve Glory </tspan><tspan x="15.95" y="58" dominant-baseline="ideographic">and Rewards</tspan></text></g></g></g><g id="g-root--1.line_sy_4l2jgq6p4v0i-stroke" data-item-order="-156667" data-item-id="-1.line_sy_4l2jgq6p4v0i" data-item-class="ScenePart Part Stroke" data-item-index="-1" data-renderer-id="0" transform="translate(750, 289.99609375)"><g id="-1.line_sy_4l2jgq6p4v0i-stroke" fill="none" stroke-linecap="round" stroke-linejoin="round" stroke-miterlimit="4" stroke="#A3A3A3" stroke-width="2"><g><path d="M 77 10.003906L 10 10.003906"></path><path d="M 71 16.503906L 77.5 10.003906L 71 3.503906" stroke-dasharray="none"></path></g></g></g><g id="g-root--1.vector_sy_4l2jgq6p4v0j-stroke" data-item-order="-156665" data-item-id="-1.vector_sy_4l2jgq6p4v0j" data-item-class="ScenePart Part Stroke" data-item-index="-1" data-renderer-id="0" transform="translate(3, 289.99609375)"><g id="-1.vector_sy_4l2jgq6p4v0j-stroke" fill="none" stroke-linecap="round" stroke-linejoin="round" stroke-miterlimit="4" stroke="#A3A3A3" stroke-width="2"><g><path d="M 751 10L 661 10M 655 10L 565 10M 559 10L 469 10M 78.9976 10L 10 10M 174.9976 10L 84.9976 10M 271 10L 181 10M 367 10L 277 10M 463 10L 373 10"></path></g></g></g><g id="g-root-8.cr-big_cr_zs6dxm6p4ufd-stroke" data-item-order="-156664" data-item-id="8.cr-big_cr_zs6dxm6p4ufd" data-item-class="Shape Stroke Fill ScenePart Part Indexed" data-item-index="8" data-renderer-id="0" transform="translate(711, 313.998046875)"><g id="8.cr-big_cr_zs6dxm6p4ufd-stroke" fill="none" stroke-linecap="round" stroke-linejoin="round" stroke-miterlimit="4" stroke="#F669BE" stroke-width="2"><g><path d="M 10 46C 10 65.882251 26.117749 82 46 82C 65.882251 82 82 65.882251 82 46C 82 26.117749 65.882251 10 46 10C 26.117749 10 10 26.117749 10 46"></path></g></g></g><g id="g-root-8.cu-smallCircle_sy_zs6dxm6p4ufe-stroke" data-item-order="-156661" data-item-id="8.cu-smallCircle_sy_zs6dxm6p4ufe" data-item-class="ScenePart Part Indexed Stroke" data-item-index="8" data-renderer-id="0" transform="translate(744, 287.001953125)"><g id="8.cu-smallCircle_sy_zs6dxm6p4ufe-stroke" fill="none" stroke-linecap="round" stroke-linejoin="round" stroke-miterlimit="4" stroke="#F669BE" stroke-width="2"><g><path d="M 10 13C 10 11.343109 11.343079 10 13 10C 14.656921 10 16 11.343109 16 13C 16 14.656891 14.656921 16 13 16C 11.343079 16 10 14.656891 10 13Z"></path></g></g></g><g id="g-root-8.ln_ln_vccvt66p4v7n-stroke" data-item-order="-156659" data-item-id="8.ln_ln_vccvt66p4v7n" data-item-class="Curve Stroke ScenePart Part Indexed" data-item-index="8" data-renderer-id="0" transform="translate(747, 293.001953125)"><g id="8.ln_ln_vccvt66p4v7n-stroke" fill="none" stroke-linecap="round" stroke-linejoin="round" stroke-miterlimit="4" stroke="#F669BE" stroke-width="2"><g><path d="M 10 31L 10 20.5L 10 10"></path></g></g></g><g id="g-root-7.cr-big_cr_1qegxl66p4ufa-stroke" data-item-order="-156658" data-item-id="7.cr-big_cr_1qegxl66p4ufa" data-item-class="Shape Stroke Fill ScenePart Part Indexed" data-item-index="7" data-renderer-id="0" transform="translate(615, 194)"><g id="7.cr-big_cr_1qegxl66p4ufa-stroke" fill="none" stroke-linecap="round" stroke-linejoin="round" stroke-miterlimit="4" stroke="#FD6A65" stroke-width="2"><g><path d="M 10 46C 10 65.882251 26.117749 82 46 82C 65.882251 82 82 65.882251 82 46C 82 26.117749 65.882251 10 46 10C 26.117749 10 10 26.117749 10 46"></path></g></g></g><g id="g-root-7.cu-smallCircle_sy_1d30f7u6p4w07-stroke" data-item-order="-156655" data-item-id="7.cu-smallCircle_sy_1d30f7u6p4w07" data-item-class="ScenePart Part Indexed Stroke" data-item-index="7" data-renderer-id="0" transform="translate(648, 286.99609375)"><g id="7.cu-smallCircle_sy_1d30f7u6p4w07-stroke" fill="none" stroke-linecap="round" stroke-linejoin="round" stroke-miterlimit="4" stroke="#FD6A65" stroke-width="2"><g><path d="M 16 13C 16 14.6569 14.6569 16 13 16C 11.3431 16 10 14.6569 10 13C 10 11.3431 11.3431 10 13 10C 14.6569 10 16 11.3431 16 13Z"></path></g></g></g><g id="g-root-7.ln_ln_18nte6i6p4tmo-stroke" data-item-order="-156653" data-item-id="7.ln_ln_18nte6i6p4tmo" data-item-class="Curve Stroke ScenePart Part Indexed" data-item-index="7" data-renderer-id="0" transform="translate(651, 266)"><g id="7.ln_ln_18nte6i6p4tmo-stroke" fill="none" stroke-linecap="round" stroke-linejoin="round" stroke-miterlimit="4" stroke="#FD6A65" stroke-width="2"><g><path d="M 10 10L 10 20.5L 10 31"></path></g></g></g><g id="g-root-6.cr-big_cr_940f0q6p4vez-stroke" data-item-order="-156652" data-item-id="6.cr-big_cr_940f0q6p4vez" data-item-class="Shape Stroke Fill ScenePart Part Indexed" data-item-index="6" data-renderer-id="0" transform="translate(519, 313.998046875)"><g id="6.cr-big_cr_940f0q6p4vez-stroke" fill="none" stroke-linecap="round" stroke-linejoin="round" stroke-miterlimit="4" stroke="#F99539" stroke-width="2"><g><path d="M 10 46C 10 65.882251 26.117749 82 46 82C 65.882251 82 82 65.882251 82 46C 82 26.117749 65.882251 10 46 10C 26.117749 10 10 26.117749 10 46"></path></g></g></g><g id="g-root-6.cu-smallCircle_sy_1uuafpm6p4tn0-stroke" data-item-order="-156649" data-item-id="6.cu-smallCircle_sy_1uuafpm6p4tn0" data-item-class="ScenePart Part Indexed Stroke" data-item-index="6" data-renderer-id="0" transform="translate(552, 287.001953125)"><g id="6.cu-smallCircle_sy_1uuafpm6p4tn0-stroke" fill="none" stroke-linecap="round" stroke-linejoin="round" stroke-miterlimit="4" stroke="#F99539" stroke-width="2"><g><path d="M 10 13C 10 11.343109 11.343079 10 13 10C 14.656921 10 16 11.343109 16 13C 16 14.656891 14.656921 16 13 16C 11.343079 16 10 14.656891 10 13Z"></path></g></g></g><g id="g-root-6.ln_ln_1qegxl66p4uf9-stroke" data-item-order="-156647" data-item-id="6.ln_ln_1qegxl66p4uf9" data-item-class="Curve Stroke ScenePart Part Indexed" data-item-index="6" data-renderer-id="0" transform="translate(555, 293.001953125)"><g id="6.ln_ln_1qegxl66p4uf9-stroke" fill="none" stroke-linecap="round" stroke-linejoin="round" stroke-miterlimit="4" stroke="#F99539" stroke-width="2"><g><path d="M 10 31L 10 20.5L 10 10"></path></g></g></g><g id="g-root-5.cr-big_cr_vahgju6p4w74-stroke" data-item-order="-156646" data-item-id="5.cr-big_cr_vahgju6p4w74" data-item-class="Shape Stroke Fill ScenePart Part Indexed" data-item-index="5" data-renderer-id="0" transform="translate(423, 194)"><g id="5.cr-big_cr_vahgju6p4w74-stroke" fill="none" stroke-linecap="round" stroke-linejoin="round" stroke-miterlimit="4" stroke="#FFE60A" stroke-width="2"><g><path d="M 10 46C 10 65.882251 26.117749 82 46 82C 65.882251 82 82 65.882251 82 46C 82 26.117749 65.882251 10 46 10C 26.117749 10 10 26.117749 10 46"></path></g></g></g><g id="g-root-5.cu-smallCircle_sy_hznf9m6p4um9-stroke" data-item-order="-156643" data-item-id="5.cu-smallCircle_sy_hznf9m6p4um9" data-item-class="ScenePart Part Indexed Stroke" data-item-index="5" data-renderer-id="0" transform="translate(456, 286.99609375)"><g id="5.cu-smallCircle_sy_hznf9m6p4um9-stroke" fill="none" stroke-linecap="round" stroke-linejoin="round" stroke-miterlimit="4" stroke="#FFE60A" stroke-width="2"><g><path d="M 16 13C 16 14.6569 14.6569 16 13 16C 11.3431 16 10 14.6569 10 13C 10 11.3431 11.3431 10 13 10C 14.6569 10 16 11.3431 16 13Z"></path></g></g></g><g id="g-root-5.ln_ln_hznf9m6p4uma-stroke" data-item-order="-156641" data-item-id="5.ln_ln_hznf9m6p4uma" data-item-class="Curve Stroke ScenePart Part Indexed" data-item-index="5" data-renderer-id="0" transform="translate(459, 266)"><g id="5.ln_ln_hznf9m6p4uma-stroke" fill="none" stroke-linecap="round" stroke-linejoin="round" stroke-miterlimit="4" stroke="#FFE60A" stroke-width="2"><g><path d="M 10 10L 10 20.5L 10 31"></path></g></g></g><g id="g-root-4.cr-big_cr_1usf0ga6p4uml-stroke" data-item-order="-156640" data-item-id="4.cr-big_cr_1usf0ga6p4uml" data-item-class="Shape Stroke Fill ScenePart Part Indexed" data-item-index="4" data-renderer-id="0" transform="translate(327, 313.998046875)"><g id="4.cr-big_cr_1usf0ga6p4uml-stroke" fill="none" stroke-linecap="round" stroke-linejoin="round" stroke-miterlimit="4" stroke="#A8DD38" stroke-width="2"><g><path d="M 10 46C 10 65.882251 26.117749 82 46 82C 65.882251 82 82 65.882251 82 46C 82 26.117749 65.882251 10 46 10C 26.117749 10 10 26.117749 10 46"></path></g></g></g><g id="g-root-4.cu-smallCircle_sy_1hgyi2y6p4w7i-stroke" data-item-order="-156637" data-item-id="4.cu-smallCircle_sy_1hgyi2y6p4w7i" data-item-class="ScenePart Part Indexed Stroke" data-item-index="4" data-renderer-id="0" transform="translate(360, 287.001953125)"><g id="4.cu-smallCircle_sy_1hgyi2y6p4w7i-stroke" fill="none" stroke-linecap="round" stroke-linejoin="round" stroke-miterlimit="4" stroke="#A8DD38" stroke-width="2"><g><path d="M 10 13C 10 11.343109 11.343079 10 13 10C 14.656921 10 16 11.343109 16 13C 16 14.656891 14.656921 16 13 16C 11.343079 16 10 14.656891 10 13Z"></path></g></g></g><g id="g-root-4.ln_ln_zqayoa6p4vev-stroke" data-item-order="-156635" data-item-id="4.ln_ln_zqayoa6p4vev" data-item-class="Curve Stroke ScenePart Part Indexed" data-item-index="4" data-renderer-id="0" transform="translate(363, 293.001953125)"><g id="4.ln_ln_zqayoa6p4vev-stroke" fill="none" stroke-linecap="round" stroke-linejoin="round" stroke-miterlimit="4" stroke="#A8DD38" stroke-width="2"><g><path d="M 10 31L 10 20.5L 10 10"></path></g></g></g><g id="g-root-3.cr-big_cr_hxs00a6p4vlu-stroke" data-item-order="-156634" data-item-id="3.cr-big_cr_hxs00a6p4vlu" data-item-class="Shape Stroke Fill ScenePart Part Indexed" data-item-index="3" data-renderer-id="0" transform="translate(231, 194)"><g id="3.cr-big_cr_hxs00a6p4vlu-stroke" fill="none" stroke-linecap="round" stroke-linejoin="round" stroke-miterlimit="4" stroke="#44E095" stroke-width="2"><g><path d="M 10 46C 10 65.882251 26.117749 82 46 82C 65.882251 82 82 65.882251 82 46C 82 26.117749 65.882251 10 46 10C 26.117749 10 10 26.117749 10 46"></path></g></g></g><g id="g-root-3.cu-smallCircle_sy_924zre6p4wej-stroke" data-item-order="-156631" data-item-id="3.cu-smallCircle_sy_924zre6p4wej" data-item-class="ScenePart Part Indexed Stroke" data-item-index="3" data-renderer-id="0" transform="translate(264, 286.99609375)"><g id="3.cu-smallCircle_sy_924zre6p4wej-stroke" fill="none" stroke-linecap="round" stroke-linejoin="round" stroke-miterlimit="4" stroke="#44E095" stroke-width="2"><g><path d="M 16 13C 16 14.6569 14.6569 16 13 16C 11.3431 16 10 14.6569 10 13C 10 11.3431 11.3431 10 13 10C 14.6569 10 16 11.3431 16 13Z"></path></g></g></g><g id="g-root-3.ln_ln_4mxyq26p4u10-stroke" data-item-order="-156629" data-item-id="3.ln_ln_4mxyq26p4u10" data-item-class="Curve Stroke ScenePart Part Indexed" data-item-index="3" data-renderer-id="0" transform="translate(267, 266)"><g id="3.ln_ln_4mxyq26p4u10-stroke" fill="none" stroke-linecap="round" stroke-linejoin="round" stroke-miterlimit="4" stroke="#44E095" stroke-width="2"><g><path d="M 10 10L 10 20.5L 10 31"></path></g></g></g><g id="g-root-2.cr-big_cr_zofjey6p4wef-stroke" data-item-order="-156628" data-item-id="2.cr-big_cr_zofjey6p4wef" data-item-class="Shape Stroke Fill ScenePart Part Indexed" data-item-index="2" data-renderer-id="0" transform="translate(135, 314)"><g id="2.cr-big_cr_zofjey6p4wef-stroke" fill="none" stroke-linecap="round" stroke-linejoin="round" stroke-miterlimit="4" stroke="#1AC6FF" stroke-width="2"><g><path d="M 10 46C 10 65.882251 26.117749 82 46 82C 65.882251 82 82 65.882251 82 46C 82 26.117749 65.882251 10 46 10C 26.117749 10 10 26.117749 10 46"></path></g></g></g><g id="g-root-2.cu-smallCircle_sy_v98idm6p4u0w-stroke" data-item-order="-156625" data-item-id="2.cu-smallCircle_sy_v98idm6p4u0w" data-item-class="ScenePart Part Indexed Stroke" data-item-index="2" data-renderer-id="0" transform="translate(168, 287.001953125)"><g id="2.cu-smallCircle_sy_v98idm6p4u0w-stroke" fill="none" stroke-linecap="round" stroke-linejoin="round" stroke-miterlimit="4" stroke="#1AC6FF" stroke-width="2"><g><path d="M 10 13C 10 11.343109 11.343109 10 13 10C 14.656891 10 16 11.343109 16 13C 16 14.656891 14.656891 16 13 16C 11.343109 16 10 14.656891 10 13Z"></path></g></g></g><g id="g-root-2.ln_ln_mdli4q6p4utl-stroke" data-item-order="-156623" data-item-id="2.ln_ln_mdli4q6p4utl" data-item-class="Curve Stroke ScenePart Part Indexed" data-item-index="2" data-renderer-id="0" transform="translate(171, 293.001953125)"><g id="2.ln_ln_mdli4q6p4utl-stroke" fill="none" stroke-linecap="round" stroke-linejoin="round" stroke-miterlimit="4" stroke="#1AC6FF" stroke-width="2"><g><path d="M 10 31L 10 20.5L 10 10"></path></g></g></g><g id="g-root-1.cr-big_cr_1uqjl6y6p4vm4-stroke" data-item-order="-156622" data-item-id="1.cr-big_cr_1uqjl6y6p4vm4" data-item-class="Shape Stroke Fill ScenePart Part Indexed Indexed_1" data-item-index="1" data-renderer-id="0" transform="translate(39, 194)"><g id="1.cr-big_cr_1uqjl6y6p4vm4-stroke" fill="none" stroke-linecap="round" stroke-linejoin="round" stroke-miterlimit="4" stroke="#4F92FF" stroke-width="2"><g><path d="M 10 46C 10 65.882251 26.117749 82 46 82C 65.882251 82 82 65.882251 82 46C 82 26.117749 65.882251 10 46 10C 26.117749 10 10 26.117749 10 46"></path></g></g></g><g id="g-root-1.cu-smallCircle_sy_1qaq32i6p4wed-stroke" data-item-order="-156619" data-item-id="1.cu-smallCircle_sy_1qaq32i6p4wed" data-item-class="ScenePart Part Indexed Indexed_1 Stroke" data-item-index="1" data-renderer-id="0" transform="translate(72, 286.99609375)"><g id="1.cu-smallCircle_sy_1qaq32i6p4wed-stroke" fill="none" stroke-linecap="round" stroke-linejoin="round" stroke-miterlimit="4" stroke="#4F92FF" stroke-width="2"><g><path d="M 16 13C 16 14.6569 14.6569 16 13 16C 11.3431 16 10 14.6569 10 13C 10 11.3431 11.3431 10 13 10C 14.6569 10 16 11.3431 16 13Z"></path></g></g></g><g id="g-root-1.ln_ln_1qaq32i6p4wee-stroke" data-item-order="-156617" data-item-id="1.ln_ln_1qaq32i6p4wee" data-item-class="Curve Stroke ScenePart Part Indexed Indexed_1" data-item-index="1" data-renderer-id="0" transform="translate(75, 266)"><g id="1.ln_ln_1qaq32i6p4wee-stroke" fill="none" stroke-linecap="round" stroke-linejoin="round" stroke-miterlimit="4" stroke="#4F92FF" stroke-width="2"><g><path d="M 10 10L 10 20.5L 10 31"></path></g></g></g><g id="g-root-tx_jointheb_1usf0ga6p68sr-stroke" data-item-order="0" data-item-id="tx_jointheb_1usf0ga6p68sr" data-item-class="Label Stroke SceneTarget Indexed Indexed_1" data-item-index="1" data-renderer-id="0" transform="translate(9, 158)"></g><g id="g-root-1_18ntnnu6p3f9i-stroke" data-item-order="0" data-item-id="1_18ntnnu6p3f9i" data-item-class="Icon Stroke SceneTarget Indexed InsideFill InsideColorFill" data-item-index="7" data-renderer-id="0" transform="translate(627, 206)"><g id="1_18ntnnu6p3f9i-stroke" fill="none" stroke-linecap="round" stroke-linejoin="round" stroke-miterlimit="4" stroke="#FD6A65" stroke-width="2"><g><path d="M 16.722 38.896C 16.722 41.377968 18.734032 43.389999 21.216 43.389999C 23.697968 43.389999 25.709999 41.377968 25.709999 38.896C 25.709999 36.414032 23.697968 34.402 21.216 34.402C 18.734032 34.402 16.722 36.414032 16.722 38.896M 28.618 50.838001C 27.504629 47.743671 24.583839 45.668522 21.295467 45.635521C 18.007092 45.602524 15.045246 47.618637 13.87 50.690002M 41.862 38.896C 41.862 41.377968 43.874035 43.389999 46.355999 43.389999C 48.837967 43.389999 50.850002 41.377968 50.850002 38.896C 50.850002 36.414032 48.837967 34.402 46.355999 34.402C 43.874035 34.402 41.862 36.414032 41.862 38.896M 53.458 50.119999C 52.250942 47.641796 49.853069 45.959583 47.112 45.667999C 46.405117 45.612225 45.694004 45.647175 44.995998 45.771999M 12 54.622002L 56 54.622002M 47.848 54.622002L 34.875999 54.622002L 33.148003 46.838001C 33.082535 46.542072 33.154812 46.232418 33.344528 45.996056C 33.534241 45.759689 33.820915 45.62212 34.124001 45.622002L 44.243999 45.622002C 45.181217 45.622162 45.992622 46.273117 46.195999 47.188ZM 33 13.378L 33 21.378M 29 27.378L 30 21.378L 36 21.378L 37 27.378L 29 27.378ZM 39.388 50.122002C 39.388 50.536213 39.723785 50.872002 40.138 50.872002C 40.552216 50.872002 40.888 50.536213 40.888 50.122002C 40.888 49.707787 40.552216 49.372002 40.138 49.372002C 39.723785 49.372002 39.388 49.707787 39.388 50.122002M 43.150002 35.75C 45.123543 37.888058 47.94392 39.040382 50.850002 38.896M 24.422001 35.75C 22.44846 37.888058 19.628082 39.040382 16.722 38.896"></path></g></g></g><g id="g-root-tx_collabor_1lrs7ii6p6a6l-stroke" data-item-order="0" data-item-id="tx_collabor_1lrs7ii6p6a6l" data-item-class="Label Stroke SceneTarget Indexed" data-item-index="7" data-renderer-id="0" transform="translate(591, 134)"></g><g id="g-root-tx_unleasht_1d14zyi6p6b5w-stroke" data-item-order="0" data-item-id="tx_unleasht_1d14zyi6p6b5w" data-item-class="Label Stroke SceneTarget SceneTitle Title" data-item-index="none" data-renderer-id="0" transform="translate(111, 2)"></g><g id="g-root-tx_tradeint_v5hnuy6p6a6n-stroke" data-item-order="0" data-item-id="tx_tradeint_v5hnuy6p6a6n" data-item-class="Label Stroke SceneTarget Indexed" data-item-index="5" data-renderer-id="0" transform="translate(399, 134)"></g><g id="g-root-plan_1cuwikq6p4v7s-stroke" data-item-order="0" data-item-id="plan_1cuwikq6p4v7s" data-item-class="Icon Stroke SceneTarget Indexed InsideFill InsideColorFill" data-item-index="5" data-renderer-id="0" transform="translate(435, 206)"><g id="plan_1cuwikq6p4v7s-stroke" fill="none" stroke-linecap="round" stroke-linejoin="round" stroke-miterlimit="4" stroke="#FFE60A" stroke-width="2"><g><path d="M 12.842 16.454L 32.134003 16.454C 32.134003 16.454 33.487999 16.454 33.487999 17.808001L 33.487999 29.6C 33.487999 29.6 33.487999 30.954 32.134003 30.954L 12.842 30.954C 12.842 30.954 11.488 30.954 11.488 29.6L 11.488 17.808001C 11.488 17.808001 11.488 16.454 12.842 16.454M 16.813999 16.454L 18.836 13.654C 19.489794 12.695973 20.616394 12.173759 21.77 12.294L 23.726 12.294C 24.880138 12.173891 26.007263 12.695993 26.662001 13.654L 28.684 16.454M 11.488 22.454L 20.035999 22.454M 24.987999 22.454L 33.535999 22.454M 21.035999 21.424L 23.938 21.424C 23.938 21.424 24.938 21.424 24.938 22.424L 24.938 24.986C 24.938 24.986 24.938 25.986 23.938 25.986L 21.035999 25.986C 21.035999 25.986 20.035999 25.986 20.035999 24.986L 20.035999 22.424C 20.035999 22.424 20.035999 21.424 21.035999 21.424M 35.818001 41.214001L 55.110001 41.214001C 55.110001 41.214001 56.464001 41.214001 56.464001 42.568001L 56.464001 54.360001C 56.464001 54.360001 56.464001 55.714001 55.110001 55.714001L 35.818001 55.714001C 35.818001 55.714001 34.464001 55.714001 34.464001 54.360001L 34.464001 42.568001C 34.464001 42.568001 34.464001 41.214001 35.818001 41.214001M 39.788002 41.214001L 41.809998 38.414001C 42.465809 37.457443 43.592411 36.936352 44.746002 37.056L 46.702 37.056C 47.855133 36.935776 48.981426 37.457077 49.636002 38.414001L 51.658001 41.214001M 34.464001 47.214001L 43.012001 47.214001M 47.964001 47.214001L 56.512001 47.214001M 44.012001 46.181999L 46.914001 46.181999C 46.914001 46.181999 47.914001 46.181999 47.914001 47.181999L 47.914001 49.743999C 47.914001 49.743999 47.914001 50.743999 46.914001 50.743999L 44.012001 50.743999C 44.012001 50.743999 43.012001 50.743999 43.012001 49.743999L 43.012001 47.181999C 43.012001 47.181999 43.012001 46.181999 44.012001 46.181999M 53.487999 26.6C 53.487999 21.905579 49.682419 18.1 44.987999 18.1L 40.987999 18.1M 44.987999 14.096001L 40.987999 18.096001L 44.987999 22.096001M 14.488 39.599998C 14.488 44.294422 18.293579 48.099998 22.987999 48.099998L 26.988001 48.099998M 22.987999 52.096001L 26.988001 48.096001L 22.987999 44.096001"></path></g></g></g><g id="g-root-mini_1hbyyve6p4wlm-stroke" data-item-order="0" data-item-id="mini_1hbyyve6p4wlm" data-item-class="Icon Stroke SceneTarget Indexed InsideFill InsideColorFill" data-item-index="3" data-renderer-id="0" transform="translate(243, 206)"><g id="mini_1hbyyve6p4wlm-stroke" fill="none" stroke-linecap="round" stroke-linejoin="round" stroke-miterlimit="4" stroke="#44E095" stroke-width="2"><g><path d="M 20.785999 12.144C 20.591385 12.030603 20.496616 11.80108 20.554535 11.583413C 20.612457 11.365746 20.808765 11.213676 21.034 11.212C 30.796 11.108 41.403999 14.412001 50.234001 27.212L 50.234001 27.212C 50.778362 27.994635 50.694653 29.052698 50.034 29.74L 47.16 32.714001C 46.712734 33.171211 46.073769 33.386932 45.440899 33.294373C 44.808029 33.201813 44.257599 32.812149 43.959999 32.246002L 43.237999 30.860001C 38.788002 22.332001 27.988001 16.368 20.785999 12.144ZM 33.893997 20.532L 11.916 41.218002C 11.341627 41.757774 11.0106 42.507336 10.998539 43.295448C 10.986478 44.083561 11.294413 44.842896 11.852 45.399998L 11.852 45.400002C 12.408419 45.956837 13.166574 46.264683 13.953686 46.25338C 14.740797 46.242077 15.4898 45.912586 16.029999 45.34L 36.986 23.110001M 31.504 41.922001C 31.192448 42.099964 31.000116 42.431202 31 42.790001L 31 48.630001C 31.000116 48.9888 31.192448 49.320034 31.504 49.498001L 37.503998 52.925999C 37.8134 53.104633 38.194599 53.104633 38.503998 52.925999L 44.504002 49.498001C 44.815552 49.320034 45.007885 48.9888 45.007999 48.630001L 45.007999 42.799999C 45.007885 42.4412 44.815552 42.109962 44.504002 41.931999L 38.503998 38.503998C 38.194599 38.325367 37.8134 38.325367 37.503998 38.503998ZM 49.400002 38.110001C 49.148193 38.298855 49 38.595245 49 38.91L 49 40.889999C 49.000278 41.215782 49.159233 41.521004 49.425999 41.708L 52.425999 43.807999C 52.770557 44.049526 53.229443 44.049526 53.574001 43.807999L 56.574001 41.708C 56.840767 41.521004 56.999722 41.215782 57 40.889999L 57 38.91C 57 38.595245 56.851807 38.298855 56.599998 38.110001L 53.599998 35.860001C 53.244446 35.593334 52.755554 35.593334 52.400002 35.860001ZM 49.400002 50.91C 49.148193 51.098854 49 51.395245 49 51.709999L 49 53.689999C 49.000278 54.015781 49.159233 54.321003 49.425999 54.507999L 52.425999 56.608002C 52.770557 56.849525 53.229443 56.849525 53.574001 56.608002L 56.574001 54.507999C 56.840767 54.321003 56.999722 54.015781 57 53.689999L 57 51.709999C 57 51.395245 56.851807 51.098854 56.599998 50.91L 53.599998 48.66C 53.244446 48.393333 52.755554 48.393333 52.400002 48.66Z"></path></g></g></g><g id="g-root-fact_deudxm6p4v0s-stroke" data-item-order="0" data-item-id="fact_deudxm6p4v0s" data-item-class="Icon Stroke SceneTarget Indexed Indexed_1 InsideFill InsideColorFill" data-item-index="1" data-renderer-id="0" transform="translate(51, 206)"><g id="fact_deudxm6p4v0s-stroke" fill="none" stroke-linecap="round" stroke-linejoin="round" stroke-miterlimit="4" stroke="#4F92FF" stroke-width="2"><g><path d="M 52.863998 16.74L 52.863998 56.784M 35.138 20.492001C 32.900467 20.492001 31.086897 22.306465 31.088001 24.544001L 31.087999 37.708C 31.086897 35.470467 32.900467 33.655998 35.138 33.656002L 52.863998 33.655998L 52.863998 20.492001ZM 35.138 41.757999C 32.901249 41.758003 31.088001 39.944756 31.088001 37.708M 31.087999 37.200001L 12.418 37.200001L 19.948 43.782001L 12.418 50.363998L 35.138 50.363998C 37.374756 50.364002 39.188004 48.550755 39.188004 46.314003L 39.188 33.655998M 35.138 41.757999C 37.371635 41.757996 39.18359 43.566372 39.188004 45.800003M 50.060001 13.978C 50.060001 15.50341 51.296593 16.74 52.822002 16.74C 54.347412 16.74 55.584003 15.50341 55.584003 13.978001C 55.584003 12.45259 54.347412 11.216001 52.822002 11.216001C 51.296593 11.216001 50.060001 12.45259 50.060001 13.978001"></path></g></g></g><g id="g-root-tx_minereso_18k2jnu6p69s1-stroke" data-item-order="0" data-item-id="tx_minereso_18k2jnu6p69s1" data-item-class="Label Stroke SceneTarget Indexed" data-item-index="3" data-renderer-id="0" transform="translate(213, 134)"></g><g id="g-root-plan_zlbfgq6p4vsz-stroke" data-item-order="0" data-item-id="plan_zlbfgq6p4vsz" data-item-class="Icon Stroke SceneTarget Indexed InsideFill InsideColorFill" data-item-index="2" data-renderer-id="0" transform="translate(147, 326)"><g id="plan_zlbfgq6p4vsz-stroke" fill="none" stroke-linecap="round" stroke-linejoin="round" stroke-miterlimit="4" stroke="#1AC6FF" stroke-width="2"><g><path d="M 19.017143 37.874287C 12.914286 45.965714 10.171429 52.959999 12.605714 55.394287C 16.034286 58.822857 28.377144 51.965714 40.034286 40.171429C 51.691429 28.377144 58.685715 16.171429 55.257141 12.742857C 53.062859 10.514286 47.097141 12.742857 39.931427 17.577143M 51.314285 26.868572C 53.742825 32.177288 53.302856 38.356968 50.146709 43.268078C 46.990559 48.179184 41.552116 51.146568 35.714287 51.142857C 33.419205 51.143764 31.146755 50.689274 29.02857 49.805714M 22 44.285713C 16.88131 37.460796 17.56002 27.910603 23.592455 21.878168C 29.624887 15.845735 39.175079 15.167024 46 20.285715"></path></g></g></g><g id="g-root-fabr_hssgsq6p4w01-stroke" data-item-order="0" data-item-id="fabr_hssgsq6p4w01" data-item-class="Icon Stroke SceneTarget Indexed InsideFill InsideColorFill" data-item-index="4" data-renderer-id="0" transform="translate(339, 326)"><g id="fabr_hssgsq6p4w01-stroke" fill="none" stroke-linecap="round" stroke-linejoin="round" stroke-miterlimit="4" stroke="#A8DD38" stroke-width="2"><g><path d="M 55.905998 47L 32 47C 30.66692 38.384594 30.66692 29.615404 32 21L 55.905998 21C 57.364067 29.605341 57.364067 38.394661 55.905998 47ZM 31.072001 37L 15 37C 12.790861 37 11 35.209137 11 33C 11 30.790861 12.790861 29 15 29L 31.177999 29M 31.764 45L 15 45C 12.790861 45 11 43.209141 11 41C 11 38.790863 12.790861 37 15 37M 33.360001 53L 15 53C 12.790861 53 11 51.209141 11 49C 11 46.790859 12.790861 45 15 45M 32 21L 31.388 17.327999C 31.291634 16.748354 31.455046 16.155655 31.834845 15.707293C 32.214645 15.25893 32.7724 15.000271 33.360001 15L 54.599998 15C 55.193142 14.99991 55.755722 15.263101 56.135784 15.718479C 56.515842 16.173857 56.674171 16.774439 56.568001 17.358L 55.905998 21M 32 47L 31.388 50.672001C 31.291634 51.251648 31.455046 51.844345 31.834845 52.292706C 32.214645 52.74107 32.7724 52.999729 33.360001 53L 54.599998 53C 55.193142 53.000088 55.755722 52.7369 56.135784 52.281521C 56.515842 51.826145 56.674171 51.225559 56.568001 50.641998L 55.905998 47"></path></g></g></g><g id="g-root-ship_hrjimi6p4ttz-stroke" data-item-order="0" data-item-id="ship_hrjimi6p4ttz" data-item-class="Icon Stroke SceneTarget Indexed InsideFill InsideColorFill" data-item-index="6" data-renderer-id="0" transform="translate(531, 326)"><g id="ship_hrjimi6p4ttz-stroke" fill="none" stroke-linecap="round" stroke-linejoin="round" stroke-miterlimit="4" stroke="#F99539" stroke-width="2"><g><path d="M 46.919998 48.98L 54.919998 48.98L 54.919998 32.98C 54.919998 28.559999 53.32 24.98 46.919998 24.98M 20.92 48.98L 12.92 48.98L 12.92 32.98C 12.92 28.559999 14.92 24.98 20.92 24.98M 20.92 24.98L 46.919998 24.98M 25.92 28.98L 41.919998 28.98M 25.92 32.98L 41.919998 32.98M 29.92 36.98L 33.919998 36.98C 33.919998 36.98 34.919998 36.98 34.919998 37.98L 34.919998 43.98C 34.919998 43.98 34.919998 44.98 33.919998 44.98L 29.92 44.98C 29.92 44.98 28.92 44.98 28.92 43.98L 28.92 37.98C 28.92 37.98 28.92 36.98 29.92 36.98M 20.92 24C 20.920002 16.820299 26.740299 11 33.919998 11C 41.099701 11 46.920002 16.820299 46.920002 24L 46.919998 49L 20.92 49ZM 40.919998 36.98L 40.919998 39.98M 30.92 17.98C 30.92 19.636854 32.263145 20.98 33.919998 20.98C 35.576855 20.98 36.919998 19.636854 36.919998 17.98C 36.919998 16.323147 35.576855 14.98 33.919998 14.98C 32.263145 14.98 30.92 16.323147 30.92 17.98M 40.919998 20.48C 41.196144 20.48 41.419998 20.703857 41.419998 20.98M 40.419998 20.98C 40.419998 20.703857 40.64386 20.48 40.919998 20.48M 40.919998 21.48C 40.64386 21.48 40.419998 21.256142 40.419998 20.98M 41.419998 20.98C 41.419998 21.256142 41.196144 21.48 40.919998 21.48M 54.919998 48.98L 56.919998 56.040001C 57.002007 56.276417 56.958977 56.538258 56.80563 56.736C 56.652279 56.933739 56.409386 57.040585 56.16 57.02L 48 57.02C 47.753784 57.030621 47.517704 56.921196 47.36668 56.726452C 47.215652 56.531708 47.16843 56.275822 47.239998 56.039997L 49 48.98M 37.16 48.98L 38.919998 56C 39.002007 56.236416 38.958977 56.49826 38.805626 56.695999C 38.652279 56.893738 38.409386 57.000584 38.160004 56.980003L 30 56.98C 29.767908 56.965614 29.555176 56.845764 29.422611 56.654716C 29.290047 56.463669 29.252241 56.222443 29.32 56L 31.08 48.939999M 12.92 48.98L 11.16 56C 11.077995 56.236416 11.121024 56.49826 11.274373 56.695999C 11.427721 56.893738 11.670615 57.000584 11.92 56.980003L 20 56.98C 20.246214 56.99062 20.482292 56.881195 20.63332 56.686451C 20.784346 56.491707 20.831568 56.235821 20.76 56L 18.98 48.939999"></path></g></g></g><g id="g-root-chec_4o76dm6p3hu5-stroke" data-item-order="0" data-item-id="chec_4o76dm6p3hu5" data-item-class="Icon Stroke SceneTarget Indexed InsideFill InsideColorFill" data-item-index="8" data-renderer-id="0" transform="translate(723, 326)"><g id="chec_4o76dm6p3hu5-stroke" fill="none" stroke-linecap="round" stroke-linejoin="round" stroke-miterlimit="4" stroke="#F669BE" stroke-width="2"><g><path d="M 41.648003 16.941999L 32.148003 28.941999L 27.148001 23.942001M 16.226 37.506001C 13.084518 36.344635 10.999021 33.349281 11 30L 11 25C 11 23.895432 11.895431 23 13 23L 17.102001 23M 51.773998 37.506001C 54.915482 36.344635 57.00098 33.349281 57 30L 57 25C 57 23.895432 56.104568 23 55 23L 50.897999 23M 51.964001 13.05C 51.977482 12.510958 51.772732 11.989309 51.396191 11.603353C 51.019646 11.217395 50.503212 10.999831 49.964001 11L 18.035999 11C 17.496788 10.999831 16.980354 11.217395 16.603811 11.603353C 16.227268 11.989309 16.02252 12.510958 16.035999 13.05C 16.73 41.478001 31.941999 33.356003 31.941999 44C 31.832001 50.164001 29.275999 52.450001 24.896 52.91C 23.825554 53.021618 23.012341 53.923752 23.012001 55C 23.012001 56.104568 23.907431 57 25.012001 57L 42.987999 57C 44.092571 57 44.987999 56.104568 44.987999 55C 44.987659 53.923752 44.174446 53.021618 43.104 52.91C 38.723999 52.450001 36.167999 50.164001 36.057999 44C 36.057999 33.356003 51.27 41.478001 51.964001 13.05Z"></path></g></g></g><g id="g-root-tx_liberate_mdli4q6p68zu-stroke" data-item-order="0" data-item-id="tx_liberate_mdli4q6p68zu" data-item-class="Label Stroke SceneTarget Indexed" data-item-index="2" data-renderer-id="0" transform="translate(129, 398)"></g><g id="g-root-tx_craftuni_1upan0q6p68e8-stroke" data-item-order="0" data-item-id="tx_craftuni_1upan0q6p68e8" data-item-class="Label Stroke SceneTarget Indexed" data-item-index="4" data-renderer-id="0" transform="translate(303, 398)"></g><g id="g-root-tx_exploren_18gy68a6p68lq-stroke" data-item-order="0" data-item-id="tx_exploren_18gy68a6p68lq" data-item-class="Label Stroke SceneTarget Indexed" data-item-index="6" data-renderer-id="0" transform="translate(495, 398)"></g><g id="g-root-tx_achieveg_dcyp6y6p6ado-stroke" data-item-order="0" data-item-id="tx_achieveg_dcyp6y6p6ado" data-item-class="Label Stroke SceneTarget Indexed" data-item-index="8" data-renderer-id="0" transform="translate(681, 398)"></g></g></g></svg>