<?xml version="1.0" encoding="utf-8" standalone="yes"?>
<!DOCTYPE svg PUBLIC "-//W3C//DTD SVG 1.1//EN" "http://www.w3.org/Graphics/SVG/1.1/DTD/svg11.dtd">
<svg width="926" height="200" viewBox="0 0 926 200" style="fill:none;stroke:none;fill-rule:evenodd;clip-rule:evenodd;stroke-linecap:round;stroke-linejoin:round;stroke-miterlimit:1.5;" version="1.1" xmlns="http://www.w3.org/2000/svg" xmlns:xlink="http://www.w3.org/1999/xlink"><style id="fontImports">@import url("https://fonts.googleapis.com/css2?family=Roboto:wght@400;700&amp;display=block");</style><g id="items" style="isolation: isolate"><g id="blend" style="mix-blend-mode:screen"><g id="g-root-ro_1lxenmi5b5ibx-fill" data-item-order="-25200" data-item-id="ro_1lxenmi5b5ibx" data-item-class="Shape Stroke Fill" data-item-index="none" data-renderer-id="0" transform="translate(363, 15)"><g id="ro_1lxenmi5b5ibx-fill" stroke="none" fill="#505050"><g><path d="M 34 10L 154 10C 154 10 178 10 178 34L 178 136C 178 136 178 160 154 160L 34 160C 34 160 10 160 10 136L 10 34C 10 34 10 10 34 10"></path></g></g></g><g id="g-root-ro_1uqjxui5bgphh-fill" data-item-order="-17496" data-item-id="ro_1uqjxui5bgphh" data-item-class="Shape Stroke Fill" data-item-index="none" data-renderer-id="0" transform="translate(579, 123)"><g id="ro_1uqjxui5bgphh-fill" stroke="none" fill="#224754"><g><path d="M 22 10L 322 10C 322 10 334 10 334 22L 334 52C 334 52 334 64 322 64L 22 64C 22 64 10 64 10 52L 10 22C 10 22 10 10 22 10"></path></g></g></g><g id="g-root-ro_v3lg625l53il-fill" data-item-order="-16848" data-item-id="ro_v3lg625l53il" data-item-class="Shape Stroke Fill" data-item-index="none" data-renderer-id="0" transform="translate(3, 123)"><g id="ro_v3lg625l53il-fill" stroke="none" fill="#562d69"><g><path d="M 22 10L 310 10C 310 10 322 10 322 22L 322 52C 322 52 322 64 310 64L 22 64C 22 64 10 64 10 52L 10 22C 10 22 10 10 22 10"></path></g></g></g><g id="g-root-ro_mbqfiy5b5gjt-fill" data-item-order="-14256" data-item-id="ro_mbqfiy5b5gjt" data-item-class="Shape Stroke Fill" data-item-index="none" data-renderer-id="0" transform="translate(579, 3)"><g id="ro_mbqfiy5b5gjt-fill" stroke="none" fill="#2b503e"><g><path d="M 22 10L 262 10C 262 10 274 10 274 22L 274 52C 274 52 274 64 262 64L 22 64C 22 64 10 64 10 52L 10 22C 10 22 10 10 22 10"></path></g></g></g><g id="g-root-ro_4j7n6i5bfax3-fill" data-item-order="-9720" data-item-id="ro_4j7n6i5bfax3" data-item-class="Shape Stroke Fill" data-item-index="none" data-renderer-id="0" transform="translate(135, 3)"><g id="ro_4j7n6i5bfax3-fill" stroke="none" fill="#293f64"><g><path d="M 22 10L 178 10C 178 10 190 10 190 22L 190 52C 190 52 190 64 178 64L 22 64C 22 64 10 64 10 52L 10 22C 10 22 10 10 22 10"></path></g></g></g><g id="g-root-cu_4hawii5l53im-fill" data-item-order="0" data-item-id="cu_4hawii5l53im" data-item-class="Curve Stroke ColorFillBlack ColorStrokeBlack" data-item-index="none" data-renderer-id="0" transform="translate(315, 30)"></g><g id="g-root-1_1ut1nve5b5hj8-fill" data-item-order="0" data-item-id="1_1ut1nve5b5hj8" data-item-class="Icon Stroke" data-item-index="none" data-renderer-id="0" transform="translate(423, 39)"></g><g id="g-root-cu_1unefbu5l51q9-fill" data-item-order="0" data-item-id="cu_1unefbu5l51q9" data-item-class="Curve Stroke ColorFillBlack ColorStrokeBlack" data-item-index="none" data-renderer-id="0" transform="translate(531, 30)"></g><g id="g-root-tx_democrat_909x5m5bgr9f-fill" data-item-order="0" data-item-id="tx_democrat_909x5m5bgr9f" data-item-class="Label Stroke" data-item-index="none" data-renderer-id="0" transform="translate(627, 138)"><g id="tx_democrat_909x5m5bgr9f-fill" stroke="none" fill="#1AC6FF"><g><text style="font: 20px Roboto, sans-serif; white-space: pre;"><tspan x="14.54" y="34" dominant-baseline="ideographic">Democratic Decision-Making</tspan></text></g></g></g><g id="g-root-tx_treasury_1hd807u5b5ixb-fill" data-item-order="0" data-item-id="tx_treasury_1hd807u5b5ixb" data-item-class="Label Stroke" data-item-index="none" data-renderer-id="0" transform="translate(627, 18)"><g id="tx_treasury_1hd807u5b5ixb-fill" stroke="none" fill="#44E095"><g><text style="font: 20px Roboto, sans-serif; white-space: pre;"><tspan x="12.14" y="34" dominant-baseline="ideographic">Treasury Management</tspan></text></g></g></g><g id="g-root-tx_landrock_dil5ay5b5iiz-fill" data-item-order="0" data-item-id="tx_landrock_dil5ay5b5iiz" data-item-class="Label Stroke" data-item-index="none" data-renderer-id="0" transform="translate(387, 93)"><g id="tx_landrock_dil5ay5b5iiz-fill" stroke="none" fill="#A3A3A3"><g><text style="font: 20px Roboto, sans-serif; white-space: pre;"><tspan x="14.8" y="34" dominant-baseline="ideographic">LandRocker </tspan><tspan x="47.72" y="58" dominant-baseline="ideographic">DAO</tspan></text></g></g></g><g id="g-root-doll_zmkgt65b5i4o-fill" data-item-order="0" data-item-id="doll_zmkgt65b5i4o" data-item-class="Icon Stroke" data-item-index="none" data-renderer-id="0" transform="translate(591, 15)"></g><g id="g-root-cu_v5gvfe5l52j3-fill" data-item-order="0" data-item-id="cu_v5gvfe5l52j3" data-item-class="Curve Stroke ColorFillBlack ColorStrokeBlack" data-item-index="none" data-renderer-id="0" transform="translate(315, 115)"></g><g id="g-root-cu_1hbxwyi5l53b8-fill" data-item-order="0" data-item-id="cu_1hbxwyi5l53b8" data-item-class="Curve Stroke ColorFillBlack ColorStrokeBlack" data-item-index="none" data-renderer-id="0" transform="translate(531, 115)"></g><g id="g-root-coup_1ulj02i5l52pw-fill" data-item-order="0" data-item-id="coup_1ulj02i5l52pw" data-item-class="Icon Stroke" data-item-index="none" data-renderer-id="0" transform="translate(273, 135)"></g><g id="g-root-tx_governan_zlboyi5bfa4t-fill" data-item-order="0" data-item-id="tx_governan_zlboyi5bfa4t" data-item-class="Label Stroke" data-item-index="none" data-renderer-id="0" transform="translate(147, 18)"><g id="tx_governan_zlboyi5bfa4t-fill" stroke="none" fill="#4F92FF"><g><text style="font: 20px Roboto, sans-serif; white-space: pre;"><tspan x="17.09" y="34" dominant-baseline="ideographic">Governance</tspan></text></g></g></g><g id="g-root-tx_communit_qwil965l3nkb-fill" data-item-order="0" data-item-id="tx_communit_qwil965l3nkb" data-item-class="Label Stroke" data-item-index="none" data-renderer-id="0" transform="translate(15, 138)"><g id="tx_communit_qwil965l3nkb-fill" stroke="none" fill="#CD6AFB"><g><text style="font: 20px Roboto, sans-serif; white-space: pre;"><tspan x="17.52" y="34" dominant-baseline="ideographic">Community Empowerment</tspan></text></g></g></g><g id="g-root-voti_59dzu5bgowc-fill" data-item-order="0" data-item-id="voti_59dzu5bgowc" data-item-class="Icon Stroke" data-item-index="none" data-renderer-id="0" transform="translate(591, 135)"></g><g id="g-root-1_hu1ogq5bfchy-fill" data-item-order="0" data-item-id="1_hu1ogq5bfchy" data-item-class="Icon Stroke" data-item-index="none" data-renderer-id="0" transform="translate(273, 15)"></g><g id="g-root-ro_1lxenmi5b5ibx-stroke" data-item-order="-25200" data-item-id="ro_1lxenmi5b5ibx" data-item-class="Shape Stroke Fill" data-item-index="none" data-renderer-id="0" transform="translate(363, 15)"><g id="ro_1lxenmi5b5ibx-stroke" fill="none" stroke-linecap="round" stroke-linejoin="round" stroke-miterlimit="4" stroke="#A3A3A3" stroke-width="2"><g><path d="M 34 10L 154 10C 154 10 178 10 178 34L 178 136C 178 136 178 160 154 160L 34 160C 34 160 10 160 10 136L 10 34C 10 34 10 10 34 10"></path></g></g></g><g id="g-root-ro_1uqjxui5bgphh-stroke" data-item-order="-17496" data-item-id="ro_1uqjxui5bgphh" data-item-class="Shape Stroke Fill" data-item-index="none" data-renderer-id="0" transform="translate(579, 123)"><g id="ro_1uqjxui5bgphh-stroke" fill="none" stroke-linecap="round" stroke-linejoin="round" stroke-miterlimit="4" stroke="#1AC6FF" stroke-width="2"><g><path d="M 22 10L 322 10C 322 10 334 10 334 22L 334 52C 334 52 334 64 322 64L 22 64C 22 64 10 64 10 52L 10 22C 10 22 10 10 22 10"></path></g></g></g><g id="g-root-ro_v3lg625l53il-stroke" data-item-order="-16848" data-item-id="ro_v3lg625l53il" data-item-class="Shape Stroke Fill" data-item-index="none" data-renderer-id="0" transform="translate(3, 123)"><g id="ro_v3lg625l53il-stroke" fill="none" stroke-linecap="round" stroke-linejoin="round" stroke-miterlimit="4" stroke="#CD6AFB" stroke-width="2"><g><path d="M 22 10L 310 10C 310 10 322 10 322 22L 322 52C 322 52 322 64 310 64L 22 64C 22 64 10 64 10 52L 10 22C 10 22 10 10 22 10"></path></g></g></g><g id="g-root-ro_mbqfiy5b5gjt-stroke" data-item-order="-14256" data-item-id="ro_mbqfiy5b5gjt" data-item-class="Shape Stroke Fill" data-item-index="none" data-renderer-id="0" transform="translate(579, 3)"><g id="ro_mbqfiy5b5gjt-stroke" fill="none" stroke-linecap="round" stroke-linejoin="round" stroke-miterlimit="4" stroke="#44E095" stroke-width="2"><g><path d="M 22 10L 262 10C 262 10 274 10 274 22L 274 52C 274 52 274 64 262 64L 22 64C 22 64 10 64 10 52L 10 22C 10 22 10 10 22 10"></path></g></g></g><g id="g-root-ro_4j7n6i5bfax3-stroke" data-item-order="-9720" data-item-id="ro_4j7n6i5bfax3" data-item-class="Shape Stroke Fill" data-item-index="none" data-renderer-id="0" transform="translate(135, 3)"><g id="ro_4j7n6i5bfax3-stroke" fill="none" stroke-linecap="round" stroke-linejoin="round" stroke-miterlimit="4" stroke="#4F92FF" stroke-width="2"><g><path d="M 22 10L 178 10C 178 10 190 10 190 22L 190 52C 190 52 190 64 178 64L 22 64C 22 64 10 64 10 52L 10 22C 10 22 10 10 22 10"></path></g></g></g><g id="g-root-cu_4hawii5l53im-stroke" data-item-order="0" data-item-id="cu_4hawii5l53im" data-item-class="Curve Stroke ColorFillBlack ColorStrokeBlack" data-item-index="none" data-renderer-id="0" transform="translate(315, 30)"><g id="cu_4hawii5l53im-stroke" fill="none" stroke-linecap="round" stroke-linejoin="round" stroke-miterlimit="4" stroke="#666666" stroke-width="2" stroke-dasharray="5.0, 7.0"><g><path d="M 58 45L 55 45L 54.9 45C 50.422131 44.972593 45.63978 43.214375 41.299999 40C 38.67988 38.118536 36.018569 33.561496 33.999999 27.499999C 31.98143 21.438501 29.320119 16.881461 26.699999 15C 22.360218 11.785625 17.577867 10.027408 13.1 10L 13 10L 10 10"></path></g></g></g><g id="g-root-1_1ut1nve5b5hj8-stroke" data-item-order="0" data-item-id="1_1ut1nve5b5hj8" data-item-class="Icon Stroke" data-item-index="none" data-renderer-id="0" transform="translate(423, 39)"><g id="1_1ut1nve5b5hj8-stroke" fill="none" stroke-linecap="round" stroke-linejoin="round" stroke-miterlimit="4" stroke="#A3A3A3" stroke-width="2"><g><path d="M 40.865997 41.827999C 42.609379 43.775822 45.430702 44.336094 47.78606 43.202221C 50.141415 42.068348 51.463161 39.513596 51.028 36.935997M 55.021999 56.5C 55.023102 51.097092 50.642906 46.716892 45.239998 46.717999C 42.02 46.717999 38.812 48.688 37.438 50.312M 54.543999 33.021999L 46.228001 33.021999L 39.686001 38.256001C 39.537567 38.373459 39.334747 38.39492 39.16502 38.311123C 38.995293 38.227325 38.889008 38.053265 38.891998 37.863998L 38.891998 33.021999L 34.978001 33.021999C 33.897732 33.021999 33.021999 32.146271 33.021999 31.066L 33.021999 13.456C 33.021999 12.375731 33.897732 11.5 34.978001 11.5L 54.543999 11.5C 55.624268 11.5 56.5 12.375731 56.5 13.456L 56.5 31.066C 56.5 32.146271 55.624268 33.021999 54.543999 33.021999ZM 43.782001 14.436L 43.782001 16.394001M 43.790001 28.132L 43.782001 30.09M 48.674 19.327999C 48.674 20.949184 47.359184 22.263105 45.738003 22.262001L 40.848 22.262001L 40.848 16.394001L 45.737999 16.394001C 47.359184 16.392895 48.674 17.706816 48.674 19.327999ZM 48.674 25.198C 48.674 26.819185 47.359184 28.133106 45.738003 28.132L 40.848 28.132L 40.848 22.262001L 45.737999 22.262001C 46.517185 22.261469 47.264584 22.5709 47.815361 23.122055C 48.366142 23.67321 48.675064 24.420815 48.674 25.200001ZM 29.114 24.218C 25.170103 22.111652 20.266598 23.500769 18.013451 27.362679C 15.760303 31.224588 16.964066 36.176857 20.738525 38.573616C 24.512985 40.970383 29.507013 39.953674 32.043999 36.271999M 11.5 56.5C 11.5 48.935909 17.631908 42.804001 25.195999 42.804001C 32.760094 42.804001 38.891998 48.935909 38.891998 56.5"></path></g></g></g><g id="g-root-cu_1unefbu5l51q9-stroke" data-item-order="0" data-item-id="cu_1unefbu5l51q9" data-item-class="Curve Stroke ColorFillBlack ColorStrokeBlack" data-item-index="none" data-renderer-id="0" transform="translate(531, 30)"><g id="cu_1unefbu5l51q9-stroke" fill="none" stroke-linecap="round" stroke-linejoin="round" stroke-miterlimit="4" stroke="#666666" stroke-width="2" stroke-dasharray="5.0, 7.0"><g><path d="M 10 45L 13 45L 13.1 45C 17.577866 44.972592 22.360217 43.214375 26.699999 40C 29.320119 38.118536 31.98143 33.561497 33.999999 27.499999C 36.018569 21.438502 38.67988 16.881462 41.299999 15C 45.63978 11.785625 50.422131 10.027407 54.899998 9.999999L 55 10L 58 10"></path></g></g></g><g id="g-root-tx_democrat_909x5m5bgr9f-stroke" data-item-order="0" data-item-id="tx_democrat_909x5m5bgr9f" data-item-class="Label Stroke" data-item-index="none" data-renderer-id="0" transform="translate(627, 138)"></g><g id="g-root-tx_treasury_1hd807u5b5ixb-stroke" data-item-order="0" data-item-id="tx_treasury_1hd807u5b5ixb" data-item-class="Label Stroke" data-item-index="none" data-renderer-id="0" transform="translate(627, 18)"></g><g id="g-root-tx_landrock_dil5ay5b5iiz-stroke" data-item-order="0" data-item-id="tx_landrock_dil5ay5b5iiz" data-item-class="Label Stroke" data-item-index="none" data-renderer-id="0" transform="translate(387, 93)"></g><g id="g-root-doll_zmkgt65b5i4o-stroke" data-item-order="0" data-item-id="doll_zmkgt65b5i4o" data-item-class="Icon Stroke" data-item-index="none" data-renderer-id="0" transform="translate(591, 15)"><g id="doll_zmkgt65b5i4o-stroke" fill="none" stroke-linecap="round" stroke-linejoin="round" stroke-miterlimit="4" stroke="#44E095" stroke-width="2"><g><path d="M 25 25.4125L 25 23.5375M 28.125 25.4125L 23.549999 25.4125C 22.624924 25.4125 21.875 26.162422 21.875 27.0875C 21.869633 27.771938 22.28739 28.388626 22.924999 28.637501L 27.075001 29.674999C 27.831501 29.966988 28.270203 30.758944 28.116497 31.55514C 27.962791 32.351334 27.260826 32.923084 26.450001 32.912498L 21.875 32.912498M 25 34.787498L 25 32.912498M 20.625 17.9125L 29.375 17.9125M 27.5 17.9125C 27.813122 17.908497 28.074947 17.673388 28.112499 17.362499C 28.382675 15.725954 28.892305 14.138098 29.625 12.650001C 29.748734 12.417762 29.713749 12.132898 29.5375 11.9375C 29.358723 11.73644 29.069668 11.675586 28.825001 11.7875L 26.200001 12.9125L 25.5875 11.25C 25.493219 11.01145 25.262754 10.854725 25.00625 10.854725C 24.749744 10.854725 24.519281 11.01145 24.424999 11.25L 23.75 12.9125L 21.137501 11.7875C 20.892832 11.675586 20.603779 11.73644 20.424999 11.9375C 20.248749 12.132898 20.213766 12.417762 20.337502 12.65C 21.070196 14.138098 21.579826 15.725954 21.85 17.362501C 21.887552 17.673388 22.149378 17.908497 22.4625 17.9125M 27.5 17.9125C 27.5 17.9125 36.25 24.7875 36.25 30.799999C 36.25 37.049999 31.25 39.162498 25 39.162498C 18.75 39.162498 13.75 37.012501 13.75 30.799999C 13.75 24.7875 22.5 17.9125 22.5 17.9125"></path></g></g></g><g id="g-root-cu_v5gvfe5l52j3-stroke" data-item-order="0" data-item-id="cu_v5gvfe5l52j3" data-item-class="Curve Stroke ColorFillBlack ColorStrokeBlack" data-item-index="none" data-renderer-id="0" transform="translate(315, 115)"><g id="cu_v5gvfe5l52j3-stroke" fill="none" stroke-linecap="round" stroke-linejoin="round" stroke-miterlimit="4" stroke="#666666" stroke-width="2" stroke-dasharray="5.0, 7.0"><g><path d="M 58 10L 55 10L 54.9 10C 50.422131 10.027407 45.63978 11.785625 41.299998 15C 38.67988 16.881462 36.018569 21.438502 33.999999 27.499999C 31.98143 33.561497 29.320119 38.118536 26.699999 39.999998C 22.360217 43.214375 17.577866 44.972592 13.099999 45L 13 45L 10 45"></path></g></g></g><g id="g-root-cu_1hbxwyi5l53b8-stroke" data-item-order="0" data-item-id="cu_1hbxwyi5l53b8" data-item-class="Curve Stroke ColorFillBlack ColorStrokeBlack" data-item-index="none" data-renderer-id="0" transform="translate(531, 115)"><g id="cu_1hbxwyi5l53b8-stroke" fill="none" stroke-linecap="round" stroke-linejoin="round" stroke-miterlimit="4" stroke="#666666" stroke-width="2" stroke-dasharray="5.0, 7.0"><g><path d="M 10 10L 13 10L 13.1 10C 17.577867 10.027408 22.360218 11.785625 26.699999 15C 29.320119 16.881461 31.98143 21.438501 33.999999 27.499999C 36.018569 33.561496 38.67988 38.118536 41.299999 39.999998C 45.63978 43.214375 50.422131 44.972593 54.899998 45L 55 45L 58 45"></path></g></g></g><g id="g-root-coup_1ulj02i5l52pw-stroke" data-item-order="0" data-item-id="coup_1ulj02i5l52pw" data-item-class="Icon Stroke" data-item-index="none" data-renderer-id="0" transform="translate(273, 135)"><g id="coup_1ulj02i5l52pw-stroke" fill="none" stroke-linecap="round" stroke-linejoin="round" stroke-miterlimit="4" stroke="#CD6AFB" stroke-width="2"><g><path d="M 27.61375 13.27375L 27.25 12.95C 26.966209 12.69739 26.803875 12.335559 26.803875 11.955626C 26.803875 11.575691 26.966209 11.213861 27.25 10.96125L 27.25 10.96125C 27.493958 10.744717 27.808807 10.625091 28.135 10.625L 29.365 10.625C 29.691193 10.625091 30.006044 10.744717 30.25 10.96125L 30.25 10.96125C 30.533791 11.213861 30.696127 11.575691 30.696127 11.955626C 30.696127 12.335559 30.533791 12.69739 30.25 12.95L 29.88625 13.27375M 13.125 28.125C 13.125 30.196068 14.803932 31.875 16.875 31.875C 18.946068 31.875 20.625 30.196068 20.625 28.125C 20.625 26.053932 18.946068 24.375 16.875 24.375C 14.803932 24.375 13.125 26.053932 13.125 28.125ZM 13.64375 26.221251C 15.443954 28.086033 18.210381 28.642006 20.591249 27.6175M 37.677502 32.055C 37.178169 31.235468 36.929214 30.28788 36.961246 29.328749L 36.96125 28.213751C 36.96125 26.095049 35.243702 24.377501 33.125 24.377501C 31.006298 24.377501 29.288752 26.095049 29.288752 28.213751L 29.28875 29.328751C 29.320782 30.28788 29.071829 31.235468 28.572498 32.055M 29.28875 28.8475C 30.761997 28.84511 32.161682 28.203417 33.125 27.088751C 34.088318 28.203417 35.488007 28.84511 36.96125 28.847502M 29.7575 28.825001C 29.930901 30.555088 31.386868 31.872423 33.125626 31.872423C 34.864384 31.872423 36.320347 30.555088 36.493752 28.825001M 16.875 33.125C 13.423221 33.125 10.625 35.923222 10.625 39.375L 23.125 39.375C 23.125 35.923222 20.32678 33.125 16.875 33.125ZM 33.125 33.125C 29.673222 33.125 26.875 35.923222 26.875 39.375L 39.375 39.375C 39.375 35.923222 36.576782 33.125 33.125 33.125ZM 27.875 21.786249C 29.687656 22.156258 31.537106 21.346109 32.494133 19.762846C 33.451164 18.179585 33.308872 16.165495 32.138748 14.732512C 30.968626 13.29953 29.023643 12.757453 27.281013 13.378636C 25.538385 13.999819 24.374849 15.649966 24.375002 17.5M 23.375 13.21375C 21.562346 12.843743 19.712896 13.653892 18.755867 15.237154C 17.798838 16.820417 17.941132 18.834507 19.111254 20.267488C 20.281376 21.70047 22.226358 22.242548 23.968987 21.621365C 25.711617 21.000183 26.875151 19.350035 26.875002 17.5"></path></g></g></g><g id="g-root-tx_governan_zlboyi5bfa4t-stroke" data-item-order="0" data-item-id="tx_governan_zlboyi5bfa4t" data-item-class="Label Stroke" data-item-index="none" data-renderer-id="0" transform="translate(147, 18)"></g><g id="g-root-tx_communit_qwil965l3nkb-stroke" data-item-order="0" data-item-id="tx_communit_qwil965l3nkb" data-item-class="Label Stroke" data-item-index="none" data-renderer-id="0" transform="translate(15, 138)"></g><g id="g-root-voti_59dzu5bgowc-stroke" data-item-order="0" data-item-id="voti_59dzu5bgowc" data-item-class="Icon Stroke" data-item-index="none" data-renderer-id="0" transform="translate(591, 135)"><g id="voti_59dzu5bgowc-stroke" fill="none" stroke-linecap="round" stroke-linejoin="round" stroke-miterlimit="4" stroke="#1AC6FF" stroke-width="2"><g><path d="M 21.25 23.12875C 21.25 22.438395 20.690357 21.87875 20 21.87875L 16.25 21.87875C 15.559644 21.87875 15 22.438395 15 23.12875M 24.375 23.129999C 24.375 22.439644 24.934643 21.879999 25.625 21.879999L 38.125 21.879999C 38.815353 21.879999 39.375 22.439644 39.375 23.129999L 39.375 26.254999C 39.375 26.945356 38.815353 27.504999 38.125 27.504999L 25.625 27.504999C 24.934643 27.504999 24.375 26.945356 24.375 26.254999L 24.375 23.129999ZM 15 14.37875C 15 13.688395 15.559644 13.12875 16.25 13.12875L 20 13.12875C 20.690357 13.12875 21.25 13.688395 21.25 14.37875L 21.25 17.50375C 21.25 18.194107 20.690357 18.75375 20 18.75375L 16.25 18.75375C 15.559644 18.75375 15 18.194107 15 17.50375L 15 14.37875ZM 24.375 14.377501C 24.375 13.687144 24.934643 13.127501 25.625 13.127501L 38.125 13.127501C 38.815353 13.127501 39.375 13.687144 39.375 14.377501L 39.375 17.502501C 39.375 18.192856 38.815353 18.752501 38.125 18.752501L 25.625 18.752501C 24.934643 18.752501 24.375 18.192856 24.375 17.502501L 24.375 14.377501ZM 10 10M 27.58375 39.375L 27.70875 37.971252C 27.879377 36.093037 26.628553 34.38031 24.7875 33.971249L 20.225 32.956249L 20.225 26.90625C 20.225 25.611834 19.175667 24.5625 17.88125 24.5625C 16.586834 24.5625 15.5375 25.611834 15.5375 26.90625L 15.537499 37.28125L 13.69 35.895C 12.927109 35.323608 11.860232 35.399776 11.186255 36.073753C 10.512277 36.747734 10.436107 37.81461 11.0075 38.577499L 11.6 39.3675"></path></g></g></g><g id="g-root-1_hu1ogq5bfchy-stroke" data-item-order="0" data-item-id="1_hu1ogq5bfchy" data-item-class="Icon Stroke" data-item-index="none" data-renderer-id="0" transform="translate(273, 15)"><g id="1_hu1ogq5bfchy-stroke" fill="none" stroke-linecap="round" stroke-linejoin="round" stroke-miterlimit="4" stroke="#4F92FF" stroke-width="2"><g><path d="M 26.30625 22.6875L 26.643749 25.0425C 26.712322 25.528267 26.977932 25.964352 27.378094 26.248154C 27.778254 26.531956 28.277636 26.63842 28.758751 26.5425L 28.758751 26.5425C 29.465181 26.401119 30.017368 25.84893 30.158751 25.1425L 30.82 21.83625C 31.023411 20.821026 30.914011 19.767979 30.50625 18.81625L 29.3225 16.05625L 31.1325 14.25M 27.512501 10.625L 23.43125 14.7075C 19.750017 18.593882 18.788832 24.322443 21 29.1975M 30.91 20.52125L 37.564999 27.11125L 25.358749 39.317501L 22.487499 39.375L 16.65625 33.545002L 26.4575 23.74375M 12.434999 39.346249L 35.411251 39.346249"></path></g></g></g></g></g></svg>