<?xml version="1.0" encoding="utf-8" standalone="yes"?>
<!DOCTYPE svg PUBLIC "-//W3C//DTD SVG 1.1//EN" "http://www.w3.org/Graphics/SVG/1.1/DTD/svg11.dtd">
<svg width="768" height="390" viewBox="0 0 768 390" style="fill:none;stroke:none;fill-rule:evenodd;clip-rule:evenodd;stroke-linecap:round;stroke-linejoin:round;stroke-miterlimit:1.5;" version="1.1" xmlns="http://www.w3.org/2000/svg" xmlns:xlink="http://www.w3.org/1999/xlink"><style id="fontImports">@import url("https://fonts.googleapis.com/css2?family=Roboto:wght@400;700&amp;display=block");</style><g id="items" style="isolation: isolate"><g id="blend" style="mix-blend-mode:screen"><g id="g-root-6.cu_sy_zrk6ih6zfqir-fill" data-item-order="-94076" data-item-id="6.cu_sy_zrk6ih6zfqir" data-item-class="ScenePart Part Indexed Fill Stroke" data-item-index="6" data-renderer-id="0" transform="translate(402.710693359375, 226.9761962890625)"><g id="6.cu_sy_zrk6ih6zfqir-fill" stroke="none" fill="#692e2c"><g><path d="M 117.252805 10.4347C 117.154005 10.2874 117.050405 10.1449 116.949205 10C 113.557805 20.4897 106.555405 29.3658 97.390805 35.1743C 100.560005 40.278 100.893205 46.9019 97.687005 52.4746C 93.661305 59.4768 85.365505 62.5272 77.931105 60.2381C 70.533805 73.1864 54.460505 79.464 39.920105 74.2081C 42.743805 83.7473 51.303705 90.6807 61.425905 90.6807C 67.902605 90.6807 73.737605 87.8415 77.842305 83.3003C 82.892305 83.2512 87.715205 82.4898 87.715205 82.4898C 94.401705 81.1292 100.572305 78.3538 105.898805 74.4954C 117.650105 65.9828 125.289405 52.1873 125.289405 36.616C 125.289405 26.9172 122.327505 17.9084 117.252805 10.4347ZM 24.65159 77.216786C 30.10149 78.471786 35.69199 77.189786 39.92259 74.208186C 42.74629 83.747386 51.30619 90.680786 61.42839 90.680786C 67.90509 90.680786 73.74009 87.841586 77.84479 83.300386C 82.89479 83.251286 87.71779 82.489886 87.71779 82.489886C 94.40419 81.129286 100.57479 78.353886 105.90129 74.495486C 106.35299 76.740286 106.59239 79.063686 106.59239 81.441186C 106.59239 100.863486 90.76849 116.611586 71.24709 116.611586C 69.19599 116.611586 67.18689 116.434786 65.23199 116.103186C 65.23199 116.159686 65.23199 116.213686 65.23199 116.267686C 65.23199 134.358886 50.49409 149.023886 32.31299 149.023886C 23.73579 149.023886 15.92379 145.757286 10.06419 140.408086L 10.06419 58.850586C 9.99999 67.427086 15.90159 75.205286 24.64909 77.216786L 24.65159 77.216786Z"></path></g></g></g><g id="g-root-6.line_sy_qwjncp6zfo5o-fill" data-item-order="-94073" data-item-id="6.line_sy_qwjncp6zfo5o" data-item-class="ScenePart Part Indexed Stroke" data-item-index="6" data-renderer-id="0" transform="translate(494, 338)"></g><g id="g-root-5.cu_sy_1d30ovt6zfoxt-fill" data-item-order="-94072" data-item-id="5.cu_sy_1d30ovt6zfoxt" data-item-class="ScenePart Part Indexed Fill Stroke" data-item-index="5" data-renderer-id="0" transform="translate(278, 226.976318359375)"><g id="5.cu_sy_1d30ovt6zfoxt-fill" stroke="none" fill="#5a3f27"><g><path d="M 57.3583 60.2381C 49.9239 62.5247 41.6281 59.4743 37.6024 52.4746C 34.3986 46.9019 34.7318 40.278 37.8986 35.1743C 28.734 29.3683 21.7316 20.4897 18.3402 10C 18.239 10.1449 18.1353 10.2874 18.0366 10.4347C 12.9619 17.9084 10 26.9172 10 36.616C 10 52.1873 17.6392 65.9828 29.3906 74.4954C 34.717 78.3538 40.8876 81.1267 47.5741 82.4898C 47.5741 82.4898 52.3971 83.2512 57.4471 83.3003C 61.5518 87.844 67.3867 90.6807 73.8634 90.6807C 83.9857 90.6807 92.5456 83.7473 95.3693 74.2081C 80.8288 79.4664 64.7556 73.1864 57.3583 60.2381ZM 110.640363 77.216648C 105.190463 78.471648 99.599863 77.189648 95.369263 74.208048C 92.545563 83.747248 83.985763 90.680648 73.863463 90.680648C 67.386763 90.680648 61.551863 87.841448 57.447163 83.300248C 52.397063 83.251148 47.574163 82.489748 47.574163 82.489748C 40.887663 81.129148 34.717063 78.353748 29.390563 74.495348C 28.938863 76.740148 28.699463 79.063548 28.699463 81.441048C 28.699463 100.863348 44.523363 116.611448 64.044763 116.611448C 66.095863 116.611448 68.105063 116.434648 70.059863 116.103048C 70.059863 116.159548 70.059863 116.213548 70.059863 116.267548C 70.059863 134.358748 84.797763 149.023748 102.978863 149.023748C 111.556063 149.023748 119.368063 145.757148 125.227663 140.407948L 125.227663 58.850448C 125.291863 67.426948 119.390263 75.205148 110.642763 77.216648L 110.640363 77.216648Z"></path></g></g></g><g id="g-root-5.line_sy_147domx6zfpqi-fill" data-item-order="-94069" data-item-id="5.line_sy_147domx6zfpqi" data-item-class="ScenePart Part Indexed Stroke" data-item-index="5" data-renderer-id="0" transform="translate(230, 338)"></g><g id="g-root-4.cu_sy_1ly181l6zfqj3-fill" data-item-order="-94068" data-item-id="4.cu_sy_1ly181l6zfqj3" data-item-class="ScenePart Part Indexed Fill Stroke" data-item-index="4" data-renderer-id="0" transform="translate(402.715576171875, 137.959716796875)"><g id="4.cu_sy_1ly181l6zfqj3-fill" stroke="none" fill="#652e4f"><g><path d="M 105.516339 44.355C 105.516339 29.3978 96.978639 16.4274 84.491739 10C 84.491739 19.5171 81.046139 28.9778 75.314839 35.7147C 71.150939 37.0336 67.473239 39.8948 65.227139 44.0185C 63.997939 46.2732 63.321639 48.6776 63.151339 51.0796L 63.109339 53.6928C 63.040239 57.7993 62.003539 61.9525 59.900639 65.8134C 52.917939 78.6338 36.810139 83.3936 23.925939 76.4455C 15.482039 71.892 10.518439 63.4384 10.064239 54.5451L 10.064239 107.6543C 14.314539 110.049 19.228839 111.417 24.464039 111.417C 26.172039 111.417 27.845439 111.272 29.472039 110.992L 29.481939 110.992C 31.765039 118.623 38.871139 124.191 47.285439 124.191C 57.543439 124.191 65.856539 115.916 65.856539 105.7116C 65.856539 104.0022 65.622039 102.3468 65.187639 100.775L 65.229539 100.7627C 77.652239 100.7627 87.722739 90.7421 87.722739 78.3809C 87.722739 77.8774 87.673339 76.8827 87.673339 76.8827C 96.605939 71.1601 103.028339 61.8935 104.933839 51.0821C 105.318839 48.8986 105.521239 46.6514 105.521239 44.3599L 105.516339 44.355ZM 77.92869 149.254771C 85.36299 151.541271 93.65879 148.490971 97.68449 141.491271C 100.88829 135.918471 100.55509 129.294571 97.38839 124.190971C 106.55299 118.384871 113.55569 109.506271 116.94669 99.016571C 118.40769 94.492571 119.20469 89.671371 119.20469 84.663571C 119.20469 71.489371 113.73569 59.587471 104.93379 51.077271C 103.02829 61.891171 96.60589 71.155371 87.67329 76.877871C 87.70539 77.373971 87.72269 77.872571 87.72269 78.376071C 87.72269 90.737271 77.65219 100.757971 65.22949 100.757971L 65.18759 100.770171C 65.62449 102.342071 65.85649 103.997471 65.85649 105.706871C 65.85649 115.914071 57.54099 124.185971 47.28539 124.185971C 38.87109 124.185971 31.76509 118.618171 29.48189 110.984871L 29.47199 110.984871C 27.84549 111.267271 26.17199 111.412171 24.46399 111.412171C 19.22879 111.412171 14.31699 110.044171 10.06419 107.649571L 10.06419 147.862171C 9.99999 156.438271 15.90159 164.217271 24.64909 166.228271C 30.09899 167.483271 35.68959 166.201271 39.92009 163.219271C 54.46059 168.478271 70.53379 162.198271 77.93119 149.249871L 77.92869 149.254771Z"></path></g></g></g><g id="g-root-4.line_sy_1qduq616zfqio-fill" data-item-order="-94065" data-item-id="4.line_sy_1qduq616zfqio" data-item-class="ScenePart Part Indexed Stroke" data-item-index="4" data-renderer-id="0" transform="translate(526, 230)"></g><g id="g-root-3.cu_sy_8doft6zfp59-fill" data-item-order="-94064" data-item-id="3.cu_sy_8doft6zfp59" data-item-class="ScenePart Part Indexed Fill Stroke" data-item-index="3" data-renderer-id="0" transform="translate(284.0841979980469, 137.962158203125)"><g id="3.cu_sy_8doft6zfp59-fill" stroke="none" fill="#392c6c"><g><path d="M 105.276862 76.4431C 92.392562 83.3912 76.284862 78.6314 69.302162 65.8109C 67.199162 61.95 66.162562 57.7969 66.093462 53.6904L 66.051462 51.0772C 65.881162 48.6752 65.202362 46.2707 63.975662 44.0161C 61.729562 39.8899 58.051862 37.0311 53.887962 35.7122C 48.156662 28.9778 44.710962 19.5147 44.710962 10C 32.221662 16.4274 23.686462 29.4002 23.686462 44.355C 23.686462 46.6489 23.888862 48.8937 24.273862 51.0772C 26.179362 61.8911 32.601762 71.1552 41.534362 76.8778C 41.534362 76.8778 41.484962 77.8725 41.484962 78.376C 41.484962 90.7372 51.555462 100.7578 63.978162 100.7578L 64.020062 100.7701C 63.583262 102.3419 63.351162 103.9973 63.351162 105.7067C 63.351162 115.914 71.666762 124.186 81.922262 124.186C 90.336562 124.186 97.442662 118.618 99.725762 110.985L 99.735662 110.985C 101.362162 111.267 103.035662 111.412 104.743662 111.412C 109.978862 111.412 114.890662 110.044 119.143462 107.6494L 119.143462 54.5402C 118.689262 63.4335 113.725662 71.8871 105.281762 76.4406L 105.276862 76.4431ZM 104.7412 111.414612C 103.0332 111.414612 101.3597 111.269712 99.7331 110.989712L 99.7233 110.989712C 97.4401 118.620612 90.3341 124.188412 81.9198 124.188412C 71.6618 124.188412 63.3487 115.914112 63.3487 105.709312C 63.3487 103.999912 63.5832 102.344512 64.0176 100.772612L 63.9756 100.760312C 51.5529 100.760312 41.4825 90.739712 41.4825 78.378512C 41.4825 77.875012 41.4998 77.376512 41.5319 76.880312C 32.5993 71.157812 26.1769 61.891212 24.2714 51.079712C 15.4696 59.587412 10 71.489312 10 84.666012C 10 89.673812 10.7948 94.495012 12.2585 99.019012C 15.6498 109.508712 22.6522 118.384812 31.8168 124.193412C 28.6476 129.297012 28.3144 135.920912 31.5206 141.493712C 35.5464 148.495812 43.8421 151.545712 51.2765 149.257212C 58.6738 162.205712 74.7471 168.482712 89.2875 163.226712C 93.5181 166.208712 99.1087 167.490712 104.5586 166.235712C 113.306 164.221712 119.208 156.443712 119.143 147.869512L 119.143 107.656912C 114.893 110.051512 109.9788 111.419512 104.7437 111.419512L 104.7412 111.414612Z"></path></g></g></g><g id="g-root-3.line_sy_8doft6zfp5a-fill" data-item-order="-94061" data-item-id="3.line_sy_8doft6zfp5a" data-item-class="ScenePart Part Indexed Stroke" data-item-index="3" data-renderer-id="0" transform="translate(230, 230)"></g><g id="g-root-2.cu_sy_quo83d6zfp57-fill" data-item-order="-94060" data-item-id="2.cu_sy_quo83d6zfp57" data-item-class="ScenePart Part Indexed Fill Stroke" data-item-index="2" data-renderer-id="0" transform="translate(402.71307373046875, 86)"><g id="2.cu_sy_quo83d6zfp57-fill" stroke="none" fill="#224754"><g><path d="M 23.925967 128.405316C 36.810167 135.353516 52.917967 130.593716 59.900667 117.773216C 62.003567 113.912316 63.040267 109.759116 63.109367 105.652616L 63.151267 103.039416C 63.321567 100.637416 64.000367 98.233016 65.227067 95.978316C 67.473167 91.852216 71.150867 88.993416 75.314867 87.674516C 81.046067 80.940016 84.491767 71.476916 84.491767 61.962316C 84.464667 60.577116 84.363467 59.209116 84.195567 57.860716C 81.329967 56.310916 78.029867 55.424316 74.539767 55.424316C 69.719367 55.424316 65.308567 57.096916 61.833267 59.896716C 62.877367 63.035616 62.874867 66.540316 61.579067 69.863316C 59.542767 75.087316 54.848167 78.501216 49.630267 79.169216L 46.653567 79.346116C 40.835867 79.847116 35.524167 83.550816 33.270667 89.332316C 31.779867 93.156316 31.895867 97.203916 33.287967 100.743016C 30.301367 99.129416 26.949567 98.186316 23.311367 98.186316C 18.290867 98.186316 13.680267 99.932516 10.061767 102.850316L 10.061767 106.504916C 10.515967 115.398216 15.479567 123.851916 23.923467 128.405316L 23.925967 128.405316ZM 61.833267 59.8943C 62.877367 63.0331 62.874867 66.5379 61.579067 69.8609C 59.542767 75.0849 54.848167 78.4988 49.630267 79.1668L 46.653567 79.3436C 40.835867 79.8447 35.524167 83.5484 33.270667 89.3299C 31.779867 93.1539 31.895867 97.2015 33.287967 100.7406C 30.301367 99.127 26.949567 98.1839 23.311367 98.1839C 18.290867 98.1839 13.680267 99.9301 10.061767 102.8479L 10.061767 33.8284C 10.061767 20.6666 20.783867 10 34.008667 10C 44.318567 10 53.107967 16.4839 56.482067 25.5786C 71.155867 29.8104 82.250567 42.4196 84.193067 57.8607C 81.327467 56.311 78.027467 55.4243 74.537367 55.4243C 69.716867 55.4243 65.306067 57.0969 61.830767 59.8968L 61.833267 59.8943Z"></path></g></g></g><g id="g-root-2.line_sy_dju6t56zfnkc-fill" data-item-order="-94057" data-item-id="2.line_sy_dju6t56zfnkc" data-item-class="ScenePart Part Indexed Stroke" data-item-index="2" data-renderer-id="0" transform="translate(494, 122)"></g><g id="g-root-1.cu_sy_1hgyrqx6zfp55-fill" data-item-order="-94056" data-item-id="1.cu_sy_1hgyrqx6zfp55" data-item-class="ScenePart Part Indexed Indexed_1 Fill Stroke" data-item-index="1" data-renderer-id="0" transform="translate(318.792724609375, 86)"><g id="1.cu_sy_1hgyrqx6zfp55-fill" stroke="none" fill="#2b503e"><g><path d="M 32.660917 59.8943C 31.616917 63.0331 31.619317 66.5379 32.915217 69.8609C 34.951517 75.0849 39.646117 78.4988 44.864017 79.1668L 47.840717 79.3436C 53.658317 79.8447 58.970017 83.5484 61.223517 89.3299C 62.714317 93.1539 62.598317 97.2015 61.206217 100.7406C 64.192817 99.127 67.544717 98.1839 71.182917 98.1839C 76.203317 98.1839 80.814017 99.9301 84.432417 102.8479L 84.432417 33.8284C 84.432417 20.6666 73.710417 10 60.485517 10C 50.175617 10 41.386217 16.4839 38.012117 25.5786C 23.338417 29.8104 12.243617 42.4196 10.301117 57.8607C 13.166717 56.311 16.466817 55.4243 19.956917 55.4243C 24.777417 55.4243 29.188117 57.0969 32.663417 59.8968L 32.660917 59.8943ZM 19.1794 87.674516C 23.3433 88.993416 27.021 91.854616 29.2671 95.978316C 30.4963 98.233016 31.1726 100.637416 31.3429 103.039416L 31.3849 105.652616C 31.454 109.759116 32.4882 113.912316 34.5936 117.773216C 41.5763 130.593716 57.6841 135.353516 70.5683 128.405316C 79.0122 123.851916 83.9758 115.398216 84.43 106.504916L 84.43 102.850316C 80.8116 99.932516 76.2009 98.186316 71.1805 98.186316C 67.5447 98.186316 64.1904 99.129416 61.2038 100.743016C 62.5959 97.203916 62.7094 93.153916 61.2211 89.332316C 58.9676 83.550816 53.6559 79.847116 47.8382 79.346116L 44.8615 79.169216C 39.6437 78.501216 34.949 75.087316 32.9127 69.863316C 31.6169 66.540316 31.6144 63.035616 32.6585 59.896716C 29.1832 57.096916 24.7725 55.424316 19.952 55.424316C 16.4619 55.424316 13.1618 56.313416 10.2962 57.860716C 10.1259 59.206616 10.0272 60.574616 10 61.962316C 10 71.479416 13.4457 80.940016 19.1769 87.676916L 19.1794 87.674516Z"></path></g></g></g><g id="g-root-1.line_sy_1464qgp6zfnka-fill" data-item-order="-94053" data-item-id="1.line_sy_1464qgp6zfnka" data-item-class="ScenePart Part Indexed Indexed_1 Stroke" data-item-index="1" data-renderer-id="0" transform="translate(230, 122)"></g><g id="g-root-1_meut4p6z7b4e-fill" data-item-order="0" data-item-id="1_meut4p6z7b4e" data-item-class="Icon Stroke SceneTarget Indexed" data-item-index="3" data-renderer-id="0" transform="translate(182, 212)"></g><g id="g-root-plat_1ulk5bt6z8oi1-fill" data-item-order="0" data-item-id="plat_1ulk5bt6z8oi1" data-item-class="Icon Stroke SceneTarget Indexed" data-item-index="4" data-renderer-id="0" transform="translate(578, 212)"></g><g id="g-root-tx_thriving_qpofeh6zh3wi-fill" data-item-order="0" data-item-id="tx_thriving_qpofeh6zh3wi" data-item-class="Label Stroke SceneTarget Indexed" data-item-index="4" data-renderer-id="0" transform="translate(626, 206)"><g id="tx_thriving_qpofeh6zh3wi-fill" stroke="none" fill="#A3A3A3"><g><text style="font: 20px Roboto, sans-serif; white-space: pre;"><tspan x="12" y="34" dominant-baseline="ideographic">Thriving </tspan><tspan x="12" y="58" dominant-baseline="ideographic">Marketplace</tspan></text></g></g></g><g id="g-root-tx_crafting_1q7lzax6zh2bz-fill" data-item-order="0" data-item-id="tx_crafting_1q7lzax6zh2bz" data-item-class="Label Stroke SceneTarget Indexed" data-item-index="3" data-renderer-id="0" transform="translate(50, 206)"><g id="tx_crafting_1q7lzax6zh2bz-fill" stroke="none" fill="#A3A3A3"><g><text style="font: 20px Roboto, sans-serif; white-space: pre;"><tspan x="18.98" y="34" dominant-baseline="ideographic">Crafting and </tspan><tspan x="53.09" y="58" dominant-baseline="ideographic">Creation</tspan></text></g></g></g><g id="g-root-tx_resource_deue496zh2bn-fill" data-item-order="0" data-item-id="tx_resource_deue496zh2bn" data-item-class="Label Stroke SceneTarget Indexed" data-item-index="2" data-renderer-id="0" transform="translate(626, 98)"><g id="tx_resource_deue496zh2bn-fill" stroke="none" fill="#A3A3A3"><g><text style="font: 20px Roboto, sans-serif; white-space: pre;"><tspan x="12" y="34" dominant-baseline="ideographic">Resource </tspan><tspan x="12" y="58" dominant-baseline="ideographic">Extraction</tspan></text></g></g></g><g id="g-root-mini_13z9lo96z8oi2-fill" data-item-order="0" data-item-id="mini_13z9lo96z8oi2" data-item-class="Icon Stroke SceneTarget Indexed" data-item-index="2" data-renderer-id="0" transform="translate(578, 104)"></g><g id="g-root-3_1lwsd156z7abp-fill" data-item-order="0" data-item-id="3_1lwsd156z7abp" data-item-class="Icon Stroke SceneTarget Indexed Indexed_1" data-item-index="1" data-renderer-id="0" transform="translate(182, 104)"></g><g id="g-root-tx_commandc_1hbyz216zh3wg-fill" data-item-order="0" data-item-id="tx_commandc_1hbyz216zh3wg" data-item-class="Label Stroke SceneTarget Indexed" data-item-index="5" data-renderer-id="0" transform="translate(2, 326)"><g id="tx_commandc_1hbyz216zh3wg-fill" stroke="none" fill="#A3A3A3"><g><text style="font: 20px Roboto, sans-serif; white-space: pre;"><tspan x="19.83" y="34" dominant-baseline="ideographic">Command Center</tspan></text></g></g></g><g id="g-root-moni_4o79q16z7abr-fill" data-item-order="0" data-item-id="moni_4o79q16z7abr" data-item-class="Icon Stroke SceneTarget Indexed" data-item-index="5" data-renderer-id="0" transform="translate(182, 320)"></g><g id="g-root-tx_landrock_mgq5896zfoxx-fill" data-item-order="0" data-item-id="tx_landrock_mgq5896zfoxx" data-item-class="Label Stroke SceneTarget SceneTitle Title" data-item-index="none" data-renderer-id="0" transform="translate(248, 2)"><g id="tx_landrock_mgq5896zfoxx-fill" stroke="none" fill="#A3A3A3"><g><text style="font: 20px Roboto, sans-serif; white-space: pre;"><tspan x="12.91" y="34" dominant-baseline="ideographic">LandRocker Ecosystem Overview</tspan></text></g></g></g><g id="g-root-tx_blockcha_1414xrt6zh2bl-fill" data-item-order="0" data-item-id="tx_blockcha_1414xrt6zh2bl" data-item-class="Label Stroke SceneTarget Indexed" data-item-index="6" data-renderer-id="0" transform="translate(626, 314)"><g id="tx_blockcha_1414xrt6zh2bl-fill" stroke="none" fill="#A3A3A3"><g><text style="font: 20px Roboto, sans-serif; white-space: pre;"><tspan x="12" y="34" dominant-baseline="ideographic">Blockchain </tspan><tspan x="12" y="58" dominant-baseline="ideographic">Integration</tspan></text></g></g></g><g id="g-root-tx_explorat_qnt0556zh4w6-fill" data-item-order="0" data-item-id="tx_explorat_qnt0556zh4w6" data-item-class="Label Stroke SceneTarget Indexed Indexed_1" data-item-index="1" data-renderer-id="0" transform="translate(26, 98)"><g id="tx_explorat_qnt0556zh4w6-fill" stroke="none" fill="#A3A3A3"><g><text style="font: 20px Roboto, sans-serif; white-space: pre;"><tspan x="14" y="34" dominant-baseline="ideographic">Exploration and </tspan><tspan x="63.48" y="58" dominant-baseline="ideographic">Liberation</tspan></text></g></g></g><g id="g-root-tech_mgq8e16z7a4o-fill" data-item-order="0" data-item-id="tech_mgq8e16z7a4o" data-item-class="Icon Stroke SceneTarget Indexed" data-item-index="6" data-renderer-id="0" transform="translate(578, 320)"></g><g id="g-root-6.cu_sy_zrk6ih6zfqir-stroke" data-item-order="-94076" data-item-id="6.cu_sy_zrk6ih6zfqir" data-item-class="ScenePart Part Indexed Fill Stroke" data-item-index="6" data-renderer-id="0" transform="translate(402.710693359375, 226.9761962890625)"><g id="6.cu_sy_zrk6ih6zfqir-stroke" fill="none" stroke-linecap="round" stroke-linejoin="round" stroke-miterlimit="4" stroke="#FD6A65" stroke-width="2"><g><path d="M 117.252805 10.4347C 117.154005 10.2874 117.050405 10.1449 116.949205 10C 113.557805 20.4897 106.555405 29.3658 97.390805 35.1743C 100.560005 40.278 100.893205 46.9019 97.687005 52.4746C 93.661305 59.4768 85.365505 62.5272 77.931105 60.2381C 70.533805 73.1864 54.460505 79.464 39.920105 74.2081C 42.743805 83.7473 51.303705 90.6807 61.425905 90.6807C 67.902605 90.6807 73.737605 87.8415 77.842305 83.3003C 82.892305 83.2512 87.715205 82.4898 87.715205 82.4898C 94.401705 81.1292 100.572305 78.3538 105.898805 74.4954C 117.650105 65.9828 125.289405 52.1873 125.289405 36.616C 125.289405 26.9172 122.327505 17.9084 117.252805 10.4347ZM 24.65159 77.216786C 30.10149 78.471786 35.69199 77.189786 39.92259 74.208186C 42.74629 83.747386 51.30619 90.680786 61.42839 90.680786C 67.90509 90.680786 73.74009 87.841586 77.84479 83.300386C 82.89479 83.251286 87.71779 82.489886 87.71779 82.489886C 94.40419 81.129286 100.57479 78.353886 105.90129 74.495486C 106.35299 76.740286 106.59239 79.063686 106.59239 81.441186C 106.59239 100.863486 90.76849 116.611586 71.24709 116.611586C 69.19599 116.611586 67.18689 116.434686 65.23199 116.103186C 65.23199 116.159686 65.23199 116.213686 65.23199 116.267686C 65.23199 134.358886 50.49409 149.023886 32.31299 149.023886C 23.73579 149.023886 15.92379 145.757286 10.06419 140.408086L 10.06419 58.850586C 9.99999 67.427086 15.90159 75.205286 24.64909 77.216786L 24.65159 77.216786ZM 65.229581 116.103177C 55.662581 114.469877 47.406281 109.010077 42.114381 101.364477C 42.114381 101.364477 42.111881 101.359577 42.109481 101.357077C 41.953981 101.359577 41.795981 101.361977 41.640481 101.361977C 28.610581 101.361977 18.048981 90.852677 18.048981 77.887277C 18.048981 76.723077 18.135381 75.576177 18.298281 74.456177M 10.066631 105.215454C 10.002431 113.791954 15.904031 121.570154 24.651531 123.581654M 67.16214 89.914497C 69.12684 89.882597 71.12864 90.255897 73.04894 91.083597C 77.55344 93.026297 80.53754 97.009997 81.37924 101.477497"></path></g></g></g><g id="g-root-6.line_sy_qwjncp6zfo5o-stroke" data-item-order="-94073" data-item-id="6.line_sy_qwjncp6zfo5o" data-item-class="ScenePart Part Indexed Stroke" data-item-index="6" data-renderer-id="0" transform="translate(494, 338)"><g id="6.line_sy_qwjncp6zfo5o-stroke" fill="none" stroke-linecap="round" stroke-linejoin="round" stroke-miterlimit="4" stroke="#A3A3A3" stroke-width="2"><g><path d="M 82 10L 12 10"></path><path d="M 18 3.5L 11.5 10L 18 16.5" stroke-dasharray="none"></path></g></g></g><g id="g-root-5.cu_sy_1d30ovt6zfoxt-stroke" data-item-order="-94072" data-item-id="5.cu_sy_1d30ovt6zfoxt" data-item-class="ScenePart Part Indexed Fill Stroke" data-item-index="5" data-renderer-id="0" transform="translate(278, 226.976318359375)"><g id="5.cu_sy_1d30ovt6zfoxt-stroke" fill="none" stroke-linecap="round" stroke-linejoin="round" stroke-miterlimit="4" stroke="#F99539" stroke-width="2"><g><path d="M 57.3583 60.2381C 49.9239 62.5247 41.6281 59.4743 37.6024 52.4746C 34.3986 46.9019 34.7318 40.278 37.8986 35.1743C 28.734 29.3683 21.7316 20.4897 18.3402 10C 18.239 10.1449 18.1353 10.2874 18.0366 10.4347C 12.9619 17.9084 10 26.9172 10 36.616C 10 52.1873 17.6392 65.9828 29.3906 74.4954C 34.717 78.3538 40.8876 81.1267 47.5741 82.4898C 47.5741 82.4898 52.3971 83.2512 57.4471 83.3003C 61.5518 87.844 67.3867 90.6807 73.8634 90.6807C 83.9857 90.6807 92.5456 83.7473 95.3693 74.2081C 80.8288 79.4664 64.7556 73.1864 57.3583 60.2381ZM 110.640363 77.216648C 105.190463 78.471648 99.599863 77.189648 95.369263 74.208048C 92.545563 83.747248 83.985763 90.680648 73.863463 90.680648C 67.386763 90.680648 61.551863 87.841448 57.447163 83.300248C 52.397063 83.251148 47.574163 82.489748 47.574163 82.489748C 40.887663 81.129148 34.717063 78.353748 29.390563 74.495348C 28.938863 76.740148 28.699463 79.063548 28.699463 81.441048C 28.699463 100.863348 44.523363 116.611448 64.044763 116.611448C 66.095863 116.611448 68.105063 116.434548 70.059863 116.103048C 70.059863 116.159548 70.059863 116.213548 70.059863 116.267548C 70.059863 134.358748 84.797763 149.023748 102.978863 149.023748C 111.556063 149.023748 119.368063 145.757148 125.227663 140.407948L 125.227663 58.850448C 125.291863 67.426948 119.390263 75.205148 110.642763 77.216648L 110.640363 77.216648ZM 70.059875 116.103161C 79.626775 114.469861 87.883075 109.010061 93.174975 101.364461C 93.174975 101.364461 93.177475 101.359561 93.179975 101.357061C 93.335475 101.359561 93.493375 101.361961 93.648875 101.361961C 106.678775 101.361961 117.240475 90.852661 117.240475 77.887261C 117.240475 76.723061 117.154075 75.576161 116.991175 74.456161M 125.222778 105.215438C 125.286878 113.791938 119.385378 121.570138 110.637878 123.581638M 68.127256 89.91436C 66.162556 89.88246 64.160756 90.25576 62.240456 91.08346C 57.735956 93.02616 54.751856 97.00986 53.910156 101.47736"></path></g></g></g><g id="g-root-5.line_sy_147domx6zfpqi-stroke" data-item-order="-94069" data-item-id="5.line_sy_147domx6zfpqi" data-item-class="ScenePart Part Indexed Stroke" data-item-index="5" data-renderer-id="0" transform="translate(230, 338)"><g id="5.line_sy_147domx6zfpqi-stroke" fill="none" stroke-linecap="round" stroke-linejoin="round" stroke-miterlimit="4" stroke="#A3A3A3" stroke-width="2"><g><path d="M 10 10L 80 10"></path><path d="M 74 16.5L 80.5 10L 74 3.5" stroke-dasharray="none"></path></g></g></g><g id="g-root-4.cu_sy_1ly181l6zfqj3-stroke" data-item-order="-94068" data-item-id="4.cu_sy_1ly181l6zfqj3" data-item-class="ScenePart Part Indexed Fill Stroke" data-item-index="4" data-renderer-id="0" transform="translate(402.715576171875, 137.959716796875)"><g id="4.cu_sy_1ly181l6zfqj3-stroke" fill="none" stroke-linecap="round" stroke-linejoin="round" stroke-miterlimit="4" stroke="#F669BE" stroke-width="2"><g><path d="M 105.516339 44.355C 105.516339 29.3978 96.978639 16.4274 84.491739 10C 84.491739 19.5171 81.046139 28.9778 75.314839 35.7147C 71.150939 37.0336 67.473239 39.8948 65.227139 44.0185C 63.997939 46.2732 63.321639 48.6776 63.151339 51.0796L 63.109339 53.6928C 63.040239 57.7993 62.003539 61.9525 59.900639 65.8134C 52.917939 78.6338 36.810139 83.3936 23.925939 76.4455C 15.482039 71.892 10.518439 63.4384 10.064239 54.5451L 10.064239 107.6543C 14.314539 110.049 19.228839 111.417 24.464039 111.417C 26.172039 111.417 27.845439 111.2721 29.472039 110.9921L 29.481939 110.9921C 31.765039 118.623 38.871139 124.1908 47.285439 124.1908C 57.543439 124.1908 65.856539 115.9164 65.856539 105.7116C 65.856539 104.0022 65.622039 102.3468 65.187639 100.775L 65.229539 100.7627C 77.652239 100.7627 87.722739 90.7421 87.722739 78.3809C 87.722739 77.8774 87.673339 76.8827 87.673339 76.8827C 96.605939 71.1601 103.028339 61.8935 104.933839 51.0821C 105.318839 48.8986 105.521239 46.6514 105.521239 44.3599L 105.516339 44.355ZM 77.92869 149.254771C 85.36299 151.541271 93.65879 148.490971 97.68449 141.491271C 100.88829 135.918471 100.55509 129.294571 97.38839 124.190971C 106.55299 118.384871 113.55539 109.506271 116.94669 99.016571C 118.40789 94.492571 119.20519 89.671371 119.20519 84.663571C 119.20519 71.489371 113.73559 59.587471 104.93379 51.077271C 103.02829 61.891171 96.60589 71.155371 87.67329 76.877871C 87.70539 77.373971 87.72269 77.872571 87.72269 78.376071C 87.72269 90.737271 77.65219 100.757971 65.22949 100.757971L 65.18759 100.770171C 65.62449 102.342071 65.85649 103.997471 65.85649 105.706871C 65.85649 115.914071 57.54099 124.185971 47.28539 124.185971C 38.87109 124.185971 31.76509 118.618171 29.48189 110.984871L 29.47199 110.984871C 27.84549 111.267271 26.17199 111.412171 24.46399 111.412171C 19.22879 111.412171 14.31699 110.044171 10.06419 107.649571L 10.06419 147.862171C 9.99999 156.438671 15.90159 164.216871 24.64909 166.228371C 30.09899 167.483471 35.68959 166.201371 39.92009 163.219771C 54.46059 168.478171 70.53379 162.198071 77.93119 149.249871L 77.92869 149.254771ZM 76.472412 58.990479C 82.786212 62.625379 87.162412 69.227179 87.670812 76.880179M 48.304775 93.659877C 44.834375 89.720377 42.731475 84.560277 42.731475 78.911377M 75.312347 35.714715C 79.693447 34.327015 84.612747 34.648715 88.974047 36.999215M 55.993316 71.366455C 57.777816 74.247355 60.315216 76.723055 63.506616 78.471755C 64.548216 79.041555 65.617016 79.513155 66.705516 79.886455M 31.88105 95.379151C 29.87925 98.328851 28.70935 101.885151 28.70935 105.711651C 28.70935 107.546351 28.97835 109.317151 29.47695 110.989651M 100.833965 99.728714C 105.871665 90.548114 104.227865 78.800914 96.166565 71.364014M 81.374406 135.311776C 78.459406 126.052576 70.551106 119.723276 61.519806 118.340576M 39.917694 163.224566C 47.169394 156.008766 47.169394 144.305766 39.917694 137.089966M 88.458252 117.935303C 91.945852 118.895603 95.132352 121.017703 97.378452 124.191003"></path></g></g></g><g id="g-root-4.line_sy_1qduq616zfqio-stroke" data-item-order="-94065" data-item-id="4.line_sy_1qduq616zfqio" data-item-class="ScenePart Part Indexed Stroke" data-item-index="4" data-renderer-id="0" transform="translate(526, 230)"><g id="4.line_sy_1qduq616zfqio-stroke" fill="none" stroke-linecap="round" stroke-linejoin="round" stroke-miterlimit="4" stroke="#A3A3A3" stroke-width="2"><g><path d="M 50 10L 12 10"></path><path d="M 18 3.5L 11.5 10L 18 16.5" stroke-dasharray="none"></path></g></g></g><g id="g-root-3.cu_sy_8doft6zfp59-stroke" data-item-order="-94064" data-item-id="3.cu_sy_8doft6zfp59" data-item-class="ScenePart Part Indexed Fill Stroke" data-item-index="3" data-renderer-id="0" transform="translate(284.0841979980469, 137.962158203125)"><g id="3.cu_sy_8doft6zfp59-stroke" fill="none" stroke-linecap="round" stroke-linejoin="round" stroke-miterlimit="4" stroke="#886AFF" stroke-width="2"><g><path d="M 105.276862 76.4431C 92.392562 83.3912 76.284862 78.6314 69.302162 65.8109C 67.199162 61.95 66.162562 57.7969 66.093462 53.6904L 66.051462 51.0772C 65.881162 48.6752 65.202362 46.2707 63.975662 44.0161C 61.729562 39.8899 58.051862 37.0311 53.887962 35.7122C 48.156662 28.9778 44.710962 19.5147 44.710962 10C 32.221662 16.4274 23.686462 29.4002 23.686462 44.355C 23.686462 46.6489 23.888862 48.8937 24.273862 51.0772C 26.179362 61.8911 32.601762 71.1552 41.534362 76.8778C 41.534362 76.8778 41.484962 77.8725 41.484962 78.376C 41.484962 90.7372 51.555462 100.7578 63.978162 100.7578L 64.020062 100.7701C 63.583262 102.3419 63.351162 103.9973 63.351162 105.7067C 63.351162 115.914 71.666762 124.1859 81.922262 124.1859C 90.336562 124.1859 97.442662 118.6181 99.725762 110.9847L 99.735662 110.9847C 101.362162 111.2671 103.035662 111.4121 104.743662 111.4121C 109.978862 111.4121 114.890662 110.044 119.143462 107.6494L 119.143462 54.5402C 118.689262 63.4335 113.725662 71.8871 105.281762 76.4406L 105.276862 76.4431ZM 104.7412 111.414612C 103.0332 111.414612 101.3597 111.269712 99.7331 110.989712L 99.7233 110.989712C 97.4401 118.620612 90.3341 124.188412 81.9198 124.188412C 71.6618 124.188412 63.3487 115.914112 63.3487 105.709312C 63.3487 103.999912 63.5832 102.344512 64.0176 100.772612L 63.9756 100.760312C 51.5529 100.760312 41.4825 90.739712 41.4825 78.378512C 41.4825 77.875012 41.4998 77.376512 41.5319 76.880312C 32.5993 71.157812 26.1769 61.891212 24.2714 51.079712C 15.4696 59.587412 10 71.489312 10 84.666012C 10 89.673812 10.7948 94.495012 12.2584 99.019012C 15.6498 109.508712 22.6522 118.384812 31.8168 124.193412C 28.6476 129.297012 28.3144 135.920912 31.5206 141.493712C 35.5464 148.495812 43.8421 151.546212 51.2765 149.257212C 58.6738 162.205412 74.7471 168.483012 89.2875 163.227112C 93.5181 166.208712 99.1087 167.490812 104.5586 166.235712C 113.306 164.221812 119.2076 156.443512 119.1434 147.869512L 119.1434 107.656912C 114.8931 110.051512 109.9788 111.419512 104.7437 111.419512L 104.7412 111.414612ZM 52.727819 58.988037C 46.414119 62.622937 42.037919 69.224737 41.529419 76.877737M 80.895477 93.657435C 84.365877 89.717935 86.468777 84.557835 86.468777 78.908935M 53.887866 35.712395C 49.506766 34.324695 44.587566 34.646395 40.226166 36.996895M 73.20689 71.364013C 71.42239 74.244913 68.88499 76.720613 65.69349 78.469313C 64.65189 79.039113 63.58319 79.510713 62.49469 79.884013M 97.321686 95.376709C 99.323386 98.326409 100.493386 101.882709 100.493386 105.709209C 100.493386 107.543909 100.224386 109.314709 99.725786 110.987209M 28.366265 99.726272C 23.328565 90.545672 24.972465 78.798472 33.033765 71.361572M 47.82843 135.309334C 50.74343 126.050134 58.65173 119.720834 67.68303 118.338134M 40.742038 117.932861C 37.254438 118.893161 34.067938 121.015261 31.821838 124.188561M 89.282642 163.222124C 82.030942 156.006324 82.030942 144.303324 89.282642 137.087524"></path></g></g></g><g id="g-root-3.line_sy_8doft6zfp5a-stroke" data-item-order="-94061" data-item-id="3.line_sy_8doft6zfp5a" data-item-class="ScenePart Part Indexed Stroke" data-item-index="3" data-renderer-id="0" transform="translate(230, 230)"><g id="3.line_sy_8doft6zfp5a-stroke" fill="none" stroke-linecap="round" stroke-linejoin="round" stroke-miterlimit="4" stroke="#A3A3A3" stroke-width="2"><g><path d="M 10 10L 50 10"></path><path d="M 44 16.5L 50.5 10L 44 3.5" stroke-dasharray="none"></path></g></g></g><g id="g-root-2.cu_sy_quo83d6zfp57-stroke" data-item-order="-94060" data-item-id="2.cu_sy_quo83d6zfp57" data-item-class="ScenePart Part Indexed Fill Stroke" data-item-index="2" data-renderer-id="0" transform="translate(402.71307373046875, 86)"><g id="2.cu_sy_quo83d6zfp57-stroke" fill="none" stroke-linecap="round" stroke-linejoin="round" stroke-miterlimit="4" stroke="#1AC6FF" stroke-width="2"><g><path d="M 23.925967 128.405316C 36.810167 135.353516 52.917967 130.593716 59.900667 117.773216C 62.003567 113.912316 63.040267 109.759116 63.109367 105.652616L 63.151267 103.039416C 63.321567 100.637416 64.000367 98.233016 65.227067 95.978316C 67.473267 91.852216 71.150867 88.993416 75.314867 87.674516C 81.046067 80.940016 84.491767 71.476916 84.491767 61.962316C 84.464667 60.577116 84.363467 59.209016 84.195567 57.860716C 81.329967 56.310916 78.029867 55.424316 74.539767 55.424316C 69.719367 55.424316 65.308567 57.096916 61.833267 59.896716C 62.877367 63.035516 62.874867 66.540316 61.579067 69.863316C 59.542767 75.087316 54.848167 78.501216 49.630267 79.169216L 46.653567 79.346116C 40.835867 79.847116 35.524167 83.550816 33.270667 89.332316C 31.779867 93.156316 31.895867 97.203916 33.287967 100.743016C 30.301367 99.129416 26.949567 98.186316 23.311367 98.186316C 18.290867 98.186316 13.680267 99.932516 10.061767 102.850316L 10.061767 106.504916C 10.515967 115.398216 15.479567 123.851916 23.923467 128.405316L 23.925967 128.405316ZM 61.833267 59.8943C 62.877367 63.0331 62.874867 66.5379 61.579067 69.8609C 59.542767 75.0849 54.848167 78.4988 49.630267 79.1668L 46.653567 79.3436C 40.835867 79.8447 35.524167 83.5484 33.270667 89.3299C 31.779867 93.1539 31.895867 97.2015 33.287967 100.7406C 30.301367 99.127 26.949567 98.1839 23.311367 98.1839C 18.290867 98.1839 13.680267 99.9301 10.061767 102.8479L 10.061767 33.8284C 10.061767 20.6666 20.783867 10 34.008667 10C 44.318567 10 53.107967 16.4839 56.482067 25.5786C 71.155867 29.8104 82.250567 42.4196 84.193067 57.8607C 81.327467 56.311 78.027467 55.4243 74.537367 55.4243C 69.716867 55.4243 65.306067 57.0969 61.830767 59.8968L 61.833267 59.8943ZM 33.290405 100.743042C 34.393705 103.547842 36.299205 106.033342 38.846405 107.831142M 10.06419 64.604847C 9.99999 56.028347 15.90159 48.250147 24.64909 46.238647M 40.435935 59.793643C 49.810435 56.939743 55.087535 47.066443 52.219435 37.736043C 49.351335 28.407943 39.428935 23.156943 30.054535 26.010943M 56.484547 25.578613C 54.314947 26.597913 52.372447 28.172313 50.889047 30.262413C 50.405247 30.945213 49.990547 31.652613 49.642547 32.382013M 30.024902 72.385742C 33.060802 75.328042 36.879202 77.555642 41.270202 78.705142C 42.701802 79.080842 44.138302 79.326442 45.565002 79.449242"></path></g></g></g><g id="g-root-2.line_sy_dju6t56zfnkc-stroke" data-item-order="-94057" data-item-id="2.line_sy_dju6t56zfnkc" data-item-class="ScenePart Part Indexed Stroke" data-item-index="2" data-renderer-id="0" transform="translate(494, 122)"><g id="2.line_sy_dju6t56zfnkc-stroke" fill="none" stroke-linecap="round" stroke-linejoin="round" stroke-miterlimit="4" stroke="#A3A3A3" stroke-width="2"><g><path d="M 82 10L 12 10"></path><path d="M 18 3.5L 11.5 10L 18 16.5" stroke-dasharray="none"></path></g></g></g><g id="g-root-1.cu_sy_1hgyrqx6zfp55-stroke" data-item-order="-94056" data-item-id="1.cu_sy_1hgyrqx6zfp55" data-item-class="ScenePart Part Indexed Indexed_1 Fill Stroke" data-item-index="1" data-renderer-id="0" transform="translate(318.792724609375, 86)"><g id="1.cu_sy_1hgyrqx6zfp55-stroke" fill="none" stroke-linecap="round" stroke-linejoin="round" stroke-miterlimit="4" stroke="#44E095" stroke-width="2"><g><path d="M 32.660917 59.8943C 31.616917 63.0331 31.619317 66.5379 32.915217 69.8609C 34.951517 75.0849 39.646117 78.4988 44.864017 79.1668L 47.840717 79.3436C 53.658317 79.8447 58.970017 83.5484 61.223517 89.3299C 62.714317 93.1539 62.598317 97.2015 61.206217 100.7406C 64.192817 99.127 67.544717 98.1839 71.182917 98.1839C 76.203317 98.1839 80.814017 99.9301 84.432417 102.8479L 84.432417 33.8284C 84.432417 20.6666 73.710417 10 60.485517 10C 50.175617 10 41.386217 16.4839 38.012117 25.5786C 23.338417 29.8104 12.243617 42.4196 10.301117 57.8607C 13.166717 56.311 16.466817 55.4243 19.956917 55.4243C 24.777417 55.4243 29.188117 57.0969 32.663417 59.8968L 32.660917 59.8943ZM 19.1794 87.674516C 23.3433 88.993416 27.021 91.854616 29.2671 95.978316C 30.4963 98.233016 31.1726 100.637416 31.3429 103.039416L 31.3849 105.652616C 31.454 109.759116 32.4882 113.912316 34.5936 117.773216C 41.5763 130.593716 57.6841 135.353516 70.5683 128.405316C 79.0122 123.851916 83.9758 115.398216 84.43 106.504916L 84.43 102.850316C 80.8115 99.932516 76.2009 98.186316 71.1805 98.186316C 67.5447 98.186316 64.1904 99.129416 61.2038 100.743016C 62.5959 97.203916 62.7094 93.153916 61.2211 89.332316C 58.9676 83.550816 53.6559 79.847116 47.8382 79.346116L 44.8615 79.169216C 39.6437 78.501216 34.949 75.087316 32.9127 69.863316C 31.6169 66.540316 31.6144 63.035516 32.6585 59.896716C 29.1832 57.096916 24.7725 55.424316 19.952 55.424316C 16.4619 55.424316 13.1618 56.313416 10.2962 57.860716C 10.1259 59.206616 10.0272 60.574616 10 61.962316C 10 71.479416 13.4457 80.940016 19.1769 87.676916L 19.1794 87.674516ZM 84.430053 64.604847C 84.494153 56.028347 78.592653 48.250147 69.845153 46.238647M 54.058152 59.793643C 44.683752 56.939743 39.406652 47.066443 42.274752 37.736043C 45.142852 28.407943 55.065252 23.156943 64.439652 26.010943M 38.009674 25.578613C 40.179274 26.597913 42.121774 28.172313 43.605174 30.262413C 44.088974 30.945213 44.503674 31.652613 44.851674 32.382013M 64.469329 72.385742C 61.433329 75.328042 57.615029 77.555642 53.224029 78.705142C 51.792429 79.080842 50.355829 79.326442 48.929229 79.449242M 61.203796 100.743042C 60.100496 103.547842 58.194996 106.033342 55.647796 107.831142"></path></g></g></g><g id="g-root-1.line_sy_1464qgp6zfnka-stroke" data-item-order="-94053" data-item-id="1.line_sy_1464qgp6zfnka" data-item-class="ScenePart Part Indexed Indexed_1 Stroke" data-item-index="1" data-renderer-id="0" transform="translate(230, 122)"><g id="1.line_sy_1464qgp6zfnka-stroke" fill="none" stroke-linecap="round" stroke-linejoin="round" stroke-miterlimit="4" stroke="#A3A3A3" stroke-width="2"><g><path d="M 10 10L 80 10"></path><path d="M 74 16.5L 80.5 10L 74 3.5" stroke-dasharray="none"></path></g></g></g><g id="g-root-1_meut4p6z7b4e-stroke" data-item-order="0" data-item-id="1_meut4p6z7b4e" data-item-class="Icon Stroke SceneTarget Indexed" data-item-index="3" data-renderer-id="0" transform="translate(182, 212)"><g id="1_meut4p6z7b4e-stroke" fill="none" stroke-linecap="round" stroke-linejoin="round" stroke-miterlimit="4" stroke="#A3A3A3" stroke-width="2"><g><path d="M 13 21.25L 43 21.25C 43 21.25 44.5 21.25 44.5 22.75L 44.5 43.75C 44.5 43.75 44.5 45.25 43 45.25L 13 45.25C 13 45.25 11.5 45.25 11.5 43.75L 11.5 22.75C 11.5 22.75 11.5 21.25 13 21.25M 20.915501 18.25L 20.915501 17.459499C 20.914557 13.753279 23.918777 10.748292 27.625 10.748292C 31.331221 10.748292 34.335442 13.753279 34.334499 17.459499L 34.334499 18.25M 16 21.25L 20.5 27.25L 16 33.25M 16 33.25L 20.5 39.25L 16 45.25M 25 21.25L 20.5 27.25L 25 33.25M 25 33.25L 20.5 39.25L 25 45.25M 40 21.25L 35.5 27.25L 40 33.25M 40 33.25L 35.5 39.25L 40 45.25M 31 21.25L 35.5 27.25L 31 33.25M 31 33.25L 35.5 39.25L 31 45.25"></path></g></g></g><g id="g-root-plat_1ulk5bt6z8oi1-stroke" data-item-order="0" data-item-id="plat_1ulk5bt6z8oi1" data-item-class="Icon Stroke SceneTarget Indexed" data-item-index="4" data-renderer-id="0" transform="translate(578, 212)"><g id="plat_1ulk5bt6z8oi1-stroke" fill="none" stroke-linecap="round" stroke-linejoin="round" stroke-miterlimit="4" stroke="#A3A3A3" stroke-width="2"><g><path d="M 10.75 28C 10.75 37.477203 18.473087 45.159996 28 45.159996C 37.526913 45.159996 45.25 37.477203 45.25 28C 45.25 18.522793 37.526913 10.84 28 10.84C 18.473087 10.84 10.75 18.522793 10.75 28M 20.155001 28C 20.155001 32.307819 23.667328 35.799999 28 35.799999C 32.332676 35.799999 35.845001 32.307819 35.845001 28C 35.845001 23.692179 32.332676 20.200001 28 20.200001C 23.667328 20.200001 20.155001 23.692179 20.155001 28M 40.195 15.865C 41.079006 16.738577 41.576523 17.929678 41.576523 19.172501C 41.576523 20.415321 41.079006 21.606422 40.195 22.48C 38.357468 24.308765 35.387535 24.308765 33.550003 22.480001M 33.549999 33.52C 32.665993 34.393578 32.168476 35.584679 32.168476 36.827499C 32.168476 38.07032 32.665993 39.261421 33.549999 40.134998C 35.394215 41.947506 38.350788 41.947506 40.195 40.135002M 11.32 31.75C 11.32 34.33469 13.428739 36.43 16.030001 36.43C 18.631262 36.43 20.74 34.33469 20.74 31.75C 20.74 29.165308 18.631262 27.07 16.030001 27.07C 13.428739 27.07 11.32 29.165308 11.32 31.75"></path></g></g></g><g id="g-root-tx_thriving_qpofeh6zh3wi-stroke" data-item-order="0" data-item-id="tx_thriving_qpofeh6zh3wi" data-item-class="Label Stroke SceneTarget Indexed" data-item-index="4" data-renderer-id="0" transform="translate(626, 206)"></g><g id="g-root-tx_crafting_1q7lzax6zh2bz-stroke" data-item-order="0" data-item-id="tx_crafting_1q7lzax6zh2bz" data-item-class="Label Stroke SceneTarget Indexed" data-item-index="3" data-renderer-id="0" transform="translate(50, 206)"></g><g id="g-root-tx_resource_deue496zh2bn-stroke" data-item-order="0" data-item-id="tx_resource_deue496zh2bn" data-item-class="Label Stroke SceneTarget Indexed" data-item-index="2" data-renderer-id="0" transform="translate(626, 98)"></g><g id="g-root-mini_13z9lo96z8oi2-stroke" data-item-order="0" data-item-id="mini_13z9lo96z8oi2" data-item-class="Icon Stroke SceneTarget Indexed" data-item-index="2" data-renderer-id="0" transform="translate(578, 104)"><g id="mini_13z9lo96z8oi2-stroke" fill="none" stroke-linecap="round" stroke-linejoin="round" stroke-miterlimit="4" stroke="#A3A3A3" stroke-width="2"><g><path d="M 18.0895 11.608C 17.943539 11.522953 17.872461 11.35081 17.915901 11.18756C 17.959343 11.024309 18.106573 10.910257 18.275501 10.909C 25.597 10.831 33.553001 13.309 40.175499 22.909L 40.175499 22.909C 40.583771 23.495975 40.520988 24.289524 40.025501 24.805L 37.869999 27.0355C 37.53455 27.37841 37.055328 27.540197 36.580673 27.470779C 36.106022 27.401361 35.693199 27.109114 35.470001 26.6845L 34.928497 25.645C 31.591 19.249001 23.491001 14.776 18.0895 11.608ZM 27.9205 17.899L 11.437 33.413502C 11.00622 33.818333 10.75795 34.380501 10.748904 34.971588C 10.739859 35.562672 10.97081 36.132172 11.389 36.549999L 11.389 36.550003C 11.806314 36.967628 12.374931 37.198513 12.965264 37.190033C 13.555597 37.181557 14.117351 36.934441 14.5225 36.505001L 30.2395 19.8325M 26.128 33.941502C 25.894337 34.074974 25.750088 34.323402 25.75 34.592499L 25.75 38.9725C 25.750088 39.2416 25.894337 39.490025 26.128 39.623501L 30.628 42.1945C 30.86005 42.328476 31.14595 42.328476 31.378 42.1945L 35.878002 39.623501C 36.111664 39.490025 36.255913 39.2416 36.256001 38.9725L 36.256001 34.599998C 36.255913 34.330902 36.111664 34.082474 35.878002 33.948997L 31.378 31.378C 31.14595 31.244026 30.86005 31.244026 30.628 31.378ZM 39.550003 31.0825C 39.361145 31.22414 39.25 31.446432 39.25 31.682499L 39.25 33.1675C 39.25021 33.411835 39.369423 33.640751 39.5695 33.780998L 41.8195 35.355999C 42.077919 35.537144 42.422081 35.537144 42.6805 35.355999L 44.9305 33.780998C 45.130577 33.640751 45.24979 33.411835 45.25 33.1675L 45.25 31.682499C 45.25 31.446432 45.138855 31.22414 44.949997 31.0825L 42.699997 29.395C 42.433334 29.195 42.066666 29.195 41.800003 29.395ZM 39.550003 40.682499C 39.361145 40.824142 39.25 41.046432 39.25 41.282501L 39.25 42.767498C 39.25021 43.011837 39.369423 43.240753 39.5695 43.381001L 41.8195 44.956001C 42.077919 45.137146 42.422081 45.137146 42.6805 44.956001L 44.9305 43.381001C 45.130577 43.240753 45.24979 43.011837 45.25 42.767498L 45.25 41.282501C 45.25 41.046432 45.138855 40.824142 44.949997 40.682499L 42.699997 38.994999C 42.433334 38.794998 42.066666 38.794998 41.800003 38.994999Z"></path></g></g></g><g id="g-root-3_1lwsd156z7abp-stroke" data-item-order="0" data-item-id="3_1lwsd156z7abp" data-item-class="Icon Stroke SceneTarget Indexed Indexed_1" data-item-index="1" data-renderer-id="0" transform="translate(182, 104)"><g id="3_1lwsd156z7abp-stroke" fill="none" stroke-linecap="round" stroke-linejoin="round" stroke-miterlimit="4" stroke="#A3A3A3" stroke-width="2"><g><path d="M 12.0805 22.4275C 12.608028 22.955566 13.323833 23.252275 14.07025 23.252275C 14.816668 23.252275 15.532472 22.955566 16.060001 22.427502L 22.4275 16.059999C 23.513359 14.958879 23.507179 13.187855 22.413662 12.094338C 21.320147 11.000822 19.549122 10.994642 18.448 12.0805L 12.0805 18.448C 11.552435 18.975529 11.255725 19.691334 11.255725 20.43775C 11.255725 21.184168 11.552435 21.899973 12.0805 22.427502ZM 33.572502 43.123001C 34.100029 43.65107 34.815834 43.947777 35.562248 43.947777C 36.30867 43.947777 37.024475 43.65107 37.552002 43.123001L 43.919502 36.755501C 45.00536 35.654381 44.99918 33.883354 43.905663 32.789841C 42.812149 31.696323 41.041122 31.690144 39.940002 32.776001L 33.572502 39.143501C 33.044434 39.671032 32.747726 40.386833 32.747726 41.133251C 32.747726 41.879669 33.044434 42.595474 33.572502 43.123001ZM 19.642 18.847L 24.418001 23.6215M 11.215458 36.824692L 36.824036 11.216113C 36.824036 11.216113 37.949398 10.090752 39.07476 11.216113L 44.78429 16.925646C 44.78429 16.925646 45.909653 18.051006 44.78429 19.176369L 19.175711 44.784946C 19.175711 44.784946 18.050352 45.910309 16.924992 44.784946L 11.215458 39.075417C 11.215458 39.075417 10.090097 37.950054 11.215458 36.824692M 32.378498 31.581999L 36.755501 35.959M 18.449499 37.153C 18.449459 37.372559 18.627438 37.550568 18.847 37.550568C 19.066561 37.550568 19.244539 37.372559 19.244499 37.153C 19.244539 36.933434 19.066561 36.755424 18.847 36.755424C 18.627438 36.755424 18.449459 36.933434 18.449499 37.153M 24.817001 30.7855C 24.816959 31.00506 24.994938 31.183071 25.2145 31.183071C 25.434059 31.183071 25.612038 31.00506 25.612 30.7855C 25.612038 30.565937 25.434059 30.387926 25.2145 30.387926C 24.994938 30.387926 24.816959 30.565937 24.816999 30.7855M 31.1845 24.418001C 31.18446 24.63756 31.362438 24.815571 31.581997 24.815571C 31.801559 24.815571 31.979538 24.63756 31.979498 24.417999C 31.979538 24.198437 31.801559 24.020426 31.581997 24.020426C 31.362438 24.020426 31.18446 24.198437 31.184498 24.417999M 32.378498 15.6625L 40.337502 23.6215"></path></g></g></g><g id="g-root-tx_commandc_1hbyz216zh3wg-stroke" data-item-order="0" data-item-id="tx_commandc_1hbyz216zh3wg" data-item-class="Label Stroke SceneTarget Indexed" data-item-index="5" data-renderer-id="0" transform="translate(2, 326)"></g><g id="g-root-moni_4o79q16z7abr-stroke" data-item-order="0" data-item-id="moni_4o79q16z7abr" data-item-class="Icon Stroke SceneTarget Indexed" data-item-index="5" data-renderer-id="0" transform="translate(182, 320)"><g id="moni_4o79q16z7abr-stroke" fill="none" stroke-linecap="round" stroke-linejoin="round" stroke-miterlimit="4" stroke="#A3A3A3" stroke-width="2"><g><path d="M 27.625 26.469999L 34.375 19.719999M 35.260002 14.335C 34.69294 14.898695 34.374367 15.665433 34.375 16.465L 34.375 19.719999L 38.380001 19.719999C 39.179565 19.720634 39.946304 19.40206 40.510002 18.834999L 44.125 15.22L 38.875 15.22L 38.875 10.72ZM 32.125 45.220001L 23.125 45.220001C 24.413166 43.465332 25.191782 41.389023 25.375 39.220001L 29.875 39.220001C 30.067263 41.386978 30.844994 43.46093 32.125 45.220001ZM 20.905001 45.279999L 35.125 45.220001M 11.875 34.720001L 43.375 34.720001M 43.375 22.719999L 43.375 37C 43.375 38.242641 42.367641 39.25 41.125 39.25L 14.125 39.25C 12.88236 39.25 11.875 38.242641 11.875 37L 11.875 17.5C 11.875 16.25736 12.88236 15.25 14.125 15.25L 28.255001 15.25M 22.375 26.469999C 22.375002 29.369495 24.725506 31.720001 27.625002 31.720001C 30.524494 31.720001 32.875 29.369495 32.875 26.470001C 32.875 23.570505 30.524494 21.220001 27.625002 21.220001C 24.725506 21.220001 22.375002 23.570505 22.375002 26.470001"></path></g></g></g><g id="g-root-tx_landrock_mgq5896zfoxx-stroke" data-item-order="0" data-item-id="tx_landrock_mgq5896zfoxx" data-item-class="Label Stroke SceneTarget SceneTitle Title" data-item-index="none" data-renderer-id="0" transform="translate(248, 2)"></g><g id="g-root-tx_blockcha_1414xrt6zh2bl-stroke" data-item-order="0" data-item-id="tx_blockcha_1414xrt6zh2bl" data-item-class="Label Stroke SceneTarget Indexed" data-item-index="6" data-renderer-id="0" transform="translate(626, 314)"></g><g id="g-root-tx_explorat_qnt0556zh4w6-stroke" data-item-order="0" data-item-id="tx_explorat_qnt0556zh4w6" data-item-class="Label Stroke SceneTarget Indexed Indexed_1" data-item-index="1" data-renderer-id="0" transform="translate(26, 98)"></g><g id="g-root-tech_mgq8e16z7a4o-stroke" data-item-order="0" data-item-id="tech_mgq8e16z7a4o" data-item-class="Icon Stroke SceneTarget Indexed" data-item-index="6" data-renderer-id="0" transform="translate(578, 320)"><g id="tech_mgq8e16z7a4o-stroke" fill="none" stroke-linecap="round" stroke-linejoin="round" stroke-miterlimit="4" stroke="#A3A3A3" stroke-width="2"><g><path d="M 11.4985 12.9355C 11.4985 12.142 12.1405 11.5 12.934 11.5L 18.673 11.5C 19.465 11.5 20.107 12.142 20.107 12.9355L 20.107 18.6745C 20.106174 19.466135 19.464634 20.107674 18.673 20.108501L 12.934 20.1085C 12.141781 20.108501 11.499328 19.466719 11.4985 18.674501L 11.4985 12.9355ZM 14.368 15.805C 14.368 16.597805 15.010695 17.240499 15.8035 17.240499C 16.596306 17.240499 17.239 16.597805 17.239 15.805C 17.239 15.012196 16.596306 14.3695 15.8035 14.3695C 15.010695 14.3695 14.368 15.012196 14.368 15.805M 14.368 28C 14.368 28.792807 15.010695 29.435501 15.8035 29.435501C 16.596306 29.435501 17.239 28.792807 17.239 28.000002C 17.239 27.207195 16.596306 26.564503 15.8035 26.564503C 15.010695 26.564503 14.368 27.207195 14.368 28.000002M 14.368 40.195C 14.368 40.987804 15.010695 41.630501 15.8035 41.630501C 16.596306 41.630501 17.239 40.987804 17.239 40.195C 17.239 39.402199 16.596306 38.759499 15.8035 38.759499C 15.010695 38.759499 14.368 39.402199 14.368 40.195M 26.564501 15.805C 26.564503 16.597805 27.207195 17.240499 28.000002 17.240499C 28.792807 17.240499 29.435501 16.597805 29.435501 15.805C 29.435501 15.012196 28.792807 14.3695 28.000002 14.3695C 27.207195 14.3695 26.564503 15.012196 26.564503 15.805M 38.761002 15.805C 38.761002 16.597805 39.403698 17.240499 40.196503 17.240499C 40.989307 17.240499 41.632004 16.597805 41.632004 15.805C 41.632004 15.012196 40.989307 14.3695 40.196503 14.3695C 39.403698 14.3695 38.761002 15.012196 38.761002 15.805M 26.564501 28C 26.564503 28.792807 27.207195 29.435501 28.000002 29.435501C 28.792807 29.435501 29.435501 28.792807 29.435501 28.000002C 29.435501 27.207195 28.792807 26.564503 28.000002 26.564503C 27.207195 26.564503 26.564503 27.207195 26.564503 28.000002M 38.761002 28C 38.761002 28.792807 39.403698 29.435501 40.196503 29.435501C 40.989307 29.435501 41.632004 28.792807 41.632004 28.000002C 41.632004 27.207195 40.989307 26.564503 40.196503 26.564503C 39.403698 26.564503 38.761002 27.207195 38.761002 28.000002M 26.564501 40.195C 26.564503 40.987804 27.207195 41.630501 28.000002 41.630501C 28.792807 41.630501 29.435501 40.987804 29.435501 40.195C 29.435501 39.402199 28.792807 38.759499 28.000002 38.759499C 27.207195 38.759499 26.564503 39.402199 26.564503 40.195M 38.761002 40.195C 38.761002 40.987804 39.403698 41.630501 40.196503 41.630501C 40.989307 41.630501 41.632004 40.987804 41.632004 40.195C 41.632004 39.402199 40.989307 38.759499 40.196503 38.759499C 39.403698 38.759499 38.761002 39.402199 38.761002 40.195M 23.695 12.9355C 23.695 12.142 24.338501 11.5 25.130501 11.5L 30.869499 11.5C 31.661499 11.5 32.305 12.142 32.305 12.9355L 32.305 18.6745C 32.304173 19.466719 31.66172 20.108501 30.869501 20.108501L 25.130501 20.1085C 24.338282 20.108501 23.695827 19.466719 23.695 18.674501L 23.695 12.9355ZM 35.892998 12.9355C 35.892998 12.142 36.535 11.5 37.327 11.5L 43.066002 11.5C 43.859501 11.5 44.501499 12.142 44.501499 12.9355L 44.501499 18.6745C 44.500675 19.466719 43.858223 20.108501 43.066002 20.108501L 37.327 20.1085C 36.535366 20.107674 35.893829 19.466135 35.893002 18.674501L 35.892998 12.9355ZM 11.4985 25.130501C 11.4985 24.338501 12.1405 23.695 12.934 23.695L 18.673 23.695C 19.465 23.695 20.107 24.338501 20.107 25.130501L 20.107 30.869499C 20.107002 31.66172 19.465219 32.304173 18.673 32.305L 12.934 32.305C 12.141195 32.305 11.4985 31.662308 11.4985 30.869501L 11.4985 25.130501ZM 11.4985 37.3255C 11.4985 36.533501 12.1405 35.891499 12.934 35.891499L 18.673 35.891499C 19.465 35.891499 20.107 36.533501 20.107 37.3255L 20.107 43.064499C 20.107002 43.85672 19.465219 44.499172 18.673 44.500004L 12.934 44.5C 12.141195 44.500004 11.4985 43.857307 11.4985 43.064503L 11.4985 37.3255ZM 23.695 25.130501C 23.695 24.338501 24.338501 23.695 25.130501 23.695L 30.869499 23.695C 31.661499 23.695 32.305 24.338501 32.305 25.130501L 32.305 30.869499C 32.305397 31.250341 32.154285 31.615698 31.884991 31.884991C 31.615698 32.154285 31.250341 32.305397 30.869499 32.305L 25.130501 32.305C 24.337696 32.305 23.695 31.662308 23.695 30.869501L 23.695 25.130501ZM 23.695 37.3255C 23.695 36.533501 24.338501 35.891499 25.130501 35.891499L 30.869499 35.891499C 31.661499 35.891499 32.305 36.533501 32.305 37.3255L 32.305 43.064499C 32.305 43.857307 31.662308 44.500004 30.869501 44.500004L 25.130501 44.5C 24.337696 44.500004 23.695 43.857307 23.695 43.064503L 23.695 37.3255ZM 35.892998 25.130501C 35.892998 24.338501 36.535 23.695 37.327 23.695L 43.066002 23.695C 43.859501 23.695 44.501499 24.338501 44.501499 25.130501L 44.501499 30.869499C 44.5019 31.250341 44.350784 31.615698 44.081493 31.884991C 43.812199 32.154285 43.446838 32.305397 43.066002 32.305L 37.327 32.305C 36.946419 32.305 36.581451 32.153713 36.312477 31.88446C 36.04351 31.61521 35.892601 31.25008 35.893002 30.869499L 35.892998 25.130501ZM 35.892998 37.3255C 35.892998 36.533501 36.535 35.891499 37.327 35.891499L 43.066002 35.891499C 43.859501 35.891499 44.501499 36.533501 44.501499 37.3255L 44.501499 43.064499C 44.501503 43.857307 43.858807 44.500004 43.066002 44.500004L 37.327 44.5C 36.534782 44.499172 35.893002 43.85672 35.893002 43.064503L 35.892998 37.3255ZM 20.1085 15.805L 23.695 15.805M 20.1085 28L 23.695 28M 20.1085 40.195L 23.695 40.195M 32.305 15.805L 35.891499 15.805M 32.305 28L 35.891499 28M 32.305 40.195L 35.891499 40.195M 40.195 20.1085L 40.195 23.695M 28 20.1085L 28 23.695M 15.805 20.1085L 15.805 23.695M 40.195 32.305L 40.195 35.891499M 28 32.305L 28 35.891499M 15.805 32.305L 15.805 35.891499"></path></g></g></g></g></g></svg>