<?xml version="1.0" encoding="utf-8" standalone="yes"?>
<!DOCTYPE svg PUBLIC "-//W3C//DTD SVG 1.1//EN" "http://www.w3.org/Graphics/SVG/1.1/DTD/svg11.dtd">
<svg width="714" height="546" viewBox="0 0 714 546" style="fill:none;stroke:none;fill-rule:evenodd;clip-rule:evenodd;stroke-linecap:round;stroke-linejoin:round;stroke-miterlimit:1.5;" version="1.1" xmlns="http://www.w3.org/2000/svg" xmlns:xlink="http://www.w3.org/1999/xlink"><style id="fontImports">@import url("https://fonts.googleapis.com/css2?family=Roboto:wght@400;700&amp;display=block");</style><g id="items" style="isolation: isolate"><g id="blend" style="mix-blend-mode:screen"><g id="g-root-6.arrow-6_sy_1lw56h64hkpvm-fill" data-item-order="-194007" data-item-id="6.arrow-6_sy_1lw56h64hkpvm" data-item-class="ScenePart Part Indexed Fill Stroke" data-item-index="6" data-renderer-id="0" transform="translate(146.2640380859375, 81.720947265625)"><g id="6.arrow-6_sy_1lw56h64hkpvm-fill" stroke="none" fill="#562d69"><g><path d="M 222.546992 75.673999L 142.904992 9.999999L 149.088992 33.154999C 115.568992 42.072999 83.877992 59.668999 57.571992 85.943999C 35.740992 107.748999 19.882992 133.269999 9.999992 160.472999L 78.240992 134.963999L 105.214992 181.761999C 110.274992 171.698999 117.007992 162.261999 125.413992 153.866999C 139.340992 139.955999 156.117992 130.640999 173.863992 125.918999L 180.060992 149.123999L 222.546992 75.673999Z"></path></g></g></g><g id="g-root-5.arrow-5_sy_1qbc7ii4hks95-fill" data-item-order="-194005" data-item-id="5.arrow-5_sy_1qbc7ii4hks95" data-item-class="ScenePart Part Indexed Fill Stroke" data-item-index="5" data-renderer-id="0" transform="translate(117.81204223632812, 206.684814453125)"><g id="5.arrow-5_sy_1qbc7ii4hks95-fill" stroke="none" fill="#224754"><g><path d="M 85.903004 164.627002L 139.927004 164.659002C 122.711004 138.532002 118.027004 106.578002 125.871004 77.282002L 149.066004 83.515002L 106.693004 10.000002L 10.000004 46.144002L 33.144004 52.364002C 16.363004 115.044002 29.941004 184.165002 73.891004 236.435002L 85.903004 164.627002Z"></path></g></g></g><g id="g-root-4.arrow-4_sy_5v5sa4hkrnk-fill" data-item-order="-194003" data-item-id="4.arrow-4_sy_5v5sa4hkrnk" data-item-class="ScenePart Part Indexed Fill Stroke" data-item-index="4" data-renderer-id="0" transform="translate(176.68405151367188, 361.31201171875)"><g id="4.arrow-4_sy_5v5sa4hkrnk-fill" stroke="none" fill="#5a3f27"><g><path d="M 26.979994 94.852988C 75.845994 143.776988 143.374994 162.702988 206.679994 151.616988L 150.503994 105.293988L 177.565994 58.508988C 147.860994 60.219988 117.583994 49.718988 94.902994 27.010988L 111.882994 10.049988L 27.029994 9.999988L 9.999994 111.812988L 26.979994 94.852988Z"></path></g></g></g><g id="g-root-3.arrow-3_sy_91i6164hkq33-fill" data-item-order="-194001" data-item-id="3.arrow-3_sy_91i6164hkq33" data-item-class="ScenePart Part Indexed Fill Stroke" data-item-index="3" data-renderer-id="0" transform="translate(317.18804931640625, 350.51806640625)"><g id="3.arrow-3_sy_91i6164hkq33-fill" stroke="none" fill="#4f4a20"><g><path d="M 127.333012 9.999995C 122.272012 20.062995 115.539012 29.498995 107.134012 37.894995C 93.207012 51.805995 76.429012 61.120995 58.683012 65.842995L 52.486012 42.637995L 10.000012 116.087995L 89.642012 181.760995L 83.458012 158.606995C 116.978012 149.687995 148.669012 132.092995 174.976012 105.817995C 196.806012 84.012995 212.664012 58.491995 222.548012 31.288995L 154.306012 56.797995L 127.333012 9.999995Z"></path></g></g></g><g id="g-root-2.arrow-2_sy_hwip6y4hksg6-fill" data-item-order="-193999" data-item-id="2.arrow-2_sy_hwip6y4hksg6" data-item-class="ScenePart Part Indexed Fill Stroke" data-item-index="2" data-renderer-id="0" transform="translate(419.12200927734375, 170.880859375)"><g id="2.arrow-2_sy_hwip6y4hksg6-fill" stroke="none" fill="#2b503e"><g><path d="M 73.162991 81.808003L 19.138991 81.776003C 36.354991 107.902003 41.038991 139.856003 33.194991 169.152003L 9.999991 162.919003L 52.372991 236.435003L 149.065991 200.290003L 125.920991 194.071003C 142.702991 131.390003 129.124991 62.269003 85.174991 10.000003L 73.162991 81.808003Z"></path></g></g></g><g id="g-root-1.arrow-1_sy_mcc7be4hkrnx-fill" data-item-order="-193997" data-item-id="1.arrow-1_sy_mcc7be4hkrnx" data-item-class="ScenePart Part Indexed Indexed_1 Fill Stroke" data-item-index="1" data-renderer-id="0" transform="translate(302.63507080078125, 89.986083984375)"><g id="1.arrow-1_sy_mcc7be4hkrnx-fill" stroke="none" fill="#293f64"><g><path d="M 66.17599 67.409L 39.11399 114.194C 68.81999 112.483 99.09599 122.984 121.77799 145.692L 104.79699 162.653L 189.64999 162.703L 206.68099 60.889L 189.69999 77.85C 140.83399 28.926 73.30499 10 9.99999 21.086L 66.17599 67.409Z"></path></g></g></g><g id="g-root-tx_landrock_m7cemi4hm6f5-fill" data-item-order="0" data-item-id="tx_landrock_m7cemi4hm6f5" data-item-class="Label Stroke SceneTarget SceneTitle Title ColorFillGray ColorStrokeGray" data-item-index="none" data-renderer-id="0" transform="translate(152.00006103515625, 2)"><g id="tx_landrock_m7cemi4hm6f5-fill" stroke="none" fill="#A3A3A3"><g><text style="font: bold 20px Roboto, sans-serif; white-space: pre;"><tspan x="16.87" y="34" dominant-baseline="ideographic">LandRocker Economic Ecosystem Cycle</tspan></text></g></g></g><g id="g-root-tx_maintain_1qd7mru4hkr9f-fill" data-item-order="0" data-item-id="tx_maintain_1qd7mru4hkr9f" data-item-class="Label Stroke SceneTarget Indexed" data-item-index="6" data-renderer-id="0" transform="translate(110, 86)"><g id="tx_maintain_1qd7mru4hkr9f-fill" stroke="none" fill="#A3A3A3"><g><text style="font: 20px Roboto, sans-serif; white-space: pre;"><tspan x="14.47" y="34" dominant-baseline="ideographic">Maintain </tspan><tspan x="20.83" y="58" dominant-baseline="ideographic">Balance</tspan></text></g></g></g><g id="g-root-tx_issuecom_ziswzu4hm4u8-fill" data-item-order="0" data-item-id="tx_issuecom_ziswzu4hm4u8" data-item-class="Label Stroke SceneTarget Indexed Indexed_1" data-item-index="1" data-renderer-id="0" transform="translate(482, 86)"><g id="tx_issuecom_ziswzu4hm4u8-fill" stroke="none" fill="#A3A3A3"><g><text style="font: 20px Roboto, sans-serif; white-space: pre;"><tspan x="12" y="34" dominant-baseline="ideographic">Issue </tspan><tspan x="12" y="58" dominant-baseline="ideographic">Commands</tspan></text></g></g></g><g id="g-root-2_dg2zgq4h5af9-fill" data-item-order="0" data-item-id="2_dg2zgq4h5af9" data-item-class="Icon Stroke SceneTarget Indexed InsideFill InsideColorFill" data-item-index="6" data-renderer-id="0" transform="translate(242, 140)"></g><g id="g-root-next_zrjtoq4h5ama-fill" data-item-order="0" data-item-id="next_zrjtoq4h5ama" data-item-class="Icon Stroke SceneTarget Indexed Indexed_1 InsideFill InsideColorFill" data-item-index="1" data-renderer-id="0" transform="translate(386, 140)"></g><g id="g-root-tx_executec_146ql8q4hkqh8-fill" data-item-order="0" data-item-id="tx_executec_146ql8q4hkqh8" data-item-class="Label Stroke SceneTarget Indexed" data-item-index="5" data-renderer-id="0" transform="translate(2, 278)"><g id="tx_executec_146ql8q4hkqh8-fill" stroke="none" fill="#A3A3A3"><g><text style="font: 20px Roboto, sans-serif; white-space: pre;"><tspan x="45.69" y="34" dominant-baseline="ideographic">Execute </tspan><tspan x="13" y="58" dominant-baseline="ideographic">Commands</tspan></text></g></g></g><g id="g-root-1_v8ly4q4h5a86-fill" data-item-order="0" data-item-id="1_v8ly4q4h5a86" data-item-class="Icon Stroke SceneTarget Indexed InsideFill InsideColorFill" data-item-index="5" data-renderer-id="0" transform="translate(158, 278)"></g><g id="g-root-char_4nkcne4h5ce9-fill" data-item-order="0" data-item-id="char_4nkcne4h5ce9" data-item-class="Icon Stroke SceneTarget Indexed InsideFill InsideColorFill" data-item-index="2" data-renderer-id="0" transform="translate(470, 278)"></g><g id="g-root-tx_resource_1hjg1sa4hkr2f-fill" data-item-order="0" data-item-id="tx_resource_1hjg1sa4hkr2f" data-item-class="Label Stroke SceneTarget Indexed" data-item-index="2" data-renderer-id="0" transform="translate(584, 290)"><g id="tx_resource_1hjg1sa4hkr2f-fill" stroke="none" fill="#A3A3A3"><g><text style="font: 20px Roboto, sans-serif; white-space: pre;"><tspan x="22.34" y="34" dominant-baseline="ideographic">Resource </tspan><tspan x="15.53" y="58" dominant-baseline="ideographic">Generation</tspan></text></g></g></g><g id="g-root-1_4mbeh64h5a87-fill" data-item-order="0" data-item-id="1_4mbeh64h5a87" data-item-class="Icon Stroke SceneTarget Indexed InsideFill InsideColorFill" data-item-index="4" data-renderer-id="0" transform="translate(242, 415.999755859375)"></g><g id="g-root-coup_18lbeoa4h5atc-fill" data-item-order="0" data-item-id="coup_18lbeoa4h5atc" data-item-class="Icon Stroke SceneTarget Indexed InsideFill InsideColorFill" data-item-index="3" data-renderer-id="0" transform="translate(386, 415.999755859375)"></g><g id="g-root-tx_communit_qva2ve4hks25-fill" data-item-order="0" data-item-id="tx_communit_qva2ve4hks25" data-item-class="Label Stroke SceneTarget Indexed" data-item-index="4" data-renderer-id="0" transform="translate(86, 469.999755859375)"><g id="tx_communit_qva2ve4hks25-fill" stroke="none" fill="#A3A3A3"><g><text style="font: 20px Roboto, sans-serif; white-space: pre;"><tspan x="13.59" y="34" dominant-baseline="ideographic">Community </tspan><tspan x="70.73" y="58" dominant-baseline="ideographic">Input</tspan></text></g></g></g><g id="g-root-tx_playeren_8zj7u4hks26-fill" data-item-order="0" data-item-id="tx_playeren_8zj7u4hks26" data-item-class="Label Stroke SceneTarget Indexed" data-item-index="3" data-renderer-id="0" transform="translate(482, 469.999755859375)"><g id="tx_playeren_8zj7u4hks26-fill" stroke="none" fill="#A3A3A3"><g><text style="font: 20px Roboto, sans-serif; white-space: pre;"><tspan x="12" y="34" dominant-baseline="ideographic">Player </tspan><tspan x="12" y="58" dominant-baseline="ideographic">Engagement</tspan></text></g></g></g><g id="g-root-6.arrow-6_sy_1lw56h64hkpvm-stroke" data-item-order="-194007" data-item-id="6.arrow-6_sy_1lw56h64hkpvm" data-item-class="ScenePart Part Indexed Fill Stroke" data-item-index="6" data-renderer-id="0" transform="translate(146.2640380859375, 81.720947265625)"><g id="6.arrow-6_sy_1lw56h64hkpvm-stroke" fill="none" stroke-linecap="round" stroke-linejoin="round" stroke-miterlimit="4" stroke="#CD6AFB" stroke-width="2"><g><path d="M 222.546992 75.673999L 142.904992 9.999999L 149.088992 33.154999C 115.568992 42.072999 83.877992 59.668999 57.571992 85.943999C 35.740992 107.748999 19.882992 133.269999 9.999992 160.472999L 78.240992 134.963999L 105.214992 181.761999C 110.274992 171.698999 117.007992 162.261999 125.413992 153.866999C 139.340992 139.955999 156.117992 130.640999 173.863992 125.918999L 180.060992 149.123999L 222.546992 75.673999Z"></path></g></g></g><g id="g-root-5.arrow-5_sy_1qbc7ii4hks95-stroke" data-item-order="-194005" data-item-id="5.arrow-5_sy_1qbc7ii4hks95" data-item-class="ScenePart Part Indexed Fill Stroke" data-item-index="5" data-renderer-id="0" transform="translate(117.81204223632812, 206.684814453125)"><g id="5.arrow-5_sy_1qbc7ii4hks95-stroke" fill="none" stroke-linecap="round" stroke-linejoin="round" stroke-miterlimit="4" stroke="#1AC6FF" stroke-width="2"><g><path d="M 85.903004 164.627002L 139.927004 164.659002C 122.711004 138.532002 118.027004 106.578002 125.871004 77.282002L 149.066004 83.515002L 106.693004 10.000002L 10.000004 46.144002L 33.144004 52.364002C 16.363004 115.044002 29.941004 184.165002 73.891004 236.435002L 85.903004 164.627002Z"></path></g></g></g><g id="g-root-4.arrow-4_sy_5v5sa4hkrnk-stroke" data-item-order="-194003" data-item-id="4.arrow-4_sy_5v5sa4hkrnk" data-item-class="ScenePart Part Indexed Fill Stroke" data-item-index="4" data-renderer-id="0" transform="translate(176.68405151367188, 361.31201171875)"><g id="4.arrow-4_sy_5v5sa4hkrnk-stroke" fill="none" stroke-linecap="round" stroke-linejoin="round" stroke-miterlimit="4" stroke="#F99539" stroke-width="2"><g><path d="M 26.979994 94.852988C 75.845994 143.776988 143.374994 162.702988 206.679994 151.616988L 150.503994 105.293988L 177.565994 58.508988C 147.860994 60.219988 117.583994 49.718988 94.902994 27.010988L 111.882994 10.049988L 27.029994 9.999988L 9.999994 111.812988L 26.979994 94.852988Z"></path></g></g></g><g id="g-root-3.arrow-3_sy_91i6164hkq33-stroke" data-item-order="-194001" data-item-id="3.arrow-3_sy_91i6164hkq33" data-item-class="ScenePart Part Indexed Fill Stroke" data-item-index="3" data-renderer-id="0" transform="translate(317.18804931640625, 350.51806640625)"><g id="3.arrow-3_sy_91i6164hkq33-stroke" fill="none" stroke-linecap="round" stroke-linejoin="round" stroke-miterlimit="4" stroke="#FFE60A" stroke-width="2"><g><path d="M 127.333012 9.999995C 122.272012 20.062995 115.539012 29.498995 107.134012 37.894995C 93.207012 51.805995 76.429012 61.120995 58.683012 65.842995L 52.486012 42.637995L 10.000012 116.087995L 89.642012 181.760995L 83.458012 158.606995C 116.978012 149.687995 148.669012 132.092995 174.976012 105.817995C 196.806012 84.012995 212.664012 58.491995 222.548012 31.288995L 154.306012 56.797995L 127.333012 9.999995Z"></path></g></g></g><g id="g-root-2.arrow-2_sy_hwip6y4hksg6-stroke" data-item-order="-193999" data-item-id="2.arrow-2_sy_hwip6y4hksg6" data-item-class="ScenePart Part Indexed Fill Stroke" data-item-index="2" data-renderer-id="0" transform="translate(419.12200927734375, 170.880859375)"><g id="2.arrow-2_sy_hwip6y4hksg6-stroke" fill="none" stroke-linecap="round" stroke-linejoin="round" stroke-miterlimit="4" stroke="#44E095" stroke-width="2"><g><path d="M 73.162991 81.808003L 19.138991 81.776003C 36.354991 107.902003 41.038991 139.856003 33.194991 169.152003L 9.999991 162.919003L 52.372991 236.435003L 149.065991 200.290003L 125.920991 194.071003C 142.702991 131.390003 129.124991 62.269003 85.174991 10.000003L 73.162991 81.808003Z"></path></g></g></g><g id="g-root-1.arrow-1_sy_mcc7be4hkrnx-stroke" data-item-order="-193997" data-item-id="1.arrow-1_sy_mcc7be4hkrnx" data-item-class="ScenePart Part Indexed Indexed_1 Fill Stroke" data-item-index="1" data-renderer-id="0" transform="translate(302.63507080078125, 89.986083984375)"><g id="1.arrow-1_sy_mcc7be4hkrnx-stroke" fill="none" stroke-linecap="round" stroke-linejoin="round" stroke-miterlimit="4" stroke="#4F92FF" stroke-width="2"><g><path d="M 66.17599 67.409L 39.11399 114.194C 68.81999 112.483 99.09599 122.984 121.77799 145.692L 104.79699 162.653L 189.64999 162.703L 206.68099 60.889L 189.69999 77.85C 140.83399 28.926 73.30499 10 9.99999 21.086L 66.17599 67.409Z"></path></g></g></g><g id="g-root-tx_landrock_m7cemi4hm6f5-stroke" data-item-order="0" data-item-id="tx_landrock_m7cemi4hm6f5" data-item-class="Label Stroke SceneTarget SceneTitle Title ColorFillGray ColorStrokeGray" data-item-index="none" data-renderer-id="0" transform="translate(152.00006103515625, 2)"></g><g id="g-root-tx_maintain_1qd7mru4hkr9f-stroke" data-item-order="0" data-item-id="tx_maintain_1qd7mru4hkr9f" data-item-class="Label Stroke SceneTarget Indexed" data-item-index="6" data-renderer-id="0" transform="translate(110, 86)"></g><g id="g-root-tx_issuecom_ziswzu4hm4u8-stroke" data-item-order="0" data-item-id="tx_issuecom_ziswzu4hm4u8" data-item-class="Label Stroke SceneTarget Indexed Indexed_1" data-item-index="1" data-renderer-id="0" transform="translate(482, 86)"></g><g id="g-root-2_dg2zgq4h5af9-stroke" data-item-order="0" data-item-id="2_dg2zgq4h5af9" data-item-class="Icon Stroke SceneTarget Indexed InsideFill InsideColorFill" data-item-index="6" data-renderer-id="0" transform="translate(242, 140)"><g id="2_dg2zgq4h5af9-stroke" fill="none" stroke-linecap="round" stroke-linejoin="round" stroke-miterlimit="4" stroke="#CD6AFB" stroke-width="2"><g><path d="M 31 31L 13 31C 11.895431 31 11 30.10457 11 29L 11 13C 11 11.895431 11.895431 11 13 11L 45 11C 46.104568 11 47 11.895431 47 13L 47 23M 11.008 18L 18.007999 11M 47.007999 18L 40.007999 11M 11.008 24L 18.007999 31M 33 17L 26.691999 17C 25.844688 17.007654 25.134691 17.642994 25.033333 18.484257C 24.931976 19.32552 25.470753 20.111315 26.292 20.32L 31.74 21.68C 32.561249 21.888685 33.100021 22.67448 32.998665 23.515743C 32.897308 24.357006 32.187309 24.992346 31.34 25L 25 25M 29.007999 17L 29.007999 15M 29.007999 27L 29.007999 25M 39.007999 41L 41.007999 41M 45.007999 41L 47.007999 41M 51.007999 41L 53.007999 41M 39.007999 45L 41.007999 45M 45.007999 45L 47.007999 45M 51.007999 45L 53.007999 45M 39.007999 49L 41.007999 49M 45.007999 49L 47.007999 49M 51.007999 49L 53.007999 49M 39.007999 53L 41.007999 53M 45.007999 53L 47.007999 53M 51.007999 53L 53.007999 53M 39.007999 27L 53.007999 27C 53.007999 27 57.007999 27 57.007999 31L 57.007999 53C 57.007999 53 57.007999 57 53.007999 57L 39.007999 57C 39.007999 57 35.007999 57 35.007999 53L 35.007999 31C 35.007999 31 35.007999 27 39.007999 27M 35.007999 37L 57.007999 37M 13.007999 35L 31.007999 35M 15.007999 39L 31.007999 39"></path></g></g></g><g id="g-root-next_zrjtoq4h5ama-stroke" data-item-order="0" data-item-id="next_zrjtoq4h5ama" data-item-class="Icon Stroke SceneTarget Indexed Indexed_1 InsideFill InsideColorFill" data-item-index="1" data-renderer-id="0" transform="translate(386, 140)"><g id="next_zrjtoq4h5ama-stroke" fill="none" stroke-linecap="round" stroke-linejoin="round" stroke-miterlimit="4" stroke="#4F92FF" stroke-width="2"><g><path d="M 11.714286 34L 46 34M 34 46L 46 34L 34 22M 56.285713 22L 56.285713 46"></path></g></g></g><g id="g-root-tx_executec_146ql8q4hkqh8-stroke" data-item-order="0" data-item-id="tx_executec_146ql8q4hkqh8" data-item-class="Label Stroke SceneTarget Indexed" data-item-index="5" data-renderer-id="0" transform="translate(2, 278)"></g><g id="g-root-1_v8ly4q4h5a86-stroke" data-item-order="0" data-item-id="1_v8ly4q4h5a86" data-item-class="Icon Stroke SceneTarget Indexed InsideFill InsideColorFill" data-item-index="5" data-renderer-id="0" transform="translate(158, 278)"><g id="1_v8ly4q4h5a86-stroke" fill="none" stroke-linecap="round" stroke-linejoin="round" stroke-miterlimit="4" stroke="#1AC6FF" stroke-width="2"><g><path d="M 21.625999 32.424C 22.028774 32.871048 22.602268 33.126282 23.204 33.126282C 23.805733 33.126282 24.379225 32.871048 24.782001 32.424L 25.802 31.296C 26.404863 30.629557 27.361649 30.414152 28.19195 30.75794C 29.022253 31.10173 29.546713 31.93045 29.501999 32.827999L 29.424 34.348C 29.393847 34.94817 29.619093 35.533066 30.044012 35.957985C 30.468931 36.382904 31.053829 36.608154 31.653999 36.577999L 33.174 36.5C 34.071922 36.454369 34.901466 36.978508 35.2458 37.809036C 35.590134 38.639565 35.374798 39.596905 34.708 40.199997L 33.577999 41.220001C 33.130951 41.622776 32.875725 42.19627 32.875725 42.798C 32.875725 43.399731 33.130951 43.973225 33.578003 44.375999L 34.708 45.396C 35.374798 45.999096 35.590134 46.956432 35.2458 47.786964C 34.901466 48.617493 34.071922 49.141628 33.174 49.096001L 31.653999 49.018002C 31.053829 48.987846 30.468931 49.213093 30.044012 49.638012C 29.619093 50.062931 29.393847 50.647831 29.424 51.248001L 29.502001 52.768002C 29.546713 53.665546 29.022253 54.494267 28.19195 54.838058C 27.361649 55.181847 26.404863 54.966442 25.802 54.299999L 24.782 53.172001C 24.379225 52.724953 23.805733 52.469723 23.204 52.469723C 22.602268 52.469723 22.028774 52.724953 21.625999 53.172001L 20.605999 54.299999C 20.003136 54.966442 19.04635 55.181847 18.216049 54.838058C 17.385748 54.494267 16.861286 53.665546 16.906 52.767998L 16.984001 51.248001C 17.014153 50.647831 16.788906 50.062931 16.363987 49.638012C 15.939068 49.213093 15.35417 48.987846 14.754 49.017998L 13.234 49.096001C 12.338363 49.138649 11.512249 48.614788 11.168911 47.786476C 10.825573 46.95816 11.038829 46.003479 11.702 45.399998L 12.83 44.380001C 13.277049 43.977226 13.532278 43.403732 13.532278 42.802002C 13.532278 42.200268 13.277049 41.626778 12.83 41.223999L 11.702 40.200001C 11.035556 39.597137 10.820151 38.64035 11.163941 37.810051C 11.507731 36.979748 12.336452 36.455284 13.234 36.5L 14.754 36.577999C 15.35417 36.608154 15.939068 36.382904 16.363987 35.957985C 16.788906 35.533066 17.014153 34.94817 16.983999 34.348L 16.906 32.827999C 16.861286 31.93045 17.385748 31.10173 18.216049 30.75794C 19.04635 30.414152 20.003136 30.629557 20.605999 31.296ZM 18.321999 42.798C 18.322001 45.494255 20.507746 47.68 23.204 47.68C 25.900253 47.68 28.086 45.494255 28.086 42.798C 28.086 40.101746 25.900253 37.916 23.204 37.916C 20.507746 37.916 18.322001 40.101746 18.322001 42.798ZM 46.374001 35.580002C 45.971226 35.13295 45.397732 34.877724 44.796001 34.877724C 44.194271 34.877724 43.620777 35.13295 43.218002 35.580002L 42.198002 36.709999C 41.594902 37.376801 40.637566 37.592133 39.807037 37.247803C 38.976509 36.903465 38.45237 36.073921 38.498001 35.175999L 38.576 33.655998C 38.606155 33.055832 38.380905 32.470932 37.955986 32.046013C 37.531067 31.621094 36.946167 31.395847 36.346001 31.426001L 34.826 31.504C 33.928078 31.549629 33.098534 31.025492 32.754196 30.194963C 32.409866 29.364433 32.625198 28.407095 33.292 27.803999L 34.422001 26.784C 34.869049 26.381226 35.124279 25.807732 35.124279 25.206001C 35.124279 24.604269 34.869049 24.030775 34.422001 23.628L 33.292 22.608C 32.625198 22.004906 32.409866 21.047565 32.754196 20.217037C 33.098534 19.386507 33.928078 18.86237 34.826 18.908001L 36.346001 18.986C 36.946167 19.016153 37.531067 18.790905 37.955986 18.365986C 38.380905 17.941067 38.606155 17.356171 38.576 16.756001L 38.498001 15.236C 38.453285 14.338451 38.977745 13.509731 39.808048 13.165941C 40.638351 12.822151 41.595135 13.037556 42.197998 13.704L 43.217999 14.832C 43.620777 15.279049 44.194271 15.534279 44.796001 15.534279C 45.397732 15.534279 45.971226 15.279049 46.374001 14.832001L 47.394001 13.704C 47.996864 13.037556 48.953648 12.822151 49.783951 13.165941C 50.61425 13.509731 51.138714 14.338451 51.093998 15.236L 51.015999 16.756001C 50.985847 17.356171 51.211094 17.941067 51.636013 18.365986C 52.060932 18.790905 52.645828 19.016153 53.245998 18.986L 54.765999 18.908001C 55.663548 18.863287 56.492268 19.387749 56.83606 20.218048C 57.179848 21.048351 56.964443 22.005135 56.298 22.608L 55.169998 23.628C 54.722954 24.030775 54.467724 24.604269 54.467724 25.206001C 54.467724 25.807732 54.722954 26.381226 55.170002 26.784L 56.298 27.804001C 56.964443 28.406864 57.179848 29.363649 56.83606 30.193951C 56.492268 31.024252 55.663548 31.548714 54.765999 31.504L 53.245998 31.426001C 52.645828 31.395847 52.060932 31.621094 51.636013 32.046013C 51.211094 32.470932 50.985847 33.055832 51.015999 33.655998L 51.094002 35.176003C 51.139629 36.073921 50.615494 36.903465 49.784962 37.247803C 48.954433 37.592133 47.997093 37.376801 47.394001 36.709999ZM 39.914001 25.206001C 39.914001 27.902254 42.099747 30.087999 44.796001 30.087999C 47.492256 30.087999 49.678001 27.902254 49.678001 25.206001C 49.678001 22.509747 47.492256 20.324001 44.796001 20.324001C 42.099747 20.324001 39.914001 22.509747 39.914001 25.206001Z"></path></g></g></g><g id="g-root-char_4nkcne4h5ce9-stroke" data-item-order="0" data-item-id="char_4nkcne4h5ce9" data-item-class="Icon Stroke SceneTarget Indexed InsideFill InsideColorFill" data-item-index="2" data-renderer-id="0" transform="translate(470, 278)"><g id="char_4nkcne4h5ce9-stroke" fill="none" stroke-linecap="round" stroke-linejoin="round" stroke-miterlimit="4" stroke="#44E095" stroke-width="2"><g><path d="M 21 23C 24.860001 23 28 20.880001 28 17C 28 13.12 24.860001 11 21 11L 16 11C 15.447716 11 15 11.447716 15 12L 15 22C 15 22.552284 15.447716 23 16 23ZM 44.400002 47L 23 47C 18.029438 47 14 42.970562 14 38C 14 33.029438 18.029438 29 23 29L 48 29C 51.313709 29 54 26.313709 54 23C 54 19.686291 51.313709 17 48 17L 28 17M 15 15L 11 15M 15 19L 11 19M 27 46.98C 27 54.299999 32.400002 56.98 37.720001 56.98C 47.360001 56.98 55.919998 51.98 57 44.48C 48.419998 43.240002 44.139999 36.98 37.720001 36.98C 32.400002 37 27 39.639999 27 46.98ZM 34.34 50C 33.478996 49.240669 32.985752 48.148003 32.985752 47C 32.985752 45.851997 33.478996 44.759331 34.34 44M 40 49.66C 38.661663 48.146797 38.661663 45.873203 40 44.360001M 19 11L 19 23"></path></g></g></g><g id="g-root-tx_resource_1hjg1sa4hkr2f-stroke" data-item-order="0" data-item-id="tx_resource_1hjg1sa4hkr2f" data-item-class="Label Stroke SceneTarget Indexed" data-item-index="2" data-renderer-id="0" transform="translate(584, 290)"></g><g id="g-root-1_4mbeh64h5a87-stroke" data-item-order="0" data-item-id="1_4mbeh64h5a87" data-item-class="Icon Stroke SceneTarget Indexed InsideFill InsideColorFill" data-item-index="4" data-renderer-id="0" transform="translate(242, 415.999755859375)"><g id="1_4mbeh64h5a87-stroke" fill="none" stroke-linecap="round" stroke-linejoin="round" stroke-miterlimit="4" stroke="#F99539" stroke-width="2"><g><path d="M 40.728001 23.334L 42.098 19.972C 42.665504 18.579308 44.2547 17.910534 45.647251 18.47838C 47.039803 19.046227 47.708187 20.635588 47.139999 22.028L 45.77 25.388M 41.658001 35.472L 45.77 25.388C 46.33799 23.996071 47.926678 23.327969 49.318745 23.895618C 50.710815 24.463268 51.379307 26.051792 50.811996 27.443998L 48.756001 32.486M 45.672001 40.049999L 48.756001 32.486C 49.32375 31.093138 50.913139 30.424252 52.306 30.992001C 53.698864 31.55975 54.367748 33.149139 53.799999 34.542L 46.948002 51.341999C 45.056511 55.984032 39.759407 58.213024 35.118 56.32L 29.518 54.035999C 26.639194 52.864338 24.558151 50.303577 24 47.245998C 22.964001 41.507999 22.434 32.538002 22.434 32.538002C 22.195147 31.471094 22.784275 30.39245 23.811024 30.016785C 24.837772 29.641121 25.983913 30.084869 26.49 31.053999L 28.83 38.084L 35.681999 21.284C 36.249504 19.891308 37.838699 19.222534 39.231251 19.79038C 40.623802 20.358227 41.292191 21.947586 40.723999 23.34L 36.612 33.424M 18.964001 43.150002C 17.781378 42.468422 16.768127 41.528328 16 40.400002L 12.582 35.400002C 10.833441 32.836136 10.513709 29.557377 11.734 26.704C 14.032 21.346001 18.534 13.568 18.534 13.568C 18.925449 12.549569 20.010065 11.977929 21.071465 12.230643C 22.132866 12.483358 22.843498 13.482438 22.733999 14.568L 20.813999 21.722L 35.799999 11.476C 37.010464 10.672137 38.638897 10.960779 39.499329 12.131711C 40.359756 13.302644 40.148758 14.942945 39.019997 15.858M 48 11L 48 13M 56 11L 53 14M 55 19L 57 19"></path></g></g></g><g id="g-root-coup_18lbeoa4h5atc-stroke" data-item-order="0" data-item-id="coup_18lbeoa4h5atc" data-item-class="Icon Stroke SceneTarget Indexed InsideFill InsideColorFill" data-item-index="3" data-renderer-id="0" transform="translate(386, 415.999755859375)"><g id="coup_18lbeoa4h5atc-stroke" fill="none" stroke-linecap="round" stroke-linejoin="round" stroke-miterlimit="4" stroke="#FFE60A" stroke-width="2"><g><path d="M 38.181999 15.238L 37.599998 14.719999C 37.145935 14.315823 36.8862 13.736894 36.8862 13.129C 36.8862 12.521107 37.145935 11.942178 37.599998 11.538L 37.599998 11.538C 37.990334 11.191546 38.494091 11.000145 39.015999 11L 40.984001 11C 41.505909 11.000145 42.00967 11.191546 42.400002 11.538L 42.400002 11.538C 42.854065 11.942178 43.113804 12.521107 43.113804 13.129C 43.113804 13.736894 42.854065 14.315823 42.400002 14.72L 41.818001 15.238M 15 39C 15 42.313709 17.686291 45 21 45C 24.313709 45 27 42.313709 27 39C 27 35.686295 24.313709 33 21 33C 17.686291 33 15 35.686295 15 39ZM 15.83 35.954002C 18.710327 38.937653 23.136608 39.827209 26.945999 38.188M 54.284 45.287998C 53.485069 43.976749 53.086746 42.460609 53.137997 40.925999L 53.138 39.141998C 53.138 35.752075 50.389923 33.004002 47 33.004002C 43.610077 33.004002 40.862 35.752075 40.862 39.141998L 40.862 40.926003C 40.91325 42.460609 40.514923 43.976749 39.715996 45.287998M 40.862 40.155998C 43.219196 40.152176 45.458691 39.125465 47 37.342003C 48.541309 39.125465 50.780807 40.152176 53.138 40.156002M 41.612 40.120003C 41.889442 42.888142 44.218987 44.995876 47.000999 44.995876C 49.783012 44.995876 52.112556 42.888142 52.389999 40.120003M 21 47C 15.477152 47 11 51.477154 11 57L 31 57C 31 51.477154 26.522848 47 21 47ZM 47 47C 41.477154 47 37 51.477154 37 57L 57 57C 57 51.477154 52.52285 47 47 47ZM 38.599998 28.858C 41.500252 29.450012 44.45937 28.153774 45.990616 25.620554C 47.521862 23.087334 47.294193 19.864792 45.421997 17.57202C 43.549801 15.279248 40.437828 14.411924 37.64962 15.405817C 34.861416 16.39971 32.99976 19.039948 33 22M 31.4 15.142C 28.499752 14.54999 25.540634 15.846228 24.009388 18.379448C 22.478142 20.912666 22.705811 24.13521 24.578005 26.427982C 26.450201 28.720753 29.562174 29.588076 32.35038 28.594183C 35.138588 27.600292 37.000244 24.960054 37 22"></path></g></g></g><g id="g-root-tx_communit_qva2ve4hks25-stroke" data-item-order="0" data-item-id="tx_communit_qva2ve4hks25" data-item-class="Label Stroke SceneTarget Indexed" data-item-index="4" data-renderer-id="0" transform="translate(86, 469.999755859375)"></g><g id="g-root-tx_playeren_8zj7u4hks26-stroke" data-item-order="0" data-item-id="tx_playeren_8zj7u4hks26" data-item-class="Label Stroke SceneTarget Indexed" data-item-index="3" data-renderer-id="0" transform="translate(482, 469.999755859375)"></g></g></g></svg>