<?xml version="1.0" encoding="utf-8" standalone="yes"?>
<!DOCTYPE svg PUBLIC "-//W3C//DTD SVG 1.1//EN" "http://www.w3.org/Graphics/SVG/1.1/DTD/svg11.dtd">
<svg width="578" height="506" viewBox="0 0 578 506" style="fill:none;stroke:none;fill-rule:evenodd;clip-rule:evenodd;stroke-linecap:round;stroke-linejoin:round;stroke-miterlimit:1.5;" version="1.1" xmlns="http://www.w3.org/2000/svg" xmlns:xlink="http://www.w3.org/1999/xlink"><style id="fontImports">@import url("https://fonts.googleapis.com/css2?family=Roboto:wght@400;700&amp;display=block");</style><g id="items" style="isolation: isolate"><g id="blend" style="mix-blend-mode:screen"><g id="g-root--1.cu-1_sy_me7a165bi48z-fill" data-item-order="-264956" data-item-id="-1.cu-1_sy_me7a165bi48z" data-item-class="ScenePart Part Fill Stroke ColorFillBlack ColorStrokeBlack" data-item-index="-1" data-renderer-id="0" transform="translate(3, 3)"><g id="-1.cu-1_sy_me7a165bi48z-fill" stroke="none" fill="#353535"><g><path d="M 286 10L 562 130L 550 154L 22 154L 10 130L 286 10ZM 562 490L 10 490L 22 466L 550 466L 562 490Z"></path></g></g></g><g id="g-root-5.cu_sy_1d2d8y25bi39c-fill" data-item-order="-264954" data-item-id="5.cu_sy_1d2d8y25bi39c" data-item-class="ScenePart Part Indexed Fill Stroke" data-item-index="5" data-renderer-id="0" transform="translate(279, 303)"><g id="5.cu_sy_1d2d8y25bi39c-fill" stroke="none" fill="#5a3f27"><g><path d="M 10 166L 262 166L 262 10L 10 10L 10 166Z"></path></g></g></g><g id="g-root-4.cu_sy_1hhk9ze5bi5mv-fill" data-item-order="-264952" data-item-id="4.cu_sy_1hhk9ze5bi5mv" data-item-class="ScenePart Part Indexed Fill Stroke" data-item-index="4" data-renderer-id="0" transform="translate(27, 303)"><g id="4.cu_sy_1hhk9ze5bi5mv-fill" stroke="none" fill="#4f4a20"><g><path d="M 10 166L 262 166L 262 10L 10 10L 10 166Z"></path></g></g></g><g id="g-root-3.cu_sy_1lxds3u5bi4um-fill" data-item-order="-264950" data-item-id="3.cu_sy_1lxds3u5bi4um" data-item-class="ScenePart Part Indexed Fill Stroke" data-item-index="3" data-renderer-id="0" transform="translate(363, 147)"><g id="3.cu_sy_1lxds3u5bi4um-fill" stroke="none" fill="#404b29"><g><path d="M 10 166L 178 166L 178 10L 10 10L 10 166Z"></path></g></g></g><g id="g-root-2.cu_sy_1ut0scq5bi41x-fill" data-item-order="-264948" data-item-id="2.cu_sy_1ut0scq5bi41x" data-item-class="ScenePart Part Indexed Fill Stroke" data-item-index="2" data-renderer-id="0" transform="translate(195, 147)"><g id="2.cu_sy_1ut0scq5bi41x-fill" stroke="none" fill="#2b503e"><g><path d="M 10 166L 94 166L 178 166L 178 10L 10 10L 10 166Z"></path></g></g></g><g id="g-root-1.cu_sy_dik9sa5bi51o-fill" data-item-order="-264946" data-item-id="1.cu_sy_dik9sa5bi51o" data-item-class="ScenePart Part Indexed Indexed_1 Fill Stroke" data-item-index="1" data-renderer-id="0" transform="translate(27, 147)"><g id="1.cu_sy_dik9sa5bi51o-fill" stroke="none" fill="#224754"><g><path d="M 10 166L 178 166L 178 10L 10 10L 10 166Z"></path></g></g></g><g id="g-root-1_4njwy25bfbwi-fill" data-item-order="0" data-item-id="1_4njwy25bfbwi" data-item-class="Icon Stroke SceneTarget SceneTitle Title InsideFill InsideColorFill InsideBlackFill ColorFillBlack ColorStrokeBlack" data-item-index="none" data-renderer-id="0" transform="translate(255, 27)"></g><g id="g-root-tx_landrock_zk1imi5bjjta-fill" data-item-order="0" data-item-id="tx_landrock_zk1imi5bjjta" data-item-class="Label Stroke SceneTarget SceneTitle Title InsideFill InsideColorFill InsideBlackFill ColorFillBlack ColorStrokeBlack" data-item-index="none" data-renderer-id="0" transform="translate(195, 99)"><g id="tx_landrock_zk1imi5bjjta-fill" stroke="none" fill="#666666"><g><text style="font: 20px Roboto, sans-serif; white-space: pre;"><tspan x="14.01" y="34" dominant-baseline="ideographic">LandRocker Team</tspan></text></g></g></g><g id="g-root-1_zrjdze5bfa4l-fill" data-item-order="0" data-item-id="1_zrjdze5bfa4l" data-item-class="Icon Stroke SceneTarget Indexed Indexed_1 InsideFill InsideColorFill" data-item-index="1" data-renderer-id="0" transform="translate(87, 159)"></g><g id="g-root-modu_1d2df9m5bfbpg-fill" data-item-order="0" data-item-id="modu_1d2df9m5bfbpg" data-item-class="Icon Stroke SceneTarget Indexed InsideFill InsideColorFill" data-item-index="2" data-renderer-id="0" transform="translate(255, 159)"></g><g id="g-root-pain_mg2vm25bfbpi-fill" data-item-order="0" data-item-id="pain_mg2vm25bfbpi" data-item-class="Icon Stroke SceneTarget Indexed InsideFill InsideColorFill" data-item-index="3" data-renderer-id="0" transform="translate(423, 159)"></g><g id="g-root-tx_sounddes_mg2pai5bi39f-fill" data-item-order="0" data-item-id="tx_sounddes_mg2pai5bi39f" data-item-class="Label Stroke SceneTarget Indexed Indexed_1 InsideFill InsideColorFill" data-item-index="1" data-renderer-id="0" transform="translate(51, 219)"><g id="tx_sounddes_mg2pai5bi39f-fill" stroke="none" fill="#4F92FF"><g><text style="font: 20px Roboto, sans-serif; white-space: pre;"><tspan x="17.7" y="34" dominant-baseline="ideographic">Engineering</tspan></text></g></g></g><g id="g-root-tx_developm_zqwqkq5bi4ua-fill" data-item-order="0" data-item-id="tx_developm_zqwqkq5bi4ua" data-item-class="Label Stroke SceneTarget Indexed InsideFill InsideColorFill" data-item-index="2" data-renderer-id="0" transform="translate(213, 219)"><g id="tx_developm_zqwqkq5bi4ua-fill" stroke="none" fill="#44E095"><g><text style="font: 20px Roboto, sans-serif; white-space: pre;"><tspan x="17.54" y="34" dominant-baseline="ideographic">Development</tspan></text></g></g></g><g id="g-root-tx_artistry_8z6oa5bi5n0-fill" data-item-order="0" data-item-id="tx_artistry_8z6oa5bi5n0" data-item-class="Label Stroke SceneTarget Indexed InsideFill InsideColorFill" data-item-index="3" data-renderer-id="0" transform="translate(411, 219)"><g id="tx_artistry_8z6oa5bi5n0-fill" stroke="none" fill="#A8DD38"><g><text style="font: 20px Roboto, sans-serif; white-space: pre;"><tspan x="13.52" y="34" dominant-baseline="ideographic">Artistry</tspan></text></g></g></g><g id="g-root-top_1qdtxmy5bfa4j-fill" data-item-order="0" data-item-id="top_1qdtxmy5bfa4j" data-item-class="Icon Stroke" data-item-index="none" data-renderer-id="0" transform="translate(129, 340)"></g><g id="g-root-knig_9lu2y5bfaxb-fill" data-item-order="0" data-item-id="knig_9lu2y5bfaxb" data-item-class="Icon Stroke" data-item-index="none" data-renderer-id="0" transform="translate(381, 340)"></g><g id="g-root-tx_leadersh_1d2d8y25bi39d-fill" data-item-order="0" data-item-id="tx_leadersh_1d2d8y25bi39d" data-item-class="Label Stroke" data-item-index="none" data-renderer-id="0" transform="translate(99, 405)"><g id="tx_leadersh_1d2d8y25bi39d-fill" stroke="none" fill="#FFE60A"><g><text style="font: 20px Roboto, sans-serif; white-space: pre;"><tspan x="14.86" y="34" dominant-baseline="ideographic">Leadership</tspan></text></g></g></g><g id="g-root-tx_manageme_18nsozu5bi5fx-fill" data-item-order="0" data-item-id="tx_manageme_18nsozu5bi5fx" data-item-class="Label Stroke" data-item-index="none" data-renderer-id="0" transform="translate(333, 405)"><g id="tx_manageme_18nsozu5bi5fx-fill" stroke="none" fill="#F99539"><g><text style="font: 20px Roboto, sans-serif; white-space: pre;"><tspan x="17.12" y="34" dominant-baseline="ideographic">Management</tspan></text></g></g></g><g id="g-root--1.cu-1_sy_me7a165bi48z-stroke" data-item-order="-264956" data-item-id="-1.cu-1_sy_me7a165bi48z" data-item-class="ScenePart Part Fill Stroke ColorFillBlack ColorStrokeBlack" data-item-index="-1" data-renderer-id="0" transform="translate(3, 3)"><g id="-1.cu-1_sy_me7a165bi48z-stroke" fill="none" stroke-linecap="round" stroke-linejoin="round" stroke-miterlimit="4" stroke="#666666" stroke-width="2"><g><path d="M 286 10L 562 130L 550 154L 22 154L 10 130L 286 10ZM 562 490L 10 490L 22 466L 550 466L 562 490Z"></path></g></g></g><g id="g-root-5.cu_sy_1d2d8y25bi39c-stroke" data-item-order="-264954" data-item-id="5.cu_sy_1d2d8y25bi39c" data-item-class="ScenePart Part Indexed Fill Stroke" data-item-index="5" data-renderer-id="0" transform="translate(279, 303)"><g id="5.cu_sy_1d2d8y25bi39c-stroke" fill="none" stroke-linecap="round" stroke-linejoin="round" stroke-miterlimit="4" stroke="#F99539" stroke-width="2"><g><path d="M 10 166L 262 166L 262 10L 10 10L 10 166Z"></path></g></g></g><g id="g-root-4.cu_sy_1hhk9ze5bi5mv-stroke" data-item-order="-264952" data-item-id="4.cu_sy_1hhk9ze5bi5mv" data-item-class="ScenePart Part Indexed Fill Stroke" data-item-index="4" data-renderer-id="0" transform="translate(27, 303)"><g id="4.cu_sy_1hhk9ze5bi5mv-stroke" fill="none" stroke-linecap="round" stroke-linejoin="round" stroke-miterlimit="4" stroke="#FFE60A" stroke-width="2"><g><path d="M 10 166L 262 166L 262 10L 10 10L 10 166Z"></path></g></g></g><g id="g-root-3.cu_sy_1lxds3u5bi4um-stroke" data-item-order="-264950" data-item-id="3.cu_sy_1lxds3u5bi4um" data-item-class="ScenePart Part Indexed Fill Stroke" data-item-index="3" data-renderer-id="0" transform="translate(363, 147)"><g id="3.cu_sy_1lxds3u5bi4um-stroke" fill="none" stroke-linecap="round" stroke-linejoin="round" stroke-miterlimit="4" stroke="#A8DD38" stroke-width="2"><g><path d="M 10 166L 178 166L 178 10L 10 10L 10 166Z"></path></g></g></g><g id="g-root-2.cu_sy_1ut0scq5bi41x-stroke" data-item-order="-264948" data-item-id="2.cu_sy_1ut0scq5bi41x" data-item-class="ScenePart Part Indexed Fill Stroke" data-item-index="2" data-renderer-id="0" transform="translate(195, 147)"><g id="2.cu_sy_1ut0scq5bi41x-stroke" fill="none" stroke-linecap="round" stroke-linejoin="round" stroke-miterlimit="4" stroke="#44E095" stroke-width="2"><g><path d="M 10 166L 94 166L 178 166L 178 10L 10 10L 10 166Z"></path></g></g></g><g id="g-root-1.cu_sy_dik9sa5bi51o-stroke" data-item-order="-264946" data-item-id="1.cu_sy_dik9sa5bi51o" data-item-class="ScenePart Part Indexed Indexed_1 Fill Stroke" data-item-index="1" data-renderer-id="0" transform="translate(27, 147)"><g id="1.cu_sy_dik9sa5bi51o-stroke" fill="none" stroke-linecap="round" stroke-linejoin="round" stroke-miterlimit="4" stroke="#1AC6FF" stroke-width="2"><g><path d="M 10 166L 178 166L 178 10L 10 10L 10 166Z"></path></g></g></g><g id="g-root-1_4njwy25bfbwi-stroke" data-item-order="0" data-item-id="1_4njwy25bfbwi" data-item-class="Icon Stroke SceneTarget SceneTitle Title InsideFill InsideColorFill InsideBlackFill ColorFillBlack ColorStrokeBlack" data-item-index="none" data-renderer-id="0" transform="translate(255, 27)"><g id="1_4njwy25bfbwi-stroke" fill="none" stroke-linecap="round" stroke-linejoin="round" stroke-miterlimit="4" stroke="#666666" stroke-width="2"><g><path d="M 16.722 38.896C 16.722 41.377968 18.734032 43.389999 21.216 43.389999C 23.697968 43.389999 25.709999 41.377968 25.709999 38.896C 25.709999 36.414032 23.697968 34.402 21.216 34.402C 18.734032 34.402 16.722 36.414032 16.722 38.896M 28.618 50.838001C 27.504629 47.743671 24.583839 45.668522 21.295467 45.635521C 18.007092 45.602524 15.045246 47.618637 13.87 50.690002M 41.862 38.896C 41.862 41.377968 43.874035 43.389999 46.355999 43.389999C 48.837967 43.389999 50.850002 41.377968 50.850002 38.896C 50.850002 36.414032 48.837967 34.402 46.355999 34.402C 43.874035 34.402 41.862 36.414032 41.862 38.896M 53.458 50.119999C 52.250942 47.641796 49.853069 45.959583 47.112 45.667999C 46.405117 45.612225 45.694004 45.647175 44.995998 45.771999M 12 54.622002L 56 54.622002M 47.848 54.622002L 34.875999 54.622002L 33.148003 46.838001C 33.082535 46.542072 33.154812 46.232418 33.344528 45.996056C 33.534241 45.759689 33.820915 45.62212 34.124001 45.622002L 44.243999 45.622002C 45.181217 45.622162 45.992622 46.273117 46.195999 47.188ZM 33 13.378L 33 21.378M 29 27.378L 30 21.378L 36 21.378L 37 27.378L 29 27.378ZM 39.388 50.122002C 39.388 50.536213 39.723785 50.872002 40.138 50.872002C 40.552216 50.872002 40.888 50.536213 40.888 50.122002C 40.888 49.707787 40.552216 49.372002 40.138 49.372002C 39.723785 49.372002 39.388 49.707787 39.388 50.122002M 43.150002 35.75C 45.123543 37.888058 47.94392 39.040382 50.850002 38.896M 24.422001 35.75C 22.44846 37.888058 19.628082 39.040382 16.722 38.896"></path></g></g></g><g id="g-root-tx_landrock_zk1imi5bjjta-stroke" data-item-order="0" data-item-id="tx_landrock_zk1imi5bjjta" data-item-class="Label Stroke SceneTarget SceneTitle Title InsideFill InsideColorFill InsideBlackFill ColorFillBlack ColorStrokeBlack" data-item-index="none" data-renderer-id="0" transform="translate(195, 99)"></g><g id="g-root-1_zrjdze5bfa4l-stroke" data-item-order="0" data-item-id="1_zrjdze5bfa4l" data-item-class="Icon Stroke SceneTarget Indexed Indexed_1 InsideFill InsideColorFill" data-item-index="1" data-renderer-id="0" transform="translate(87, 159)"><g id="1_zrjdze5bfa4l-stroke" fill="none" stroke-linecap="round" stroke-linejoin="round" stroke-miterlimit="4" stroke="#1AC6FF" stroke-width="2"><g><path d="M 21 49L 47 49C 47 49 49 49 49 51L 49 55C 49 55 49 57 47 57L 21 57C 21 57 19 57 19 55L 19 51C 19 51 19 49 21 49M 23 49L 23 43M 45 49L 45 43M 23 53L 25 53M 29 53L 31 53M 34 22.5C 34.276142 22.5 34.5 22.723858 34.5 23C 34.5 23.276142 34.276142 23.5 34 23.5C 33.723858 23.5 33.5 23.276142 33.5 23C 33.5 22.723858 33.723858 22.5 34 22.5M 31 11L 37 11C 37 11 39 11 39 13L 39 25C 39 25 39 27 37 27L 31 27C 31 27 29 27 29 25L 29 13C 29 13 29 11 31 11M 47 17L 53 17C 54.104568 17 55 17.895432 55 19L 55 25L 55 25L 45 25L 45 25L 45 19C 45 17.895432 45.895432 17 47 17ZM 55.382 31C 55.942566 30.999235 56.462902 30.708723 56.757694 30.231926C 57.052486 29.755129 57.079834 29.159817 56.829998 28.657999L 55 25L 45 25L 43.169998 28.658001C 42.920166 29.159817 42.947514 29.755129 43.242306 30.231926C 43.537098 30.708723 44.05743 30.999235 44.618 31ZM 13 17L 23 17C 23 17 25 17 25 19L 25 25C 25 25 25 27 23 27L 13 27C 13 27 11 27 11 25L 11 19C 11 19 11 17 13 17M 13 31L 23 31M 15 31L 16 27M 21 31L 20 27M 41.209999 37.183998C 36.843815 34.273853 31.156187 34.273853 26.790001 37.184002M 39 41.512001C 35.977043 39.496872 32.038956 39.496872 29.016001 41.512001"></path></g></g></g><g id="g-root-modu_1d2df9m5bfbpg-stroke" data-item-order="0" data-item-id="modu_1d2df9m5bfbpg" data-item-class="Icon Stroke SceneTarget Indexed InsideFill InsideColorFill" data-item-index="2" data-renderer-id="0" transform="translate(255, 159)"><g id="modu_1d2df9m5bfbpg-stroke" fill="none" stroke-linecap="round" stroke-linejoin="round" stroke-miterlimit="4" stroke="#44E095" stroke-width="2"><g><path d="M 55.908573 20.285715C 55.725914 20.037823 55.476055 19.847454 55.188572 19.737143L 34.617142 11.954286C 34.223637 11.782545 33.776363 11.782545 33.382858 11.954286L 12.811429 19.874287C 12.539646 19.94627 12.291427 20.08811 12.091429 20.285715C 11.851936 20.575438 11.718843 20.938417 11.714286 21.314285L 11.714286 46.41143C 11.723383 47.111938 12.157808 47.736427 12.811429 47.988571L 33.382858 55.908573L 34 55.908573L 34.617142 55.908573L 55.188572 47.988571C 55.84219 47.736427 56.276619 47.111938 56.285713 46.41143L 56.285713 21.451427C 56.314716 21.028799 56.17963 20.611263 55.908569 20.285713ZM 34 56.148571L 34 28.857143M 34 28.857143L 34 56.148571M 12.091429 20.422857L 34 28.857143L 55.908573 20.422857"></path></g></g></g><g id="g-root-pain_mg2vm25bfbpi-stroke" data-item-order="0" data-item-id="pain_mg2vm25bfbpi" data-item-class="Icon Stroke SceneTarget Indexed InsideFill InsideColorFill" data-item-index="3" data-renderer-id="0" transform="translate(423, 159)"><g id="pain_mg2vm25bfbpi-stroke" fill="none" stroke-linecap="round" stroke-linejoin="round" stroke-miterlimit="4" stroke="#A8DD38" stroke-width="2"><g><path d="M 43.655998 37.110001L 56.568001 17.466C 57.229691 16.426304 56.963017 15.050699 55.960751 14.333577C 54.958481 13.616456 53.570435 13.808111 52.799999 14.77L 38.279999 33.517998M 27.4 41.239998C 22.812 40.146 18.6 38.012001 17.42 34.066002C 16.967094 32.552219 15.58003 31.510704 14 31.498001C 13.135223 31.497265 12.312542 31.871225 11.744496 32.52327C 11.176451 33.175316 10.91876 34.041485 11.038 34.898003C 12.278324 44.548492 19.611338 52.292171 29.18 54.056C 31.59992 54.587639 34.106342 53.647728 35.580002 51.656002M 28.718 45.425999C 28.259686 45.62191 27.973896 46.084663 28.003954 46.582188C 28.034012 47.079708 28.373434 47.504688 28.851999 47.644001C 36.716 49.905998 42.782001 44.810001 43.880001 40.879997C 44.740906 37.794617 42.937946 34.595451 39.852722 33.733994C 36.767494 32.872536 33.568005 34.674927 32.706001 37.759998C 31.695999 41.375999 32.18 43.958 28.718 45.425999Z"></path></g></g></g><g id="g-root-tx_sounddes_mg2pai5bi39f-stroke" data-item-order="0" data-item-id="tx_sounddes_mg2pai5bi39f" data-item-class="Label Stroke SceneTarget Indexed Indexed_1 InsideFill InsideColorFill" data-item-index="1" data-renderer-id="0" transform="translate(51, 219)"></g><g id="g-root-tx_developm_zqwqkq5bi4ua-stroke" data-item-order="0" data-item-id="tx_developm_zqwqkq5bi4ua" data-item-class="Label Stroke SceneTarget Indexed InsideFill InsideColorFill" data-item-index="2" data-renderer-id="0" transform="translate(213, 219)"></g><g id="g-root-tx_artistry_8z6oa5bi5n0-stroke" data-item-order="0" data-item-id="tx_artistry_8z6oa5bi5n0" data-item-class="Label Stroke SceneTarget Indexed InsideFill InsideColorFill" data-item-index="3" data-renderer-id="0" transform="translate(411, 219)"></g><g id="g-root-top_1qdtxmy5bfa4j-stroke" data-item-order="0" data-item-id="top_1qdtxmy5bfa4j" data-item-class="Icon Stroke" data-item-index="none" data-renderer-id="0" transform="translate(129, 340)"><g id="top_1qdtxmy5bfa4j-stroke" fill="none" stroke-linecap="round" stroke-linejoin="round" stroke-miterlimit="4" stroke="#FFE60A" stroke-width="2"><g><path d="M 18.5 57L 35.5 30C 35.976421 29.377148 36.715828 29.01181 37.5 29.01181C 38.284172 29.01181 39.023575 29.377148 39.5 30L 56.5 57ZM 18.5 57L 11.5 57L 18.5 46C 18.989294 45.391399 19.719543 45.026276 20.5 45C 21.280457 45.026276 22.010706 45.391399 22.5 46L 23.799999 48.599998M 27.41 42.848L 32.096001 46.812C 32.890411 47.483448 34.066879 47.433884 34.802002 46.698002L 36.085999 45.414001C 36.867001 44.633236 38.132999 44.633236 38.914001 45.414001L 40.197998 46.698002C 40.933121 47.433884 42.109592 47.483448 42.903999 46.812L 47.504002 42.925999M 37.5 29L 37.5 11M 37.5 11L 51.419998 11C 51.803986 11.000546 52.153748 11.220918 52.319996 11.567051C 52.48624 11.913185 52.43961 12.323943 52.200001 12.624001L 50 15.375999C 49.708565 15.740958 49.708565 16.259041 50 16.624001L 52.200001 19.375999C 52.43961 19.676056 52.48624 20.086815 52.319996 20.432949C 52.153748 20.779083 51.803986 20.999454 51.419998 21L 37.5 21"></path></g></g></g><g id="g-root-knig_9lu2y5bfaxb-stroke" data-item-order="0" data-item-id="knig_9lu2y5bfaxb" data-item-class="Icon Stroke" data-item-index="none" data-renderer-id="0" transform="translate(381, 340)"><g id="knig_9lu2y5bfaxb-stroke" fill="none" stroke-linecap="round" stroke-linejoin="round" stroke-miterlimit="4" stroke="#F99539" stroke-width="2"><g><path d="M 15.8 46.32C 13.46 38.559998 19 40.32 21 29.52L 13.42 29.52C 11.82 29.52 11.54 28.66 11.04 27.139999C 10.907104 26.179596 11.375123 25.235626 12.22 24.759998L 20.560001 18.76L 20.560001 15.860001C 20.564009 15.445515 20.781643 15.062445 21.135635 14.846796C 21.489624 14.631145 21.929844 14.613453 22.299999 14.8C 29.360001 18.52 30.84 21.32 30.82 24.32C 30.82 26.68 29.860001 29.18 29.98 32.32C 30.200001 39.139999 35 40.32 32.459999 46.32M 35.760002 52C 35.833183 52.351902 35.741985 52.717976 35.512268 52.994419C 35.282547 53.270859 34.939354 53.427528 34.580002 53.419998L 13.68 53.419998C 13.327014 53.419685 12.991467 53.266499 12.76 53C 12.533983 52.719574 12.445875 52.352459 12.52 52L 13.42 47.619999C 13.74 46.639999 14.780001 46.419998 15.8 46.419998L 32.459999 46.419998C 33.5 46.419998 34.459999 46.639999 34.860001 47.619999ZM 37.799999 46.32L 53.68 46.32C 54.720001 46.32 55.68 46.540001 56.080002 47.52L 56.98 52C 57.045864 52.352295 56.95858 52.715969 56.740002 53C 56.499264 53.265396 56.158306 53.41774 55.799999 53.419998L 40.559998 53.419998M 37 32.32L 53 32.32M 37.66 46.32C 37.478523 42.615433 38.286156 38.929298 40 35.639999C 40.997482 33.958954 40.778233 31.823311 39.459999 30.380001C 38.27496 29.070074 37.619156 27.366413 37.619999 25.599998C 37.478954 22.911697 38.832935 20.364988 41.140404 18.978458C 43.447868 17.59193 46.332138 17.59193 48.639603 18.978458C 50.947071 20.364988 52.301052 22.911697 52.160004 25.600002C 52.167469 27.344725 51.534054 29.03146 50.379997 30.339998C 49.097233 31.759642 48.878941 33.845543 49.84 35.5C 51.53714 38.844952 52.336559 42.573292 52.16 46.32"></path></g></g></g><g id="g-root-tx_leadersh_1d2d8y25bi39d-stroke" data-item-order="0" data-item-id="tx_leadersh_1d2d8y25bi39d" data-item-class="Label Stroke" data-item-index="none" data-renderer-id="0" transform="translate(99, 405)"></g><g id="g-root-tx_manageme_18nsozu5bi5fx-stroke" data-item-order="0" data-item-id="tx_manageme_18nsozu5bi5fx" data-item-class="Label Stroke" data-item-index="none" data-renderer-id="0" transform="translate(333, 405)"></g></g></g></svg>