<?xml version="1.0" encoding="utf-8" standalone="yes"?>
<!DOCTYPE svg PUBLIC "-//W3C//DTD SVG 1.1//EN" "http://www.w3.org/Graphics/SVG/1.1/DTD/svg11.dtd">
<svg width="648" height="444" viewBox="0 0 648 444" style="fill:none;stroke:none;fill-rule:evenodd;clip-rule:evenodd;stroke-linecap:round;stroke-linejoin:round;stroke-miterlimit:1.5;" version="1.1" xmlns="http://www.w3.org/2000/svg" xmlns:xlink="http://www.w3.org/1999/xlink"><style id="fontImports">@import url("https://fonts.googleapis.com/css2?family=Roboto:wght@400;700&amp;display=block");</style><g id="items" style="isolation: isolate"><g id="blend" style="mix-blend-mode:screen"><g id="g-root-3.cr-small_cr_djtnqi8ddmo7-fill" data-item-order="-117284" data-item-id="3.cr-small_cr_djtnqi8ddmo7" data-item-class="Shape Stroke Fill ScenePart Part Indexed" data-item-index="3" data-renderer-id="0" transform="translate(133, 62)"><g id="3.cr-small_cr_djtnqi8ddmo7-fill" stroke="none" fill="#692e2c"><g><path d="M 10 46C 10 65.882251 26.117749 82 46 82C 65.882251 82 82 65.882251 82 46C 82 26.117749 65.882251 10 46 10C 26.117749 10 10 26.117749 10 46"></path></g></g></g><g id="g-root-2.cr-small_cr_djtnqi8ddmo6-fill" data-item-order="-117282" data-item-id="2.cr-small_cr_djtnqi8ddmo6" data-item-class="Shape Stroke Fill ScenePart Part Indexed" data-item-index="2" data-renderer-id="0" transform="translate(278, 314)"><g id="2.cr-small_cr_djtnqi8ddmo6-fill" stroke="none" fill="#2b503e"><g><path d="M 10 46C 10 65.882251 26.117749 82 46 82C 65.882251 82 82 65.882251 82 46C 82 26.117749 65.882251 10 46 10C 26.117749 10 10 26.117749 10 46"></path></g></g></g><g id="g-root-1.cr-small_cr_hz0oru8ddp1p-fill" data-item-order="-117280" data-item-id="1.cr-small_cr_hz0oru8ddp1p" data-item-class="Shape Stroke Fill ScenePart Part Indexed Indexed_1" data-item-index="1" data-renderer-id="0" transform="translate(423, 62)"><g id="1.cr-small_cr_hz0oru8ddp1p-fill" stroke="none" fill="#4f4a20"><g><path d="M 10 46C 10 65.882251 26.117749 82 46 82C 65.882251 82 82 65.882251 82 46C 82 26.117749 65.882251 10 46 10C 26.117749 10 10 26.117749 10 46"></path></g></g></g><g id="g-root-0.Vector_sy_vah7568ddngr-fill" data-item-order="-117278" data-item-id="0.Vector_sy_vah7568ddngr" data-item-class="ScenePart Part Indexed_0 Fill Stroke ColorFillBlack ColorStrokeBlack" data-item-index="0" data-renderer-id="0" transform="translate(242, 109.99609375)"><g id="0.Vector_sy_vah7568ddngr-fill" stroke="none" fill="#353535"><g><path d="M 154 81.999998C 154 42.235998 121.765 9.999998 82 9.999998L 82 9.999998C 42.236 9.999998 10 42.235998 10 81.999998L 10 81.999998C 10 121.764998 42.236 153.999998 82 153.999998L 82 153.999998C 121.764 153.999998 154 121.764998 154 81.999998L 154 81.999998Z"></path></g></g></g><g id="g-root-0.Union_sy_qunp0q8ddo90-fill" data-item-order="-117276" data-item-id="0.Union_sy_qunp0q8ddo90" data-item-class="ScenePart Part Indexed_0 Fill Stroke ColorFillBlack ColorStrokeBlack" data-item-index="0" data-renderer-id="0" transform="translate(217.03900146484375, 110)"><g id="0.Union_sy_qunp0q8ddo90-fill" stroke="none" fill="#353535"><g><path d="M 172.005999 51.088C 176.464999 60.454 178.960999 70.936 178.960999 82C 178.960999 119.817 149.804999 150.825 112.744999 153.771L 112.744999 180.035L 119.849999 180.035L 106.957999 194L 94.064999 180.035L 101.241999 180.035L 101.241999 153.776C 64.150999 150.861 34.960999 119.839 34.960999 82C 34.960999 70.905 37.470999 60.396 41.952999 51.01L 19.199999 37.873L 15.647999 44.026L 9.999999 25.878L 28.539999 21.696L 24.951999 27.911L 47.725999 41.059C 60.720999 22.292 82.405999 10 106.960999 10C 131.546999 10 153.255999 22.324 166.244999 41.131L 189.088999 27.942L 185.535999 21.789L 204.076999 25.972L 198.428999 44.119L 194.839999 37.905L 172.005999 51.088Z"></path></g></g></g><g id="g-root-tx_playeren_dl2lwq8ddoub-fill" data-item-order="0" data-item-id="tx_playeren_dl2lwq8ddoub" data-item-class="Label Stroke SceneTarget SceneTitle Title" data-item-index="none" data-renderer-id="0" transform="translate(224, 2)"><g id="tx_playeren_dl2lwq8ddoub-fill" stroke="none" fill="#A3A3A3"><g><text style="font: 20px Roboto, sans-serif; white-space: pre;"><tspan x="14.06" y="34" dominant-baseline="ideographic">Player Engagement</tspan></text></g></g></g><g id="g-root-tx_leaderbo_9405m28ddngg-fill" data-item-order="0" data-item-id="tx_leaderbo_9405m28ddngg" data-item-class="Label Stroke SceneTarget Indexed" data-item-index="3" data-renderer-id="0" transform="translate(2, 74)"><g id="tx_leaderbo_9405m28ddngg-fill" stroke="none" fill="#A3A3A3"><g><text style="font: 20px Roboto, sans-serif; white-space: pre;"><tspan x="15.75" y="34" dominant-baseline="ideographic">Leaderboard </tspan><tspan x="19.02" y="58" dominant-baseline="ideographic">Competition</tspan></text></g></g></g><g id="g-root-trop_1qaq9gq8d2e4j-fill" data-item-order="0" data-item-id="trop_1qaq9gq8d2e4j" data-item-class="Icon Stroke SceneTarget Indexed InsideFill InsideColorFill" data-item-index="3" data-renderer-id="0" transform="translate(144, 74)"></g><g id="g-root-grou_4kg8ru8d2fwi-fill" data-item-order="0" data-item-id="grou_4kg8ru8d2fwi" data-item-class="Icon Stroke SceneTarget Indexed Indexed_1 InsideFill InsideColorFill" data-item-index="1" data-renderer-id="0" transform="translate(436, 74)"></g><g id="g-root-tx_communit_vccmei8ddmh6-fill" data-item-order="0" data-item-id="tx_communit_vccmei8ddmh6" data-item-class="Label Stroke SceneTarget Indexed Indexed_1" data-item-index="1" data-renderer-id="0" transform="translate(506, 74)"><g id="tx_communit_vccmei8ddmh6-fill" stroke="none" fill="#A3A3A3"><g><text style="font: 20px Roboto, sans-serif; white-space: pre;"><tspan x="12" y="34" dominant-baseline="ideographic">Community </tspan><tspan x="12" y="58" dominant-baseline="ideographic">Building</tspan></text></g></g></g><g id="g-root-pers_1cxebu28d2gp4-fill" data-item-order="0" data-item-id="pers_1cxebu28d2gp4" data-item-class="Icon Stroke SceneTarget SceneStart InsideFill InsideColorFill InsideBlackFill ColorFillBlack ColorStrokeBlack" data-item-index="none" data-renderer-id="0" transform="translate(278, 145.99609375)"></g><g id="g-root-bag_mb3s6i8d2gp5-fill" data-item-order="0" data-item-id="bag_mb3s6i8d2gp5" data-item-class="Icon Stroke SceneTarget Indexed InsideFill InsideColorFill" data-item-index="2" data-renderer-id="0" transform="translate(290, 326)"></g><g id="g-root-tx_revenues_1utnp7u8ddou9-fill" data-item-order="0" data-item-id="tx_revenues_1utnp7u8ddou9" data-item-class="Label Stroke SceneTarget Indexed" data-item-index="2" data-renderer-id="0" transform="translate(236, 398)"><g id="tx_revenues_1utnp7u8ddou9-fill" stroke="none" fill="#A3A3A3"><g><text style="font: 20px Roboto, sans-serif; white-space: pre;"><tspan x="13.91" y="34" dominant-baseline="ideographic">Revenue Sharing</tspan></text></g></g></g><g id="g-root-3.cr-small_cr_djtnqi8ddmo7-stroke" data-item-order="-117284" data-item-id="3.cr-small_cr_djtnqi8ddmo7" data-item-class="Shape Stroke Fill ScenePart Part Indexed" data-item-index="3" data-renderer-id="0" transform="translate(133, 62)"><g id="3.cr-small_cr_djtnqi8ddmo7-stroke" fill="none" stroke-linecap="round" stroke-linejoin="round" stroke-miterlimit="4" stroke="#FD6A65" stroke-width="2"><g><path d="M 10 46C 10 65.882251 26.117749 82 46 82C 65.882251 82 82 65.882251 82 46C 82 26.117749 65.882251 10 46 10C 26.117749 10 10 26.117749 10 46"></path></g></g></g><g id="g-root-2.cr-small_cr_djtnqi8ddmo6-stroke" data-item-order="-117282" data-item-id="2.cr-small_cr_djtnqi8ddmo6" data-item-class="Shape Stroke Fill ScenePart Part Indexed" data-item-index="2" data-renderer-id="0" transform="translate(278, 314)"><g id="2.cr-small_cr_djtnqi8ddmo6-stroke" fill="none" stroke-linecap="round" stroke-linejoin="round" stroke-miterlimit="4" stroke="#44E095" stroke-width="2"><g><path d="M 10 46C 10 65.882251 26.117749 82 46 82C 65.882251 82 82 65.882251 82 46C 82 26.117749 65.882251 10 46 10C 26.117749 10 10 26.117749 10 46"></path></g></g></g><g id="g-root-1.cr-small_cr_hz0oru8ddp1p-stroke" data-item-order="-117280" data-item-id="1.cr-small_cr_hz0oru8ddp1p" data-item-class="Shape Stroke Fill ScenePart Part Indexed Indexed_1" data-item-index="1" data-renderer-id="0" transform="translate(423, 62)"><g id="1.cr-small_cr_hz0oru8ddp1p-stroke" fill="none" stroke-linecap="round" stroke-linejoin="round" stroke-miterlimit="4" stroke="#FFE60A" stroke-width="2"><g><path d="M 10 46C 10 65.882251 26.117749 82 46 82C 65.882251 82 82 65.882251 82 46C 82 26.117749 65.882251 10 46 10C 26.117749 10 10 26.117749 10 46"></path></g></g></g><g id="g-root-0.Vector_sy_vah7568ddngr-stroke" data-item-order="-117278" data-item-id="0.Vector_sy_vah7568ddngr" data-item-class="ScenePart Part Indexed_0 Fill Stroke ColorFillBlack ColorStrokeBlack" data-item-index="0" data-renderer-id="0" transform="translate(242, 109.99609375)"><g id="0.Vector_sy_vah7568ddngr-stroke" fill="none" stroke-linecap="round" stroke-linejoin="round" stroke-miterlimit="4" stroke="#666666" stroke-width="2"><g><path d="M 154 81.999998C 154 42.235998 121.765 9.999998 82 9.999998L 82 9.999998C 42.236 9.999998 10 42.235998 10 81.999998L 10 81.999998C 10 121.764998 42.236 153.999998 82 153.999998L 82 153.999998C 121.764 153.999998 154 121.764998 154 81.999998L 154 81.999998Z"></path></g></g></g><g id="g-root-0.Union_sy_qunp0q8ddo90-stroke" data-item-order="-117276" data-item-id="0.Union_sy_qunp0q8ddo90" data-item-class="ScenePart Part Indexed_0 Fill Stroke ColorFillBlack ColorStrokeBlack" data-item-index="0" data-renderer-id="0" transform="translate(217.03900146484375, 110)"><g id="0.Union_sy_qunp0q8ddo90-stroke" fill="none" stroke-linecap="round" stroke-linejoin="round" stroke-miterlimit="4" stroke="#666666" stroke-width="2"><g><path d="M 172.005999 51.088C 176.464999 60.454 178.960999 70.936 178.960999 82C 178.960999 119.817 149.804999 150.825 112.744999 153.771L 112.744999 180.035L 119.849999 180.035L 106.957999 194L 94.064999 180.035L 101.241999 180.035L 101.241999 153.776C 64.150999 150.861 34.960999 119.839 34.960999 82C 34.960999 70.905 37.470999 60.396 41.952999 51.01L 19.199999 37.873L 15.647999 44.026L 9.999999 25.878L 28.539999 21.696L 24.951999 27.911L 47.725999 41.059C 60.720999 22.292 82.405999 10 106.960999 10C 131.546999 10 153.255999 22.324 166.244999 41.131L 189.088999 27.942L 185.535999 21.789L 204.076999 25.972L 198.428999 44.119L 194.839999 37.905L 172.005999 51.088Z"></path></g></g></g><g id="g-root-tx_playeren_dl2lwq8ddoub-stroke" data-item-order="0" data-item-id="tx_playeren_dl2lwq8ddoub" data-item-class="Label Stroke SceneTarget SceneTitle Title" data-item-index="none" data-renderer-id="0" transform="translate(224, 2)"></g><g id="g-root-tx_leaderbo_9405m28ddngg-stroke" data-item-order="0" data-item-id="tx_leaderbo_9405m28ddngg" data-item-class="Label Stroke SceneTarget Indexed" data-item-index="3" data-renderer-id="0" transform="translate(2, 74)"></g><g id="g-root-trop_1qaq9gq8d2e4j-stroke" data-item-order="0" data-item-id="trop_1qaq9gq8d2e4j" data-item-class="Icon Stroke SceneTarget Indexed InsideFill InsideColorFill" data-item-index="3" data-renderer-id="0" transform="translate(144, 74)"><g id="trop_1qaq9gq8d2e4j-stroke" fill="none" stroke-linecap="round" stroke-linejoin="round" stroke-miterlimit="4" stroke="#FD6A65" stroke-width="2"><g><path d="M 34 39.142857L 34 56.285713M 25.428572 56.285713L 42.57143 56.285713M 22 28.857143C 16.319357 28.857143 11.714286 24.252073 11.714286 18.571428L 11.714286 15.142858L 23.714287 15.142858L 23.714287 28.857143ZM 46 28.857143C 51.680645 28.857143 56.285713 24.252073 56.285713 18.571428L 56.285713 15.142858L 44.285713 15.142858L 44.285713 28.857143ZM 44.285713 28.857143C 44.285713 34.537788 39.680645 39.142857 34 39.142857C 28.319357 39.142857 23.714287 34.537788 23.714287 28.857143L 23.714287 11.714286L 44.285713 11.714286Z"></path></g></g></g><g id="g-root-grou_4kg8ru8d2fwi-stroke" data-item-order="0" data-item-id="grou_4kg8ru8d2fwi" data-item-class="Icon Stroke SceneTarget Indexed Indexed_1 InsideFill InsideColorFill" data-item-index="1" data-renderer-id="0" transform="translate(436, 74)"><g id="grou_4kg8ru8d2fwi-stroke" fill="none" stroke-linecap="round" stroke-linejoin="round" stroke-miterlimit="4" stroke="#FFE60A" stroke-width="2"><g><path d="M 21.015999 39.924L 17.416 39.924C 16.433748 39.923569 15.597196 39.209915 15.441999 38.239998L 14.76 34L 10.976 34L 13.814 25.732C 14.76 22.892 15.932 21 18.546 21C 21.16 21 22.33 22.892 23.276001 25.732L 24.251999 28.658001M 14.516 15C 14.516 17.209139 16.306862 19 18.515999 19C 20.72514 19 22.515999 17.209139 22.515999 15C 22.515999 12.790861 20.72514 11 18.515999 11C 16.306862 11 14.516 12.790861 14.516 15M 47.015999 39.924L 50.588001 39.924C 51.570251 39.923569 52.406803 39.209915 52.562 38.239998L 53.240002 34L 57.023998 34L 54.186001 25.732C 53.240002 22.892 52.068001 21 49.453999 21C 46.84 21 45.669998 22.892 44.723999 25.732L 43.743999 28.667999M 45.484001 15C 45.484001 17.209139 47.27486 19 49.484001 19C 51.693138 19 53.484001 17.209139 53.484001 15C 53.484001 12.790861 51.693138 11 49.484001 11C 47.27486 11 45.484001 12.790861 45.484001 15M 27.02 20C 27.02 23.865993 30.154007 27 34.02 27C 37.885994 27 41.02 23.865993 41.02 20C 41.02 16.134007 37.885994 13 34.02 13C 30.154007 13 27.02 16.134007 27.02 20M 27.114 21.153999C 29.767778 21.124382 32.281769 19.959484 34.02 17.954C 35.756821 19.960228 38.270576 21.125355 40.924 21.153999M 38.454002 31.43L 34.02 38.412003L 29.624001 31.402M 34.02 30C 37.540665 29.996502 40.602837 32.41148 41.419998 35.835999L 45 47L 39.085999 47L 37.313999 55.411999C 37.119102 56.337826 36.302116 57.000423 35.356003 57L 32.599998 57C 31.654633 56.999477 30.838745 56.337093 30.643999 55.411999L 28.870001 47L 23 47L 26.629999 35.835999C 27.446299 32.415115 30.503071 30.001133 34.02 30Z"></path></g></g></g><g id="g-root-tx_communit_vccmei8ddmh6-stroke" data-item-order="0" data-item-id="tx_communit_vccmei8ddmh6" data-item-class="Label Stroke SceneTarget Indexed Indexed_1" data-item-index="1" data-renderer-id="0" transform="translate(506, 74)"></g><g id="g-root-pers_1cxebu28d2gp4-stroke" data-item-order="0" data-item-id="pers_1cxebu28d2gp4" data-item-class="Icon Stroke SceneTarget SceneStart InsideFill InsideColorFill InsideBlackFill ColorFillBlack ColorStrokeBlack" data-item-index="none" data-renderer-id="0" transform="translate(278, 145.99609375)"><g id="pers_1cxebu28d2gp4-stroke" fill="none" stroke-linecap="round" stroke-linejoin="round" stroke-miterlimit="4" stroke="#666666" stroke-width="2"><g><path d="M 49 35.5L 47.02 35.5C 45.571716 35.529209 44.309422 34.519371 44.02 33.099998L 43 28C 31 28 31 22 31 22C 31 22 31 28 19 28L 17.889999 33.099998C 17.600578 34.519371 16.338282 35.529209 14.89 35.5L 13 35.5M 28 38.5C 27.35211 37.48616 26.199806 36.910011 25 37C 23.800196 36.910011 22.64789 37.48616 22 38.5M 40 38.5C 39.352112 37.48616 38.199806 36.910011 37 37C 35.800194 36.910011 34.647888 37.48616 34 38.5M 49 35.5C 50.5 26.5 50.439999 11.5 31 11.5C 11.559999 11.5 11.5 26.5 13 35.5C 11.935471 36.100983 11.342071 37.287785 11.5 38.5C 11.398068 40.770092 12.550171 42.913002 14.5 44.079998C 15.401822 44.49197 16.041861 45.322895 16.209999 46.300003C 17.530001 54.189999 26.5 56.5 31 56.5C 35.5 56.5 44.470001 54.189999 45.790001 46.300003C 45.958138 45.322895 46.598175 44.49197 47.5 44.079998C 49.449829 42.913002 50.601929 40.770092 50.499996 38.5C 50.657928 37.287785 50.064529 36.100983 49 35.5ZM 65.949997 49.779999L 40.540001 60.159996C 35.140507 62.364792 32.54987 68.528595 34.753006 73.928772C 36.956142 79.328941 43.119148 81.921478 48.519997 79.720001C 51.198246 78.628654 53.283039 76.445625 54.250004 73.720001L 65.709999 69.040001C 68.305946 70.239616 71.284027 70.304832 73.93 69.220001C 79.333191 67.017563 81.927101 60.851288 79.723007 55.448772C 77.518913 50.046249 71.351837 47.454239 65.949997 49.659996ZM 42.369999 66.879997L 45.099998 73.629997M 47.110001 68.889999L 40.360001 71.620003M 68.050003 54.279999C 68.430954 54.136177 68.857079 54.322605 69.010002 54.699997M 67.629997 55.27C 67.55146 55.083294 67.551781 54.872757 67.63089 54.686287C 67.709999 54.499821 67.861168 54.353279 68.050003 54.279999M 68.620003 55.66C 68.437073 55.740231 68.229706 55.744175 68.043861 55.670963C 67.858017 55.597755 67.709061 55.45343 67.629997 55.27M 69.010002 54.699997C 69.157478 55.072803 68.985695 55.495674 68.620003 55.66M 65.379997 60.610001C 65.562477 60.532303 65.768929 60.533321 65.950638 60.612816C 66.132339 60.692314 66.273209 60.843246 66.339996 61.029995M 64.959999 61.600002C 64.881462 61.413292 64.881783 61.202755 64.960892 61.016285C 65.040001 60.829819 65.191162 60.683281 65.379997 60.610001M 65.949997 61.989998C 65.768227 62.079193 65.557297 62.087738 65.368912 62.013523C 65.180519 61.939308 65.032089 61.7892 64.959999 61.599998M 66.340004 61C 66.42868 61.177418 66.436707 61.384418 66.362061 61.568184C 66.287407 61.751938 66.137283 61.894688 65.949997 61.959999M 71.709999 63.279999C 72.09919 63.133781 72.534668 63.318527 72.699997 63.699997M 71.290001 64.239998C 71.146179 63.859043 71.332611 63.432922 71.709999 63.279999M 72.279999 64.659996C 71.8908 64.806213 71.455322 64.621468 71.289993 64.23999M 72.699997 63.699997C 72.843826 64.080956 72.657394 64.50708 72.279999 64.659996M 74.379997 56.949997C 74.752808 56.802521 75.175674 56.974308 75.340004 57.34M 73.959999 58C 73.816177 57.619041 74.002609 57.192924 74.379997 57.040001M 74.949997 58.330002C 74.76329 58.408539 74.552757 58.408218 74.366287 58.329109C 74.179825 58.25 74.033279 58.098839 73.959999 57.91M 75.340004 57.34C 75.420227 57.522926 75.424171 57.730293 75.350967 57.916138C 75.277756 58.101978 75.13343 58.250946 74.949997 58.330002M 26.5 47.5C 27.76087 48.542934 29.365545 49.077827 31 49C 32.634457 49.077827 34.239128 48.542934 35.5 47.5"></path></g></g></g><g id="g-root-bag_mb3s6i8d2gp5-stroke" data-item-order="0" data-item-id="bag_mb3s6i8d2gp5" data-item-class="Icon Stroke SceneTarget Indexed InsideFill InsideColorFill" data-item-index="2" data-renderer-id="0" transform="translate(290, 326)"><g id="bag_mb3s6i8d2gp5-stroke" fill="none" stroke-linecap="round" stroke-linejoin="round" stroke-miterlimit="4" stroke="#44E095" stroke-width="2"><g><path d="M 47 32L 47 38M 51 57L 52 45L 57 45L 57 38C 57 32.477154 52.522846 28 47 28C 41.477154 28 37 32.477154 37 38L 37 45L 42 45L 43 57ZM 40.959999 14.440001C 43.150082 16.721088 46.177757 18.007309 49.34 18C 50.940964 18.005489 52.526356 17.68569 54 17.059999M 40 18C 40 21.865993 43.134007 25 47 25C 50.865993 25 54 21.865993 54 18C 54 14.134007 50.865993 11 47 11C 43.134007 11 40 14.134007 40 18M 26 18L 29.139999 12.5C 29.318632 12.190599 29.318632 11.809401 29.139999 11.5C 28.968777 11.186221 28.637396 10.993558 28.279999 11L 17.719999 11C 17.362602 10.993558 17.031223 11.186221 16.860001 11.5C 16.681368 11.809401 16.681368 12.190599 16.860001 12.5L 20 18C 18.42 19.040001 11 21.82 11 30C 11.093451 33.034966 12.398016 35.906204 14.622538 37.972904C 16.847059 40.039604 19.80637 41.129738 22.84 41C 29.18 41 35 36.360001 35 30C 35 22.139999 27.719999 19.34 26 18ZM 23 33L 23 35M 23 23L 23 25M 19 33L 25 33C 26.10457 33 27 32.104568 27 31C 27 29.89543 26.10457 29 25 29L 21 29C 19.895432 29 19 28.10457 19 27C 19 25.895432 19.895432 25 21 25L 27 25"></path></g></g></g><g id="g-root-tx_revenues_1utnp7u8ddou9-stroke" data-item-order="0" data-item-id="tx_revenues_1utnp7u8ddou9" data-item-class="Label Stroke SceneTarget Indexed" data-item-index="2" data-renderer-id="0" transform="translate(236, 398)"></g></g></g></svg>