<?xml version="1.0" encoding="utf-8" standalone="yes"?>
<!DOCTYPE svg PUBLIC "-//W3C//DTD SVG 1.1//EN" "http://www.w3.org/Graphics/SVG/1.1/DTD/svg11.dtd">
<svg width="588" height="421" viewBox="0 0 588 421" style="fill:none;stroke:none;fill-rule:evenodd;clip-rule:evenodd;stroke-linecap:round;stroke-linejoin:round;stroke-miterlimit:1.5;" version="1.1" xmlns="http://www.w3.org/2000/svg" xmlns:xlink="http://www.w3.org/1999/xlink"><style id="fontImports">@import url("https://fonts.googleapis.com/css2?family=Roboto:wght@400;700&amp;display=block");</style><g id="items" style="isolation: isolate"><g id="blend" style="mix-blend-mode:screen"><g id="g-root-5.cu_sy_1czvyp64raive-fill" data-item-order="-31676" data-item-id="5.cu_sy_1czvyp64raive" data-item-class="ScenePart Part Indexed Stroke ColorFillBlack ColorStrokeBlack" data-item-index="5" data-renderer-id="0" transform="translate(200, 226)"></g><g id="g-root-4.cu_sy_1czvyp64raivd-fill" data-item-order="-31675" data-item-id="4.cu_sy_1czvyp64raivd" data-item-class="ScenePart Part Indexed Fill Stroke ColorFillBlack ColorStrokeBlack" data-item-index="4" data-renderer-id="0" transform="translate(272, 237)"><g id="4.cu_sy_1czvyp64raivd-fill" stroke="none" fill="none"><g><path d="M 34.086 22C 34.086 28.627 28.695 34 22.043 34C 15.392 34 10 28.627 10 22C 10 15.373 15.392 10 22.043 10C 28.695 10 34.086 15.373 34.086 22ZM 28 22C 28 25.314 25.314 28 22 28C 18.686 28 16 25.314 16 22C 16 18.686 18.686 16 22 16C 25.314 16 28 18.686 28 22Z"></path></g></g></g><g id="g-root-3.cu_sy_1lviyy24rai2o-fill" data-item-order="-31673" data-item-id="3.cu_sy_1lviyy24rai2o" data-item-class="ScenePart Part Indexed Fill Stroke ColorFillBlack ColorStrokeBlack" data-item-index="3" data-renderer-id="0" transform="translate(236, 258.326171875)"><g id="3.cu_sy_1lviyy24rai2o-fill" stroke="none" fill="none"><g><path d="M 22 78.674011L 94 78.674011C 94 78.674011 73.992 28.166011 65.959 10.058011C 63.725 11.952011 61.073 12.997011 58.043 12.997011C 54.986 12.997011 52.288 11.933011 50.072 10.000011C 42.047 28.114011 22 78.674011 22 78.674011ZM 18 78.679011C 13.582 78.679011 10 82.260011 10 86.679011L 10 88.679011C 10 89.783011 10.895 90.679011 12 90.679011L 104 90.679011C 105.105 90.679011 106 89.783011 106 88.679011L 106 86.679011C 106 82.260011 102.418 78.679011 98 78.679011L 18 78.679011Z"></path></g></g></g><g id="g-root-2.right-bucket_sy_1uqji3u4rajnz-fill" data-item-order="-31671" data-item-id="2.right-bucket_sy_1uqji3u4rajnz" data-item-class="ScenePart Part Indexed Fill Stroke ColorFillBlack" data-item-index="2" data-renderer-id="0" transform="translate(332, 207)"><g id="2.right-bucket_sy_1uqji3u4rajnz-fill" stroke="none" fill="none"><g><path d="M 10 11.8C 10 10.806 10.806 10 11.8 10L 80.2 10C 81.194 10 82 10.806 82 11.8C 82 20.747 74.747 28 65.8 28L 26.2 28C 17.253 28 10 20.747 10 11.8Z"></path></g></g></g><g id="g-root-1.left-bucket_sy_90vyi24raia6-fill" data-item-order="-31669" data-item-id="1.left-bucket_sy_90vyi24raia6" data-item-class="ScenePart Part Indexed Indexed_1 Fill Stroke ColorFillBlack" data-item-index="1" data-renderer-id="0" transform="translate(164, 207)"><g id="1.left-bucket_sy_90vyi24raia6-fill" stroke="none" fill="none"><g><path d="M 10 11.8C 10 10.806 10.806 10 11.8 10L 80.2 10C 81.194 10 82 10.806 82 11.8C 82 20.747 74.747 28 65.8 28L 26.2 28C 17.253 28 10 20.747 10 11.8Z"></path></g></g></g><g id="g-root-tx_crafting_i0wacq4rak25-fill" data-item-order="0" data-item-id="tx_crafting_i0wacq4rak25" data-item-class="Label Stroke SceneTarget Indexed Indexed_1 ColorStrokeGray" data-item-index="1" data-renderer-id="0" transform="translate(8, 3)"><g id="tx_crafting_i0wacq4rak25-fill" stroke="none" fill="#A3A3A3"><g><text style="font: 20px Roboto, sans-serif; white-space: pre;"><tspan x="20.44" y="34" dominant-baseline="ideographic">Crafting as Core </tspan><tspan x="112.33" y="58" dominant-baseline="ideographic">Driver</tspan></text></g></g></g><g id="g-root-2_13zvdd651frpj-fill" data-item-order="0" data-item-id="2_13zvdd651frpj" data-item-class="Icon Stroke SceneTarget Indexed Indexed_1 ColorStrokeGray" data-item-index="1" data-renderer-id="0" transform="translate(176, 3)"></g><g id="g-root-1_1hjg50q51330q-fill" data-item-order="0" data-item-id="1_1hjg50q51330q" data-item-class="Icon Stroke SceneTarget Indexed ColorStrokeGray" data-item-index="4" data-renderer-id="0" transform="translate(344, 3)"></g><g id="g-root-tx_crafting_1upajxm4rbvns-fill" data-item-order="0" data-item-id="tx_crafting_1upajxm4rbvns" data-item-class="Label Stroke SceneTarget Indexed ColorStrokeGray" data-item-index="4" data-renderer-id="0" transform="translate(404, 15)"><g id="tx_crafting_1upajxm4rbvns-fill" stroke="none" fill="#A3A3A3"><g><text style="font: 20px Roboto, sans-serif; white-space: pre;"><tspan x="12" y="34" dominant-baseline="ideographic">Crafting Fees</tspan></text></g></g></g><g id="g-root-tx_playerre_1lyncdm4raih8-fill" data-item-order="0" data-item-id="tx_playerre_1lyncdm4raih8" data-item-class="Label Stroke SceneTarget Indexed ColorStrokeGray" data-item-index="2" data-renderer-id="0" transform="translate(32, 75)"><g id="tx_playerre_1lyncdm4raih8-fill" stroke="none" fill="#A3A3A3"><g><text style="font: 20px Roboto, sans-serif; white-space: pre;"><tspan x="85.09" y="34" dominant-baseline="ideographic">Player </tspan><tspan x="18.5" y="58" dominant-baseline="ideographic">Reinvestment</tspan></text></g></g></g><g id="g-root-saw_m7yvsa51foqu-fill" data-item-order="0" data-item-id="saw_m7yvsa51foqu" data-item-class="Icon Stroke SceneTarget Indexed ColorStrokeGray" data-item-index="2" data-renderer-id="0" transform="translate(176, 75)"></g><g id="g-root-e_18mk6lm5132f5-fill" data-item-order="0" data-item-id="e_18mk6lm5132f5" data-item-class="Icon Stroke SceneTarget Indexed ColorStrokeGray" data-item-index="5" data-renderer-id="0" transform="translate(344, 75)"></g><g id="g-root-tx_fuelsale_1hbymay4rby8f-fill" data-item-order="0" data-item-id="tx_fuelsale_1hbymay4rby8f" data-item-class="Label Stroke SceneTarget Indexed ColorStrokeGray" data-item-index="5" data-renderer-id="0" transform="translate(404, 87)"><g id="tx_fuelsale_1hbymay4rby8f-fill" stroke="none" fill="#A3A3A3"><g><text style="font: 20px Roboto, sans-serif; white-space: pre;"><tspan x="12" y="34" dominant-baseline="ideographic">Fuel Sales</tspan></text></g></g></g><g id="g-root-tx_resource_1hhkw2y4rah3f-fill" data-item-order="0" data-item-id="tx_resource_1hhkw2y4rah3f" data-item-class="Label Stroke SceneTarget Indexed ColorStrokeGray" data-item-index="3" data-renderer-id="0" transform="translate(68, 147)"><g id="tx_resource_1hhkw2y4rah3f-fill" stroke="none" fill="#A3A3A3"><g><text style="font: 20px Roboto, sans-serif; white-space: pre;"><tspan x="20.69" y="34" dominant-baseline="ideographic">Resource </tspan><tspan x="32.88" y="58" dominant-baseline="ideographic">Scarcity</tspan></text></g></g></g><g id="g-root-drau_mg31wq51eb65-fill" data-item-order="0" data-item-id="drau_mg31wq51eb65" data-item-class="Icon Stroke SceneTarget Indexed ColorStrokeGray" data-item-index="3" data-renderer-id="0" transform="translate(176, 147)"></g><g id="g-root-hous_v9uq225131u0-fill" data-item-order="0" data-item-id="hous_v9uq225131u0" data-item-class="Icon Stroke SceneTarget Indexed ColorStrokeGray" data-item-index="6" data-renderer-id="0" transform="translate(344, 147)"></g><g id="g-root-tx_marketpl_zjfnmy4rbyfi-fill" data-item-order="0" data-item-id="tx_marketpl_zjfnmy4rbyfi" data-item-class="Label Stroke SceneTarget Indexed ColorStrokeGray" data-item-index="6" data-renderer-id="0" transform="translate(404, 147)"><g id="tx_marketpl_zjfnmy4rbyfi-fill" stroke="none" fill="#A3A3A3"><g><text style="font: 20px Roboto, sans-serif; white-space: pre;"><tspan x="12" y="34" dominant-baseline="ideographic">Marketplace </tspan><tspan x="12" y="58" dominant-baseline="ideographic">Transactions</tspan></text></g></g></g><g id="g-root-tx_economic_zn6i5m4rbwg1-fill" data-item-order="0" data-item-id="tx_economic_zn6i5m4rbwg1" data-item-class="Label Stroke SceneTarget Indexed ColorStrokeGray" data-item-index="none" data-renderer-id="0" transform="translate(50, 291)"><g id="tx_economic_zn6i5m4rbwg1-fill" stroke="none" fill="#A3A3A3"><g><text style="font: 20px Roboto, sans-serif; white-space: pre;"><tspan x="31.82" y="34" dominant-baseline="ideographic">Economic </tspan><tspan x="16.41" y="58" dominant-baseline="ideographic">Sustainability</tspan></text></g></g></g><g id="g-root-tx_revenueg_1luwhuy4rbymi-fill" data-item-order="0" data-item-id="tx_revenueg_1luwhuy4rbymi" data-item-class="Label Stroke SceneTarget Indexed ColorStrokeGray" data-item-index="none" data-renderer-id="0" transform="translate(356, 303)"><g id="tx_revenueg_1luwhuy4rbymi-fill" stroke="none" fill="#A3A3A3"><g><text style="font: 20px Roboto, sans-serif; white-space: pre;"><tspan x="17.26" y="34" dominant-baseline="ideographic">Revenue Generation</tspan></text></g></g></g><g id="g-root-tx_balancin_hxrwx64rbx1n-fill" data-item-order="0" data-item-id="tx_balancin_hxrwx64rbx1n" data-item-class="Label Stroke SceneTarget SceneTitle Title ColorStrokeGray" data-item-index="none" data-renderer-id="0" transform="translate(2, 375)"><g id="tx_balancin_hxrwx64rbx1n-fill" stroke="none" fill="#A3A3A3"><g><text style="font: 20px Roboto, sans-serif; white-space: pre;"><tspan x="12.66" y="34" dominant-baseline="ideographic">Balancing sustainability and revenue in LandRocker's economy.</tspan></text></g></g></g><g id="g-root-5.cu_sy_1czvyp64raive-stroke" data-item-order="-31676" data-item-id="5.cu_sy_1czvyp64raive" data-item-class="ScenePart Part Indexed Stroke ColorFillBlack ColorStrokeBlack" data-item-index="5" data-renderer-id="0" transform="translate(200, 226)"><g id="5.cu_sy_1czvyp64raive-stroke" fill="none" stroke-linecap="round" stroke-linejoin="round" stroke-miterlimit="4" stroke="#666666" stroke-width="2"><g><path d="M 178 10L 178 24.978C 178 29.395 174.42 32.976 170.003 32.978L 107 33M 10 10L 10 25.025C 10 29.444 13.582 33.025 18 33.025L 82 33.025"></path></g></g></g><g id="g-root-4.cu_sy_1czvyp64raivd-stroke" data-item-order="-31675" data-item-id="4.cu_sy_1czvyp64raivd" data-item-class="ScenePart Part Indexed Fill Stroke ColorFillBlack ColorStrokeBlack" data-item-index="4" data-renderer-id="0" transform="translate(272, 237)"><g id="4.cu_sy_1czvyp64raivd-stroke" fill="none" stroke-linecap="round" stroke-linejoin="round" stroke-miterlimit="4" stroke="#666666" stroke-width="2"><g><path d="M 34.086 22C 34.086 28.627 28.695 34 22.043 34C 15.392 34 10 28.627 10 22C 10 15.373 15.392 10 22.043 10C 28.695 10 34.086 15.373 34.086 22ZM 28 22C 28 25.314 25.314 28 22 28C 18.686 28 16 25.314 16 22C 16 18.686 18.686 16 22 16C 25.314 16 28 18.686 28 22Z"></path></g></g></g><g id="g-root-3.cu_sy_1lviyy24rai2o-stroke" data-item-order="-31673" data-item-id="3.cu_sy_1lviyy24rai2o" data-item-class="ScenePart Part Indexed Fill Stroke ColorFillBlack ColorStrokeBlack" data-item-index="3" data-renderer-id="0" transform="translate(236, 258.326171875)"><g id="3.cu_sy_1lviyy24rai2o-stroke" fill="none" stroke-linecap="round" stroke-linejoin="round" stroke-miterlimit="4" stroke="#666666" stroke-width="2"><g><path d="M 22 78.674011L 94 78.674011C 94 78.674011 73.992 28.166011 65.959 10.058011C 63.725 11.952011 61.073 12.997011 58.043 12.997011C 54.986 12.997011 52.288 11.933011 50.072 10.000011C 42.047 28.114011 22 78.674011 22 78.674011ZM 18 78.679011C 13.582 78.679011 10 82.260011 10 86.679011L 10 88.679011C 10 89.783011 10.895 90.679011 12 90.679011L 104 90.679011C 105.105 90.679011 106 89.783011 106 88.679011L 106 86.679011C 106 82.260011 102.418 78.679011 98 78.679011L 18 78.679011Z"></path></g></g><g id="3.cu_sy_1lviyy24rai2o-stroke" fill="none" stroke-linecap="round" stroke-linejoin="round" stroke-miterlimit="4" stroke="#666666" stroke-width="2"><g><path d="M 58 58.679011L 54 62.679011L 54 71.749011C 55.177 71.068011 56.543 70.679011 58 70.679011C 59.457 70.679011 60.823 71.068011 62 71.749011L 62 62.679011L 58 58.679011ZM 62 71.749011C 60.823 71.068011 59.457 70.679011 58 70.679011C 56.543 70.679011 55.177 71.068011 54 71.749011C 51.609 73.132011 50 75.718011 50 78.679011L 66 78.679011C 66 75.718011 64.391 73.132011 62 71.749011ZM 58 49.679011L 58 55.479011M 78.503 58.176011L 74.404 62.274011M 37.497 58.176011L 41.596 62.274011M 64.747 53.468011L 64.003 56.262011M 44.94 56.078011L 46.4 58.591011M 71.031 56.068011L 69.59 58.572011M 51.224 53.478011L 51.978 56.271011"></path></g></g></g><g id="g-root-2.right-bucket_sy_1uqji3u4rajnz-stroke" data-item-order="-31671" data-item-id="2.right-bucket_sy_1uqji3u4rajnz" data-item-class="ScenePart Part Indexed Fill Stroke ColorFillBlack" data-item-index="2" data-renderer-id="0" transform="translate(332, 207)"><g id="2.right-bucket_sy_1uqji3u4rajnz-stroke" fill="none" stroke-linecap="round" stroke-linejoin="round" stroke-miterlimit="4" stroke="#1AC6FF" stroke-width="2"><g><path d="M 10 11.8C 10 10.806 10.806 10 11.8 10L 80.2 10C 81.194 10 82 10.806 82 11.8C 82 20.747 74.747 28 65.8 28L 26.2 28C 17.253 28 10 20.747 10 11.8Z"></path></g></g></g><g id="g-root-1.left-bucket_sy_90vyi24raia6-stroke" data-item-order="-31669" data-item-id="1.left-bucket_sy_90vyi24raia6" data-item-class="ScenePart Part Indexed Indexed_1 Fill Stroke ColorFillBlack" data-item-index="1" data-renderer-id="0" transform="translate(164, 207)"><g id="1.left-bucket_sy_90vyi24raia6-stroke" fill="none" stroke-linecap="round" stroke-linejoin="round" stroke-miterlimit="4" stroke="#44E095" stroke-width="2"><g><path d="M 10 11.8C 10 10.806 10.806 10 11.8 10L 80.2 10C 81.194 10 82 10.806 82 11.8C 82 20.747 74.747 28 65.8 28L 26.2 28C 17.253 28 10 20.747 10 11.8Z"></path></g></g></g><g id="g-root-tx_crafting_i0wacq4rak25-stroke" data-item-order="0" data-item-id="tx_crafting_i0wacq4rak25" data-item-class="Label Stroke SceneTarget Indexed Indexed_1 ColorStrokeGray" data-item-index="1" data-renderer-id="0" transform="translate(8, 3)"></g><g id="g-root-2_13zvdd651frpj-stroke" data-item-order="0" data-item-id="2_13zvdd651frpj" data-item-class="Icon Stroke SceneTarget Indexed Indexed_1 ColorStrokeGray" data-item-index="1" data-renderer-id="0" transform="translate(176, 3)"><g id="2_13zvdd651frpj-stroke" fill="none" stroke-linecap="round" stroke-linejoin="round" stroke-miterlimit="4" stroke="#A3A3A3" stroke-width="2"><g><path d="M 44.028 30.462L 55.574001 18.917999C 56.861122 17.786268 57.412319 16.032806 57.004227 14.368185C 56.596134 12.703564 55.296432 11.403862 53.631813 10.99577C 51.967194 10.587677 50.21373 11.138876 49.081997 12.426L 49.082001 12.426001L 37.538002 23.972ZM 38.674 25.108L 33.464001 30.318001L 33.408001 30.264C 32.213165 29.069992 30.276834 29.069992 29.082001 30.264L 11.082 48.264C 15.846512 48.299927 19.700073 52.153488 19.736 56.917999L 37.736 38.917999C 38.908012 37.743324 38.931068 35.848854 37.788002 34.646L 43 29.434M 22.6 36.753998C 25.016338 34.548447 28.739992 34.633316 31.053339 36.946663C 33.366684 39.26001 33.451553 42.983662 31.246 45.400002"></path></g></g></g><g id="g-root-1_1hjg50q51330q-stroke" data-item-order="0" data-item-id="1_1hjg50q51330q" data-item-class="Icon Stroke SceneTarget Indexed ColorStrokeGray" data-item-index="4" data-renderer-id="0" transform="translate(344, 3)"><g id="1_1hjg50q51330q-stroke" fill="none" stroke-linecap="round" stroke-linejoin="round" stroke-miterlimit="4" stroke="#A3A3A3" stroke-width="2"><g><path d="M 47.917999 14.5L 53.917999 14.5M 41.917999 46.5C 41.917999 47.052284 42.365715 47.5 42.917999 47.5C 43.470284 47.5 43.917999 47.052284 43.917999 46.5C 43.917999 45.947716 43.470284 45.5 42.917999 45.5C 42.365715 45.5 41.917999 45.947716 41.917999 46.5M 45.917999 26.5C 45.917999 27.052284 46.365715 27.5 46.917999 27.5C 47.470284 27.5 47.917999 27.052284 47.917999 26.5C 47.917999 25.947716 47.470284 25.5 46.917999 25.5C 46.365715 25.5 45.917999 25.947716 45.917999 26.5M 33.917999 16.5C 33.917999 17.052284 34.365715 17.5 34.917999 17.5C 35.470284 17.5 35.917999 17.052284 35.917999 16.5C 35.917999 15.947716 35.470284 15.5 34.917999 15.5C 34.365715 15.5 33.917999 15.947716 33.917999 16.5M 23.917999 44.5C 23.917999 45.052284 24.365715 45.5 24.917999 45.5C 25.470284 45.5 25.917999 45.052284 25.917999 44.5C 25.917999 43.947716 25.470284 43.5 24.917999 43.5C 24.365715 43.5 23.917999 43.947716 23.917999 44.5M 43.104 36.346001C 43.160088 36.110798 43.196213 35.871281 43.212002 35.629997C 43.212002 32.071999 38.886002 29.188 33.548 29.188C 28.209999 29.188 23.883999 32.071999 23.883999 35.629997C 23.902412 35.87151 23.941219 36.111031 24 36.346001C 15.288 36.346001 11 38.515999 11 43.146C 11 47.776001 16.577999 50.546001 29.924 50.546001C 32.886135 54.273476 37.376976 56.458965 42.138 56.490002C 50.938 56.490002 57 52.007999 57 46.183998C 57 40.987999 54.728001 36.346001 43.104 36.346001ZM 24 36.346001C 26.905499 38.941196 30.746597 40.234093 34.629997 39.924M 12.918 19.5L 24.917999 19.5M 18.917999 13.5L 18.917999 25.5M 50.917999 11.5L 50.917999 17.5"></path></g></g></g><g id="g-root-tx_crafting_1upajxm4rbvns-stroke" data-item-order="0" data-item-id="tx_crafting_1upajxm4rbvns" data-item-class="Label Stroke SceneTarget Indexed ColorStrokeGray" data-item-index="4" data-renderer-id="0" transform="translate(404, 15)"></g><g id="g-root-tx_playerre_1lyncdm4raih8-stroke" data-item-order="0" data-item-id="tx_playerre_1lyncdm4raih8" data-item-class="Label Stroke SceneTarget Indexed ColorStrokeGray" data-item-index="2" data-renderer-id="0" transform="translate(32, 75)"></g><g id="g-root-saw_m7yvsa51foqu-stroke" data-item-order="0" data-item-id="saw_m7yvsa51foqu" data-item-class="Icon Stroke SceneTarget Indexed ColorStrokeGray" data-item-index="2" data-renderer-id="0" transform="translate(176, 75)"><g id="saw_m7yvsa51foqu-stroke" fill="none" stroke-linecap="round" stroke-linejoin="round" stroke-miterlimit="4" stroke="#A3A3A3" stroke-width="2"><g><path d="M 52.354 11.158C 51.975506 10.922497 51.489128 10.953851 51.144001 11.236L 18.66 37.947998L 29.681999 48.967999L 30.458 40.368L 38.77 40.368C 39.343594 40.367996 39.808895 39.903595 39.809998 39.329998L 39.809998 32.068001L 47.082001 32.068001C 47.357639 32.068531 47.622173 31.959404 47.817268 31.764685C 48.012363 31.569963 48.121998 31.305641 48.121998 31.029999L 48.122002 23.751999L 55.400002 23.751999C 55.973595 23.751999 56.438892 23.287594 56.439999 22.713999L 56.439999 14.278C 56.439846 13.919665 56.254532 13.586852 55.950001 13.398ZM 29.681999 48.967999L 25.186001 55.259998C 24.475737 56.253746 23.364273 56.884724 22.146942 56.985268C 20.929611 57.085812 19.729683 56.645748 18.866001 55.782001L 12.784 49.702C 11.1604 48.078236 11.1604 45.445766 12.784 43.821999L 18.66 37.947998L 29.681999 48.967999M 22.336 50.436001L 17.190001 45.292"></path></g></g></g><g id="g-root-e_18mk6lm5132f5-stroke" data-item-order="0" data-item-id="e_18mk6lm5132f5" data-item-class="Icon Stroke SceneTarget Indexed ColorStrokeGray" data-item-index="5" data-renderer-id="0" transform="translate(344, 75)"><g id="e_18mk6lm5132f5-stroke" fill="none" stroke-linecap="round" stroke-linejoin="round" stroke-miterlimit="4" stroke="#A3A3A3" stroke-width="2"><g><path d="M 14 13L 34 13C 34 13 37 13 37 16L 37 52C 37 52 37 55 34 55L 14 55C 14 55 11 55 11 52L 11 16C 11 16 11 13 14 13M 55 42.382C 54.999989 42.760445 54.786343 43.106457 54.448002 43.276001L 51 45L 51 39L 54 39C 54.552284 39 55 39.447716 55 40ZM 51 39L 51 36C 51 34.346001 57 29 57 29M 51 45L 51 51C 51 53.209141 49.209141 55 47 55C 44.790859 55 43 53.209141 43 51L 43 24C 43 22.343147 41.656853 21 40 21L 37 21M 11 29L 37 29M 16 17L 32 17C 32 17 33 17 33 18L 33 24C 33 24 33 25 32 25L 16 25C 16 25 15 25 15 24L 15 18C 15 18 15 17 16 17M 27 49L 22 49C 20.343147 49 19 47.656857 19 46L 19 36C 19 34.343147 20.343147 33 22 33L 27 33M 19.004 41L 24.004 41"></path></g></g></g><g id="g-root-tx_fuelsale_1hbymay4rby8f-stroke" data-item-order="0" data-item-id="tx_fuelsale_1hbymay4rby8f" data-item-class="Label Stroke SceneTarget Indexed ColorStrokeGray" data-item-index="5" data-renderer-id="0" transform="translate(404, 87)"></g><g id="g-root-tx_resource_1hhkw2y4rah3f-stroke" data-item-order="0" data-item-id="tx_resource_1hhkw2y4rah3f" data-item-class="Label Stroke SceneTarget Indexed ColorStrokeGray" data-item-index="3" data-renderer-id="0" transform="translate(68, 147)"></g><g id="g-root-drau_mg31wq51eb65-stroke" data-item-order="0" data-item-id="drau_mg31wq51eb65" data-item-class="Icon Stroke SceneTarget Indexed ColorStrokeGray" data-item-index="3" data-renderer-id="0" transform="translate(176, 147)"><g id="drau_mg31wq51eb65-stroke" fill="none" stroke-linecap="round" stroke-linejoin="round" stroke-miterlimit="4" stroke="#A3A3A3" stroke-width="2"><g><path d="M 11 57L 57 57M 57 39L 11 39M 15.874001 39L 26 47C 26 47 18.082001 57 18.334 57M 37.5 39L 40.916 48L 34.799999 52.234001C 34.070343 52.742859 33.092293 52.708626 32.400002 52.150002L 26 47L 29 39M 40.916 48L 49 44.402L 57 57M 11 50L 21.25 43.248001M 45 57L 49 44.402L 54.124001 39M 13 20C 13 24.970562 17.029438 29 22 29C 26.970562 29 31 24.970562 31 20C 31 15.029438 26.970562 11 22 11C 17.029438 11 13 15.029438 13 20ZM 47 39L 47 12M 47 24L 51 22L 53 14M 51 22L 57 18M 47 30L 43 28L 41 20M 43 28L 37 24"></path></g></g></g><g id="g-root-hous_v9uq225131u0-stroke" data-item-order="0" data-item-id="hous_v9uq225131u0" data-item-class="Icon Stroke SceneTarget Indexed ColorStrokeGray" data-item-index="6" data-renderer-id="0" transform="translate(344, 147)"><g id="hous_v9uq225131u0-stroke" fill="none" stroke-linecap="round" stroke-linejoin="round" stroke-miterlimit="4" stroke="#A3A3A3" stroke-width="2"><g><path d="M 25.012001 33.25L 25.012001 40.987999C 25.012001 42.092571 25.907431 42.987999 27.011999 42.987999L 35.012001 42.987999C 36.11657 42.987999 37.012001 42.092571 37.012001 40.987999L 37.012001 33.25M 10 10M 23.012001 35L 29.038 29.73C 30.168913 28.740906 31.857088 28.740906 32.987999 29.730001L 39.012001 35M 29.011999 42.987999L 29.011999 38.987999C 29.011999 37.88343 29.907431 36.987999 31.011999 36.987999C 32.11657 36.987999 33.012001 37.88343 33.012001 38.987999L 33.012001 42.987999M 31.011999 50.987999C 23.454849 50.997814 17.253839 45.008202 17.001625 37.455254C 16.749411 29.902306 22.537029 23.51236 30.078001 23.018002C 30.604355 22.983185 31.013149 22.545506 31.011999 22.018L 31.011999 18.018C 31.012371 17.743523 30.899906 17.480961 30.700968 17.291855C 30.502029 17.102749 30.234106 17.003727 29.959999 17.018C 19.202206 17.585491 10.826754 26.571756 11.016679 37.342834C 11.206604 48.113911 19.89366 56.799313 30.664772 56.98719C 41.435883 57.175064 50.420555 48.797901 50.986 38.040001C 51.000275 37.765892 50.901253 37.497971 50.712147 37.299034C 50.523041 37.100094 50.260475 36.987629 49.986 36.987999L 45.986 36.987999C 45.458496 36.986851 45.020813 37.395645 44.986 37.922001C 44.494221 45.27702 38.383438 50.990734 31.012001 50.988003ZM 38.066002 11.014C 37.791557 10.999158 37.523102 11.097926 37.323719 11.287095C 37.124336 11.476264 37.011597 11.739157 37.012001 12.014L 37.012001 16.014C 37.010918 16.542227 37.420853 16.980194 37.947998 17.014C 44.943417 17.482119 50.513885 23.052586 50.982002 30.048C 51.015804 30.575146 51.453773 30.985083 51.981998 30.983999L 55.981998 30.983999C 56.256844 30.984402 56.519737 30.871664 56.708904 30.672279C 56.898075 30.472897 56.996841 30.204443 56.981998 29.93C 56.441849 19.71508 48.280922 11.554151 38.066002 11.014Z"></path></g></g></g><g id="g-root-tx_marketpl_zjfnmy4rbyfi-stroke" data-item-order="0" data-item-id="tx_marketpl_zjfnmy4rbyfi" data-item-class="Label Stroke SceneTarget Indexed ColorStrokeGray" data-item-index="6" data-renderer-id="0" transform="translate(404, 147)"></g><g id="g-root-tx_economic_zn6i5m4rbwg1-stroke" data-item-order="0" data-item-id="tx_economic_zn6i5m4rbwg1" data-item-class="Label Stroke SceneTarget Indexed ColorStrokeGray" data-item-index="none" data-renderer-id="0" transform="translate(50, 291)"></g><g id="g-root-tx_revenueg_1luwhuy4rbymi-stroke" data-item-order="0" data-item-id="tx_revenueg_1luwhuy4rbymi" data-item-class="Label Stroke SceneTarget Indexed ColorStrokeGray" data-item-index="none" data-renderer-id="0" transform="translate(356, 303)"></g><g id="g-root-tx_balancin_hxrwx64rbx1n-stroke" data-item-order="0" data-item-id="tx_balancin_hxrwx64rbx1n" data-item-class="Label Stroke SceneTarget SceneTitle Title ColorStrokeGray" data-item-index="none" data-renderer-id="0" transform="translate(2, 375)"></g></g></g></svg>